<?xml version="1.0" encoding="UTF-8" standalone="no"?>
<!DOCTYPE svg PUBLIC "-//W3C//DTD SVG 1.1//EN"
 "http://www.w3.org/Graphics/SVG/1.1/DTD/svg11.dtd">
<!-- Generated by graphviz version 2.43.0 (0)
 -->
<!-- Title: MeSerial Pages: 1 -->
<svg width="164pt" height="140pt"
 viewBox="0.00 0.00 164.00 140.00" xmlns="http://www.w3.org/2000/svg" xmlns:xlink="http://www.w3.org/1999/xlink">
<g id="graph0" class="graph" transform="scale(1 1) rotate(0) translate(4 136)">
<title>MeSerial</title>
<!-- Node1 -->
<g id="node1" class="node">
<title>Node1</title>
<g id="a_node1"><a xlink:title="Driver for serial.">
<polygon fill="#bfbfbf" stroke="black" points="39,-0.5 39,-19.5 98,-19.5 98,-0.5 39,-0.5"/>
<text text-anchor="middle" x="68.5" y="-7.5" font-family="Helvetica,sans-Serif" font-size="10.00">MeSerial</text>
</a>
</g>
</g>
<!-- Node2 -->
<g id="node2" class="node">
<title>Node2</title>
<g id="a_node2"><a xlink:href="classMePort.html" target="_top" xlink:title="Port Mapping for RJ25.">
<polygon fill="none" stroke="black" points="0,-56.5 0,-75.5 51,-75.5 51,-56.5 0,-56.5"/>
<text text-anchor="middle" x="25.5" y="-63.5" font-family="Helvetica,sans-Serif" font-size="10.00">MePort</text>
</a>
</g>
</g>
<!-- Node2&#45;&gt;Node1 -->
<g id="edge1" class="edge">
<title>Node2&#45;&gt;Node1</title>
<path fill="none" stroke="midnightblue" d="M38.92,-48.14C46.41,-38.74 55.44,-27.4 61.53,-19.75"/>
<polygon fill="midnightblue" stroke="midnightblue" points="36.09,-46.08 32.6,-56.08 41.57,-50.44 36.09,-46.08"/>
</g>
<!-- Node3 -->
<g id="node3" class="node">
<title>Node3</title>
<g id="a_node3"><a xlink:href="classSoftwareSerial.html" target="_top" xlink:title=" ">
<polygon fill="none" stroke="black" points="69,-56.5 69,-75.5 156,-75.5 156,-56.5 69,-56.5"/>
<text text-anchor="middle" x="112.5" y="-63.5" font-family="Helvetica,sans-Serif" font-size="10.00">SoftwareSerial</text>
</a>
</g>
</g>
<!-- Node3&#45;&gt;Node1 -->
<g id="edge2" class="edge">
<title>Node3&#45;&gt;Node1</title>
<path fill="none" stroke="midnightblue" d="M98.77,-48.14C91.1,-38.74 81.87,-27.4 75.63,-19.75"/>
<polygon fill="midnightblue" stroke="midnightblue" points="96.2,-50.54 105.23,-56.08 101.63,-46.12 96.2,-50.54"/>
</g>
<!-- Node4 -->
<g id="node4" class="node">
<title>Node4</title>
<g id="a_node4"><a xlink:title=" ">
<polygon fill="none" stroke="#bfbfbf" points="86.5,-112.5 86.5,-131.5 138.5,-131.5 138.5,-112.5 86.5,-112.5"/>
<text text-anchor="middle" x="112.5" y="-119.5" font-family="Helvetica,sans-Serif" font-size="10.00">Stream</text>
</a>
</g>
</g>
<!-- Node4&#45;&gt;Node3 -->
<g id="edge3" class="edge">
<title>Node4&#45;&gt;Node3</title>
<path fill="none" stroke="midnightblue" d="M112.5,-101.8C112.5,-92.91 112.5,-82.78 112.5,-75.75"/>
<polygon fill="midnightblue" stroke="midnightblue" points="109,-102.08 112.5,-112.08 116,-102.08 109,-102.08"/>
</g>
</g>
</svg>
