<?xml version="1.0" encoding="UTF-8" standalone="no"?>
<!DOCTYPE svg PUBLIC "-//W3C//DTD SVG 1.1//EN"
 "http://www.w3.org/Graphics/SVG/1.1/DTD/svg11.dtd">
<!-- Generated by graphviz version 2.43.0 (0)
 -->
<!-- Title: MePort Pages: 1 -->
<!--zoomable 1092 -->
<svg id="main" version="1.1" xmlns="http://www.w3.org/2000/svg" xmlns:xlink="http://www.w3.org/1999/xlink" xml:space="preserve" onload="init(evt)">
<style type="text/css"><![CDATA[
.edge:hover path { stroke: red; }
.edge:hover polygon { stroke: red; fill: red; }
]]></style>
<script type="text/javascript"><![CDATA[
var edges = document.getElementsByTagName('g');
if (edges && edges.length) {
  for (var i=0;i<edges.length;i++) {
    if (edges[i].id.substr(0,4)=='edge') {
      edges[i].setAttribute('class','edge');
    }
  }
}
]]></script>
        <defs>
                <circle id="rim" cx="0" cy="0" r="7"/>
                <circle id="rim2" cx="0" cy="0" r="3.5"/>
                <g id="zoomPlus">
                        <use xlink:href="#rim" fill="#404040">
                                <set attributeName="fill" to="#808080" begin="zoomplus.mouseover" end="zoomplus.mouseout"/>
                        </use>
                        <path d="M-4,0h8M0,-4v8" fill="none" stroke="white" stroke-width="1.5" pointer-events="none"/>
                </g>
                <g id="zoomMin">
                        <use xlink:href="#rim" fill="#404040">
                                <set attributeName="fill" to="#808080" begin="zoomminus.mouseover" end="zoomminus.mouseout"/>
                        </use>
                        <path d="M-4,0h8" fill="none" stroke="white" stroke-width="1.5" pointer-events="none"/>
                </g>
                <g id="dirArrow">
                        <path fill="none" stroke="white" stroke-width="1.5" d="M0,-3.0v7 M-2.5,-0.5L0,-3.0L2.5,-0.5"/>
                </g>
               <g id="resetDef">
                       <use xlink:href="#rim2" fill="#404040">
                               <set attributeName="fill" to="#808080" begin="reset.mouseover" end="reset.mouseout"/>
                       </use>
               </g>
        </defs>

<script type="text/javascript">
var viewWidth = 375;
var viewHeight = 1092;
var sectionId = 'dynsection-0';
</script>
<script xlink:href="svgpan.js"/>
<svg id="graph" class="graph">
<g id="viewport">
<title>MePort</title>
<!-- Node1 -->
<g id="node1" class="node">
<title>Node1</title>
<g id="a_node1"><a xlink:title="Port Mapping for RJ25.">
<polygon fill="#bfbfbf" stroke="black" points="0,-532.5 0,-551.5 51,-551.5 51,-532.5 0,-532.5"/>
<text text-anchor="middle" x="25.5" y="-539.5" font-family="Helvetica,sans-Serif" font-size="10.00">MePort</text>
</a>
</g>
</g>
<!-- Node2 -->
<g id="node2" class="node">
<title>Node2</title>
<g id="a_node2"><a xlink:href="classMe4Button.html" target="_top" xlink:title="Driver for Me 4 Button module.">
<polygon fill="none" stroke="black" points="117.5,-1064.5 117.5,-1083.5 187.5,-1083.5 187.5,-1064.5 117.5,-1064.5"/>
<text text-anchor="middle" x="152.5" y="-1071.5" font-family="Helvetica,sans-Serif" font-size="10.00">Me4Button</text>
</a>
</g>
</g>
<!-- Node1&#45;&gt;Node2 -->
<g id="edge1" class="edge">
<title>Node1&#45;&gt;Node2</title>
<path fill="none" stroke="midnightblue" d="M26.04,-561.84C24.46,-646.74 22.59,-978.66 87,-1055 94.53,-1063.92 106.02,-1068.77 117.22,-1071.37"/>
<polygon fill="midnightblue" stroke="midnightblue" points="29.54,-561.82 26.25,-551.74 22.54,-561.67 29.54,-561.82"/>
</g>
<!-- Node3 -->
<g id="node3" class="node">
<title>Node3</title>
<g id="a_node3"><a xlink:href="classMe7SegmentDisplay.html" target="_top" xlink:title="Class for numeric display module.">
<polygon fill="none" stroke="black" points="93.5,-1026.5 93.5,-1045.5 211.5,-1045.5 211.5,-1026.5 93.5,-1026.5"/>
<text text-anchor="middle" x="152.5" y="-1033.5" font-family="Helvetica,sans-Serif" font-size="10.00">Me7SegmentDisplay</text>
</a>
</g>
</g>
<!-- Node1&#45;&gt;Node3 -->
<g id="edge2" class="edge">
<title>Node1&#45;&gt;Node3</title>
<path fill="none" stroke="midnightblue" d="M26.24,-562.15C25.62,-643.54 27.4,-947.03 87,-1017 90.25,-1020.82 94.24,-1023.9 98.61,-1026.36"/>
<polygon fill="midnightblue" stroke="midnightblue" points="29.75,-561.84 26.35,-551.81 22.75,-561.77 29.75,-561.84"/>
</g>
<!-- Node4 -->
<g id="node4" class="node">
<title>Node4</title>
<g id="a_node4"><a xlink:href="classMeBuzzer.html" target="_top" xlink:title="Driver for Me Buzzer module.">
<polygon fill="none" stroke="black" points="120,-988.5 120,-1007.5 185,-1007.5 185,-988.5 120,-988.5"/>
<text text-anchor="middle" x="152.5" y="-995.5" font-family="Helvetica,sans-Serif" font-size="10.00">MeBuzzer</text>
</a>
</g>
</g>
<!-- Node1&#45;&gt;Node4 -->
<g id="edge3" class="edge">
<title>Node1&#45;&gt;Node4</title>
<path fill="none" stroke="midnightblue" d="M26.49,-562C26.87,-639.01 32.09,-915.24 87,-979 95.15,-988.46 107.76,-993.34 119.67,-995.8"/>
<polygon fill="midnightblue" stroke="midnightblue" points="29.99,-561.76 26.47,-551.77 22.99,-561.78 29.99,-561.76"/>
</g>
<!-- Node5 -->
<g id="node5" class="node">
<title>Node5</title>
<g id="a_node5"><a xlink:href="classMeColorSensor.html" target="_top" xlink:title="Driver for MeColorSensor module.">
<polygon fill="none" stroke="black" points="107.5,-950.5 107.5,-969.5 197.5,-969.5 197.5,-950.5 107.5,-950.5"/>
<text text-anchor="middle" x="152.5" y="-957.5" font-family="Helvetica,sans-Serif" font-size="10.00">MeColorSensor</text>
</a>
</g>
</g>
<!-- Node1&#45;&gt;Node5 -->
<g id="edge4" class="edge">
<title>Node1&#45;&gt;Node5</title>
<path fill="none" stroke="midnightblue" d="M26.78,-561.64C28.2,-633.85 36.72,-883.37 87,-941 92.37,-947.16 99.63,-951.37 107.34,-954.24"/>
<polygon fill="midnightblue" stroke="midnightblue" points="30.28,-561.57 26.61,-551.63 23.28,-561.69 30.28,-561.57"/>
</g>
<!-- Node6 -->
<g id="node6" class="node">
<title>Node6</title>
<g id="a_node6"><a xlink:href="classMeCompass.html" target="_top" xlink:title="Driver for MeCompass module.">
<polygon fill="none" stroke="black" points="114,-912.5 114,-931.5 191,-931.5 191,-912.5 114,-912.5"/>
<text text-anchor="middle" x="152.5" y="-919.5" font-family="Helvetica,sans-Serif" font-size="10.00">MeCompass</text>
</a>
</g>
</g>
<!-- Node1&#45;&gt;Node6 -->
<g id="edge5" class="edge">
<title>Node1&#45;&gt;Node6</title>
<path fill="none" stroke="midnightblue" d="M27.14,-561.92C29.7,-629.94 41.48,-851.64 87,-903 93.89,-910.78 103.79,-915.44 113.76,-918.22"/>
<polygon fill="midnightblue" stroke="midnightblue" points="30.63,-561.59 26.78,-551.72 23.63,-561.84 30.63,-561.59"/>
</g>
<!-- Node7 -->
<g id="node7" class="node">
<title>Node7</title>
<g id="a_node7"><a xlink:href="classMeDCMotor.html" target="_top" xlink:title="Driver for Me DC motor device.">
<polygon fill="none" stroke="black" points="115.5,-874.5 115.5,-893.5 189.5,-893.5 189.5,-874.5 115.5,-874.5"/>
<text text-anchor="middle" x="152.5" y="-881.5" font-family="Helvetica,sans-Serif" font-size="10.00">MeDCMotor</text>
</a>
</g>
</g>
<!-- Node1&#45;&gt;Node7 -->
<g id="edge6" class="edge">
<title>Node1&#45;&gt;Node7</title>
<path fill="none" stroke="midnightblue" d="M27.56,-561.84C31.34,-624.98 46.13,-819.77 87,-865 94.28,-873.06 104.78,-877.77 115.2,-880.5"/>
<polygon fill="midnightblue" stroke="midnightblue" points="31.04,-561.43 26.98,-551.65 24.06,-561.83 31.04,-561.43"/>
</g>
<!-- Node9 -->
<g id="node9" class="node">
<title>Node9</title>
<g id="a_node9"><a xlink:href="classMeEncoderMotor.html" target="_top" xlink:title="Class for Encoder Motor Driver.">
<polygon fill="none" stroke="black" points="103,-836.5 103,-855.5 202,-855.5 202,-836.5 103,-836.5"/>
<text text-anchor="middle" x="152.5" y="-843.5" font-family="Helvetica,sans-Serif" font-size="10.00">MeEncoderMotor</text>
</a>
</g>
</g>
<!-- Node1&#45;&gt;Node9 -->
<g id="edge8" class="edge">
<title>Node1&#45;&gt;Node9</title>
<path fill="none" stroke="midnightblue" d="M28.1,-561.74C33.17,-619.72 50.76,-787.85 87,-827 91.36,-831.71 96.83,-835.28 102.72,-837.97"/>
<polygon fill="midnightblue" stroke="midnightblue" points="31.58,-561.36 27.25,-551.69 24.6,-561.95 31.58,-561.36"/>
</g>
<!-- Node10 -->
<g id="node10" class="node">
<title>Node10</title>
<g id="a_node10"><a xlink:href="classMeFlameSensor.html" target="_top" xlink:title="Driver for Me flame snesor device.">
<polygon fill="none" stroke="black" points="105,-798.5 105,-817.5 200,-817.5 200,-798.5 105,-798.5"/>
<text text-anchor="middle" x="152.5" y="-805.5" font-family="Helvetica,sans-Serif" font-size="10.00">MeFlameSensor</text>
</a>
</g>
</g>
<!-- Node1&#45;&gt;Node10 -->
<g id="edge9" class="edge">
<title>Node1&#45;&gt;Node10</title>
<path fill="none" stroke="midnightblue" d="M28.81,-561.83C35.31,-614.46 55.4,-755.9 87,-789 91.92,-794.15 98.15,-797.93 104.8,-800.69"/>
<polygon fill="midnightblue" stroke="midnightblue" points="32.26,-561.27 27.59,-551.76 25.31,-562.1 32.26,-561.27"/>
</g>
<!-- Node11 -->
<g id="node11" class="node">
<title>Node11</title>
<g id="a_node11"><a xlink:href="classMeGasSensor.html" target="_top" xlink:title="Driver for Me gas snesor device.">
<polygon fill="none" stroke="black" points="111,-760.5 111,-779.5 194,-779.5 194,-760.5 111,-760.5"/>
<text text-anchor="middle" x="152.5" y="-767.5" font-family="Helvetica,sans-Serif" font-size="10.00">MeGasSensor</text>
</a>
</g>
</g>
<!-- Node1&#45;&gt;Node11 -->
<g id="edge10" class="edge">
<title>Node1&#45;&gt;Node11</title>
<path fill="none" stroke="midnightblue" d="M26.3,-562.08C27.01,-603.38 34.63,-698.38 87,-751 93.51,-757.54 102.14,-761.85 110.97,-764.69"/>
<polygon fill="midnightblue" stroke="midnightblue" points="29.8,-561.92 26.25,-551.94 22.8,-561.95 29.8,-561.92"/>
</g>
<!-- Node12 -->
<g id="node12" class="node">
<title>Node12</title>
<g id="a_node12"><a xlink:href="classMeGyro.html" target="_top" xlink:title="Driver for MeGyro module.">
<polygon fill="none" stroke="black" points="125,-722.5 125,-741.5 180,-741.5 180,-722.5 125,-722.5"/>
<text text-anchor="middle" x="152.5" y="-729.5" font-family="Helvetica,sans-Serif" font-size="10.00">MeGyro</text>
</a>
</g>
</g>
<!-- Node1&#45;&gt;Node12 -->
<g id="edge11" class="edge">
<title>Node1&#45;&gt;Node12</title>
<path fill="none" stroke="midnightblue" d="M27.81,-561.81C31.23,-597.27 43.48,-671.76 87,-713 97.17,-722.64 111.98,-727.41 124.84,-729.77"/>
<polygon fill="midnightblue" stroke="midnightblue" points="31.29,-561.44 26.98,-551.76 24.31,-562.01 31.29,-561.44"/>
</g>
<!-- Node13 -->
<g id="node13" class="node">
<title>Node13</title>
<g id="a_node13"><a xlink:href="classMeHumiture.html" target="_top" xlink:title="Driver for humiture sensor device.">
<polygon fill="none" stroke="black" points="114,-684.5 114,-703.5 191,-703.5 191,-684.5 114,-684.5"/>
<text text-anchor="middle" x="152.5" y="-691.5" font-family="Helvetica,sans-Serif" font-size="10.00">MeHumiture</text>
</a>
</g>
</g>
<!-- Node1&#45;&gt;Node13 -->
<g id="edge12" class="edge">
<title>Node1&#45;&gt;Node13</title>
<path fill="none" stroke="midnightblue" d="M30.11,-561.82C36.45,-590.89 52.34,-644.9 87,-675 94.58,-681.58 104.35,-685.89 113.97,-688.7"/>
<polygon fill="midnightblue" stroke="midnightblue" points="33.48,-560.79 28.07,-551.67 26.61,-562.17 33.48,-560.79"/>
</g>
<!-- Node14 -->
<g id="node14" class="node">
<title>Node14</title>
<g id="a_node14"><a xlink:href="classMeJoystick.html" target="_top" xlink:title="Driver for Me Joystick module.">
<polygon fill="none" stroke="black" points="117.5,-646.5 117.5,-665.5 187.5,-665.5 187.5,-646.5 117.5,-646.5"/>
<text text-anchor="middle" x="152.5" y="-653.5" font-family="Helvetica,sans-Serif" font-size="10.00">MeJoystick</text>
</a>
</g>
</g>
<!-- Node1&#45;&gt;Node14 -->
<g id="edge13" class="edge">
<title>Node1&#45;&gt;Node14</title>
<path fill="none" stroke="midnightblue" d="M33.8,-561.12C42.99,-582.68 60.82,-617.3 87,-637 95.77,-643.6 106.79,-647.91 117.24,-650.73"/>
<polygon fill="midnightblue" stroke="midnightblue" points="36.98,-559.66 29.98,-551.71 30.49,-562.29 36.98,-559.66"/>
</g>
<!-- Node15 -->
<g id="node15" class="node">
<title>Node15</title>
<g id="a_node15"><a xlink:href="classMeLEDMatrix.html" target="_top" xlink:title="Driver for Me LED Matrix module.">
<polygon fill="none" stroke="black" points="111.5,-608.5 111.5,-627.5 193.5,-627.5 193.5,-608.5 111.5,-608.5"/>
<text text-anchor="middle" x="152.5" y="-615.5" font-family="Helvetica,sans-Serif" font-size="10.00">MeLEDMatrix</text>
</a>
</g>
</g>
<!-- Node1&#45;&gt;Node15 -->
<g id="edge14" class="edge">
<title>Node1&#45;&gt;Node15</title>
<path fill="none" stroke="midnightblue" d="M40.67,-559.15C52,-571.83 68.93,-588.63 87,-599 94.49,-603.3 103.04,-606.7 111.41,-609.37"/>
<polygon fill="midnightblue" stroke="midnightblue" points="43.26,-556.79 34.08,-551.52 37.97,-561.37 43.26,-556.79"/>
</g>
<!-- Node16 -->
<g id="node16" class="node">
<title>Node16</title>
<g id="a_node16"><a xlink:href="classMeLightSensor.html" target="_top" xlink:title="Driver for Me&#45;Light Sensor module.">
<polygon fill="none" stroke="black" points="108,-570.5 108,-589.5 197,-589.5 197,-570.5 108,-570.5"/>
<text text-anchor="middle" x="152.5" y="-577.5" font-family="Helvetica,sans-Serif" font-size="10.00">MeLightSensor</text>
</a>
</g>
</g>
<!-- Node1&#45;&gt;Node16 -->
<g id="edge15" class="edge">
<title>Node1&#45;&gt;Node16</title>
<path fill="none" stroke="midnightblue" d="M60.86,-552.91C69.39,-555.58 78.52,-558.42 87,-561 97.27,-564.13 108.49,-567.46 118.65,-570.45"/>
<polygon fill="midnightblue" stroke="midnightblue" points="61.78,-549.53 51.2,-549.86 59.68,-556.21 61.78,-549.53"/>
</g>
<!-- Node17 -->
<g id="node17" class="node">
<title>Node17</title>
<g id="a_node17"><a xlink:href="classMeLimitSwitch.html" target="_top" xlink:title="Driver for Me_LimitSwitch module.">
<polygon fill="none" stroke="black" points="108,-532.5 108,-551.5 197,-551.5 197,-532.5 108,-532.5"/>
<text text-anchor="middle" x="152.5" y="-539.5" font-family="Helvetica,sans-Serif" font-size="10.00">MeLimitSwitch</text>
</a>
</g>
</g>
<!-- Node1&#45;&gt;Node17 -->
<g id="edge16" class="edge">
<title>Node1&#45;&gt;Node17</title>
<path fill="none" stroke="midnightblue" d="M61.22,-542C75.67,-542 92.6,-542 107.88,-542"/>
<polygon fill="midnightblue" stroke="midnightblue" points="61.2,-538.5 51.2,-542 61.2,-545.5 61.2,-538.5"/>
</g>
<!-- Node18 -->
<g id="node18" class="node">
<title>Node18</title>
<g id="a_node18"><a xlink:href="classMeLineFollower.html" target="_top" xlink:title="Driver for Me line follwer device.">
<polygon fill="none" stroke="black" points="106,-494.5 106,-513.5 199,-513.5 199,-494.5 106,-494.5"/>
<text text-anchor="middle" x="152.5" y="-501.5" font-family="Helvetica,sans-Serif" font-size="10.00">MeLineFollower</text>
</a>
</g>
</g>
<!-- Node1&#45;&gt;Node18 -->
<g id="edge17" class="edge">
<title>Node1&#45;&gt;Node18</title>
<path fill="none" stroke="midnightblue" d="M60.86,-531.09C69.39,-528.42 78.52,-525.58 87,-523 97.27,-519.87 108.49,-516.54 118.65,-513.55"/>
<polygon fill="midnightblue" stroke="midnightblue" points="59.68,-527.79 51.2,-534.14 61.78,-534.47 59.68,-527.79"/>
</g>
<!-- Node19 -->
<g id="node19" class="node">
<title>Node19</title>
<g id="a_node19"><a xlink:href="classMeMegaPiPro4DcMotor.html" target="_top" xlink:title="Driver for Me DC motor device.">
<polygon fill="none" stroke="black" points="87,-456.5 87,-475.5 218,-475.5 218,-456.5 87,-456.5"/>
<text text-anchor="middle" x="152.5" y="-463.5" font-family="Helvetica,sans-Serif" font-size="10.00">MeMegaPiPro4DcMotor</text>
</a>
</g>
</g>
<!-- Node1&#45;&gt;Node19 -->
<g id="edge18" class="edge">
<title>Node1&#45;&gt;Node19</title>
<path fill="none" stroke="midnightblue" d="M40.67,-524.85C52,-512.17 68.93,-495.37 87,-485 93.68,-481.16 101.21,-478.04 108.69,-475.52"/>
<polygon fill="midnightblue" stroke="midnightblue" points="37.97,-522.63 34.08,-532.48 43.26,-527.21 37.97,-522.63"/>
</g>
<!-- Node20 -->
<g id="node20" class="node">
<title>Node20</title>
<g id="a_node20"><a xlink:href="classMeOnBoardTemp.html" target="_top" xlink:title="Driver for Auriga On Board Temperature device.">
<polygon fill="none" stroke="black" points="102.5,-418.5 102.5,-437.5 202.5,-437.5 202.5,-418.5 102.5,-418.5"/>
<text text-anchor="middle" x="152.5" y="-425.5" font-family="Helvetica,sans-Serif" font-size="10.00">MeOnBoardTemp</text>
</a>
</g>
</g>
<!-- Node1&#45;&gt;Node20 -->
<g id="edge19" class="edge">
<title>Node1&#45;&gt;Node20</title>
<path fill="none" stroke="midnightblue" d="M33.8,-522.88C42.99,-501.32 60.82,-466.7 87,-447 92.13,-443.14 98.03,-440.06 104.14,-437.61"/>
<polygon fill="midnightblue" stroke="midnightblue" points="30.49,-521.71 29.98,-532.29 36.98,-524.34 30.49,-521.71"/>
</g>
<!-- Node21 -->
<g id="node21" class="node">
<title>Node21</title>
<g id="a_node21"><a xlink:href="classMePIRMotionSensor.html" target="_top" xlink:title="Driver for Me PIR Motion Sensor module.">
<polygon fill="none" stroke="black" points="95.5,-380.5 95.5,-399.5 209.5,-399.5 209.5,-380.5 95.5,-380.5"/>
<text text-anchor="middle" x="152.5" y="-387.5" font-family="Helvetica,sans-Serif" font-size="10.00">MePIRMotionSensor</text>
</a>
</g>
</g>
<!-- Node1&#45;&gt;Node21 -->
<g id="edge20" class="edge">
<title>Node1&#45;&gt;Node21</title>
<path fill="none" stroke="midnightblue" d="M30.11,-522.18C36.45,-493.11 52.34,-439.1 87,-409 91.49,-405.1 96.76,-401.99 102.31,-399.53"/>
<polygon fill="midnightblue" stroke="midnightblue" points="26.61,-521.83 28.07,-532.33 33.48,-523.21 26.61,-521.83"/>
</g>
<!-- Node22 -->
<g id="node22" class="node">
<title>Node22</title>
<g id="a_node22"><a xlink:href="classMePotentiometer.html" target="_top" xlink:title="Driver for Me potentiometer module.">
<polygon fill="none" stroke="black" points="102,-342.5 102,-361.5 203,-361.5 203,-342.5 102,-342.5"/>
<text text-anchor="middle" x="152.5" y="-349.5" font-family="Helvetica,sans-Serif" font-size="10.00">MePotentiometer</text>
</a>
</g>
</g>
<!-- Node1&#45;&gt;Node22 -->
<g id="edge21" class="edge">
<title>Node1&#45;&gt;Node22</title>
<path fill="none" stroke="midnightblue" d="M27.81,-522.19C31.23,-486.73 43.48,-412.24 87,-371 91.32,-366.9 96.48,-363.69 101.97,-361.16"/>
<polygon fill="midnightblue" stroke="midnightblue" points="24.31,-521.99 26.98,-532.24 31.29,-522.56 24.31,-521.99"/>
</g>
<!-- Node23 -->
<g id="node23" class="node">
<title>Node23</title>
<g id="a_node23"><a xlink:href="classMeRGBLed.html" target="_top" xlink:title="Driver for W2812 full&#45;color LED.">
<polygon fill="none" stroke="black" points="117.5,-304.5 117.5,-323.5 187.5,-323.5 187.5,-304.5 117.5,-304.5"/>
<text text-anchor="middle" x="152.5" y="-311.5" font-family="Helvetica,sans-Serif" font-size="10.00">MeRGBLed</text>
</a>
</g>
</g>
<!-- Node1&#45;&gt;Node23 -->
<g id="edge22" class="edge">
<title>Node1&#45;&gt;Node23</title>
<path fill="none" stroke="midnightblue" d="M26.3,-521.92C27.01,-480.62 34.63,-385.62 87,-333 95.07,-324.89 106.41,-320.21 117.34,-317.51"/>
<polygon fill="midnightblue" stroke="midnightblue" points="22.8,-522.05 26.25,-532.06 29.8,-522.08 22.8,-522.05"/>
</g>
<!-- Node24 -->
<g id="node24" class="node">
<title>Node24</title>
<g id="a_node24"><a xlink:href="classMeSerial.html" target="_top" xlink:title="Driver for serial.">
<polygon fill="none" stroke="black" points="123,-266.5 123,-285.5 182,-285.5 182,-266.5 123,-266.5"/>
<text text-anchor="middle" x="152.5" y="-273.5" font-family="Helvetica,sans-Serif" font-size="10.00">MeSerial</text>
</a>
</g>
</g>
<!-- Node1&#45;&gt;Node24 -->
<g id="edge23" class="edge">
<title>Node1&#45;&gt;Node24</title>
<path fill="none" stroke="midnightblue" d="M28.81,-522.17C35.31,-469.54 55.4,-328.1 87,-295 96.27,-285.29 110.23,-280.47 122.79,-278.11"/>
<polygon fill="midnightblue" stroke="midnightblue" points="25.31,-521.9 27.59,-532.24 32.26,-522.73 25.31,-521.9"/>
</g>
<!-- Node32 -->
<g id="node32" class="node">
<title>Node32</title>
<g id="a_node32"><a xlink:href="classMeShutter.html" target="_top" xlink:title="Driver for Me Shutter device.">
<polygon fill="none" stroke="black" points="119,-228.5 119,-247.5 186,-247.5 186,-228.5 119,-228.5"/>
<text text-anchor="middle" x="152.5" y="-235.5" font-family="Helvetica,sans-Serif" font-size="10.00">MeShutter</text>
</a>
</g>
</g>
<!-- Node1&#45;&gt;Node32 -->
<g id="edge31" class="edge">
<title>Node1&#45;&gt;Node32</title>
<path fill="none" stroke="midnightblue" d="M28.1,-522.26C33.17,-464.28 50.76,-296.15 87,-257 95.17,-248.18 107.2,-243.38 118.67,-240.79"/>
<polygon fill="midnightblue" stroke="midnightblue" points="24.6,-522.05 27.25,-532.31 31.58,-522.64 24.6,-522.05"/>
</g>
<!-- Node33 -->
<g id="node33" class="node">
<title>Node33</title>
<g id="a_node33"><a xlink:href="classMeSoundSensor.html" target="_top" xlink:title="Driver for Me sound sensor device.">
<polygon fill="none" stroke="black" points="105,-190.5 105,-209.5 200,-209.5 200,-190.5 105,-190.5"/>
<text text-anchor="middle" x="152.5" y="-197.5" font-family="Helvetica,sans-Serif" font-size="10.00">MeSoundSensor</text>
</a>
</g>
</g>
<!-- Node1&#45;&gt;Node33 -->
<g id="edge32" class="edge">
<title>Node1&#45;&gt;Node33</title>
<path fill="none" stroke="midnightblue" d="M27.56,-522.16C31.34,-459.02 46.13,-264.23 87,-219 91.85,-213.63 98.14,-209.75 104.88,-206.94"/>
<polygon fill="midnightblue" stroke="midnightblue" points="24.06,-522.17 26.98,-532.35 31.04,-522.57 24.06,-522.17"/>
</g>
<!-- Node34 -->
<g id="node34" class="node">
<title>Node34</title>
<g id="a_node34"><a xlink:href="classMeStepper.html" target="_top" xlink:title="Driver for Me Stepper device.">
<polygon fill="none" stroke="black" points="118,-152.5 118,-171.5 187,-171.5 187,-152.5 118,-152.5"/>
<text text-anchor="middle" x="152.5" y="-159.5" font-family="Helvetica,sans-Serif" font-size="10.00">MeStepper</text>
</a>
</g>
</g>
<!-- Node1&#45;&gt;Node34 -->
<g id="edge33" class="edge">
<title>Node1&#45;&gt;Node34</title>
<path fill="none" stroke="midnightblue" d="M27.14,-522.08C29.7,-454.06 41.48,-232.36 87,-181 94.82,-172.18 106.51,-167.36 117.8,-164.76"/>
<polygon fill="midnightblue" stroke="midnightblue" points="23.63,-522.16 26.78,-532.28 30.63,-522.41 23.63,-522.16"/>
</g>
<!-- Node35 -->
<g id="node35" class="node">
<title>Node35</title>
<g id="a_node35"><a xlink:href="classMeTemperature.html" target="_top" xlink:title="Driver for temperature sensor device.">
<polygon fill="none" stroke="black" points="106,-114.5 106,-133.5 199,-133.5 199,-114.5 106,-114.5"/>
<text text-anchor="middle" x="152.5" y="-121.5" font-family="Helvetica,sans-Serif" font-size="10.00">MeTemperature</text>
</a>
</g>
</g>
<!-- Node1&#45;&gt;Node35 -->
<g id="edge34" class="edge">
<title>Node1&#45;&gt;Node35</title>
<path fill="none" stroke="midnightblue" d="M26.78,-522.36C28.2,-450.15 36.72,-200.63 87,-143 91.99,-137.28 98.6,-133.24 105.69,-130.4"/>
<polygon fill="midnightblue" stroke="midnightblue" points="23.28,-522.31 26.61,-532.37 30.28,-522.43 23.28,-522.31"/>
</g>
<!-- Node36 -->
<g id="node36" class="node">
<title>Node36</title>
<g id="a_node36"><a xlink:href="classMeTouchSensor.html" target="_top" xlink:title="Driver for Me touch sensor device.">
<polygon fill="none" stroke="black" points="106.5,-76.5 106.5,-95.5 198.5,-95.5 198.5,-76.5 106.5,-76.5"/>
<text text-anchor="middle" x="152.5" y="-83.5" font-family="Helvetica,sans-Serif" font-size="10.00">MeTouchSensor</text>
</a>
</g>
</g>
<!-- Node1&#45;&gt;Node36 -->
<g id="edge35" class="edge">
<title>Node1&#45;&gt;Node36</title>
<path fill="none" stroke="midnightblue" d="M26.49,-522C26.87,-444.99 32.09,-168.76 87,-105 92.1,-99.07 98.95,-94.95 106.29,-92.09"/>
<polygon fill="midnightblue" stroke="midnightblue" points="22.99,-522.22 26.47,-532.23 29.99,-522.24 22.99,-522.22"/>
</g>
<!-- Node37 -->
<g id="node37" class="node">
<title>Node37</title>
<g id="a_node37"><a xlink:href="classMeUSBHost.html" target="_top" xlink:title="Driver for Me USB Host module.">
<polygon fill="none" stroke="black" points="115.5,-38.5 115.5,-57.5 189.5,-57.5 189.5,-38.5 115.5,-38.5"/>
<text text-anchor="middle" x="152.5" y="-45.5" font-family="Helvetica,sans-Serif" font-size="10.00">MeUSBHost</text>
</a>
</g>
</g>
<!-- Node1&#45;&gt;Node37 -->
<g id="edge36" class="edge">
<title>Node1&#45;&gt;Node37</title>
<path fill="none" stroke="midnightblue" d="M26.24,-521.85C25.62,-440.46 27.4,-136.97 87,-67 94.12,-58.65 104.7,-53.87 115.25,-51.16"/>
<polygon fill="midnightblue" stroke="midnightblue" points="22.75,-522.23 26.35,-532.19 29.75,-522.16 22.75,-522.23"/>
</g>
<!-- Node38 -->
<g id="node38" class="node">
<title>Node38</title>
<g id="a_node38"><a xlink:href="classMeUltrasonicSensor.html" target="_top" xlink:title="Driver for Me ultrasonic sensor device.">
<polygon fill="none" stroke="black" points="95.5,-0.5 95.5,-19.5 209.5,-19.5 209.5,-0.5 95.5,-0.5"/>
<text text-anchor="middle" x="152.5" y="-7.5" font-family="Helvetica,sans-Serif" font-size="10.00">MeUltrasonicSensor</text>
</a>
</g>
</g>
<!-- Node1&#45;&gt;Node38 -->
<g id="edge37" class="edge">
<title>Node1&#45;&gt;Node38</title>
<path fill="none" stroke="midnightblue" d="M26.04,-522.16C24.46,-437.26 22.59,-105.34 87,-29 90.24,-25.16 94.21,-22.08 98.57,-19.6"/>
<polygon fill="midnightblue" stroke="midnightblue" points="22.54,-522.33 26.25,-532.26 29.54,-522.18 22.54,-522.33"/>
</g>
<!-- Node8 -->
<g id="node8" class="node">
<title>Node8</title>
<g id="a_node8"><a xlink:href="classMBotDCMotor.html" target="_top" xlink:title=" ">
<polygon fill="none" stroke="black" points="268,-874.5 268,-893.5 353,-893.5 353,-874.5 268,-874.5"/>
<text text-anchor="middle" x="310.5" y="-881.5" font-family="Helvetica,sans-Serif" font-size="10.00">MBotDCMotor</text>
</a>
</g>
</g>
<!-- Node7&#45;&gt;Node8 -->
<g id="edge7" class="edge">
<title>Node7&#45;&gt;Node8</title>
<path fill="none" stroke="midnightblue" d="M199.9,-884C221.42,-884 246.8,-884 267.72,-884"/>
<polygon fill="midnightblue" stroke="midnightblue" points="199.68,-880.5 189.68,-884 199.68,-887.5 199.68,-880.5"/>
</g>
<!-- Node25 -->
<g id="node25" class="node">
<title>Node25</title>
<g id="a_node25"><a xlink:href="classMeBluetooth.html" target="_top" xlink:title="Driver for Me Bluetooth device.">
<polygon fill="none" stroke="black" points="271,-380.5 271,-399.5 350,-399.5 350,-380.5 271,-380.5"/>
<text text-anchor="middle" x="310.5" y="-387.5" font-family="Helvetica,sans-Serif" font-size="10.00">MeBluetooth</text>
</a>
</g>
</g>
<!-- Node24&#45;&gt;Node25 -->
<g id="edge24" class="edge">
<title>Node24&#45;&gt;Node25</title>
<path fill="none" stroke="midnightblue" d="M191.97,-281.68C201.27,-284.49 210.64,-288.7 218,-295 246.41,-319.29 226.13,-346.1 254,-371 258.86,-375.34 264.76,-378.7 270.87,-381.3"/>
<polygon fill="midnightblue" stroke="midnightblue" points="192.56,-278.22 182.01,-279.14 190.83,-285 192.56,-278.22"/>
</g>
<!-- Node26 -->
<g id="node26" class="node">
<title>Node26</title>
<g id="a_node26"><a xlink:href="classMeInfraredReceiver.html" target="_top" xlink:title="Driver for Me Infrared Receiver device.">
<polygon fill="none" stroke="black" points="254,-342.5 254,-361.5 367,-361.5 367,-342.5 254,-342.5"/>
<text text-anchor="middle" x="310.5" y="-349.5" font-family="Helvetica,sans-Serif" font-size="10.00">MeInfraredReceiver</text>
</a>
</g>
</g>
<!-- Node24&#45;&gt;Node26 -->
<g id="edge25" class="edge">
<title>Node24&#45;&gt;Node26</title>
<path fill="none" stroke="midnightblue" d="M192.02,-283.76C200.94,-286.51 210.12,-290.17 218,-295 237.84,-307.15 234.43,-320.42 254,-333 259.91,-336.8 266.67,-339.93 273.39,-342.48"/>
<polygon fill="midnightblue" stroke="midnightblue" points="192.72,-280.32 182.14,-281.03 190.85,-287.07 192.72,-280.32"/>
</g>
<!-- Node27 -->
<g id="node27" class="node">
<title>Node27</title>
<g id="a_node27"><a xlink:href="classMePS2.html" target="_top" xlink:title="Driver for MePS2 handle device.">
<polygon fill="none" stroke="black" points="285.5,-304.5 285.5,-323.5 335.5,-323.5 335.5,-304.5 285.5,-304.5"/>
<text text-anchor="middle" x="310.5" y="-311.5" font-family="Helvetica,sans-Serif" font-size="10.00">MePS2</text>
</a>
</g>
</g>
<!-- Node24&#45;&gt;Node27 -->
<g id="edge26" class="edge">
<title>Node24&#45;&gt;Node27</title>
<path fill="none" stroke="midnightblue" d="M191.96,-285.37C221.09,-292.47 260.23,-302 285.17,-308.07"/>
<polygon fill="midnightblue" stroke="midnightblue" points="192.66,-281.94 182.11,-282.97 191,-288.74 192.66,-281.94"/>
</g>
<!-- Node28 -->
<g id="node28" class="node">
<title>Node28</title>
<g id="a_node28"><a xlink:href="classMePm25Sensor.html" target="_top" xlink:title="Driver for Me PM2.5 sensor device.">
<polygon fill="none" stroke="black" points="264.5,-266.5 264.5,-285.5 356.5,-285.5 356.5,-266.5 264.5,-266.5"/>
<text text-anchor="middle" x="310.5" y="-273.5" font-family="Helvetica,sans-Serif" font-size="10.00">MePm25Sensor</text>
</a>
</g>
</g>
<!-- Node24&#45;&gt;Node28 -->
<g id="edge27" class="edge">
<title>Node24&#45;&gt;Node28</title>
<path fill="none" stroke="midnightblue" d="M192.33,-276C214.13,-276 241.45,-276 264.22,-276"/>
<polygon fill="midnightblue" stroke="midnightblue" points="192.11,-272.5 182.11,-276 192.11,-279.5 192.11,-272.5"/>
</g>
<!-- Node29 -->
<g id="node29" class="node">
<title>Node29</title>
<g id="a_node29"><a xlink:href="classMeSmartServo.html" target="_top" xlink:title="Driver for Me Smart Servo device.">
<polygon fill="none" stroke="black" points="266,-228.5 266,-247.5 355,-247.5 355,-228.5 266,-228.5"/>
<text text-anchor="middle" x="310.5" y="-235.5" font-family="Helvetica,sans-Serif" font-size="10.00">MeSmartServo</text>
</a>
</g>
</g>
<!-- Node24&#45;&gt;Node29 -->
<g id="edge28" class="edge">
<title>Node24&#45;&gt;Node29</title>
<path fill="none" stroke="midnightblue" d="M191.91,-266.64C215.81,-260.82 246.47,-253.35 270.49,-247.5"/>
<polygon fill="midnightblue" stroke="midnightblue" points="191,-263.26 182.11,-269.03 192.66,-270.06 191,-263.26"/>
</g>
<!-- Node30 -->
<g id="node30" class="node">
<title>Node30</title>
<g id="a_node30"><a xlink:href="classMeVoice.html" target="_top" xlink:title="Driver for Me voice device.">
<polygon fill="none" stroke="black" points="281.5,-190.5 281.5,-209.5 339.5,-209.5 339.5,-190.5 281.5,-190.5"/>
<text text-anchor="middle" x="310.5" y="-197.5" font-family="Helvetica,sans-Serif" font-size="10.00">MeVoice</text>
</a>
</g>
</g>
<!-- Node24&#45;&gt;Node30 -->
<g id="edge29" class="edge">
<title>Node24&#45;&gt;Node30</title>
<path fill="none" stroke="midnightblue" d="M192.02,-268.24C200.94,-265.49 210.12,-261.83 218,-257 237.84,-244.85 234.43,-231.58 254,-219 262.31,-213.66 272.29,-209.64 281.48,-206.7"/>
<polygon fill="midnightblue" stroke="midnightblue" points="190.85,-264.93 182.14,-270.97 192.72,-271.68 190.85,-264.93"/>
</g>
<!-- Node31 -->
<g id="node31" class="node">
<title>Node31</title>
<g id="a_node31"><a xlink:href="classMeWifi.html" target="_top" xlink:title="Driver for Me wifi device.">
<polygon fill="none" stroke="black" points="285.5,-152.5 285.5,-171.5 335.5,-171.5 335.5,-152.5 285.5,-152.5"/>
<text text-anchor="middle" x="310.5" y="-159.5" font-family="Helvetica,sans-Serif" font-size="10.00">MeWifi</text>
</a>
</g>
</g>
<!-- Node24&#45;&gt;Node31 -->
<g id="edge30" class="edge">
<title>Node24&#45;&gt;Node31</title>
<path fill="none" stroke="midnightblue" d="M191.97,-270.32C201.27,-267.51 210.64,-263.3 218,-257 246.41,-232.71 226.13,-205.9 254,-181 262.73,-173.2 274.82,-168.57 285.49,-165.84"/>
<polygon fill="midnightblue" stroke="midnightblue" points="190.83,-267 182.01,-272.86 192.56,-273.78 190.83,-267"/>
</g>
</g>
</svg>
        <g id="navigator" transform="translate(0 0)" fill="#404254">
                <rect fill="#f2f5e9" fill-opacity="0.5" stroke="#606060" stroke-width=".5" x="0" y="0" width="60" height="60"/>
                <use id="zoomplus" xlink:href="#zoomPlus" x="17" y="9" onmousedown="handleZoom(evt,'in')"/>
                <use id="zoomminus" xlink:href="#zoomMin" x="42" y="9" onmousedown="handleZoom(evt,'out')"/>
                <use id="reset" xlink:href="#resetDef" x="30" y="36" onmousedown="handleReset()"/>
                <g id="arrowUp" xlink:href="#dirArrow" transform="translate(30 24)" onmousedown="handlePan(0,-1)">
                  <use xlink:href="#rim" fill="#404040">
                        <set attributeName="fill" to="#808080" begin="arrowUp.mouseover" end="arrowUp.mouseout"/>
                  </use>
                  <path fill="none" stroke="white" stroke-width="1.5" d="M0,-3.0v7 M-2.5,-0.5L0,-3.0L2.5,-0.5"/>
                </g>
                <g id="arrowRight" xlink:href="#dirArrow" transform="rotate(90) translate(36 -43)" onmousedown="handlePan(1,0)">
                  <use xlink:href="#rim" fill="#404040">
                        <set attributeName="fill" to="#808080" begin="arrowRight.mouseover" end="arrowRight.mouseout"/>
                  </use>
                  <path fill="none" stroke="white" stroke-width="1.5" d="M0,-3.0v7 M-2.5,-0.5L0,-3.0L2.5,-0.5"/>
                </g>
                <g id="arrowDown" xlink:href="#dirArrow" transform="rotate(180) translate(-30 -48)" onmousedown="handlePan(0,1)">
                  <use xlink:href="#rim" fill="#404040">
                        <set attributeName="fill" to="#808080" begin="arrowDown.mouseover" end="arrowDown.mouseout"/>
                  </use>
                  <path fill="none" stroke="white" stroke-width="1.5" d="M0,-3.0v7 M-2.5,-0.5L0,-3.0L2.5,-0.5"/>
                </g>
                <g id="arrowLeft" xlink:href="#dirArrow" transform="rotate(270) translate(-36 17)" onmousedown="handlePan(-1,0)">
                  <use xlink:href="#rim" fill="#404040">
                        <set attributeName="fill" to="#808080" begin="arrowLeft.mouseover" end="arrowLeft.mouseout"/>
                  </use>
                  <path fill="none" stroke="white" stroke-width="1.5" d="M0,-3.0v7 M-2.5,-0.5L0,-3.0L2.5,-0.5"/>
                </g>
        </g>
        <svg viewBox="0 0 15 15" width="100%" height="30px" preserveAspectRatio="xMaxYMin meet">
         <g id="arrow_out" transform="scale(0.3 0.3)">
          <a xlink:href="classMePort__inherit__graph_org.svg" target="_base">
           <rect id="button" ry="5" rx="5" y="6" x="6" height="38" width="38"
                fill="#f2f5e9" fill-opacity="0.5" stroke="#606060" stroke-width="1.0"/>
           <path id="arrow"
             d="M 11.500037,31.436501 C 11.940474,20.09759 22.043105,11.32322 32.158766,21.979434 L 37.068811,17.246167 C 37.068811,17.246167 37.088388,32 37.088388,32 L 22.160133,31.978069 C 22.160133,31.978069 26.997745,27.140456 26.997745,27.140456 C 18.528582,18.264221 13.291696,25.230495 11.500037,31.436501 z"
             style="fill:#404040;"/>
          </a>
         </g>
        </svg>
</svg>
