<?xml version="1.0" encoding="UTF-8" standalone="no"?>
<!DOCTYPE svg PUBLIC "-//W3C//DTD SVG 1.1//EN"
 "http://www.w3.org/Graphics/SVG/1.1/DTD/svg11.dtd">
<!-- Generated by graphviz version 2.43.0 (0)
 -->
<!-- Title: Graphical Class Hierarchy Pages: 1 -->
<svg width="499pt" height="1206pt"
 viewBox="0.00 0.00 499.00 1206.00" xmlns="http://www.w3.org/2000/svg" xmlns:xlink="http://www.w3.org/1999/xlink">
<g id="graph0" class="graph" transform="scale(1 1) rotate(0) translate(4 1202)">
<title>Graphical Class Hierarchy</title>
<!-- Node0 -->
<g id="node1" class="node">
<title>Node0</title>
<g id="a_node1"><a xlink:href="classMePort.html" target="_top" xlink:title="Port Mapping for RJ25.">
<polygon fill="none" stroke="black" points="106,-646.5 106,-665.5 157,-665.5 157,-646.5 106,-646.5"/>
<text text-anchor="middle" x="131.5" y="-653.5" font-family="Helvetica,sans-Serif" font-size="10.00">MePort</text>
</a>
</g>
</g>
<!-- Node1 -->
<g id="node2" class="node">
<title>Node1</title>
<g id="a_node2"><a xlink:href="classMe4Button.html" target="_top" xlink:title="Driver for Me 4 Button module.">
<polygon fill="none" stroke="black" points="241.5,-1178.5 241.5,-1197.5 311.5,-1197.5 311.5,-1178.5 241.5,-1178.5"/>
<text text-anchor="middle" x="276.5" y="-1185.5" font-family="Helvetica,sans-Serif" font-size="10.00">Me4Button</text>
</a>
</g>
</g>
<!-- Node0&#45;&gt;Node1 -->
<g id="edge1" class="edge">
<title>Node0&#45;&gt;Node1</title>
<path fill="none" stroke="midnightblue" d="M132.79,-675.88C134.42,-760.94 144.97,-1093.43 211,-1169 218.68,-1177.79 230.2,-1182.61 241.39,-1185.23"/>
<polygon fill="midnightblue" stroke="midnightblue" points="136.28,-675.7 132.61,-665.76 129.29,-675.82 136.28,-675.7"/>
</g>
<!-- Node2 -->
<g id="node3" class="node">
<title>Node2</title>
<g id="a_node3"><a xlink:href="classMe7SegmentDisplay.html" target="_top" xlink:title="Class for numeric display module.">
<polygon fill="none" stroke="black" points="217.5,-1140.5 217.5,-1159.5 335.5,-1159.5 335.5,-1140.5 217.5,-1140.5"/>
<text text-anchor="middle" x="276.5" y="-1147.5" font-family="Helvetica,sans-Serif" font-size="10.00">Me7SegmentDisplay</text>
</a>
</g>
</g>
<!-- Node0&#45;&gt;Node2 -->
<g id="edge2" class="edge">
<title>Node0&#45;&gt;Node2</title>
<path fill="none" stroke="midnightblue" d="M133.07,-676.19C135.75,-757.74 149.78,-1061.77 211,-1131 214.4,-1134.85 218.54,-1137.93 223.06,-1140.41"/>
<polygon fill="midnightblue" stroke="midnightblue" points="136.55,-675.71 132.75,-665.83 129.56,-675.93 136.55,-675.71"/>
</g>
<!-- Node3 -->
<g id="node4" class="node">
<title>Node3</title>
<g id="a_node4"><a xlink:href="classMeBuzzer.html" target="_top" xlink:title="Driver for Me Buzzer module.">
<polygon fill="none" stroke="black" points="244,-1102.5 244,-1121.5 309,-1121.5 309,-1102.5 244,-1102.5"/>
<text text-anchor="middle" x="276.5" y="-1109.5" font-family="Helvetica,sans-Serif" font-size="10.00">MeBuzzer</text>
</a>
</g>
</g>
<!-- Node0&#45;&gt;Node3 -->
<g id="edge3" class="edge">
<title>Node0&#45;&gt;Node3</title>
<path fill="none" stroke="midnightblue" d="M133.38,-676.04C137.15,-753.21 154.46,-1029.95 211,-1093 219.34,-1102.3 231.98,-1107.14 243.86,-1109.63"/>
<polygon fill="midnightblue" stroke="midnightblue" points="136.86,-675.62 132.9,-665.79 129.87,-675.94 136.86,-675.62"/>
</g>
<!-- Node4 -->
<g id="node5" class="node">
<title>Node4</title>
<g id="a_node5"><a xlink:href="classMeColorSensor.html" target="_top" xlink:title="Driver for MeColorSensor module.">
<polygon fill="none" stroke="black" points="231.5,-1064.5 231.5,-1083.5 321.5,-1083.5 321.5,-1064.5 231.5,-1064.5"/>
<text text-anchor="middle" x="276.5" y="-1071.5" font-family="Helvetica,sans-Serif" font-size="10.00">MeColorSensor</text>
</a>
</g>
</g>
<!-- Node0&#45;&gt;Node4 -->
<g id="edge4" class="edge">
<title>Node0&#45;&gt;Node4</title>
<path fill="none" stroke="midnightblue" d="M133.73,-675.69C138.62,-748.05 159.08,-998.05 211,-1055 216.43,-1060.95 223.61,-1065.08 231.22,-1067.92"/>
<polygon fill="midnightblue" stroke="midnightblue" points="137.22,-675.41 133.07,-665.65 130.23,-675.86 137.22,-675.41"/>
</g>
<!-- Node5 -->
<g id="node6" class="node">
<title>Node5</title>
<g id="a_node6"><a xlink:href="classMeCompass.html" target="_top" xlink:title="Driver for MeCompass module.">
<polygon fill="none" stroke="black" points="238,-1026.5 238,-1045.5 315,-1045.5 315,-1026.5 238,-1026.5"/>
<text text-anchor="middle" x="276.5" y="-1033.5" font-family="Helvetica,sans-Serif" font-size="10.00">MeCompass</text>
</a>
</g>
</g>
<!-- Node0&#45;&gt;Node5 -->
<g id="edge5" class="edge">
<title>Node0&#45;&gt;Node5</title>
<path fill="none" stroke="midnightblue" d="M134.19,-675.97C140.37,-744.14 163.82,-966.28 211,-1017 218,-1024.52 227.8,-1029.12 237.66,-1031.91"/>
<polygon fill="midnightblue" stroke="midnightblue" points="137.66,-675.4 133.3,-665.74 130.69,-676.01 137.66,-675.4"/>
</g>
<!-- Node6 -->
<g id="node7" class="node">
<title>Node6</title>
<g id="a_node7"><a xlink:href="classMeDCMotor.html" target="_top" xlink:title="Driver for Me DC motor device.">
<polygon fill="none" stroke="black" points="239.5,-988.5 239.5,-1007.5 313.5,-1007.5 313.5,-988.5 239.5,-988.5"/>
<text text-anchor="middle" x="276.5" y="-995.5" font-family="Helvetica,sans-Serif" font-size="10.00">MeDCMotor</text>
</a>
</g>
</g>
<!-- Node0&#45;&gt;Node6 -->
<g id="edge6" class="edge">
<title>Node0&#45;&gt;Node6</title>
<path fill="none" stroke="midnightblue" d="M134.74,-675.89C142.24,-739.17 168.46,-934.36 211,-979 218.49,-986.86 229.05,-991.52 239.46,-994.26"/>
<polygon fill="midnightblue" stroke="midnightblue" points="138.18,-675.2 133.55,-665.67 131.23,-676.01 138.18,-675.2"/>
</g>
<!-- Node8 -->
<g id="node9" class="node">
<title>Node8</title>
<g id="a_node9"><a xlink:href="classMeEncoderMotor.html" target="_top" xlink:title="Class for Encoder Motor Driver.">
<polygon fill="none" stroke="black" points="227,-950.5 227,-969.5 326,-969.5 326,-950.5 227,-950.5"/>
<text text-anchor="middle" x="276.5" y="-957.5" font-family="Helvetica,sans-Serif" font-size="10.00">MeEncoderMotor</text>
</a>
</g>
</g>
<!-- Node0&#45;&gt;Node8 -->
<g id="edge8" class="edge">
<title>Node0&#45;&gt;Node8</title>
<path fill="none" stroke="midnightblue" d="M131.83,-675.79C131.23,-727.1 136.93,-865.61 211,-941 215.5,-945.58 221.04,-949.07 226.97,-951.72"/>
<polygon fill="midnightblue" stroke="midnightblue" points="135.33,-675.79 132.05,-665.71 128.34,-675.64 135.33,-675.79"/>
</g>
<!-- Node9 -->
<g id="node10" class="node">
<title>Node9</title>
<g id="a_node10"><a xlink:href="classMeFlameSensor.html" target="_top" xlink:title="Driver for Me flame snesor device.">
<polygon fill="none" stroke="black" points="229,-912.5 229,-931.5 324,-931.5 324,-912.5 229,-912.5"/>
<text text-anchor="middle" x="276.5" y="-919.5" font-family="Helvetica,sans-Serif" font-size="10.00">MeFlameSensor</text>
</a>
</g>
</g>
<!-- Node0&#45;&gt;Node9 -->
<g id="edge9" class="edge">
<title>Node0&#45;&gt;Node9</title>
<path fill="none" stroke="midnightblue" d="M132.84,-675.92C134.74,-722.52 146.09,-839.45 211,-903 216.01,-907.9 222.21,-911.55 228.77,-914.26"/>
<polygon fill="midnightblue" stroke="midnightblue" points="136.33,-675.56 132.53,-665.67 129.33,-675.77 136.33,-675.56"/>
</g>
<!-- Node10 -->
<g id="node11" class="node">
<title>Node10</title>
<g id="a_node11"><a xlink:href="classMeGasSensor.html" target="_top" xlink:title="Driver for Me gas snesor device.">
<polygon fill="none" stroke="black" points="235,-874.5 235,-893.5 318,-893.5 318,-874.5 235,-874.5"/>
<text text-anchor="middle" x="276.5" y="-881.5" font-family="Helvetica,sans-Serif" font-size="10.00">MeGasSensor</text>
</a>
</g>
</g>
<!-- Node0&#45;&gt;Node10 -->
<g id="edge10" class="edge">
<title>Node0&#45;&gt;Node10</title>
<path fill="none" stroke="midnightblue" d="M134.15,-675.63C138.67,-716.84 154.95,-812.89 211,-865 217.67,-871.2 226.26,-875.39 234.99,-878.21"/>
<polygon fill="midnightblue" stroke="midnightblue" points="137.62,-675.15 133.16,-665.54 130.65,-675.83 137.62,-675.15"/>
</g>
<!-- Node11 -->
<g id="node12" class="node">
<title>Node11</title>
<g id="a_node12"><a xlink:href="classMeGyro.html" target="_top" xlink:title="Driver for MeGyro module.">
<polygon fill="none" stroke="black" points="249,-836.5 249,-855.5 304,-855.5 304,-836.5 249,-836.5"/>
<text text-anchor="middle" x="276.5" y="-843.5" font-family="Helvetica,sans-Serif" font-size="10.00">MeGyro</text>
</a>
</g>
</g>
<!-- Node0&#45;&gt;Node11 -->
<g id="edge11" class="edge">
<title>Node0&#45;&gt;Node11</title>
<path fill="none" stroke="midnightblue" d="M136.06,-675.92C143.48,-711.55 163.97,-786.3 211,-827 221.5,-836.09 236.18,-840.84 248.88,-843.31"/>
<polygon fill="midnightblue" stroke="midnightblue" points="139.44,-674.96 134.09,-665.81 132.57,-676.3 139.44,-674.96"/>
</g>
<!-- Node12 -->
<g id="node13" class="node">
<title>Node12</title>
<g id="a_node13"><a xlink:href="classMeHumiture.html" target="_top" xlink:title="Driver for humiture sensor device.">
<polygon fill="none" stroke="black" points="238,-798.5 238,-817.5 315,-817.5 315,-798.5 238,-798.5"/>
<text text-anchor="middle" x="276.5" y="-805.5" font-family="Helvetica,sans-Serif" font-size="10.00">MeHumiture</text>
</a>
</g>
</g>
<!-- Node0&#45;&gt;Node12 -->
<g id="edge12" class="edge">
<title>Node0&#45;&gt;Node12</title>
<path fill="none" stroke="midnightblue" d="M138.78,-675.5C149.13,-704.57 172.56,-759.04 211,-789 218.73,-795.03 228.34,-799.15 237.75,-801.96"/>
<polygon fill="midnightblue" stroke="midnightblue" points="141.98,-674.05 135.44,-665.71 135.35,-676.3 141.98,-674.05"/>
</g>
<!-- Node13 -->
<g id="node14" class="node">
<title>Node13</title>
<g id="a_node14"><a xlink:href="classMeJoystick.html" target="_top" xlink:title="Driver for Me Joystick module.">
<polygon fill="none" stroke="black" points="241.5,-760.5 241.5,-779.5 311.5,-779.5 311.5,-760.5 241.5,-760.5"/>
<text text-anchor="middle" x="276.5" y="-767.5" font-family="Helvetica,sans-Serif" font-size="10.00">MeJoystick</text>
</a>
</g>
</g>
<!-- Node0&#45;&gt;Node13 -->
<g id="edge13" class="edge">
<title>Node0&#45;&gt;Node13</title>
<path fill="none" stroke="midnightblue" d="M143.06,-674.52C156.25,-696.02 180.8,-731.07 211,-751 220.06,-756.98 231.05,-761.12 241.37,-763.97"/>
<polygon fill="midnightblue" stroke="midnightblue" points="145.93,-672.51 137.82,-665.7 139.91,-676.08 145.93,-672.51"/>
</g>
<!-- Node14 -->
<g id="node15" class="node">
<title>Node14</title>
<g id="a_node15"><a xlink:href="classMeLEDMatrix.html" target="_top" xlink:title="Driver for Me LED Matrix module.">
<polygon fill="none" stroke="black" points="235.5,-722.5 235.5,-741.5 317.5,-741.5 317.5,-722.5 235.5,-722.5"/>
<text text-anchor="middle" x="276.5" y="-729.5" font-family="Helvetica,sans-Serif" font-size="10.00">MeLEDMatrix</text>
</a>
</g>
</g>
<!-- Node0&#45;&gt;Node14 -->
<g id="edge14" class="edge">
<title>Node0&#45;&gt;Node14</title>
<path fill="none" stroke="midnightblue" d="M150.79,-672.09C166,-684.74 188.69,-702.02 211,-713 218.65,-716.76 227.18,-719.92 235.46,-722.52"/>
<polygon fill="midnightblue" stroke="midnightblue" points="153.05,-669.41 143.16,-665.6 148.51,-674.74 153.05,-669.41"/>
</g>
<!-- Node15 -->
<g id="node16" class="node">
<title>Node15</title>
<g id="a_node16"><a xlink:href="classMeLightSensor.html" target="_top" xlink:title="Driver for Me&#45;Light Sensor module.">
<polygon fill="none" stroke="black" points="232,-684.5 232,-703.5 321,-703.5 321,-684.5 232,-684.5"/>
<text text-anchor="middle" x="276.5" y="-691.5" font-family="Helvetica,sans-Serif" font-size="10.00">MeLightSensor</text>
</a>
</g>
</g>
<!-- Node0&#45;&gt;Node15 -->
<g id="edge15" class="edge">
<title>Node0&#45;&gt;Node15</title>
<path fill="none" stroke="midnightblue" d="M167,-665.17C189.01,-671.02 217.48,-678.58 239.73,-684.49"/>
<polygon fill="midnightblue" stroke="midnightblue" points="167.65,-661.72 157.08,-662.53 165.85,-668.48 167.65,-661.72"/>
</g>
<!-- Node16 -->
<g id="node17" class="node">
<title>Node16</title>
<g id="a_node17"><a xlink:href="classMeLimitSwitch.html" target="_top" xlink:title="Driver for Me_LimitSwitch module.">
<polygon fill="none" stroke="black" points="232,-646.5 232,-665.5 321,-665.5 321,-646.5 232,-646.5"/>
<text text-anchor="middle" x="276.5" y="-653.5" font-family="Helvetica,sans-Serif" font-size="10.00">MeLimitSwitch</text>
</a>
</g>
</g>
<!-- Node0&#45;&gt;Node16 -->
<g id="edge16" class="edge">
<title>Node0&#45;&gt;Node16</title>
<path fill="none" stroke="midnightblue" d="M167.32,-656C186.78,-656 211.2,-656 231.91,-656"/>
<polygon fill="midnightblue" stroke="midnightblue" points="167.08,-652.5 157.08,-656 167.08,-659.5 167.08,-652.5"/>
</g>
<!-- Node17 -->
<g id="node18" class="node">
<title>Node17</title>
<g id="a_node18"><a xlink:href="classMeLineFollower.html" target="_top" xlink:title="Driver for Me line follwer device.">
<polygon fill="none" stroke="black" points="230,-608.5 230,-627.5 323,-627.5 323,-608.5 230,-608.5"/>
<text text-anchor="middle" x="276.5" y="-615.5" font-family="Helvetica,sans-Serif" font-size="10.00">MeLineFollower</text>
</a>
</g>
</g>
<!-- Node0&#45;&gt;Node17 -->
<g id="edge17" class="edge">
<title>Node0&#45;&gt;Node17</title>
<path fill="none" stroke="midnightblue" d="M167,-646.83C189.01,-640.98 217.48,-633.42 239.73,-627.51"/>
<polygon fill="midnightblue" stroke="midnightblue" points="165.85,-643.52 157.08,-649.47 167.65,-650.28 165.85,-643.52"/>
</g>
<!-- Node18 -->
<g id="node19" class="node">
<title>Node18</title>
<g id="a_node19"><a xlink:href="classMeMegaPiPro4DcMotor.html" target="_top" xlink:title="Driver for Me DC motor device.">
<polygon fill="none" stroke="black" points="211,-570.5 211,-589.5 342,-589.5 342,-570.5 211,-570.5"/>
<text text-anchor="middle" x="276.5" y="-577.5" font-family="Helvetica,sans-Serif" font-size="10.00">MeMegaPiPro4DcMotor</text>
</a>
</g>
</g>
<!-- Node0&#45;&gt;Node18 -->
<g id="edge18" class="edge">
<title>Node0&#45;&gt;Node18</title>
<path fill="none" stroke="midnightblue" d="M150.79,-639.91C166,-627.26 188.69,-609.98 211,-599 218.54,-595.29 226.94,-592.16 235.12,-589.59"/>
<polygon fill="midnightblue" stroke="midnightblue" points="148.51,-637.26 143.16,-646.4 153.05,-642.59 148.51,-637.26"/>
</g>
<!-- Node19 -->
<g id="node20" class="node">
<title>Node19</title>
<g id="a_node20"><a xlink:href="classMeOnBoardTemp.html" target="_top" xlink:title="Driver for Auriga On Board Temperature device.">
<polygon fill="none" stroke="black" points="226.5,-532.5 226.5,-551.5 326.5,-551.5 326.5,-532.5 226.5,-532.5"/>
<text text-anchor="middle" x="276.5" y="-539.5" font-family="Helvetica,sans-Serif" font-size="10.00">MeOnBoardTemp</text>
</a>
</g>
</g>
<!-- Node0&#45;&gt;Node19 -->
<g id="edge19" class="edge">
<title>Node0&#45;&gt;Node19</title>
<path fill="none" stroke="midnightblue" d="M143.06,-637.48C156.25,-615.98 180.8,-580.93 211,-561 216.85,-557.14 223.49,-554.05 230.25,-551.57"/>
<polygon fill="midnightblue" stroke="midnightblue" points="139.91,-635.92 137.82,-646.3 145.93,-639.49 139.91,-635.92"/>
</g>
<!-- Node20 -->
<g id="node21" class="node">
<title>Node20</title>
<g id="a_node21"><a xlink:href="classMePIRMotionSensor.html" target="_top" xlink:title="Driver for Me PIR Motion Sensor module.">
<polygon fill="none" stroke="black" points="219.5,-494.5 219.5,-513.5 333.5,-513.5 333.5,-494.5 219.5,-494.5"/>
<text text-anchor="middle" x="276.5" y="-501.5" font-family="Helvetica,sans-Serif" font-size="10.00">MePIRMotionSensor</text>
</a>
</g>
</g>
<!-- Node0&#45;&gt;Node20 -->
<g id="edge20" class="edge">
<title>Node0&#45;&gt;Node20</title>
<path fill="none" stroke="midnightblue" d="M138.78,-636.5C149.13,-607.43 172.56,-552.96 211,-523 215.97,-519.12 221.72,-516.04 227.69,-513.58"/>
<polygon fill="midnightblue" stroke="midnightblue" points="135.35,-635.7 135.44,-646.29 141.98,-637.95 135.35,-635.7"/>
</g>
<!-- Node21 -->
<g id="node22" class="node">
<title>Node21</title>
<g id="a_node22"><a xlink:href="classMePotentiometer.html" target="_top" xlink:title="Driver for Me potentiometer module.">
<polygon fill="none" stroke="black" points="226,-456.5 226,-475.5 327,-475.5 327,-456.5 226,-456.5"/>
<text text-anchor="middle" x="276.5" y="-463.5" font-family="Helvetica,sans-Serif" font-size="10.00">MePotentiometer</text>
</a>
</g>
</g>
<!-- Node0&#45;&gt;Node21 -->
<g id="edge21" class="edge">
<title>Node0&#45;&gt;Node21</title>
<path fill="none" stroke="midnightblue" d="M136.06,-636.08C143.48,-600.45 163.97,-525.7 211,-485 215.5,-481.1 220.77,-478.01 226.32,-475.54"/>
<polygon fill="midnightblue" stroke="midnightblue" points="132.57,-635.7 134.09,-646.19 139.44,-637.04 132.57,-635.7"/>
</g>
<!-- Node22 -->
<g id="node23" class="node">
<title>Node22</title>
<g id="a_node23"><a xlink:href="classMeRGBLed.html" target="_top" xlink:title="Driver for W2812 full&#45;color LED.">
<polygon fill="none" stroke="black" points="241.5,-418.5 241.5,-437.5 311.5,-437.5 311.5,-418.5 241.5,-418.5"/>
<text text-anchor="middle" x="276.5" y="-425.5" font-family="Helvetica,sans-Serif" font-size="10.00">MeRGBLed</text>
</a>
</g>
</g>
<!-- Node0&#45;&gt;Node22 -->
<g id="edge22" class="edge">
<title>Node0&#45;&gt;Node22</title>
<path fill="none" stroke="midnightblue" d="M134.15,-636.37C138.67,-595.16 154.95,-499.11 211,-447 219.29,-439.29 230.56,-434.69 241.36,-431.96"/>
<polygon fill="midnightblue" stroke="midnightblue" points="130.65,-636.17 133.16,-646.46 137.62,-636.85 130.65,-636.17"/>
</g>
<!-- Node23 -->
<g id="node24" class="node">
<title>Node23</title>
<g id="a_node24"><a xlink:href="classMeSerial.html" target="_top" xlink:title="Driver for serial.">
<polygon fill="none" stroke="black" points="247,-114.5 247,-133.5 306,-133.5 306,-114.5 247,-114.5"/>
<text text-anchor="middle" x="276.5" y="-121.5" font-family="Helvetica,sans-Serif" font-size="10.00">MeSerial</text>
</a>
</g>
</g>
<!-- Node0&#45;&gt;Node23 -->
<g id="edge23" class="edge">
<title>Node0&#45;&gt;Node23</title>
<path fill="none" stroke="midnightblue" d="M132.79,-636.12C134.42,-551.06 144.97,-218.57 211,-143 219.91,-132.8 233.99,-127.95 246.72,-125.68"/>
<polygon fill="midnightblue" stroke="midnightblue" points="129.29,-636.18 132.61,-646.24 136.28,-636.3 129.29,-636.18"/>
</g>
<!-- Node31 -->
<g id="node32" class="node">
<title>Node31</title>
<g id="a_node32"><a xlink:href="classMeShutter.html" target="_top" xlink:title="Driver for Me Shutter device.">
<polygon fill="none" stroke="black" points="243,-380.5 243,-399.5 310,-399.5 310,-380.5 243,-380.5"/>
<text text-anchor="middle" x="276.5" y="-387.5" font-family="Helvetica,sans-Serif" font-size="10.00">MeShutter</text>
</a>
</g>
</g>
<!-- Node0&#45;&gt;Node31 -->
<g id="edge31" class="edge">
<title>Node0&#45;&gt;Node31</title>
<path fill="none" stroke="midnightblue" d="M132.84,-636.08C134.74,-589.48 146.09,-472.55 211,-409 219.51,-400.67 231.48,-395.96 242.8,-393.31"/>
<polygon fill="midnightblue" stroke="midnightblue" points="129.33,-636.23 132.53,-646.33 136.33,-636.44 129.33,-636.23"/>
</g>
<!-- Node32 -->
<g id="node33" class="node">
<title>Node32</title>
<g id="a_node33"><a xlink:href="classMeSoundSensor.html" target="_top" xlink:title="Driver for Me sound sensor device.">
<polygon fill="none" stroke="black" points="229,-342.5 229,-361.5 324,-361.5 324,-342.5 229,-342.5"/>
<text text-anchor="middle" x="276.5" y="-349.5" font-family="Helvetica,sans-Serif" font-size="10.00">MeSoundSensor</text>
</a>
</g>
</g>
<!-- Node0&#45;&gt;Node32 -->
<g id="edge32" class="edge">
<title>Node0&#45;&gt;Node32</title>
<path fill="none" stroke="midnightblue" d="M131.83,-636.21C131.23,-584.9 136.93,-446.39 211,-371 215.99,-365.92 222.26,-362.18 228.93,-359.44"/>
<polygon fill="midnightblue" stroke="midnightblue" points="128.34,-636.36 132.05,-646.29 135.33,-636.21 128.34,-636.36"/>
</g>
<!-- Node33 -->
<g id="node34" class="node">
<title>Node33</title>
<g id="a_node34"><a xlink:href="classMeStepper.html" target="_top" xlink:title="Driver for Me Stepper device.">
<polygon fill="none" stroke="black" points="242,-304.5 242,-323.5 311,-323.5 311,-304.5 242,-304.5"/>
<text text-anchor="middle" x="276.5" y="-311.5" font-family="Helvetica,sans-Serif" font-size="10.00">MeStepper</text>
</a>
</g>
</g>
<!-- Node0&#45;&gt;Node33 -->
<g id="edge33" class="edge">
<title>Node0&#45;&gt;Node33</title>
<path fill="none" stroke="midnightblue" d="M134.74,-636.11C142.24,-572.83 168.46,-377.64 211,-333 219.05,-324.55 230.66,-319.8 241.81,-317.15"/>
<polygon fill="midnightblue" stroke="midnightblue" points="131.23,-635.99 133.55,-646.33 138.18,-636.8 131.23,-635.99"/>
</g>
<!-- Node34 -->
<g id="node35" class="node">
<title>Node34</title>
<g id="a_node35"><a xlink:href="classMeTemperature.html" target="_top" xlink:title="Driver for temperature sensor device.">
<polygon fill="none" stroke="black" points="230,-266.5 230,-285.5 323,-285.5 323,-266.5 230,-266.5"/>
<text text-anchor="middle" x="276.5" y="-273.5" font-family="Helvetica,sans-Serif" font-size="10.00">MeTemperature</text>
</a>
</g>
</g>
<!-- Node0&#45;&gt;Node34 -->
<g id="edge34" class="edge">
<title>Node0&#45;&gt;Node34</title>
<path fill="none" stroke="midnightblue" d="M134.19,-636.03C140.37,-567.86 163.82,-345.72 211,-295 216.17,-289.44 222.87,-285.48 229.99,-282.67"/>
<polygon fill="midnightblue" stroke="midnightblue" points="130.69,-635.99 133.3,-646.26 137.66,-636.6 130.69,-635.99"/>
</g>
<!-- Node35 -->
<g id="node36" class="node">
<title>Node35</title>
<g id="a_node36"><a xlink:href="classMeTouchSensor.html" target="_top" xlink:title="Driver for Me touch sensor device.">
<polygon fill="none" stroke="black" points="230.5,-228.5 230.5,-247.5 322.5,-247.5 322.5,-228.5 230.5,-228.5"/>
<text text-anchor="middle" x="276.5" y="-235.5" font-family="Helvetica,sans-Serif" font-size="10.00">MeTouchSensor</text>
</a>
</g>
</g>
<!-- Node0&#45;&gt;Node35 -->
<g id="edge35" class="edge">
<title>Node0&#45;&gt;Node35</title>
<path fill="none" stroke="midnightblue" d="M133.73,-636.31C138.62,-563.95 159.08,-313.95 211,-257 216.19,-251.31 222.99,-247.29 230.23,-244.45"/>
<polygon fill="midnightblue" stroke="midnightblue" points="130.23,-636.14 133.07,-646.35 137.22,-636.59 130.23,-636.14"/>
</g>
<!-- Node36 -->
<g id="node37" class="node">
<title>Node36</title>
<g id="a_node37"><a xlink:href="classMeUSBHost.html" target="_top" xlink:title="Driver for Me USB Host module.">
<polygon fill="none" stroke="black" points="239.5,-190.5 239.5,-209.5 313.5,-209.5 313.5,-190.5 239.5,-190.5"/>
<text text-anchor="middle" x="276.5" y="-197.5" font-family="Helvetica,sans-Serif" font-size="10.00">MeUSBHost</text>
</a>
</g>
</g>
<!-- Node0&#45;&gt;Node36 -->
<g id="edge36" class="edge">
<title>Node0&#45;&gt;Node36</title>
<path fill="none" stroke="midnightblue" d="M133.38,-635.96C137.15,-558.79 154.46,-282.05 211,-219 218.25,-210.92 228.74,-206.2 239.17,-203.47"/>
<polygon fill="midnightblue" stroke="midnightblue" points="129.87,-636.06 132.9,-646.21 136.86,-636.38 129.87,-636.06"/>
</g>
<!-- Node37 -->
<g id="node38" class="node">
<title>Node37</title>
<g id="a_node38"><a xlink:href="classMeUltrasonicSensor.html" target="_top" xlink:title="Driver for Me ultrasonic sensor device.">
<polygon fill="none" stroke="black" points="219.5,-152.5 219.5,-171.5 333.5,-171.5 333.5,-152.5 219.5,-152.5"/>
<text text-anchor="middle" x="276.5" y="-159.5" font-family="Helvetica,sans-Serif" font-size="10.00">MeUltrasonicSensor</text>
</a>
</g>
</g>
<!-- Node0&#45;&gt;Node37 -->
<g id="edge37" class="edge">
<title>Node0&#45;&gt;Node37</title>
<path fill="none" stroke="midnightblue" d="M133.07,-635.81C135.75,-554.26 149.78,-250.23 211,-181 214.4,-177.15 218.54,-174.07 223.06,-171.59"/>
<polygon fill="midnightblue" stroke="midnightblue" points="129.56,-636.07 132.75,-646.17 136.55,-636.29 129.56,-636.07"/>
</g>
<!-- Node7 -->
<g id="node8" class="node">
<title>Node7</title>
<g id="a_node8"><a xlink:href="classMBotDCMotor.html" target="_top" xlink:title=" ">
<polygon fill="none" stroke="black" points="392,-988.5 392,-1007.5 477,-1007.5 477,-988.5 392,-988.5"/>
<text text-anchor="middle" x="434.5" y="-995.5" font-family="Helvetica,sans-Serif" font-size="10.00">MBotDCMotor</text>
</a>
</g>
</g>
<!-- Node6&#45;&gt;Node7 -->
<g id="edge7" class="edge">
<title>Node6&#45;&gt;Node7</title>
<path fill="none" stroke="midnightblue" d="M323.9,-998C345.42,-998 370.8,-998 391.72,-998"/>
<polygon fill="midnightblue" stroke="midnightblue" points="323.68,-994.5 313.68,-998 323.68,-1001.5 323.68,-994.5"/>
</g>
<!-- Node24 -->
<g id="node25" class="node">
<title>Node24</title>
<g id="a_node25"><a xlink:href="classMeBluetooth.html" target="_top" xlink:title="Driver for Me Bluetooth device.">
<polygon fill="none" stroke="black" points="395,-228.5 395,-247.5 474,-247.5 474,-228.5 395,-228.5"/>
<text text-anchor="middle" x="434.5" y="-235.5" font-family="Helvetica,sans-Serif" font-size="10.00">MeBluetooth</text>
</a>
</g>
</g>
<!-- Node23&#45;&gt;Node24 -->
<g id="edge24" class="edge">
<title>Node23&#45;&gt;Node24</title>
<path fill="none" stroke="midnightblue" d="M315.97,-129.68C325.27,-132.49 334.64,-136.7 342,-143 370.41,-167.29 350.13,-194.1 378,-219 382.86,-223.34 388.76,-226.7 394.87,-229.3"/>
<polygon fill="midnightblue" stroke="midnightblue" points="316.56,-126.22 306.01,-127.14 314.83,-133 316.56,-126.22"/>
</g>
<!-- Node25 -->
<g id="node26" class="node">
<title>Node25</title>
<g id="a_node26"><a xlink:href="classMeInfraredReceiver.html" target="_top" xlink:title="Driver for Me Infrared Receiver device.">
<polygon fill="none" stroke="black" points="378,-190.5 378,-209.5 491,-209.5 491,-190.5 378,-190.5"/>
<text text-anchor="middle" x="434.5" y="-197.5" font-family="Helvetica,sans-Serif" font-size="10.00">MeInfraredReceiver</text>
</a>
</g>
</g>
<!-- Node23&#45;&gt;Node25 -->
<g id="edge25" class="edge">
<title>Node23&#45;&gt;Node25</title>
<path fill="none" stroke="midnightblue" d="M316.02,-131.76C324.94,-134.51 334.12,-138.17 342,-143 361.84,-155.15 358.43,-168.42 378,-181 383.91,-184.8 390.67,-187.93 397.39,-190.48"/>
<polygon fill="midnightblue" stroke="midnightblue" points="316.72,-128.32 306.14,-129.03 314.85,-135.07 316.72,-128.32"/>
</g>
<!-- Node26 -->
<g id="node27" class="node">
<title>Node26</title>
<g id="a_node27"><a xlink:href="classMePS2.html" target="_top" xlink:title="Driver for MePS2 handle device.">
<polygon fill="none" stroke="black" points="409.5,-152.5 409.5,-171.5 459.5,-171.5 459.5,-152.5 409.5,-152.5"/>
<text text-anchor="middle" x="434.5" y="-159.5" font-family="Helvetica,sans-Serif" font-size="10.00">MePS2</text>
</a>
</g>
</g>
<!-- Node23&#45;&gt;Node26 -->
<g id="edge26" class="edge">
<title>Node23&#45;&gt;Node26</title>
<path fill="none" stroke="midnightblue" d="M315.96,-133.37C345.09,-140.47 384.23,-150 409.17,-156.07"/>
<polygon fill="midnightblue" stroke="midnightblue" points="316.66,-129.94 306.11,-130.97 315,-136.74 316.66,-129.94"/>
</g>
<!-- Node27 -->
<g id="node28" class="node">
<title>Node27</title>
<g id="a_node28"><a xlink:href="classMePm25Sensor.html" target="_top" xlink:title="Driver for Me PM2.5 sensor device.">
<polygon fill="none" stroke="black" points="388.5,-114.5 388.5,-133.5 480.5,-133.5 480.5,-114.5 388.5,-114.5"/>
<text text-anchor="middle" x="434.5" y="-121.5" font-family="Helvetica,sans-Serif" font-size="10.00">MePm25Sensor</text>
</a>
</g>
</g>
<!-- Node23&#45;&gt;Node27 -->
<g id="edge27" class="edge">
<title>Node23&#45;&gt;Node27</title>
<path fill="none" stroke="midnightblue" d="M316.33,-124C338.13,-124 365.45,-124 388.22,-124"/>
<polygon fill="midnightblue" stroke="midnightblue" points="316.11,-120.5 306.11,-124 316.11,-127.5 316.11,-120.5"/>
</g>
<!-- Node28 -->
<g id="node29" class="node">
<title>Node28</title>
<g id="a_node29"><a xlink:href="classMeSmartServo.html" target="_top" xlink:title="Driver for Me Smart Servo device.">
<polygon fill="none" stroke="black" points="390,-76.5 390,-95.5 479,-95.5 479,-76.5 390,-76.5"/>
<text text-anchor="middle" x="434.5" y="-83.5" font-family="Helvetica,sans-Serif" font-size="10.00">MeSmartServo</text>
</a>
</g>
</g>
<!-- Node23&#45;&gt;Node28 -->
<g id="edge28" class="edge">
<title>Node23&#45;&gt;Node28</title>
<path fill="none" stroke="midnightblue" d="M315.91,-114.64C339.81,-108.82 370.47,-101.35 394.49,-95.5"/>
<polygon fill="midnightblue" stroke="midnightblue" points="315,-111.26 306.11,-117.03 316.66,-118.06 315,-111.26"/>
</g>
<!-- Node29 -->
<g id="node30" class="node">
<title>Node29</title>
<g id="a_node30"><a xlink:href="classMeVoice.html" target="_top" xlink:title="Driver for Me voice device.">
<polygon fill="none" stroke="black" points="405.5,-38.5 405.5,-57.5 463.5,-57.5 463.5,-38.5 405.5,-38.5"/>
<text text-anchor="middle" x="434.5" y="-45.5" font-family="Helvetica,sans-Serif" font-size="10.00">MeVoice</text>
</a>
</g>
</g>
<!-- Node23&#45;&gt;Node29 -->
<g id="edge29" class="edge">
<title>Node23&#45;&gt;Node29</title>
<path fill="none" stroke="midnightblue" d="M301.07,-108.97C321.03,-96.64 350.68,-79.29 378,-67 386.73,-63.07 396.53,-59.47 405.44,-56.48"/>
<polygon fill="midnightblue" stroke="midnightblue" points="298.99,-106.14 292.36,-114.4 302.7,-112.07 298.99,-106.14"/>
</g>
<!-- Node30 -->
<g id="node31" class="node">
<title>Node30</title>
<g id="a_node31"><a xlink:href="classMeWifi.html" target="_top" xlink:title="Driver for Me wifi device.">
<polygon fill="none" stroke="black" points="409.5,-0.5 409.5,-19.5 459.5,-19.5 459.5,-0.5 409.5,-0.5"/>
<text text-anchor="middle" x="434.5" y="-7.5" font-family="Helvetica,sans-Serif" font-size="10.00">MeWifi</text>
</a>
</g>
</g>
<!-- Node23&#45;&gt;Node30 -->
<g id="edge30" class="edge">
<title>Node23&#45;&gt;Node30</title>
<path fill="none" stroke="midnightblue" d="M291.92,-106.38C310.01,-85.28 342.96,-50.17 378,-29 387.59,-23.21 399.18,-18.88 409.29,-15.84"/>
<polygon fill="midnightblue" stroke="midnightblue" points="289.07,-104.32 285.31,-114.22 294.43,-108.82 289.07,-104.32"/>
</g>
<!-- Node78 -->
<g id="node39" class="node">
<title>Node78</title>
<g id="a_node39"><a xlink:title=" ">
<polygon fill="none" stroke="#bfbfbf" points="0,-95.5 0,-114.5 52,-114.5 52,-95.5 0,-95.5"/>
<text text-anchor="middle" x="26" y="-102.5" font-family="Helvetica,sans-Serif" font-size="10.00">Stream</text>
</a>
</g>
</g>
<!-- Node79 -->
<g id="node40" class="node">
<title>Node79</title>
<g id="a_node40"><a xlink:href="classSoftwareSerial.html" target="_top" xlink:title=" ">
<polygon fill="none" stroke="black" points="88,-114.5 88,-133.5 175,-133.5 175,-114.5 88,-114.5"/>
<text text-anchor="middle" x="131.5" y="-121.5" font-family="Helvetica,sans-Serif" font-size="10.00">SoftwareSerial</text>
</a>
</g>
</g>
<!-- Node78&#45;&gt;Node79 -->
<g id="edge38" class="edge">
<title>Node78&#45;&gt;Node79</title>
<path fill="none" stroke="midnightblue" d="M62.13,-111.45C70.42,-112.97 79.34,-114.61 87.91,-116.18"/>
<polygon fill="midnightblue" stroke="midnightblue" points="62.52,-107.96 52.05,-109.6 61.26,-114.85 62.52,-107.96"/>
</g>
<!-- Node80 -->
<g id="node41" class="node">
<title>Node80</title>
<g id="a_node41"><a xlink:href="classTwoWire.html" target="_top" xlink:title=" ">
<polygon fill="none" stroke="black" points="102.5,-76.5 102.5,-95.5 160.5,-95.5 160.5,-76.5 102.5,-76.5"/>
<text text-anchor="middle" x="131.5" y="-83.5" font-family="Helvetica,sans-Serif" font-size="10.00">TwoWire</text>
</a>
</g>
</g>
<!-- Node78&#45;&gt;Node80 -->
<g id="edge40" class="edge">
<title>Node78&#45;&gt;Node80</title>
<path fill="none" stroke="midnightblue" d="M62.16,-98.55C75.28,-96.14 89.99,-93.44 102.39,-91.16"/>
<polygon fill="midnightblue" stroke="midnightblue" points="61.26,-95.15 52.05,-100.4 62.52,-102.04 61.26,-95.15"/>
</g>
<!-- Node79&#45;&gt;Node23 -->
<g id="edge39" class="edge">
<title>Node79&#45;&gt;Node23</title>
<path fill="none" stroke="midnightblue" d="M185.07,-124C206,-124 229.25,-124 246.94,-124"/>
<polygon fill="midnightblue" stroke="midnightblue" points="185.02,-120.5 175.02,-124 185.02,-127.5 185.02,-120.5"/>
</g>
</g>
</svg>
