<?xml version="1.0" encoding="UTF-8" standalone="no"?>
<!DOCTYPE svg PUBLIC "-//W3C//DTD SVG 1.1//EN"
 "http://www.w3.org/Graphics/SVG/1.1/DTD/svg11.dtd">
<!-- Generated by graphviz version 2.43.0 (0)
 -->
<!-- Title: src/Me7SegmentDisplay.h Pages: 1 -->
<svg width="954pt" height="84pt"
 viewBox="0.00 0.00 954.00 84.00" xmlns="http://www.w3.org/2000/svg" xmlns:xlink="http://www.w3.org/1999/xlink">
<g id="graph0" class="graph" transform="scale(1 1) rotate(0) translate(4 80)">
<title>src/Me7SegmentDisplay.h</title>
<!-- Node1 -->
<g id="node1" class="node">
<title>Node1</title>
<g id="a_node1"><a xlink:title="Header file for Me7SegmentDisplay.cpp.">
<polygon fill="#bfbfbf" stroke="black" points="436.5,-56.5 436.5,-75.5 579.5,-75.5 579.5,-56.5 436.5,-56.5"/>
<text text-anchor="middle" x="508" y="-63.5" font-family="Helvetica,sans-Serif" font-size="10.00">src/Me7SegmentDisplay.h</text>
</a>
</g>
</g>
<!-- Node2 -->
<g id="node2" class="node">
<title>Node2</title>
<g id="a_node2"><a xlink:href="Me7SegmentDisplay_8cpp.html" target="_top" xlink:title="Driver for Me 7 Segment Serial Display module.">
<polygon fill="none" stroke="black" points="0,-0.5 0,-19.5 154,-19.5 154,-0.5 0,-0.5"/>
<text text-anchor="middle" x="77" y="-7.5" font-family="Helvetica,sans-Serif" font-size="10.00">src/Me7SegmentDisplay.cpp</text>
</a>
</g>
</g>
<!-- Node1&#45;&gt;Node2 -->
<g id="edge1" class="edge">
<title>Node1&#45;&gt;Node2</title>
<path fill="none" stroke="midnightblue" d="M429.52,-55.17C348.14,-44.97 222.23,-29.2 144.97,-19.52"/>
<polygon fill="midnightblue" stroke="midnightblue" points="429.35,-58.67 439.71,-56.44 430.22,-51.73 429.35,-58.67"/>
</g>
<!-- Node3 -->
<g id="node3" class="node">
<title>Node3</title>
<g id="a_node3"><a xlink:href="MeAuriga_8h.html" target="_top" xlink:title="Driver for MeAuriga board.">
<polygon fill="none" stroke="black" points="172.5,-0.5 172.5,-19.5 261.5,-19.5 261.5,-0.5 172.5,-0.5"/>
<text text-anchor="middle" x="217" y="-7.5" font-family="Helvetica,sans-Serif" font-size="10.00">src/MeAuriga.h</text>
</a>
</g>
</g>
<!-- Node1&#45;&gt;Node3 -->
<g id="edge2" class="edge">
<title>Node1&#45;&gt;Node3</title>
<path fill="none" stroke="midnightblue" d="M451.9,-54.59C396.56,-44.32 313.05,-28.82 261.94,-19.34"/>
<polygon fill="midnightblue" stroke="midnightblue" points="451.42,-58.06 461.89,-56.44 452.7,-51.18 451.42,-58.06"/>
</g>
<!-- Node4 -->
<g id="node4" class="node">
<title>Node4</title>
<g id="a_node4"><a xlink:href="MeBaseBoard_8h.html" target="_top" xlink:title="Driver for BaseBoard.">
<polygon fill="none" stroke="black" points="280,-0.5 280,-19.5 390,-19.5 390,-0.5 280,-0.5"/>
<text text-anchor="middle" x="335" y="-7.5" font-family="Helvetica,sans-Serif" font-size="10.00">src/MeBaseBoard.h</text>
</a>
</g>
</g>
<!-- Node1&#45;&gt;Node4 -->
<g id="edge3" class="edge">
<title>Node1&#45;&gt;Node4</title>
<path fill="none" stroke="midnightblue" d="M470.95,-53.44C438.34,-43.26 391.59,-28.66 362.28,-19.52"/>
<polygon fill="midnightblue" stroke="midnightblue" points="470,-56.8 480.59,-56.44 472.08,-50.12 470,-56.8"/>
</g>
<!-- Node5 -->
<g id="node5" class="node">
<title>Node5</title>
<g id="a_node5"><a xlink:href="MeMCore_8h.html" target="_top" xlink:title="Driver for mCore Board.">
<polygon fill="none" stroke="black" points="408.5,-0.5 408.5,-19.5 497.5,-19.5 497.5,-0.5 408.5,-0.5"/>
<text text-anchor="middle" x="453" y="-7.5" font-family="Helvetica,sans-Serif" font-size="10.00">src/MeMCore.h</text>
</a>
</g>
</g>
<!-- Node1&#45;&gt;Node5 -->
<g id="edge4" class="edge">
<title>Node1&#45;&gt;Node5</title>
<path fill="none" stroke="midnightblue" d="M491.71,-49C481.96,-39.43 469.95,-27.64 461.91,-19.75"/>
<polygon fill="midnightblue" stroke="midnightblue" points="489.33,-51.57 498.92,-56.08 494.23,-46.58 489.33,-51.57"/>
</g>
<!-- Node6 -->
<g id="node6" class="node">
<title>Node6</title>
<g id="a_node6"><a xlink:href="MeMegaPi_8h.html" target="_top" xlink:title="Driver for MegaPi board.">
<polygon fill="none" stroke="black" points="516,-0.5 516,-19.5 610,-19.5 610,-0.5 516,-0.5"/>
<text text-anchor="middle" x="563" y="-7.5" font-family="Helvetica,sans-Serif" font-size="10.00">src/MeMegaPi.h</text>
</a>
</g>
</g>
<!-- Node1&#45;&gt;Node6 -->
<g id="edge5" class="edge">
<title>Node1&#45;&gt;Node6</title>
<path fill="none" stroke="midnightblue" d="M524.29,-49C534.04,-39.43 546.05,-27.64 554.09,-19.75"/>
<polygon fill="midnightblue" stroke="midnightblue" points="521.77,-46.58 517.08,-56.08 526.67,-51.57 521.77,-46.58"/>
</g>
<!-- Node7 -->
<g id="node7" class="node">
<title>Node7</title>
<g id="a_node7"><a xlink:href="MeMegaPiPro_8h.html" target="_top" xlink:title="Driver for MegaPiPro board.">
<polygon fill="none" stroke="black" points="628,-0.5 628,-19.5 738,-19.5 738,-0.5 628,-0.5"/>
<text text-anchor="middle" x="683" y="-7.5" font-family="Helvetica,sans-Serif" font-size="10.00">src/MeMegaPiPro.h</text>
</a>
</g>
</g>
<!-- Node1&#45;&gt;Node7 -->
<g id="edge6" class="edge">
<title>Node1&#45;&gt;Node7</title>
<path fill="none" stroke="midnightblue" d="M545.47,-53.44C578.47,-43.26 625.76,-28.66 655.4,-19.52"/>
<polygon fill="midnightblue" stroke="midnightblue" points="544.25,-50.15 535.73,-56.44 546.32,-56.84 544.25,-50.15"/>
</g>
<!-- Node8 -->
<g id="node8" class="node">
<title>Node8</title>
<g id="a_node8"><a xlink:href="MeOrion_8h.html" target="_top" xlink:title="Driver for MeOrion board.">
<polygon fill="none" stroke="black" points="756,-0.5 756,-19.5 840,-19.5 840,-0.5 756,-0.5"/>
<text text-anchor="middle" x="798" y="-7.5" font-family="Helvetica,sans-Serif" font-size="10.00">src/MeOrion.h</text>
</a>
</g>
</g>
<!-- Node1&#45;&gt;Node8 -->
<g id="edge7" class="edge">
<title>Node1&#45;&gt;Node8</title>
<path fill="none" stroke="midnightblue" d="M564.06,-54.56C620.07,-44.13 704.92,-28.33 755.57,-18.9"/>
<polygon fill="midnightblue" stroke="midnightblue" points="563.14,-51.17 553.95,-56.44 564.42,-58.05 563.14,-51.17"/>
</g>
<!-- Node9 -->
<g id="node9" class="node">
<title>Node9</title>
<g id="a_node9"><a xlink:href="MeShield_8h.html" target="_top" xlink:title="Driver for Shield Board.">
<polygon fill="none" stroke="black" points="858,-0.5 858,-19.5 946,-19.5 946,-0.5 858,-0.5"/>
<text text-anchor="middle" x="902" y="-7.5" font-family="Helvetica,sans-Serif" font-size="10.00">src/MeShield.h</text>
</a>
</g>
</g>
<!-- Node1&#45;&gt;Node9 -->
<g id="edge8" class="edge">
<title>Node1&#45;&gt;Node9</title>
<path fill="none" stroke="midnightblue" d="M588.27,-55.26C657.45,-46.66 759.94,-33.43 849,-20 851.86,-19.57 854.81,-19.11 857.77,-18.64"/>
<polygon fill="midnightblue" stroke="midnightblue" points="587.81,-51.79 578.31,-56.49 588.67,-58.74 587.81,-51.79"/>
</g>
</g>
</svg>
