<?xml version="1.0" encoding="UTF-8" standalone="no"?>
<!DOCTYPE svg PUBLIC "-//W3C//DTD SVG 1.1//EN"
 "http://www.w3.org/Graphics/SVG/1.1/DTD/svg11.dtd">
<!-- Generated by graphviz version 2.43.0 (0)
 -->
<!-- Title: src/MeBluetooth.h Pages: 1 -->
<svg width="916pt" height="84pt"
 viewBox="0.00 0.00 915.50 84.00" xmlns="http://www.w3.org/2000/svg" xmlns:xlink="http://www.w3.org/1999/xlink">
<g id="graph0" class="graph" transform="scale(1 1) rotate(0) translate(4 80)">
<title>src/MeBluetooth.h</title>
<!-- Node1 -->
<g id="node1" class="node">
<title>Node1</title>
<g id="a_node1"><a xlink:title="Header for MeBluetooth.cpp module.">
<polygon fill="#bfbfbf" stroke="black" points="417,-56.5 417,-75.5 522,-75.5 522,-56.5 417,-56.5"/>
<text text-anchor="middle" x="469.5" y="-63.5" font-family="Helvetica,sans-Serif" font-size="10.00">src/MeBluetooth.h</text>
</a>
</g>
</g>
<!-- Node2 -->
<g id="node2" class="node">
<title>Node2</title>
<g id="a_node2"><a xlink:href="MeAuriga_8h.html" target="_top" xlink:title="Driver for MeAuriga board.">
<polygon fill="none" stroke="black" points="0,-0.5 0,-19.5 89,-19.5 89,-0.5 0,-0.5"/>
<text text-anchor="middle" x="44.5" y="-7.5" font-family="Helvetica,sans-Serif" font-size="10.00">src/MeAuriga.h</text>
</a>
</g>
</g>
<!-- Node1&#45;&gt;Node2 -->
<g id="edge1" class="edge">
<title>Node1&#45;&gt;Node2</title>
<path fill="none" stroke="midnightblue" d="M406.81,-58.26C332.95,-50.11 206.6,-35.56 98.5,-20 95.49,-19.57 92.39,-19.1 89.27,-18.62"/>
<polygon fill="midnightblue" stroke="midnightblue" points="406.55,-61.75 416.87,-59.36 407.32,-54.79 406.55,-61.75"/>
</g>
<!-- Node3 -->
<g id="node3" class="node">
<title>Node3</title>
<g id="a_node3"><a xlink:href="MeBaseBoard_8h.html" target="_top" xlink:title="Driver for BaseBoard.">
<polygon fill="none" stroke="black" points="107.5,-0.5 107.5,-19.5 217.5,-19.5 217.5,-0.5 107.5,-0.5"/>
<text text-anchor="middle" x="162.5" y="-7.5" font-family="Helvetica,sans-Serif" font-size="10.00">src/MeBaseBoard.h</text>
</a>
</g>
</g>
<!-- Node1&#45;&gt;Node3 -->
<g id="edge2" class="edge">
<title>Node1&#45;&gt;Node3</title>
<path fill="none" stroke="midnightblue" d="M410.74,-54.66C352.72,-44.46 265.05,-29.04 210.92,-19.52"/>
<polygon fill="midnightblue" stroke="midnightblue" points="410.4,-58.16 420.85,-56.44 411.61,-51.26 410.4,-58.16"/>
</g>
<!-- Node4 -->
<g id="node4" class="node">
<title>Node4</title>
<g id="a_node4"><a xlink:href="MeBluetooth_8cpp.html" target="_top" xlink:title="Driver for Me Bluetooth device.">
<polygon fill="none" stroke="black" points="235.5,-0.5 235.5,-19.5 351.5,-19.5 351.5,-0.5 235.5,-0.5"/>
<text text-anchor="middle" x="293.5" y="-7.5" font-family="Helvetica,sans-Serif" font-size="10.00">src/MeBluetooth.cpp</text>
</a>
</g>
</g>
<!-- Node1&#45;&gt;Node4 -->
<g id="edge3" class="edge">
<title>Node1&#45;&gt;Node4</title>
<path fill="none" stroke="midnightblue" d="M431.81,-53.44C398.63,-43.26 351.07,-28.66 321.26,-19.52"/>
<polygon fill="midnightblue" stroke="midnightblue" points="431.03,-56.86 441.61,-56.44 433.08,-50.16 431.03,-56.86"/>
</g>
<!-- Node5 -->
<g id="node5" class="node">
<title>Node5</title>
<g id="a_node5"><a xlink:href="MeMCore_8h.html" target="_top" xlink:title="Driver for mCore Board.">
<polygon fill="none" stroke="black" points="370,-0.5 370,-19.5 459,-19.5 459,-0.5 370,-0.5"/>
<text text-anchor="middle" x="414.5" y="-7.5" font-family="Helvetica,sans-Serif" font-size="10.00">src/MeMCore.h</text>
</a>
</g>
</g>
<!-- Node1&#45;&gt;Node5 -->
<g id="edge4" class="edge">
<title>Node1&#45;&gt;Node5</title>
<path fill="none" stroke="midnightblue" d="M453.21,-49C443.46,-39.43 431.45,-27.64 423.41,-19.75"/>
<polygon fill="midnightblue" stroke="midnightblue" points="450.83,-51.57 460.42,-56.08 455.73,-46.58 450.83,-51.57"/>
</g>
<!-- Node6 -->
<g id="node6" class="node">
<title>Node6</title>
<g id="a_node6"><a xlink:href="MeMegaPi_8h.html" target="_top" xlink:title="Driver for MegaPi board.">
<polygon fill="none" stroke="black" points="477.5,-0.5 477.5,-19.5 571.5,-19.5 571.5,-0.5 477.5,-0.5"/>
<text text-anchor="middle" x="524.5" y="-7.5" font-family="Helvetica,sans-Serif" font-size="10.00">src/MeMegaPi.h</text>
</a>
</g>
</g>
<!-- Node1&#45;&gt;Node6 -->
<g id="edge5" class="edge">
<title>Node1&#45;&gt;Node6</title>
<path fill="none" stroke="midnightblue" d="M485.79,-49C495.54,-39.43 507.55,-27.64 515.59,-19.75"/>
<polygon fill="midnightblue" stroke="midnightblue" points="483.27,-46.58 478.58,-56.08 488.17,-51.57 483.27,-46.58"/>
</g>
<!-- Node7 -->
<g id="node7" class="node">
<title>Node7</title>
<g id="a_node7"><a xlink:href="MeMegaPiPro_8h.html" target="_top" xlink:title="Driver for MegaPiPro board.">
<polygon fill="none" stroke="black" points="589.5,-0.5 589.5,-19.5 699.5,-19.5 699.5,-0.5 589.5,-0.5"/>
<text text-anchor="middle" x="644.5" y="-7.5" font-family="Helvetica,sans-Serif" font-size="10.00">src/MeMegaPiPro.h</text>
</a>
</g>
</g>
<!-- Node1&#45;&gt;Node7 -->
<g id="edge6" class="edge">
<title>Node1&#45;&gt;Node7</title>
<path fill="none" stroke="midnightblue" d="M506.97,-53.44C539.97,-43.26 587.26,-28.66 616.9,-19.52"/>
<polygon fill="midnightblue" stroke="midnightblue" points="505.75,-50.15 497.23,-56.44 507.82,-56.84 505.75,-50.15"/>
</g>
<!-- Node8 -->
<g id="node8" class="node">
<title>Node8</title>
<g id="a_node8"><a xlink:href="MeOrion_8h.html" target="_top" xlink:title="Driver for MeOrion board.">
<polygon fill="none" stroke="black" points="717.5,-0.5 717.5,-19.5 801.5,-19.5 801.5,-0.5 717.5,-0.5"/>
<text text-anchor="middle" x="759.5" y="-7.5" font-family="Helvetica,sans-Serif" font-size="10.00">src/MeOrion.h</text>
</a>
</g>
</g>
<!-- Node1&#45;&gt;Node8 -->
<g id="edge7" class="edge">
<title>Node1&#45;&gt;Node8</title>
<path fill="none" stroke="midnightblue" d="M525.56,-54.56C581.57,-44.13 666.42,-28.33 717.07,-18.9"/>
<polygon fill="midnightblue" stroke="midnightblue" points="524.64,-51.17 515.45,-56.44 525.92,-58.05 524.64,-51.17"/>
</g>
<!-- Node9 -->
<g id="node9" class="node">
<title>Node9</title>
<g id="a_node9"><a xlink:href="MeShield_8h.html" target="_top" xlink:title="Driver for Shield Board.">
<polygon fill="none" stroke="black" points="819.5,-0.5 819.5,-19.5 907.5,-19.5 907.5,-0.5 819.5,-0.5"/>
<text text-anchor="middle" x="863.5" y="-7.5" font-family="Helvetica,sans-Serif" font-size="10.00">src/MeShield.h</text>
</a>
</g>
</g>
<!-- Node1&#45;&gt;Node9 -->
<g id="edge8" class="edge">
<title>Node1&#45;&gt;Node9</title>
<path fill="none" stroke="midnightblue" d="M532.35,-57.41C600.85,-48.98 713.62,-34.61 810.5,-20 813.36,-19.57 816.31,-19.11 819.27,-18.64"/>
<polygon fill="midnightblue" stroke="midnightblue" points="531.66,-53.97 522.16,-58.66 532.51,-60.92 531.66,-53.97"/>
</g>
</g>
</svg>
