<?xml version="1.0" encoding="UTF-8" standalone="no"?>
<!DOCTYPE svg PUBLIC "-//W3C//DTD SVG 1.1//EN"
 "http://www.w3.org/Graphics/SVG/1.1/DTD/svg11.dtd">
<!-- Generated by graphviz version 2.43.0 (0)
 -->
<!-- Title: src/MeBuzzer.h Pages: 1 -->
<svg width="901pt" height="84pt"
 viewBox="0.00 0.00 900.50 84.00" xmlns="http://www.w3.org/2000/svg" xmlns:xlink="http://www.w3.org/1999/xlink">
<g id="graph0" class="graph" transform="scale(1 1) rotate(0) translate(4 80)">
<title>src/MeBuzzer.h</title>
<!-- Node1 -->
<g id="node1" class="node">
<title>Node1</title>
<g id="a_node1"><a xlink:title="Header for MeBuzzer.cpp module.">
<polygon fill="#bfbfbf" stroke="black" points="409.5,-56.5 409.5,-75.5 499.5,-75.5 499.5,-56.5 409.5,-56.5"/>
<text text-anchor="middle" x="454.5" y="-63.5" font-family="Helvetica,sans-Serif" font-size="10.00">src/MeBuzzer.h</text>
</a>
</g>
</g>
<!-- Node2 -->
<g id="node2" class="node">
<title>Node2</title>
<g id="a_node2"><a xlink:href="MeAuriga_8h.html" target="_top" xlink:title="Driver for MeAuriga board.">
<polygon fill="none" stroke="black" points="0,-0.5 0,-19.5 89,-19.5 89,-0.5 0,-0.5"/>
<text text-anchor="middle" x="44.5" y="-7.5" font-family="Helvetica,sans-Serif" font-size="10.00">src/MeAuriga.h</text>
</a>
</g>
</g>
<!-- Node1&#45;&gt;Node2 -->
<g id="edge1" class="edge">
<title>Node1&#45;&gt;Node2</title>
<path fill="none" stroke="midnightblue" d="M399.11,-58.68C329.01,-50.53 204.62,-35.54 98.5,-20 95.49,-19.56 92.39,-19.09 89.27,-18.6"/>
<polygon fill="midnightblue" stroke="midnightblue" points="399.13,-62.21 409.46,-59.88 399.93,-55.26 399.13,-62.21"/>
</g>
<!-- Node3 -->
<g id="node3" class="node">
<title>Node3</title>
<g id="a_node3"><a xlink:href="MeBaseBoard_8h.html" target="_top" xlink:title="Driver for BaseBoard.">
<polygon fill="none" stroke="black" points="107.5,-0.5 107.5,-19.5 217.5,-19.5 217.5,-0.5 107.5,-0.5"/>
<text text-anchor="middle" x="162.5" y="-7.5" font-family="Helvetica,sans-Serif" font-size="10.00">src/MeBaseBoard.h</text>
</a>
</g>
</g>
<!-- Node1&#45;&gt;Node3 -->
<g id="edge2" class="edge">
<title>Node1&#45;&gt;Node3</title>
<path fill="none" stroke="midnightblue" d="M399.26,-54.78C344.2,-44.6 260.6,-29.14 208.88,-19.58"/>
<polygon fill="midnightblue" stroke="midnightblue" points="398.73,-58.24 409.2,-56.62 400,-51.36 398.73,-58.24"/>
</g>
<!-- Node4 -->
<g id="node4" class="node">
<title>Node4</title>
<g id="a_node4"><a xlink:href="MeBuzzer_8cpp.html" target="_top" xlink:title="Driver for Me Buzzer module.">
<polygon fill="none" stroke="black" points="236,-0.5 236,-19.5 337,-19.5 337,-0.5 236,-0.5"/>
<text text-anchor="middle" x="286.5" y="-7.5" font-family="Helvetica,sans-Serif" font-size="10.00">src/MeBuzzer.cpp</text>
</a>
</g>
</g>
<!-- Node1&#45;&gt;Node4 -->
<g id="edge3" class="edge">
<title>Node1&#45;&gt;Node4</title>
<path fill="none" stroke="midnightblue" d="M418.11,-53.3C386.46,-43.13 341.33,-28.62 313,-19.52"/>
<polygon fill="midnightblue" stroke="midnightblue" points="417.29,-56.72 427.88,-56.44 419.43,-50.05 417.29,-56.72"/>
</g>
<!-- Node5 -->
<g id="node5" class="node">
<title>Node5</title>
<g id="a_node5"><a xlink:href="MeMCore_8h.html" target="_top" xlink:title="Driver for mCore Board.">
<polygon fill="none" stroke="black" points="355,-0.5 355,-19.5 444,-19.5 444,-0.5 355,-0.5"/>
<text text-anchor="middle" x="399.5" y="-7.5" font-family="Helvetica,sans-Serif" font-size="10.00">src/MeMCore.h</text>
</a>
</g>
</g>
<!-- Node1&#45;&gt;Node5 -->
<g id="edge4" class="edge">
<title>Node1&#45;&gt;Node5</title>
<path fill="none" stroke="midnightblue" d="M438.21,-49C428.46,-39.43 416.45,-27.64 408.41,-19.75"/>
<polygon fill="midnightblue" stroke="midnightblue" points="435.83,-51.57 445.42,-56.08 440.73,-46.58 435.83,-51.57"/>
</g>
<!-- Node6 -->
<g id="node6" class="node">
<title>Node6</title>
<g id="a_node6"><a xlink:href="MeMegaPi_8h.html" target="_top" xlink:title="Driver for MegaPi board.">
<polygon fill="none" stroke="black" points="462.5,-0.5 462.5,-19.5 556.5,-19.5 556.5,-0.5 462.5,-0.5"/>
<text text-anchor="middle" x="509.5" y="-7.5" font-family="Helvetica,sans-Serif" font-size="10.00">src/MeMegaPi.h</text>
</a>
</g>
</g>
<!-- Node1&#45;&gt;Node6 -->
<g id="edge5" class="edge">
<title>Node1&#45;&gt;Node6</title>
<path fill="none" stroke="midnightblue" d="M470.79,-49C480.54,-39.43 492.55,-27.64 500.59,-19.75"/>
<polygon fill="midnightblue" stroke="midnightblue" points="468.27,-46.58 463.58,-56.08 473.17,-51.57 468.27,-46.58"/>
</g>
<!-- Node7 -->
<g id="node7" class="node">
<title>Node7</title>
<g id="a_node7"><a xlink:href="MeMegaPiPro_8h.html" target="_top" xlink:title="Driver for MegaPiPro board.">
<polygon fill="none" stroke="black" points="574.5,-0.5 574.5,-19.5 684.5,-19.5 684.5,-0.5 574.5,-0.5"/>
<text text-anchor="middle" x="629.5" y="-7.5" font-family="Helvetica,sans-Serif" font-size="10.00">src/MeMegaPiPro.h</text>
</a>
</g>
</g>
<!-- Node1&#45;&gt;Node7 -->
<g id="edge6" class="edge">
<title>Node1&#45;&gt;Node7</title>
<path fill="none" stroke="midnightblue" d="M491.97,-53.44C524.97,-43.26 572.26,-28.66 601.9,-19.52"/>
<polygon fill="midnightblue" stroke="midnightblue" points="490.75,-50.15 482.23,-56.44 492.82,-56.84 490.75,-50.15"/>
</g>
<!-- Node8 -->
<g id="node8" class="node">
<title>Node8</title>
<g id="a_node8"><a xlink:href="MeOrion_8h.html" target="_top" xlink:title="Driver for MeOrion board.">
<polygon fill="none" stroke="black" points="702.5,-0.5 702.5,-19.5 786.5,-19.5 786.5,-0.5 702.5,-0.5"/>
<text text-anchor="middle" x="744.5" y="-7.5" font-family="Helvetica,sans-Serif" font-size="10.00">src/MeOrion.h</text>
</a>
</g>
</g>
<!-- Node1&#45;&gt;Node8 -->
<g id="edge7" class="edge">
<title>Node1&#45;&gt;Node8</title>
<path fill="none" stroke="midnightblue" d="M509.93,-54.68C566.03,-44.23 651.53,-28.31 702.33,-18.85"/>
<polygon fill="midnightblue" stroke="midnightblue" points="509,-51.29 499.81,-56.56 510.28,-58.17 509,-51.29"/>
</g>
<!-- Node9 -->
<g id="node9" class="node">
<title>Node9</title>
<g id="a_node9"><a xlink:href="MeShield_8h.html" target="_top" xlink:title="Driver for Shield Board.">
<polygon fill="none" stroke="black" points="804.5,-0.5 804.5,-19.5 892.5,-19.5 892.5,-0.5 804.5,-0.5"/>
<text text-anchor="middle" x="848.5" y="-7.5" font-family="Helvetica,sans-Serif" font-size="10.00">src/MeShield.h</text>
</a>
</g>
</g>
<!-- Node1&#45;&gt;Node9 -->
<g id="edge8" class="edge">
<title>Node1&#45;&gt;Node9</title>
<path fill="none" stroke="midnightblue" d="M509.52,-58.38C577,-50.1 694.83,-35.19 795.5,-20 798.36,-19.57 801.31,-19.11 804.27,-18.64"/>
<polygon fill="midnightblue" stroke="midnightblue" points="509.03,-54.91 499.53,-59.6 509.88,-61.86 509.03,-54.91"/>
</g>
</g>
</svg>
