<?xml version="1.0" encoding="UTF-8" standalone="no"?>
<!DOCTYPE svg PUBLIC "-//W3C//DTD SVG 1.1//EN"
 "http://www.w3.org/Graphics/SVG/1.1/DTD/svg11.dtd">
<!-- Generated by graphviz version 2.43.0 (0)
 -->
<!-- Title: src/MeColorSensor.h Pages: 1 -->
<svg width="692pt" height="84pt"
 viewBox="0.00 0.00 691.50 84.00" xmlns="http://www.w3.org/2000/svg" xmlns:xlink="http://www.w3.org/1999/xlink">
<g id="graph0" class="graph" transform="scale(1 1) rotate(0) translate(4 80)">
<title>src/MeColorSensor.h</title>
<!-- Node1 -->
<g id="node1" class="node">
<title>Node1</title>
<g id="a_node1"><a xlink:title="Header for MeColorSensor.cpp module.">
<polygon fill="#bfbfbf" stroke="black" points="293.5,-56.5 293.5,-75.5 409.5,-75.5 409.5,-56.5 293.5,-56.5"/>
<text text-anchor="middle" x="351.5" y="-63.5" font-family="Helvetica,sans-Serif" font-size="10.00">src/MeColorSensor.h</text>
</a>
</g>
</g>
<!-- Node2 -->
<g id="node2" class="node">
<title>Node2</title>
<g id="a_node2"><a xlink:href="MeAuriga_8h.html" target="_top" xlink:title="Driver for MeAuriga board.">
<polygon fill="none" stroke="black" points="0,-0.5 0,-19.5 89,-19.5 89,-0.5 0,-0.5"/>
<text text-anchor="middle" x="44.5" y="-7.5" font-family="Helvetica,sans-Serif" font-size="10.00">src/MeAuriga.h</text>
</a>
</g>
</g>
<!-- Node1&#45;&gt;Node2 -->
<g id="edge1" class="edge">
<title>Node1&#45;&gt;Node2</title>
<path fill="none" stroke="midnightblue" d="M292.89,-54.69C233.61,-44.26 143.26,-28.37 89.42,-18.9"/>
<polygon fill="midnightblue" stroke="midnightblue" points="292.4,-58.16 302.85,-56.44 293.61,-51.26 292.4,-58.16"/>
</g>
<!-- Node3 -->
<g id="node3" class="node">
<title>Node3</title>
<g id="a_node3"><a xlink:href="MeColorSensor_8cpp.html" target="_top" xlink:title="Driver for MeColorSensor module.">
<polygon fill="none" stroke="black" points="107,-0.5 107,-19.5 234,-19.5 234,-0.5 107,-0.5"/>
<text text-anchor="middle" x="170.5" y="-7.5" font-family="Helvetica,sans-Serif" font-size="10.00">src/MeColorSensor.cpp</text>
</a>
</g>
</g>
<!-- Node1&#45;&gt;Node3 -->
<g id="edge2" class="edge">
<title>Node1&#45;&gt;Node3</title>
<path fill="none" stroke="midnightblue" d="M313.18,-53.57C279.04,-43.38 229.84,-28.7 199.05,-19.52"/>
<polygon fill="midnightblue" stroke="midnightblue" points="312.24,-56.94 322.82,-56.44 314.24,-50.23 312.24,-56.94"/>
</g>
<!-- Node4 -->
<g id="node4" class="node">
<title>Node4</title>
<g id="a_node4"><a xlink:href="MeMCore_8h.html" target="_top" xlink:title="Driver for mCore Board.">
<polygon fill="none" stroke="black" points="252,-0.5 252,-19.5 341,-19.5 341,-0.5 252,-0.5"/>
<text text-anchor="middle" x="296.5" y="-7.5" font-family="Helvetica,sans-Serif" font-size="10.00">src/MeMCore.h</text>
</a>
</g>
</g>
<!-- Node1&#45;&gt;Node4 -->
<g id="edge3" class="edge">
<title>Node1&#45;&gt;Node4</title>
<path fill="none" stroke="midnightblue" d="M335.21,-49C325.46,-39.43 313.45,-27.64 305.41,-19.75"/>
<polygon fill="midnightblue" stroke="midnightblue" points="332.83,-51.57 342.42,-56.08 337.73,-46.58 332.83,-51.57"/>
</g>
<!-- Node5 -->
<g id="node5" class="node">
<title>Node5</title>
<g id="a_node5"><a xlink:href="MeMegaPi_8h.html" target="_top" xlink:title="Driver for MegaPi board.">
<polygon fill="none" stroke="black" points="359.5,-0.5 359.5,-19.5 453.5,-19.5 453.5,-0.5 359.5,-0.5"/>
<text text-anchor="middle" x="406.5" y="-7.5" font-family="Helvetica,sans-Serif" font-size="10.00">src/MeMegaPi.h</text>
</a>
</g>
</g>
<!-- Node1&#45;&gt;Node5 -->
<g id="edge4" class="edge">
<title>Node1&#45;&gt;Node5</title>
<path fill="none" stroke="midnightblue" d="M367.79,-49C377.54,-39.43 389.55,-27.64 397.59,-19.75"/>
<polygon fill="midnightblue" stroke="midnightblue" points="365.27,-46.58 360.58,-56.08 370.17,-51.57 365.27,-46.58"/>
</g>
<!-- Node6 -->
<g id="node6" class="node">
<title>Node6</title>
<g id="a_node6"><a xlink:href="MeMegaPiPro_8h.html" target="_top" xlink:title="Driver for MegaPiPro board.">
<polygon fill="none" stroke="black" points="471.5,-0.5 471.5,-19.5 581.5,-19.5 581.5,-0.5 471.5,-0.5"/>
<text text-anchor="middle" x="526.5" y="-7.5" font-family="Helvetica,sans-Serif" font-size="10.00">src/MeMegaPiPro.h</text>
</a>
</g>
</g>
<!-- Node1&#45;&gt;Node6 -->
<g id="edge5" class="edge">
<title>Node1&#45;&gt;Node6</title>
<path fill="none" stroke="midnightblue" d="M388.97,-53.44C421.97,-43.26 469.26,-28.66 498.9,-19.52"/>
<polygon fill="midnightblue" stroke="midnightblue" points="387.75,-50.15 379.23,-56.44 389.82,-56.84 387.75,-50.15"/>
</g>
<!-- Node7 -->
<g id="node7" class="node">
<title>Node7</title>
<g id="a_node7"><a xlink:href="MeOrion_8h.html" target="_top" xlink:title="Driver for MeOrion board.">
<polygon fill="none" stroke="black" points="599.5,-0.5 599.5,-19.5 683.5,-19.5 683.5,-0.5 599.5,-0.5"/>
<text text-anchor="middle" x="641.5" y="-7.5" font-family="Helvetica,sans-Serif" font-size="10.00">src/MeOrion.h</text>
</a>
</g>
</g>
<!-- Node1&#45;&gt;Node7 -->
<g id="edge6" class="edge">
<title>Node1&#45;&gt;Node7</title>
<path fill="none" stroke="midnightblue" d="M407.56,-54.56C463.57,-44.13 548.42,-28.33 599.07,-18.9"/>
<polygon fill="midnightblue" stroke="midnightblue" points="406.64,-51.17 397.45,-56.44 407.92,-58.05 406.64,-51.17"/>
</g>
</g>
</svg>
