<?xml version="1.0" encoding="UTF-8" standalone="no"?>
<!DOCTYPE svg PUBLIC "-//W3C//DTD SVG 1.1//EN"
 "http://www.w3.org/Graphics/SVG/1.1/DTD/svg11.dtd">
<!-- Generated by graphviz version 2.43.0 (0)
 -->
<!-- Title: src/MeDCMotor.h Pages: 1 -->
<svg width="947pt" height="140pt"
 viewBox="0.00 0.00 946.50 140.00" xmlns="http://www.w3.org/2000/svg" xmlns:xlink="http://www.w3.org/1999/xlink">
<g id="graph0" class="graph" transform="scale(1 1) rotate(0) translate(4 136)">
<title>src/MeDCMotor.h</title>
<!-- Node1 -->
<g id="node1" class="node">
<title>Node1</title>
<g id="a_node1"><a xlink:title="Header for MeDCMotor.cpp module.">
<polygon fill="#bfbfbf" stroke="black" points="441.5,-112.5 441.5,-131.5 541.5,-131.5 541.5,-112.5 441.5,-112.5"/>
<text text-anchor="middle" x="491.5" y="-119.5" font-family="Helvetica,sans-Serif" font-size="10.00">src/MeDCMotor.h</text>
</a>
</g>
</g>
<!-- Node2 -->
<g id="node2" class="node">
<title>Node2</title>
<g id="a_node2"><a xlink:href="MeAuriga_8h.html" target="_top" xlink:title="Driver for MeAuriga board.">
<polygon fill="none" stroke="black" points="0,-56.5 0,-75.5 89,-75.5 89,-56.5 0,-56.5"/>
<text text-anchor="middle" x="44.5" y="-63.5" font-family="Helvetica,sans-Serif" font-size="10.00">src/MeAuriga.h</text>
</a>
</g>
</g>
<!-- Node1&#45;&gt;Node2 -->
<g id="edge1" class="edge">
<title>Node1&#45;&gt;Node2</title>
<path fill="none" stroke="midnightblue" d="M431.43,-115.09C354.24,-107.27 216.14,-92.53 98.5,-76 95.49,-75.58 92.39,-75.12 89.26,-74.64"/>
<polygon fill="midnightblue" stroke="midnightblue" points="431.15,-118.58 441.46,-116.1 431.86,-111.61 431.15,-118.58"/>
</g>
<!-- Node3 -->
<g id="node3" class="node">
<title>Node3</title>
<g id="a_node3"><a xlink:href="MeBaseBoard_8h.html" target="_top" xlink:title="Driver for BaseBoard.">
<polygon fill="none" stroke="black" points="107.5,-56.5 107.5,-75.5 217.5,-75.5 217.5,-56.5 107.5,-56.5"/>
<text text-anchor="middle" x="162.5" y="-63.5" font-family="Helvetica,sans-Serif" font-size="10.00">src/MeBaseBoard.h</text>
</a>
</g>
</g>
<!-- Node1&#45;&gt;Node3 -->
<g id="edge2" class="edge">
<title>Node1&#45;&gt;Node3</title>
<path fill="none" stroke="midnightblue" d="M431.13,-111.09C369.02,-100.9 273.28,-85.18 214.45,-75.53"/>
<polygon fill="midnightblue" stroke="midnightblue" points="430.74,-114.57 441.17,-112.74 431.87,-107.67 430.74,-114.57"/>
</g>
<!-- Node4 -->
<g id="node4" class="node">
<title>Node4</title>
<g id="a_node4"><a xlink:href="MeDCMotor_8cpp.html" target="_top" xlink:title="Driver for Me DC motor device.">
<polygon fill="none" stroke="black" points="236,-56.5 236,-75.5 347,-75.5 347,-56.5 236,-56.5"/>
<text text-anchor="middle" x="291.5" y="-63.5" font-family="Helvetica,sans-Serif" font-size="10.00">src/MeDCMotor.cpp</text>
</a>
</g>
</g>
<!-- Node1&#45;&gt;Node4 -->
<g id="edge3" class="edge">
<title>Node1&#45;&gt;Node4</title>
<path fill="none" stroke="midnightblue" d="M450.13,-109.83C412.36,-99.63 357.36,-84.78 323.04,-75.52"/>
<polygon fill="midnightblue" stroke="midnightblue" points="449.24,-113.22 459.81,-112.44 451.07,-106.46 449.24,-113.22"/>
</g>
<!-- Node5 -->
<g id="node5" class="node">
<title>Node5</title>
<g id="a_node5"><a xlink:href="MeMbotDCMotor_8h.html" target="_top" xlink:title="Driver for Mbot DC Motor.">
<polygon fill="none" stroke="black" points="365,-56.5 365,-75.5 490,-75.5 490,-56.5 365,-56.5"/>
<text text-anchor="middle" x="427.5" y="-63.5" font-family="Helvetica,sans-Serif" font-size="10.00">src/MeMbotDCMotor.h</text>
</a>
</g>
</g>
<!-- Node1&#45;&gt;Node5 -->
<g id="edge4" class="edge">
<title>Node1&#45;&gt;Node5</title>
<path fill="none" stroke="midnightblue" d="M473.51,-105.82C462.04,-96.15 447.59,-83.95 437.97,-75.83"/>
<polygon fill="midnightblue" stroke="midnightblue" points="471.32,-108.55 481.22,-112.32 475.83,-103.2 471.32,-108.55"/>
</g>
<!-- Node8 -->
<g id="node8" class="node">
<title>Node8</title>
<g id="a_node8"><a xlink:href="MeMegaPi_8h.html" target="_top" xlink:title="Driver for MegaPi board.">
<polygon fill="none" stroke="black" points="508.5,-56.5 508.5,-75.5 602.5,-75.5 602.5,-56.5 508.5,-56.5"/>
<text text-anchor="middle" x="555.5" y="-63.5" font-family="Helvetica,sans-Serif" font-size="10.00">src/MeMegaPi.h</text>
</a>
</g>
</g>
<!-- Node1&#45;&gt;Node8 -->
<g id="edge7" class="edge">
<title>Node1&#45;&gt;Node8</title>
<path fill="none" stroke="midnightblue" d="M509.49,-105.82C520.96,-96.15 535.41,-83.95 545.03,-75.83"/>
<polygon fill="midnightblue" stroke="midnightblue" points="507.17,-103.2 501.78,-112.32 511.68,-108.55 507.17,-103.2"/>
</g>
<!-- Node9 -->
<g id="node9" class="node">
<title>Node9</title>
<g id="a_node9"><a xlink:href="MeMegaPiPro_8h.html" target="_top" xlink:title="Driver for MegaPiPro board.">
<polygon fill="none" stroke="black" points="620.5,-56.5 620.5,-75.5 730.5,-75.5 730.5,-56.5 620.5,-56.5"/>
<text text-anchor="middle" x="675.5" y="-63.5" font-family="Helvetica,sans-Serif" font-size="10.00">src/MeMegaPiPro.h</text>
</a>
</g>
</g>
<!-- Node1&#45;&gt;Node9 -->
<g id="edge8" class="edge">
<title>Node1&#45;&gt;Node9</title>
<path fill="none" stroke="midnightblue" d="M530.45,-109.57C565.16,-99.38 615.18,-84.7 646.48,-75.52"/>
<polygon fill="midnightblue" stroke="midnightblue" points="529.27,-106.27 520.66,-112.44 531.24,-112.99 529.27,-106.27"/>
</g>
<!-- Node10 -->
<g id="node10" class="node">
<title>Node10</title>
<g id="a_node10"><a xlink:href="MeOrion_8h.html" target="_top" xlink:title="Driver for MeOrion board.">
<polygon fill="none" stroke="black" points="748.5,-56.5 748.5,-75.5 832.5,-75.5 832.5,-56.5 748.5,-56.5"/>
<text text-anchor="middle" x="790.5" y="-63.5" font-family="Helvetica,sans-Serif" font-size="10.00">src/MeOrion.h</text>
</a>
</g>
</g>
<!-- Node1&#45;&gt;Node10 -->
<g id="edge9" class="edge">
<title>Node1&#45;&gt;Node10</title>
<path fill="none" stroke="midnightblue" d="M549.03,-110.61C607.3,-100.09 696.06,-84.06 748.18,-74.64"/>
<polygon fill="midnightblue" stroke="midnightblue" points="548.1,-107.22 538.88,-112.44 549.34,-114.11 548.1,-107.22"/>
</g>
<!-- Node11 -->
<g id="node11" class="node">
<title>Node11</title>
<g id="a_node11"><a xlink:href="MeShield_8h.html" target="_top" xlink:title="Driver for Shield Board.">
<polygon fill="none" stroke="black" points="850.5,-56.5 850.5,-75.5 938.5,-75.5 938.5,-56.5 850.5,-56.5"/>
<text text-anchor="middle" x="894.5" y="-63.5" font-family="Helvetica,sans-Serif" font-size="10.00">src/MeShield.h</text>
</a>
</g>
</g>
<!-- Node1&#45;&gt;Node11 -->
<g id="edge10" class="edge">
<title>Node1&#45;&gt;Node11</title>
<path fill="none" stroke="midnightblue" d="M551.66,-114.01C621.47,-105.73 740,-91.14 841.5,-76 844.36,-75.57 847.31,-75.12 850.27,-74.65"/>
<polygon fill="midnightblue" stroke="midnightblue" points="551.24,-110.54 541.72,-115.19 552.06,-117.49 551.24,-110.54"/>
</g>
<!-- Node6 -->
<g id="node6" class="node">
<title>Node6</title>
<g id="a_node6"><a xlink:href="MeMbotDCMotor_8cpp.html" target="_top" xlink:title="Driver for Mbot DC Motor.">
<polygon fill="none" stroke="black" points="293.5,-0.5 293.5,-19.5 429.5,-19.5 429.5,-0.5 293.5,-0.5"/>
<text text-anchor="middle" x="361.5" y="-7.5" font-family="Helvetica,sans-Serif" font-size="10.00">src/MeMbotDCMotor.cpp</text>
</a>
</g>
</g>
<!-- Node5&#45;&gt;Node6 -->
<g id="edge5" class="edge">
<title>Node5&#45;&gt;Node6</title>
<path fill="none" stroke="midnightblue" d="M408.95,-49.82C397.12,-40.15 382.21,-27.95 372.3,-19.83"/>
<polygon fill="midnightblue" stroke="midnightblue" points="406.94,-52.7 416.9,-56.32 411.37,-47.28 406.94,-52.7"/>
</g>
<!-- Node7 -->
<g id="node7" class="node">
<title>Node7</title>
<g id="a_node7"><a xlink:href="MeMCore_8h.html" target="_top" xlink:title="Driver for mCore Board.">
<polygon fill="none" stroke="black" points="448,-0.5 448,-19.5 537,-19.5 537,-0.5 448,-0.5"/>
<text text-anchor="middle" x="492.5" y="-7.5" font-family="Helvetica,sans-Serif" font-size="10.00">src/MeMCore.h</text>
</a>
</g>
</g>
<!-- Node5&#45;&gt;Node7 -->
<g id="edge6" class="edge">
<title>Node5&#45;&gt;Node7</title>
<path fill="none" stroke="midnightblue" d="M445.77,-49.82C457.42,-40.15 472.1,-27.95 481.87,-19.83"/>
<polygon fill="midnightblue" stroke="midnightblue" points="443.4,-47.24 437.94,-56.32 447.87,-52.63 443.4,-47.24"/>
</g>
</g>
</svg>
