<?xml version="1.0" encoding="UTF-8" standalone="no"?>
<!DOCTYPE svg PUBLIC "-//W3C//DTD SVG 1.1//EN"
 "http://www.w3.org/Graphics/SVG/1.1/DTD/svg11.dtd">
<!-- Generated by graphviz version 2.43.0 (0)
 -->
<!-- Title: src/MeEncoderMotor.h Pages: 1 -->
<svg width="936pt" height="84pt"
 viewBox="0.00 0.00 935.50 84.00" xmlns="http://www.w3.org/2000/svg" xmlns:xlink="http://www.w3.org/1999/xlink">
<g id="graph0" class="graph" transform="scale(1 1) rotate(0) translate(4 80)">
<title>src/MeEncoderMotor.h</title>
<!-- Node1 -->
<g id="node1" class="node">
<title>Node1</title>
<g id="a_node1"><a xlink:title="Header for MeEncoderMotor.cpp module.">
<polygon fill="#bfbfbf" stroke="black" points="427,-56.5 427,-75.5 552,-75.5 552,-56.5 427,-56.5"/>
<text text-anchor="middle" x="489.5" y="-63.5" font-family="Helvetica,sans-Serif" font-size="10.00">src/MeEncoderMotor.h</text>
</a>
</g>
</g>
<!-- Node2 -->
<g id="node2" class="node">
<title>Node2</title>
<g id="a_node2"><a xlink:href="MeAuriga_8h.html" target="_top" xlink:title="Driver for MeAuriga board.">
<polygon fill="none" stroke="black" points="0,-0.5 0,-19.5 89,-19.5 89,-0.5 0,-0.5"/>
<text text-anchor="middle" x="44.5" y="-7.5" font-family="Helvetica,sans-Serif" font-size="10.00">src/MeAuriga.h</text>
</a>
</g>
</g>
<!-- Node1&#45;&gt;Node2 -->
<g id="edge1" class="edge">
<title>Node1&#45;&gt;Node2</title>
<path fill="none" stroke="midnightblue" d="M416.45,-57.71C337.8,-49.6 209.07,-35.57 98.5,-20 95.49,-19.58 92.39,-19.12 89.26,-18.64"/>
<polygon fill="midnightblue" stroke="midnightblue" points="416.43,-61.22 426.74,-58.76 417.15,-54.26 416.43,-61.22"/>
</g>
<!-- Node3 -->
<g id="node3" class="node">
<title>Node3</title>
<g id="a_node3"><a xlink:href="MeBaseBoard_8h.html" target="_top" xlink:title="Driver for BaseBoard.">
<polygon fill="none" stroke="black" points="107.5,-0.5 107.5,-19.5 217.5,-19.5 217.5,-0.5 107.5,-0.5"/>
<text text-anchor="middle" x="162.5" y="-7.5" font-family="Helvetica,sans-Serif" font-size="10.00">src/MeBaseBoard.h</text>
</a>
</g>
</g>
<!-- Node1&#45;&gt;Node3 -->
<g id="edge2" class="edge">
<title>Node1&#45;&gt;Node3</title>
<path fill="none" stroke="midnightblue" d="M427.68,-54.79C365.89,-44.59 271.97,-29.08 214.07,-19.52"/>
<polygon fill="midnightblue" stroke="midnightblue" points="427.25,-58.27 437.69,-56.44 428.39,-51.36 427.25,-58.27"/>
</g>
<!-- Node4 -->
<g id="node4" class="node">
<title>Node4</title>
<g id="a_node4"><a xlink:href="MeEncoderMotor_8cpp.html" target="_top" xlink:title="Driver for Encoder Motor module.">
<polygon fill="none" stroke="black" points="235.5,-0.5 235.5,-19.5 371.5,-19.5 371.5,-0.5 235.5,-0.5"/>
<text text-anchor="middle" x="303.5" y="-7.5" font-family="Helvetica,sans-Serif" font-size="10.00">src/MeEncoderMotor.cpp</text>
</a>
</g>
</g>
<!-- Node1&#45;&gt;Node4 -->
<g id="edge3" class="edge">
<title>Node1&#45;&gt;Node4</title>
<path fill="none" stroke="midnightblue" d="M450.12,-53.57C415.03,-43.38 364.48,-28.7 332.83,-19.52"/>
<polygon fill="midnightblue" stroke="midnightblue" points="449.45,-57.02 460.03,-56.44 451.4,-50.29 449.45,-57.02"/>
</g>
<!-- Node5 -->
<g id="node5" class="node">
<title>Node5</title>
<g id="a_node5"><a xlink:href="MeMCore_8h.html" target="_top" xlink:title="Driver for mCore Board.">
<polygon fill="none" stroke="black" points="390,-0.5 390,-19.5 479,-19.5 479,-0.5 390,-0.5"/>
<text text-anchor="middle" x="434.5" y="-7.5" font-family="Helvetica,sans-Serif" font-size="10.00">src/MeMCore.h</text>
</a>
</g>
</g>
<!-- Node1&#45;&gt;Node5 -->
<g id="edge4" class="edge">
<title>Node1&#45;&gt;Node5</title>
<path fill="none" stroke="midnightblue" d="M473.21,-49C463.46,-39.43 451.45,-27.64 443.41,-19.75"/>
<polygon fill="midnightblue" stroke="midnightblue" points="470.83,-51.57 480.42,-56.08 475.73,-46.58 470.83,-51.57"/>
</g>
<!-- Node6 -->
<g id="node6" class="node">
<title>Node6</title>
<g id="a_node6"><a xlink:href="MeMegaPi_8h.html" target="_top" xlink:title="Driver for MegaPi board.">
<polygon fill="none" stroke="black" points="497.5,-0.5 497.5,-19.5 591.5,-19.5 591.5,-0.5 497.5,-0.5"/>
<text text-anchor="middle" x="544.5" y="-7.5" font-family="Helvetica,sans-Serif" font-size="10.00">src/MeMegaPi.h</text>
</a>
</g>
</g>
<!-- Node1&#45;&gt;Node6 -->
<g id="edge5" class="edge">
<title>Node1&#45;&gt;Node6</title>
<path fill="none" stroke="midnightblue" d="M505.79,-49C515.54,-39.43 527.55,-27.64 535.59,-19.75"/>
<polygon fill="midnightblue" stroke="midnightblue" points="503.27,-46.58 498.58,-56.08 508.17,-51.57 503.27,-46.58"/>
</g>
<!-- Node7 -->
<g id="node7" class="node">
<title>Node7</title>
<g id="a_node7"><a xlink:href="MeMegaPiPro_8h.html" target="_top" xlink:title="Driver for MegaPiPro board.">
<polygon fill="none" stroke="black" points="609.5,-0.5 609.5,-19.5 719.5,-19.5 719.5,-0.5 609.5,-0.5"/>
<text text-anchor="middle" x="664.5" y="-7.5" font-family="Helvetica,sans-Serif" font-size="10.00">src/MeMegaPiPro.h</text>
</a>
</g>
</g>
<!-- Node1&#45;&gt;Node7 -->
<g id="edge6" class="edge">
<title>Node1&#45;&gt;Node7</title>
<path fill="none" stroke="midnightblue" d="M526.97,-53.44C559.97,-43.26 607.26,-28.66 636.9,-19.52"/>
<polygon fill="midnightblue" stroke="midnightblue" points="525.75,-50.15 517.23,-56.44 527.82,-56.84 525.75,-50.15"/>
</g>
<!-- Node8 -->
<g id="node8" class="node">
<title>Node8</title>
<g id="a_node8"><a xlink:href="MeOrion_8h.html" target="_top" xlink:title="Driver for MeOrion board.">
<polygon fill="none" stroke="black" points="737.5,-0.5 737.5,-19.5 821.5,-19.5 821.5,-0.5 737.5,-0.5"/>
<text text-anchor="middle" x="779.5" y="-7.5" font-family="Helvetica,sans-Serif" font-size="10.00">src/MeOrion.h</text>
</a>
</g>
</g>
<!-- Node1&#45;&gt;Node8 -->
<g id="edge7" class="edge">
<title>Node1&#45;&gt;Node8</title>
<path fill="none" stroke="midnightblue" d="M545.56,-54.56C601.57,-44.13 686.42,-28.33 737.07,-18.9"/>
<polygon fill="midnightblue" stroke="midnightblue" points="544.64,-51.17 535.45,-56.44 545.92,-58.05 544.64,-51.17"/>
</g>
<!-- Node9 -->
<g id="node9" class="node">
<title>Node9</title>
<g id="a_node9"><a xlink:href="MeShield_8h.html" target="_top" xlink:title="Driver for Shield Board.">
<polygon fill="none" stroke="black" points="839.5,-0.5 839.5,-19.5 927.5,-19.5 927.5,-0.5 839.5,-0.5"/>
<text text-anchor="middle" x="883.5" y="-7.5" font-family="Helvetica,sans-Serif" font-size="10.00">src/MeShield.h</text>
</a>
</g>
</g>
<!-- Node1&#45;&gt;Node9 -->
<g id="edge8" class="edge">
<title>Node1&#45;&gt;Node9</title>
<path fill="none" stroke="midnightblue" d="M562.48,-56.16C631.6,-47.61 738.25,-33.91 830.5,-20 833.36,-19.57 836.31,-19.11 839.27,-18.64"/>
<polygon fill="midnightblue" stroke="midnightblue" points="561.63,-52.74 552.13,-57.44 562.49,-59.69 561.63,-52.74"/>
</g>
</g>
</svg>
