<?xml version="1.0" encoding="UTF-8" standalone="no"?>
<!DOCTYPE svg PUBLIC "-//W3C//DTD SVG 1.1//EN"
 "http://www.w3.org/Graphics/SVG/1.1/DTD/svg11.dtd">
<!-- Generated by graphviz version 2.43.0 (0)
 -->
<!-- Title: src/MeEncoderMotor.cpp Pages: 1 -->
<svg width="925pt" height="308pt"
 viewBox="0.00 0.00 925.37 308.00" xmlns="http://www.w3.org/2000/svg" xmlns:xlink="http://www.w3.org/1999/xlink">
<g id="graph0" class="graph" transform="scale(1 1) rotate(0) translate(4 304)">
<title>src/MeEncoderMotor.cpp</title>
<!-- Node1 -->
<g id="node1" class="node">
<title>Node1</title>
<g id="a_node1"><a xlink:title="Driver for Encoder Motor module.">
<polygon fill="#bfbfbf" stroke="black" points="589.5,-280.5 589.5,-299.5 725.5,-299.5 725.5,-280.5 589.5,-280.5"/>
<text text-anchor="middle" x="657.5" y="-287.5" font-family="Helvetica,sans-Serif" font-size="10.00">src/MeEncoderMotor.cpp</text>
</a>
</g>
</g>
<!-- Node2 -->
<g id="node2" class="node">
<title>Node2</title>
<g id="a_node2"><a xlink:href="MeEncoderMotor_8h.html" target="_top" xlink:title="Header for MeEncoderMotor.cpp module.">
<polygon fill="none" stroke="black" points="545,-224.5 545,-243.5 652,-243.5 652,-224.5 545,-224.5"/>
<text text-anchor="middle" x="598.5" y="-231.5" font-family="Helvetica,sans-Serif" font-size="10.00">MeEncoderMotor.h</text>
</a>
</g>
</g>
<!-- Node1&#45;&gt;Node2 -->
<g id="edge1" class="edge">
<title>Node1&#45;&gt;Node2</title>
<path fill="none" stroke="midnightblue" d="M648.02,-280.32C639.3,-272.34 626.16,-260.31 615.6,-250.65"/>
<polygon fill="midnightblue" stroke="midnightblue" points="617.89,-248 608.15,-243.83 613.17,-253.17 617.89,-248"/>
</g>
<!-- Node20 -->
<g id="node20" class="node">
<title>Node20</title>
<g id="a_node20"><a xlink:href="MeHostParser_8h.html" target="_top" xlink:title="Header for MeHostParser.cpp module.">
<polygon fill="none" stroke="black" points="776.5,-224.5 776.5,-243.5 868.5,-243.5 868.5,-224.5 776.5,-224.5"/>
<text text-anchor="middle" x="822.5" y="-231.5" font-family="Helvetica,sans-Serif" font-size="10.00">MeHostParser.h</text>
</a>
</g>
</g>
<!-- Node1&#45;&gt;Node20 -->
<g id="edge26" class="edge">
<title>Node1&#45;&gt;Node20</title>
<path fill="none" stroke="midnightblue" d="M683.64,-280.44C711.52,-271.32 755.85,-256.81 786.9,-246.65"/>
<polygon fill="midnightblue" stroke="midnightblue" points="788.06,-249.95 796.48,-243.52 785.88,-243.3 788.06,-249.95"/>
</g>
<!-- Node3 -->
<g id="node3" class="node">
<title>Node3</title>
<g id="a_node3"><a xlink:title=" ">
<polygon fill="none" stroke="#bfbfbf" points="479.5,-168.5 479.5,-187.5 541.5,-187.5 541.5,-168.5 479.5,-168.5"/>
<text text-anchor="middle" x="510.5" y="-175.5" font-family="Helvetica,sans-Serif" font-size="10.00">stdbool.h</text>
</a>
</g>
</g>
<!-- Node2&#45;&gt;Node3 -->
<g id="edge2" class="edge">
<title>Node2&#45;&gt;Node3</title>
<path fill="none" stroke="midnightblue" d="M584.36,-224.32C570.63,-215.9 549.56,-202.97 533.44,-193.07"/>
<polygon fill="midnightblue" stroke="midnightblue" points="534.96,-189.9 524.6,-187.65 531.3,-195.87 534.96,-189.9"/>
</g>
<!-- Node4 -->
<g id="node4" class="node">
<title>Node4</title>
<g id="a_node4"><a xlink:href="MeConfig_8h_source.html" target="_top" xlink:title=" ">
<polygon fill="none" stroke="black" points="361,-112.5 361,-131.5 432,-131.5 432,-112.5 361,-112.5"/>
<text text-anchor="middle" x="396.5" y="-119.5" font-family="Helvetica,sans-Serif" font-size="10.00">MeConfig.h</text>
</a>
</g>
</g>
<!-- Node2&#45;&gt;Node4 -->
<g id="edge3" class="edge">
<title>Node2&#45;&gt;Node4</title>
<path fill="none" stroke="midnightblue" d="M594.49,-224.43C587.54,-210.48 571.89,-182.94 550.5,-168 532.94,-155.74 480.92,-141.97 442.17,-132.93"/>
<polygon fill="midnightblue" stroke="midnightblue" points="442.66,-129.46 432.13,-130.63 441.09,-136.28 442.66,-129.46"/>
</g>
<!-- Node15 -->
<g id="node15" class="node">
<title>Node15</title>
<g id="a_node15"><a xlink:href="MePort_8h.html" target="_top" xlink:title="Header for MePort.cpp module.">
<polygon fill="none" stroke="black" points="597.5,-168.5 597.5,-187.5 657.5,-187.5 657.5,-168.5 597.5,-168.5"/>
<text text-anchor="middle" x="627.5" y="-175.5" font-family="Helvetica,sans-Serif" font-size="10.00">MePort.h</text>
</a>
</g>
</g>
<!-- Node2&#45;&gt;Node15 -->
<g id="edge18" class="edge">
<title>Node2&#45;&gt;Node15</title>
<path fill="none" stroke="midnightblue" d="M603.29,-224.08C607.26,-216.69 613.03,-205.95 617.93,-196.81"/>
<polygon fill="midnightblue" stroke="midnightblue" points="621.15,-198.22 622.8,-187.75 614.99,-194.91 621.15,-198.22"/>
</g>
<!-- Node5 -->
<g id="node5" class="node">
<title>Node5</title>
<g id="a_node5"><a xlink:href="Servo_8h_source.html" target="_top" xlink:title=" ">
<polygon fill="none" stroke="black" points="0,-56.5 0,-75.5 85,-75.5 85,-56.5 0,-56.5"/>
<text text-anchor="middle" x="42.5" y="-63.5" font-family="Helvetica,sans-Serif" font-size="10.00">utility/Servo.h</text>
</a>
</g>
</g>
<!-- Node4&#45;&gt;Node5 -->
<g id="edge4" class="edge">
<title>Node4&#45;&gt;Node5</title>
<path fill="none" stroke="midnightblue" d="M360.66,-115.94C305.83,-108.13 197.58,-92.48 94.96,-76.04"/>
<polygon fill="midnightblue" stroke="midnightblue" points="95.48,-72.58 85.05,-74.45 94.37,-79.49 95.48,-72.58"/>
</g>
<!-- Node7 -->
<g id="node7" class="node">
<title>Node7</title>
<g id="a_node7"><a xlink:href="Wire_8h_source.html" target="_top" xlink:title=" ">
<polygon fill="none" stroke="black" points="103.5,-56.5 103.5,-75.5 183.5,-75.5 183.5,-56.5 103.5,-56.5"/>
<text text-anchor="middle" x="143.5" y="-63.5" font-family="Helvetica,sans-Serif" font-size="10.00">utility/Wire.h</text>
</a>
</g>
</g>
<!-- Node4&#45;&gt;Node7 -->
<g id="edge6" class="edge">
<title>Node4&#45;&gt;Node7</title>
<path fill="none" stroke="midnightblue" d="M360.79,-113.38C317.08,-104.05 242.81,-88.2 193.45,-77.66"/>
<polygon fill="midnightblue" stroke="midnightblue" points="194.13,-74.23 183.62,-75.56 192.67,-81.07 194.13,-74.23"/>
</g>
<!-- Node9 -->
<g id="node9" class="node">
<title>Node9</title>
<g id="a_node9"><a xlink:href="EEPROM_8h_source.html" target="_top" xlink:title=" ">
<polygon fill="none" stroke="black" points="347.5,-56.5 347.5,-75.5 445.5,-75.5 445.5,-56.5 347.5,-56.5"/>
<text text-anchor="middle" x="396.5" y="-63.5" font-family="Helvetica,sans-Serif" font-size="10.00">utility/EEPROM.h</text>
</a>
</g>
</g>
<!-- Node4&#45;&gt;Node9 -->
<g id="edge9" class="edge">
<title>Node4&#45;&gt;Node9</title>
<path fill="none" stroke="midnightblue" d="M396.5,-112.08C396.5,-105.01 396.5,-94.86 396.5,-85.99"/>
<polygon fill="midnightblue" stroke="midnightblue" points="400,-85.75 396.5,-75.75 393,-85.75 400,-85.75"/>
</g>
<!-- Node12 -->
<g id="node12" class="node">
<title>Node12</title>
<g id="a_node12"><a xlink:href="SoftwareSerial_8h_source.html" target="_top" xlink:title=" ">
<polygon fill="none" stroke="black" points="201.5,-56.5 201.5,-75.5 329.5,-75.5 329.5,-56.5 201.5,-56.5"/>
<text text-anchor="middle" x="265.5" y="-63.5" font-family="Helvetica,sans-Serif" font-size="10.00">utility/SoftwareSerial.h</text>
</a>
</g>
</g>
<!-- Node4&#45;&gt;Node12 -->
<g id="edge13" class="edge">
<title>Node4&#45;&gt;Node12</title>
<path fill="none" stroke="midnightblue" d="M375.74,-112.44C354.18,-103.56 320.24,-89.56 295.71,-79.45"/>
<polygon fill="midnightblue" stroke="midnightblue" points="296.74,-76.09 286.16,-75.52 294.07,-82.56 296.74,-76.09"/>
</g>
<!-- Node13 -->
<g id="node13" class="node">
<title>Node13</title>
<g id="a_node13"><a xlink:href="SPI_8h_source.html" target="_top" xlink:title=" ">
<polygon fill="none" stroke="black" points="501.5,-56.5 501.5,-75.5 573.5,-75.5 573.5,-56.5 501.5,-56.5"/>
<text text-anchor="middle" x="537.5" y="-63.5" font-family="Helvetica,sans-Serif" font-size="10.00">utility/SPI.h</text>
</a>
</g>
</g>
<!-- Node4&#45;&gt;Node13 -->
<g id="edge16" class="edge">
<title>Node4&#45;&gt;Node13</title>
<path fill="none" stroke="midnightblue" d="M418.84,-112.44C442.25,-103.48 479.24,-89.31 505.69,-79.18"/>
<polygon fill="midnightblue" stroke="midnightblue" points="507.18,-82.36 515.26,-75.52 504.67,-75.82 507.18,-82.36"/>
</g>
<!-- Node6 -->
<g id="node6" class="node">
<title>Node6</title>
<g id="a_node6"><a xlink:title=" ">
<polygon fill="none" stroke="#bfbfbf" points="122,-0.5 122,-19.5 187,-19.5 187,-0.5 122,-0.5"/>
<text text-anchor="middle" x="154.5" y="-7.5" font-family="Helvetica,sans-Serif" font-size="10.00">inttypes.h</text>
</a>
</g>
</g>
<!-- Node5&#45;&gt;Node6 -->
<g id="edge5" class="edge">
<title>Node5&#45;&gt;Node6</title>
<path fill="none" stroke="midnightblue" d="M60.49,-56.32C78.54,-47.62 106.55,-34.12 127.3,-24.11"/>
<polygon fill="midnightblue" stroke="midnightblue" points="129.06,-27.15 136.55,-19.65 126.02,-20.84 129.06,-27.15"/>
</g>
<!-- Node7&#45;&gt;Node6 -->
<g id="edge7" class="edge">
<title>Node7&#45;&gt;Node6</title>
<path fill="none" stroke="midnightblue" d="M145.32,-56.08C146.77,-48.93 148.87,-38.64 150.69,-29.69"/>
<polygon fill="midnightblue" stroke="midnightblue" points="154.15,-30.25 152.72,-19.75 147.29,-28.85 154.15,-30.25"/>
</g>
<!-- Node8 -->
<g id="node8" class="node">
<title>Node8</title>
<g id="a_node8"><a xlink:title=" ">
<polygon fill="none" stroke="#bfbfbf" points="215,-0.5 215,-19.5 276,-19.5 276,-0.5 215,-0.5"/>
<text text-anchor="middle" x="245.5" y="-7.5" font-family="Helvetica,sans-Serif" font-size="10.00">Stream.h</text>
</a>
</g>
</g>
<!-- Node7&#45;&gt;Node8 -->
<g id="edge8" class="edge">
<title>Node7&#45;&gt;Node8</title>
<path fill="none" stroke="midnightblue" d="M159.89,-56.32C176.17,-47.7 201.37,-34.36 220.22,-24.39"/>
<polygon fill="midnightblue" stroke="midnightblue" points="221.95,-27.43 229.15,-19.65 218.68,-21.24 221.95,-27.43"/>
</g>
<!-- Node9&#45;&gt;Node6 -->
<g id="edge10" class="edge">
<title>Node9&#45;&gt;Node6</title>
<path fill="none" stroke="midnightblue" d="M358.15,-56.44C314.29,-46.66 242.67,-30.67 197.1,-20.51"/>
<polygon fill="midnightblue" stroke="midnightblue" points="197.76,-17.07 187.23,-18.3 196.23,-23.9 197.76,-17.07"/>
</g>
<!-- Node10 -->
<g id="node10" class="node">
<title>Node10</title>
<g id="a_node10"><a xlink:title=" ">
<polygon fill="none" stroke="#bfbfbf" points="346.5,-0.5 346.5,-19.5 428.5,-19.5 428.5,-0.5 346.5,-0.5"/>
<text text-anchor="middle" x="387.5" y="-7.5" font-family="Helvetica,sans-Serif" font-size="10.00">avr/eeprom.h</text>
</a>
</g>
</g>
<!-- Node9&#45;&gt;Node10 -->
<g id="edge11" class="edge">
<title>Node9&#45;&gt;Node10</title>
<path fill="none" stroke="midnightblue" d="M395.01,-56.08C393.82,-48.93 392.11,-38.64 390.62,-29.69"/>
<polygon fill="midnightblue" stroke="midnightblue" points="394.05,-29.04 388.96,-19.75 387.15,-30.19 394.05,-29.04"/>
</g>
<!-- Node11 -->
<g id="node11" class="node">
<title>Node11</title>
<g id="a_node11"><a xlink:title=" ">
<polygon fill="none" stroke="#bfbfbf" points="447,-0.5 447,-19.5 500,-19.5 500,-0.5 447,-0.5"/>
<text text-anchor="middle" x="473.5" y="-7.5" font-family="Helvetica,sans-Serif" font-size="10.00">avr/io.h</text>
</a>
</g>
</g>
<!-- Node9&#45;&gt;Node11 -->
<g id="edge12" class="edge">
<title>Node9&#45;&gt;Node11</title>
<path fill="none" stroke="midnightblue" d="M408.87,-56.32C420.66,-48.06 438.63,-35.45 452.64,-25.63"/>
<polygon fill="midnightblue" stroke="midnightblue" points="454.98,-28.26 461.16,-19.65 450.96,-22.53 454.98,-28.26"/>
</g>
<!-- Node12&#45;&gt;Node6 -->
<g id="edge14" class="edge">
<title>Node12&#45;&gt;Node6</title>
<path fill="none" stroke="midnightblue" d="M247.67,-56.32C229.78,-47.62 202.02,-34.12 181.45,-24.11"/>
<polygon fill="midnightblue" stroke="midnightblue" points="182.81,-20.88 172.29,-19.65 179.75,-27.18 182.81,-20.88"/>
</g>
<!-- Node12&#45;&gt;Node8 -->
<g id="edge15" class="edge">
<title>Node12&#45;&gt;Node8</title>
<path fill="none" stroke="midnightblue" d="M262.2,-56.08C259.52,-48.85 255.65,-38.41 252.31,-29.4"/>
<polygon fill="midnightblue" stroke="midnightblue" points="255.5,-27.91 248.74,-19.75 248.93,-30.34 255.5,-27.91"/>
</g>
<!-- Node14 -->
<g id="node14" class="node">
<title>Node14</title>
<g id="a_node14"><a xlink:title=" ">
<polygon fill="none" stroke="#bfbfbf" points="570,-0.5 570,-19.5 633,-19.5 633,-0.5 570,-0.5"/>
<text text-anchor="middle" x="601.5" y="-7.5" font-family="Helvetica,sans-Serif" font-size="10.00">Arduino.h</text>
</a>
</g>
</g>
<!-- Node13&#45;&gt;Node14 -->
<g id="edge17" class="edge">
<title>Node13&#45;&gt;Node14</title>
<path fill="none" stroke="midnightblue" d="M547.78,-56.32C557.34,-48.26 571.78,-36.08 583.28,-26.37"/>
<polygon fill="midnightblue" stroke="midnightblue" points="585.64,-28.96 591.03,-19.83 581.13,-23.61 585.64,-28.96"/>
</g>
<!-- Node15&#45;&gt;Node4 -->
<g id="edge25" class="edge">
<title>Node15&#45;&gt;Node4</title>
<path fill="none" stroke="midnightblue" d="M597.3,-169.94C557.73,-160.69 487.99,-144.39 442.01,-133.64"/>
<polygon fill="midnightblue" stroke="midnightblue" points="442.54,-130.17 432.01,-131.3 440.95,-136.99 442.54,-130.17"/>
</g>
<!-- Node15&#45;&gt;Node11 -->
<g id="edge21" class="edge">
<title>Node15&#45;&gt;Node11</title>
<path fill="none" stroke="midnightblue" d="M609.23,-168.27C580.12,-153.43 523.36,-120.5 492.5,-76 482.97,-62.26 478.17,-43.73 475.78,-29.97"/>
<polygon fill="midnightblue" stroke="midnightblue" points="479.19,-29.14 474.29,-19.75 472.27,-30.15 479.19,-29.14"/>
</g>
<!-- Node15&#45;&gt;Node14 -->
<g id="edge19" class="edge">
<title>Node15&#45;&gt;Node14</title>
<path fill="none" stroke="midnightblue" d="M611.72,-168.47C599.3,-160.77 582.89,-148.18 575.5,-132 571.8,-123.92 574.38,-120.82 575.5,-112 577.51,-96.11 589.16,-53.95 596.16,-29.42"/>
<polygon fill="midnightblue" stroke="midnightblue" points="599.6,-30.12 599,-19.54 592.88,-28.18 599.6,-30.12"/>
</g>
<!-- Node16 -->
<g id="node16" class="node">
<title>Node16</title>
<g id="a_node16"><a xlink:title=" ">
<polygon fill="none" stroke="#bfbfbf" points="584.5,-112.5 584.5,-131.5 670.5,-131.5 670.5,-112.5 584.5,-112.5"/>
<text text-anchor="middle" x="627.5" y="-119.5" font-family="Helvetica,sans-Serif" font-size="10.00">avr/interrupt.h</text>
</a>
</g>
</g>
<!-- Node15&#45;&gt;Node16 -->
<g id="edge20" class="edge">
<title>Node15&#45;&gt;Node16</title>
<path fill="none" stroke="midnightblue" d="M627.5,-168.08C627.5,-161.01 627.5,-150.86 627.5,-141.99"/>
<polygon fill="midnightblue" stroke="midnightblue" points="631,-141.75 627.5,-131.75 624,-141.75 631,-141.75"/>
</g>
<!-- Node17 -->
<g id="node17" class="node">
<title>Node17</title>
<g id="a_node17"><a xlink:title=" ">
<polygon fill="none" stroke="#bfbfbf" points="688.5,-112.5 688.5,-131.5 758.5,-131.5 758.5,-112.5 688.5,-112.5"/>
<text text-anchor="middle" x="723.5" y="-119.5" font-family="Helvetica,sans-Serif" font-size="10.00">util/delay.h</text>
</a>
</g>
</g>
<!-- Node15&#45;&gt;Node17 -->
<g id="edge22" class="edge">
<title>Node15&#45;&gt;Node17</title>
<path fill="none" stroke="midnightblue" d="M642.92,-168.32C658.04,-159.82 681.32,-146.73 698.97,-136.8"/>
<polygon fill="midnightblue" stroke="midnightblue" points="701.11,-139.61 708.11,-131.65 697.68,-133.51 701.11,-139.61"/>
</g>
<!-- Node18 -->
<g id="node18" class="node">
<title>Node18</title>
<g id="a_node18"><a xlink:title=" ">
<polygon fill="none" stroke="#bfbfbf" points="777,-112.5 777,-131.5 830,-131.5 830,-112.5 777,-112.5"/>
<text text-anchor="middle" x="803.5" y="-119.5" font-family="Helvetica,sans-Serif" font-size="10.00">stdint.h</text>
</a>
</g>
</g>
<!-- Node15&#45;&gt;Node18 -->
<g id="edge23" class="edge">
<title>Node15&#45;&gt;Node18</title>
<path fill="none" stroke="midnightblue" d="M655.39,-168.44C685.61,-159.17 733.94,-144.34 767.12,-134.16"/>
<polygon fill="midnightblue" stroke="midnightblue" points="768.36,-137.44 776.89,-131.16 766.31,-130.75 768.36,-137.44"/>
</g>
<!-- Node19 -->
<g id="node19" class="node">
<title>Node19</title>
<g id="a_node19"><a xlink:title=" ">
<polygon fill="none" stroke="#bfbfbf" points="848,-112.5 848,-131.5 901,-131.5 901,-112.5 848,-112.5"/>
<text text-anchor="middle" x="874.5" y="-119.5" font-family="Helvetica,sans-Serif" font-size="10.00">stdlib.h</text>
</a>
</g>
</g>
<!-- Node15&#45;&gt;Node19 -->
<g id="edge24" class="edge">
<title>Node15&#45;&gt;Node19</title>
<path fill="none" stroke="midnightblue" d="M657.62,-170.92C696.79,-162.94 767.55,-148.27 837.87,-132.08"/>
<polygon fill="midnightblue" stroke="midnightblue" points="838.83,-135.45 847.79,-129.79 837.26,-128.63 838.83,-135.45"/>
</g>
<!-- Node20&#45;&gt;Node14 -->
<g id="edge27" class="edge">
<title>Node20&#45;&gt;Node14</title>
<path fill="none" stroke="midnightblue" d="M837.05,-224.48C868.98,-204.69 940.01,-154.11 909.5,-112 847.79,-26.82 712.01,-12.18 643.21,-10.49"/>
<polygon fill="midnightblue" stroke="midnightblue" points="643.22,-6.99 633.17,-10.32 643.11,-13.99 643.22,-6.99"/>
</g>
</g>
</svg>
