<?xml version="1.0" encoding="UTF-8" standalone="no"?>
<!DOCTYPE svg PUBLIC "-//W3C//DTD SVG 1.1//EN"
 "http://www.w3.org/Graphics/SVG/1.1/DTD/svg11.dtd">
<!-- Generated by graphviz version 2.43.0 (0)
 -->
<!-- Title: src/MeEncoderMotor.h Pages: 1 -->
<svg width="955pt" height="252pt"
 viewBox="0.00 0.00 955.00 252.00" xmlns="http://www.w3.org/2000/svg" xmlns:xlink="http://www.w3.org/1999/xlink">
<g id="graph0" class="graph" transform="scale(1 1) rotate(0) translate(4 248)">
<title>src/MeEncoderMotor.h</title>
<!-- Node1 -->
<g id="node1" class="node">
<title>Node1</title>
<g id="a_node1"><a xlink:title="Header for MeEncoderMotor.cpp module.">
<polygon fill="#bfbfbf" stroke="black" points="254.5,-224.5 254.5,-243.5 379.5,-243.5 379.5,-224.5 254.5,-224.5"/>
<text text-anchor="middle" x="317" y="-231.5" font-family="Helvetica,sans-Serif" font-size="10.00">src/MeEncoderMotor.h</text>
</a>
</g>
</g>
<!-- Node2 -->
<g id="node2" class="node">
<title>Node2</title>
<g id="a_node2"><a xlink:title=" ">
<polygon fill="none" stroke="#bfbfbf" points="207,-168.5 207,-187.5 269,-187.5 269,-168.5 207,-168.5"/>
<text text-anchor="middle" x="238" y="-175.5" font-family="Helvetica,sans-Serif" font-size="10.00">stdbool.h</text>
</a>
</g>
</g>
<!-- Node1&#45;&gt;Node2 -->
<g id="edge1" class="edge">
<title>Node1&#45;&gt;Node2</title>
<path fill="none" stroke="midnightblue" d="M304.31,-224.32C292.1,-215.98 273.42,-203.21 259,-193.35"/>
<polygon fill="midnightblue" stroke="midnightblue" points="260.89,-190.41 250.66,-187.65 256.94,-196.19 260.89,-190.41"/>
</g>
<!-- Node3 -->
<g id="node3" class="node">
<title>Node3</title>
<g id="a_node3"><a xlink:href="MeConfig_8h_source.html" target="_top" xlink:title=" ">
<polygon fill="none" stroke="black" points="514.5,-112.5 514.5,-131.5 585.5,-131.5 585.5,-112.5 514.5,-112.5"/>
<text text-anchor="middle" x="550" y="-119.5" font-family="Helvetica,sans-Serif" font-size="10.00">MeConfig.h</text>
</a>
</g>
</g>
<!-- Node1&#45;&gt;Node3 -->
<g id="edge2" class="edge">
<title>Node1&#45;&gt;Node3</title>
<path fill="none" stroke="midnightblue" d="M335.28,-224.37C376.03,-205.13 474.49,-158.65 522.61,-135.93"/>
<polygon fill="midnightblue" stroke="midnightblue" points="524.25,-139.03 531.8,-131.59 521.26,-132.7 524.25,-139.03"/>
</g>
<!-- Node14 -->
<g id="node14" class="node">
<title>Node14</title>
<g id="a_node14"><a xlink:href="MePort_8h.html" target="_top" xlink:title="Header for MePort.cpp module.">
<polygon fill="none" stroke="black" points="287,-168.5 287,-187.5 347,-187.5 347,-168.5 287,-168.5"/>
<text text-anchor="middle" x="317" y="-175.5" font-family="Helvetica,sans-Serif" font-size="10.00">MePort.h</text>
</a>
</g>
</g>
<!-- Node1&#45;&gt;Node14 -->
<g id="edge17" class="edge">
<title>Node1&#45;&gt;Node14</title>
<path fill="none" stroke="midnightblue" d="M317,-224.08C317,-217.01 317,-206.86 317,-197.99"/>
<polygon fill="midnightblue" stroke="midnightblue" points="320.5,-197.75 317,-187.75 313.5,-197.75 320.5,-197.75"/>
</g>
<!-- Node4 -->
<g id="node4" class="node">
<title>Node4</title>
<g id="a_node4"><a xlink:href="Servo_8h_source.html" target="_top" xlink:title=" ">
<polygon fill="none" stroke="black" points="617.5,-56.5 617.5,-75.5 702.5,-75.5 702.5,-56.5 617.5,-56.5"/>
<text text-anchor="middle" x="660" y="-63.5" font-family="Helvetica,sans-Serif" font-size="10.00">utility/Servo.h</text>
</a>
</g>
</g>
<!-- Node3&#45;&gt;Node4 -->
<g id="edge3" class="edge">
<title>Node3&#45;&gt;Node4</title>
<path fill="none" stroke="midnightblue" d="M567.67,-112.32C585.39,-103.62 612.9,-90.12 633.29,-80.11"/>
<polygon fill="midnightblue" stroke="midnightblue" points="634.94,-83.2 642.37,-75.65 631.85,-76.92 634.94,-83.2"/>
</g>
<!-- Node6 -->
<g id="node6" class="node">
<title>Node6</title>
<g id="a_node6"><a xlink:href="Wire_8h_source.html" target="_top" xlink:title=" ">
<polygon fill="none" stroke="black" points="721,-56.5 721,-75.5 801,-75.5 801,-56.5 721,-56.5"/>
<text text-anchor="middle" x="761" y="-63.5" font-family="Helvetica,sans-Serif" font-size="10.00">utility/Wire.h</text>
</a>
</g>
</g>
<!-- Node3&#45;&gt;Node6 -->
<g id="edge5" class="edge">
<title>Node3&#45;&gt;Node6</title>
<path fill="none" stroke="midnightblue" d="M583.43,-112.44C619.86,-103.12 678.23,-88.18 718.03,-78"/>
<polygon fill="midnightblue" stroke="midnightblue" points="718.9,-81.39 727.72,-75.52 717.17,-74.61 718.9,-81.39"/>
</g>
<!-- Node8 -->
<g id="node8" class="node">
<title>Node8</title>
<g id="a_node8"><a xlink:href="EEPROM_8h_source.html" target="_top" xlink:title=" ">
<polygon fill="none" stroke="black" points="501,-56.5 501,-75.5 599,-75.5 599,-56.5 501,-56.5"/>
<text text-anchor="middle" x="550" y="-63.5" font-family="Helvetica,sans-Serif" font-size="10.00">utility/EEPROM.h</text>
</a>
</g>
</g>
<!-- Node3&#45;&gt;Node8 -->
<g id="edge8" class="edge">
<title>Node3&#45;&gt;Node8</title>
<path fill="none" stroke="midnightblue" d="M550,-112.08C550,-105.01 550,-94.86 550,-85.99"/>
<polygon fill="midnightblue" stroke="midnightblue" points="553.5,-85.75 550,-75.75 546.5,-85.75 553.5,-85.75"/>
</g>
<!-- Node11 -->
<g id="node11" class="node">
<title>Node11</title>
<g id="a_node11"><a xlink:href="SoftwareSerial_8h_source.html" target="_top" xlink:title=" ">
<polygon fill="none" stroke="black" points="819,-56.5 819,-75.5 947,-75.5 947,-56.5 819,-56.5"/>
<text text-anchor="middle" x="883" y="-63.5" font-family="Helvetica,sans-Serif" font-size="10.00">utility/SoftwareSerial.h</text>
</a>
</g>
</g>
<!-- Node3&#45;&gt;Node11 -->
<g id="edge12" class="edge">
<title>Node3&#45;&gt;Node11</title>
<path fill="none" stroke="midnightblue" d="M585.64,-115.22C641.69,-106.13 751.19,-88.37 820.53,-77.13"/>
<polygon fill="midnightblue" stroke="midnightblue" points="821.15,-80.58 830.46,-75.52 820.03,-73.67 821.15,-80.58"/>
</g>
<!-- Node12 -->
<g id="node12" class="node">
<title>Node12</title>
<g id="a_node12"><a xlink:href="SPI_8h_source.html" target="_top" xlink:title=" ">
<polygon fill="none" stroke="black" points="411,-56.5 411,-75.5 483,-75.5 483,-56.5 411,-56.5"/>
<text text-anchor="middle" x="447" y="-63.5" font-family="Helvetica,sans-Serif" font-size="10.00">utility/SPI.h</text>
</a>
</g>
</g>
<!-- Node3&#45;&gt;Node12 -->
<g id="edge15" class="edge">
<title>Node3&#45;&gt;Node12</title>
<path fill="none" stroke="midnightblue" d="M533.45,-112.32C517.01,-103.7 491.57,-90.36 472.53,-80.39"/>
<polygon fill="midnightblue" stroke="midnightblue" points="473.99,-77.2 463.51,-75.65 470.74,-83.4 473.99,-77.2"/>
</g>
<!-- Node5 -->
<g id="node5" class="node">
<title>Node5</title>
<g id="a_node5"><a xlink:title=" ">
<polygon fill="none" stroke="#bfbfbf" points="637.5,-0.5 637.5,-19.5 702.5,-19.5 702.5,-0.5 637.5,-0.5"/>
<text text-anchor="middle" x="670" y="-7.5" font-family="Helvetica,sans-Serif" font-size="10.00">inttypes.h</text>
</a>
</g>
</g>
<!-- Node4&#45;&gt;Node5 -->
<g id="edge4" class="edge">
<title>Node4&#45;&gt;Node5</title>
<path fill="none" stroke="midnightblue" d="M661.65,-56.08C662.98,-48.93 664.88,-38.64 666.54,-29.69"/>
<polygon fill="midnightblue" stroke="midnightblue" points="670,-30.22 668.38,-19.75 663.12,-28.95 670,-30.22"/>
</g>
<!-- Node6&#45;&gt;Node5 -->
<g id="edge6" class="edge">
<title>Node6&#45;&gt;Node5</title>
<path fill="none" stroke="midnightblue" d="M746.38,-56.32C732.05,-47.82 709.99,-34.73 693.25,-24.8"/>
<polygon fill="midnightblue" stroke="midnightblue" points="694.97,-21.75 684.58,-19.65 691.4,-27.77 694.97,-21.75"/>
</g>
<!-- Node7 -->
<g id="node7" class="node">
<title>Node7</title>
<g id="a_node7"><a xlink:title=" ">
<polygon fill="none" stroke="#bfbfbf" points="791.5,-0.5 791.5,-19.5 852.5,-19.5 852.5,-0.5 791.5,-0.5"/>
<text text-anchor="middle" x="822" y="-7.5" font-family="Helvetica,sans-Serif" font-size="10.00">Stream.h</text>
</a>
</g>
</g>
<!-- Node6&#45;&gt;Node7 -->
<g id="edge7" class="edge">
<title>Node6&#45;&gt;Node7</title>
<path fill="none" stroke="midnightblue" d="M770.8,-56.32C779.82,-48.34 793.41,-36.31 804.32,-26.65"/>
<polygon fill="midnightblue" stroke="midnightblue" points="806.85,-29.08 812.02,-19.83 802.21,-23.84 806.85,-29.08"/>
</g>
<!-- Node8&#45;&gt;Node5 -->
<g id="edge9" class="edge">
<title>Node8&#45;&gt;Node5</title>
<path fill="none" stroke="midnightblue" d="M569.01,-56.44C588.59,-47.64 619.31,-33.81 641.73,-23.72"/>
<polygon fill="midnightblue" stroke="midnightblue" points="643.39,-26.81 651.07,-19.52 640.52,-20.43 643.39,-26.81"/>
</g>
<!-- Node9 -->
<g id="node9" class="node">
<title>Node9</title>
<g id="a_node9"><a xlink:title=" ">
<polygon fill="none" stroke="#bfbfbf" points="509,-0.5 509,-19.5 591,-19.5 591,-0.5 509,-0.5"/>
<text text-anchor="middle" x="550" y="-7.5" font-family="Helvetica,sans-Serif" font-size="10.00">avr/eeprom.h</text>
</a>
</g>
</g>
<!-- Node8&#45;&gt;Node9 -->
<g id="edge10" class="edge">
<title>Node8&#45;&gt;Node9</title>
<path fill="none" stroke="midnightblue" d="M550,-56.08C550,-49.01 550,-38.86 550,-29.99"/>
<polygon fill="midnightblue" stroke="midnightblue" points="553.5,-29.75 550,-19.75 546.5,-29.75 553.5,-29.75"/>
</g>
<!-- Node10 -->
<g id="node10" class="node">
<title>Node10</title>
<g id="a_node10"><a xlink:title=" ">
<polygon fill="none" stroke="#bfbfbf" points="426.5,-0.5 426.5,-19.5 479.5,-19.5 479.5,-0.5 426.5,-0.5"/>
<text text-anchor="middle" x="453" y="-7.5" font-family="Helvetica,sans-Serif" font-size="10.00">avr/io.h</text>
</a>
</g>
</g>
<!-- Node8&#45;&gt;Node10 -->
<g id="edge11" class="edge">
<title>Node8&#45;&gt;Node10</title>
<path fill="none" stroke="midnightblue" d="M534.42,-56.32C519,-47.74 495.19,-34.49 477.29,-24.52"/>
<polygon fill="midnightblue" stroke="midnightblue" points="478.99,-21.46 468.55,-19.65 475.58,-27.58 478.99,-21.46"/>
</g>
<!-- Node11&#45;&gt;Node5 -->
<g id="edge13" class="edge">
<title>Node11&#45;&gt;Node5</title>
<path fill="none" stroke="midnightblue" d="M849.25,-56.44C812.16,-47.04 752.51,-31.92 712.32,-21.73"/>
<polygon fill="midnightblue" stroke="midnightblue" points="713.1,-18.32 702.54,-19.25 711.38,-25.1 713.1,-18.32"/>
</g>
<!-- Node11&#45;&gt;Node7 -->
<g id="edge14" class="edge">
<title>Node11&#45;&gt;Node7</title>
<path fill="none" stroke="midnightblue" d="M873.2,-56.32C864.18,-48.34 850.59,-36.31 839.68,-26.65"/>
<polygon fill="midnightblue" stroke="midnightblue" points="841.79,-23.84 831.98,-19.83 837.15,-29.08 841.79,-23.84"/>
</g>
<!-- Node13 -->
<g id="node13" class="node">
<title>Node13</title>
<g id="a_node13"><a xlink:title=" ">
<polygon fill="none" stroke="#bfbfbf" points="324.5,-0.5 324.5,-19.5 387.5,-19.5 387.5,-0.5 324.5,-0.5"/>
<text text-anchor="middle" x="356" y="-7.5" font-family="Helvetica,sans-Serif" font-size="10.00">Arduino.h</text>
</a>
</g>
</g>
<!-- Node12&#45;&gt;Node13 -->
<g id="edge16" class="edge">
<title>Node12&#45;&gt;Node13</title>
<path fill="none" stroke="midnightblue" d="M432.38,-56.32C418.05,-47.82 395.99,-34.73 379.25,-24.8"/>
<polygon fill="midnightblue" stroke="midnightblue" points="380.97,-21.75 370.58,-19.65 377.4,-27.77 380.97,-21.75"/>
</g>
<!-- Node14&#45;&gt;Node3 -->
<g id="edge24" class="edge">
<title>Node14&#45;&gt;Node3</title>
<path fill="none" stroke="midnightblue" d="M347.46,-169.94C387.45,-160.67 458.01,-144.32 504.39,-133.57"/>
<polygon fill="midnightblue" stroke="midnightblue" points="505.23,-136.97 514.18,-131.3 503.65,-130.15 505.23,-136.97"/>
</g>
<!-- Node14&#45;&gt;Node10 -->
<g id="edge20" class="edge">
<title>Node14&#45;&gt;Node10</title>
<path fill="none" stroke="midnightblue" d="M322.13,-168.28C334.49,-147.64 367.41,-94.64 402,-56 411.72,-45.14 423.92,-34.29 433.96,-25.97"/>
<polygon fill="midnightblue" stroke="midnightblue" points="436.21,-28.64 441.77,-19.62 431.8,-23.21 436.21,-28.64"/>
</g>
<!-- Node14&#45;&gt;Node13 -->
<g id="edge18" class="edge">
<title>Node14&#45;&gt;Node13</title>
<path fill="none" stroke="midnightblue" d="M319.1,-168.08C325.24,-141.95 343.26,-65.21 351.64,-29.58"/>
<polygon fill="midnightblue" stroke="midnightblue" points="355.11,-30.1 353.99,-19.57 348.29,-28.5 355.11,-30.1"/>
</g>
<!-- Node15 -->
<g id="node15" class="node">
<title>Node15</title>
<g id="a_node15"><a xlink:title=" ">
<polygon fill="none" stroke="#bfbfbf" points="0,-112.5 0,-131.5 86,-131.5 86,-112.5 0,-112.5"/>
<text text-anchor="middle" x="43" y="-119.5" font-family="Helvetica,sans-Serif" font-size="10.00">avr/interrupt.h</text>
</a>
</g>
</g>
<!-- Node14&#45;&gt;Node15 -->
<g id="edge19" class="edge">
<title>Node14&#45;&gt;Node15</title>
<path fill="none" stroke="midnightblue" d="M286.79,-169.91C283.82,-169.25 280.86,-168.6 278,-168 215.9,-154.89 144.22,-141.4 96.51,-132.65"/>
<polygon fill="midnightblue" stroke="midnightblue" points="96.88,-129.16 86.41,-130.81 95.62,-136.05 96.88,-129.16"/>
</g>
<!-- Node16 -->
<g id="node16" class="node">
<title>Node16</title>
<g id="a_node16"><a xlink:title=" ">
<polygon fill="none" stroke="#bfbfbf" points="104,-112.5 104,-131.5 174,-131.5 174,-112.5 104,-112.5"/>
<text text-anchor="middle" x="139" y="-119.5" font-family="Helvetica,sans-Serif" font-size="10.00">util/delay.h</text>
</a>
</g>
</g>
<!-- Node14&#45;&gt;Node16 -->
<g id="edge21" class="edge">
<title>Node14&#45;&gt;Node16</title>
<path fill="none" stroke="midnightblue" d="M288.8,-168.44C258.59,-159.28 210.49,-144.69 176.97,-134.52"/>
<polygon fill="midnightblue" stroke="midnightblue" points="177.66,-131.07 167.07,-131.52 175.63,-137.77 177.66,-131.07"/>
</g>
<!-- Node17 -->
<g id="node17" class="node">
<title>Node17</title>
<g id="a_node17"><a xlink:title=" ">
<polygon fill="none" stroke="#bfbfbf" points="192.5,-112.5 192.5,-131.5 245.5,-131.5 245.5,-112.5 192.5,-112.5"/>
<text text-anchor="middle" x="219" y="-119.5" font-family="Helvetica,sans-Serif" font-size="10.00">stdint.h</text>
</a>
</g>
</g>
<!-- Node14&#45;&gt;Node17 -->
<g id="edge22" class="edge">
<title>Node14&#45;&gt;Node17</title>
<path fill="none" stroke="midnightblue" d="M301.25,-168.32C285.68,-159.74 261.62,-146.49 243.54,-136.52"/>
<polygon fill="midnightblue" stroke="midnightblue" points="245.15,-133.42 234.71,-131.65 241.78,-139.55 245.15,-133.42"/>
</g>
<!-- Node18 -->
<g id="node18" class="node">
<title>Node18</title>
<g id="a_node18"><a xlink:title=" ">
<polygon fill="none" stroke="#bfbfbf" points="263.5,-112.5 263.5,-131.5 316.5,-131.5 316.5,-112.5 263.5,-112.5"/>
<text text-anchor="middle" x="290" y="-119.5" font-family="Helvetica,sans-Serif" font-size="10.00">stdlib.h</text>
</a>
</g>
</g>
<!-- Node14&#45;&gt;Node18 -->
<g id="edge23" class="edge">
<title>Node14&#45;&gt;Node18</title>
<path fill="none" stroke="midnightblue" d="M312.54,-168.08C308.85,-160.69 303.48,-149.95 298.91,-140.81"/>
<polygon fill="midnightblue" stroke="midnightblue" points="301.98,-139.13 294.38,-131.75 295.72,-142.26 301.98,-139.13"/>
</g>
</g>
</svg>
