<?xml version="1.0" encoding="UTF-8" standalone="no"?>
<!DOCTYPE svg PUBLIC "-//W3C//DTD SVG 1.1//EN"
 "http://www.w3.org/Graphics/SVG/1.1/DTD/svg11.dtd">
<!-- Generated by graphviz version 2.43.0 (0)
 -->
<!-- Title: src/MeEncoderNew.h Pages: 1 -->
<svg width="929pt" height="84pt"
 viewBox="0.00 0.00 928.50 84.00" xmlns="http://www.w3.org/2000/svg" xmlns:xlink="http://www.w3.org/1999/xlink">
<g id="graph0" class="graph" transform="scale(1 1) rotate(0) translate(4 80)">
<title>src/MeEncoderNew.h</title>
<!-- Node1 -->
<g id="node1" class="node">
<title>Node1</title>
<g id="a_node1"><a xlink:title="Header for MeEncoderNew.cpp module.">
<polygon fill="#bfbfbf" stroke="black" points="423.5,-56.5 423.5,-75.5 541.5,-75.5 541.5,-56.5 423.5,-56.5"/>
<text text-anchor="middle" x="482.5" y="-63.5" font-family="Helvetica,sans-Serif" font-size="10.00">src/MeEncoderNew.h</text>
</a>
</g>
</g>
<!-- Node2 -->
<g id="node2" class="node">
<title>Node2</title>
<g id="a_node2"><a xlink:href="MeAuriga_8h.html" target="_top" xlink:title="Driver for MeAuriga board.">
<polygon fill="none" stroke="black" points="0,-0.5 0,-19.5 89,-19.5 89,-0.5 0,-0.5"/>
<text text-anchor="middle" x="44.5" y="-7.5" font-family="Helvetica,sans-Serif" font-size="10.00">src/MeAuriga.h</text>
</a>
</g>
</g>
<!-- Node1&#45;&gt;Node2 -->
<g id="edge1" class="edge">
<title>Node1&#45;&gt;Node2</title>
<path fill="none" stroke="midnightblue" d="M413.12,-57.89C336.12,-49.77 208.21,-35.56 98.5,-20 95.49,-19.57 92.39,-19.11 89.26,-18.63"/>
<polygon fill="midnightblue" stroke="midnightblue" points="412.87,-61.39 423.18,-58.95 413.6,-54.42 412.87,-61.39"/>
</g>
<!-- Node3 -->
<g id="node3" class="node">
<title>Node3</title>
<g id="a_node3"><a xlink:href="MeBaseBoard_8h.html" target="_top" xlink:title="Driver for BaseBoard.">
<polygon fill="none" stroke="black" points="107.5,-0.5 107.5,-19.5 217.5,-19.5 217.5,-0.5 107.5,-0.5"/>
<text text-anchor="middle" x="162.5" y="-7.5" font-family="Helvetica,sans-Serif" font-size="10.00">src/MeBaseBoard.h</text>
</a>
</g>
</g>
<!-- Node1&#45;&gt;Node3 -->
<g id="edge2" class="edge">
<title>Node1&#45;&gt;Node3</title>
<path fill="none" stroke="midnightblue" d="M421.63,-54.73C361.16,-44.52 269.51,-29.06 212.97,-19.52"/>
<polygon fill="midnightblue" stroke="midnightblue" points="421.35,-58.23 431.8,-56.44 422.52,-51.33 421.35,-58.23"/>
</g>
<!-- Node4 -->
<g id="node4" class="node">
<title>Node4</title>
<g id="a_node4"><a xlink:href="MeEncoderNew_8cpp.html" target="_top" xlink:title="Driver for Me Encoder New module.">
<polygon fill="none" stroke="black" points="236,-0.5 236,-19.5 365,-19.5 365,-0.5 236,-0.5"/>
<text text-anchor="middle" x="300.5" y="-7.5" font-family="Helvetica,sans-Serif" font-size="10.00">src/MeEncoderNew.cpp</text>
</a>
</g>
</g>
<!-- Node1&#45;&gt;Node4 -->
<g id="edge3" class="edge">
<title>Node1&#45;&gt;Node4</title>
<path fill="none" stroke="midnightblue" d="M443.97,-53.57C409.64,-43.38 360.17,-28.7 329.2,-19.52"/>
<polygon fill="midnightblue" stroke="midnightblue" points="443.08,-56.95 453.66,-56.44 445.07,-50.24 443.08,-56.95"/>
</g>
<!-- Node5 -->
<g id="node5" class="node">
<title>Node5</title>
<g id="a_node5"><a xlink:href="MeMCore_8h.html" target="_top" xlink:title="Driver for mCore Board.">
<polygon fill="none" stroke="black" points="383,-0.5 383,-19.5 472,-19.5 472,-0.5 383,-0.5"/>
<text text-anchor="middle" x="427.5" y="-7.5" font-family="Helvetica,sans-Serif" font-size="10.00">src/MeMCore.h</text>
</a>
</g>
</g>
<!-- Node1&#45;&gt;Node5 -->
<g id="edge4" class="edge">
<title>Node1&#45;&gt;Node5</title>
<path fill="none" stroke="midnightblue" d="M466.21,-49C456.46,-39.43 444.45,-27.64 436.41,-19.75"/>
<polygon fill="midnightblue" stroke="midnightblue" points="463.83,-51.57 473.42,-56.08 468.73,-46.58 463.83,-51.57"/>
</g>
<!-- Node6 -->
<g id="node6" class="node">
<title>Node6</title>
<g id="a_node6"><a xlink:href="MeMegaPi_8h.html" target="_top" xlink:title="Driver for MegaPi board.">
<polygon fill="none" stroke="black" points="490.5,-0.5 490.5,-19.5 584.5,-19.5 584.5,-0.5 490.5,-0.5"/>
<text text-anchor="middle" x="537.5" y="-7.5" font-family="Helvetica,sans-Serif" font-size="10.00">src/MeMegaPi.h</text>
</a>
</g>
</g>
<!-- Node1&#45;&gt;Node6 -->
<g id="edge5" class="edge">
<title>Node1&#45;&gt;Node6</title>
<path fill="none" stroke="midnightblue" d="M498.79,-49C508.54,-39.43 520.55,-27.64 528.59,-19.75"/>
<polygon fill="midnightblue" stroke="midnightblue" points="496.27,-46.58 491.58,-56.08 501.17,-51.57 496.27,-46.58"/>
</g>
<!-- Node7 -->
<g id="node7" class="node">
<title>Node7</title>
<g id="a_node7"><a xlink:href="MeMegaPiPro_8h.html" target="_top" xlink:title="Driver for MegaPiPro board.">
<polygon fill="none" stroke="black" points="602.5,-0.5 602.5,-19.5 712.5,-19.5 712.5,-0.5 602.5,-0.5"/>
<text text-anchor="middle" x="657.5" y="-7.5" font-family="Helvetica,sans-Serif" font-size="10.00">src/MeMegaPiPro.h</text>
</a>
</g>
</g>
<!-- Node1&#45;&gt;Node7 -->
<g id="edge6" class="edge">
<title>Node1&#45;&gt;Node7</title>
<path fill="none" stroke="midnightblue" d="M519.97,-53.44C552.97,-43.26 600.26,-28.66 629.9,-19.52"/>
<polygon fill="midnightblue" stroke="midnightblue" points="518.75,-50.15 510.23,-56.44 520.82,-56.84 518.75,-50.15"/>
</g>
<!-- Node8 -->
<g id="node8" class="node">
<title>Node8</title>
<g id="a_node8"><a xlink:href="MeOrion_8h.html" target="_top" xlink:title="Driver for MeOrion board.">
<polygon fill="none" stroke="black" points="730.5,-0.5 730.5,-19.5 814.5,-19.5 814.5,-0.5 730.5,-0.5"/>
<text text-anchor="middle" x="772.5" y="-7.5" font-family="Helvetica,sans-Serif" font-size="10.00">src/MeOrion.h</text>
</a>
</g>
</g>
<!-- Node1&#45;&gt;Node8 -->
<g id="edge7" class="edge">
<title>Node1&#45;&gt;Node8</title>
<path fill="none" stroke="midnightblue" d="M538.56,-54.56C594.57,-44.13 679.42,-28.33 730.07,-18.9"/>
<polygon fill="midnightblue" stroke="midnightblue" points="537.64,-51.17 528.45,-56.44 538.92,-58.05 537.64,-51.17"/>
</g>
<!-- Node9 -->
<g id="node9" class="node">
<title>Node9</title>
<g id="a_node9"><a xlink:href="MeShield_8h.html" target="_top" xlink:title="Driver for Shield Board.">
<polygon fill="none" stroke="black" points="832.5,-0.5 832.5,-19.5 920.5,-19.5 920.5,-0.5 832.5,-0.5"/>
<text text-anchor="middle" x="876.5" y="-7.5" font-family="Helvetica,sans-Serif" font-size="10.00">src/MeShield.h</text>
</a>
</g>
</g>
<!-- Node1&#45;&gt;Node9 -->
<g id="edge8" class="edge">
<title>Node1&#45;&gt;Node9</title>
<path fill="none" stroke="midnightblue" d="M552.04,-56.59C621.02,-48.06 729.71,-34.15 823.5,-20 826.36,-19.57 829.31,-19.11 832.27,-18.64"/>
<polygon fill="midnightblue" stroke="midnightblue" points="551.23,-53.16 541.73,-57.86 552.09,-60.11 551.23,-53.16"/>
</g>
</g>
</svg>
