<?xml version="1.0" encoding="UTF-8" standalone="no"?>
<!DOCTYPE svg PUBLIC "-//W3C//DTD SVG 1.1//EN"
 "http://www.w3.org/Graphics/SVG/1.1/DTD/svg11.dtd">
<!-- Generated by graphviz version 2.43.0 (0)
 -->
<!-- Title: src/MeEncoderOnBoard.h Pages: 1 -->
<svg width="256pt" height="84pt"
 viewBox="0.00 0.00 255.50 84.00" xmlns="http://www.w3.org/2000/svg" xmlns:xlink="http://www.w3.org/1999/xlink">
<g id="graph0" class="graph" transform="scale(1 1) rotate(0) translate(4 80)">
<title>src/MeEncoderOnBoard.h</title>
<!-- Node1 -->
<g id="node1" class="node">
<title>Node1</title>
<g id="a_node1"><a xlink:title="Header for MeEncoderOnBoard.cpp module.">
<polygon fill="#bfbfbf" stroke="black" points="43,-56.5 43,-75.5 182,-75.5 182,-56.5 43,-56.5"/>
<text text-anchor="middle" x="112.5" y="-63.5" font-family="Helvetica,sans-Serif" font-size="10.00">src/MeEncoderOnBoard.h</text>
</a>
</g>
</g>
<!-- Node2 -->
<g id="node2" class="node">
<title>Node2</title>
<g id="a_node2"><a xlink:title=" ">
<polygon fill="none" stroke="#bfbfbf" points="0,-0.5 0,-19.5 63,-19.5 63,-0.5 0,-0.5"/>
<text text-anchor="middle" x="31.5" y="-7.5" font-family="Helvetica,sans-Serif" font-size="10.00">Arduino.h</text>
</a>
</g>
</g>
<!-- Node1&#45;&gt;Node2 -->
<g id="edge1" class="edge">
<title>Node1&#45;&gt;Node2</title>
<path fill="none" stroke="midnightblue" d="M99.49,-56.32C86.97,-47.98 67.82,-35.21 53.03,-25.35"/>
<polygon fill="midnightblue" stroke="midnightblue" points="54.74,-22.29 44.48,-19.65 50.86,-28.11 54.74,-22.29"/>
</g>
<!-- Node3 -->
<g id="node3" class="node">
<title>Node3</title>
<g id="a_node3"><a xlink:title=" ">
<polygon fill="none" stroke="#bfbfbf" points="81.5,-0.5 81.5,-19.5 143.5,-19.5 143.5,-0.5 81.5,-0.5"/>
<text text-anchor="middle" x="112.5" y="-7.5" font-family="Helvetica,sans-Serif" font-size="10.00">stdbool.h</text>
</a>
</g>
</g>
<!-- Node1&#45;&gt;Node3 -->
<g id="edge2" class="edge">
<title>Node1&#45;&gt;Node3</title>
<path fill="none" stroke="midnightblue" d="M112.5,-56.08C112.5,-49.01 112.5,-38.86 112.5,-29.99"/>
<polygon fill="midnightblue" stroke="midnightblue" points="116,-29.75 112.5,-19.75 109,-29.75 116,-29.75"/>
</g>
<!-- Node4 -->
<g id="node4" class="node">
<title>Node4</title>
<g id="a_node4"><a xlink:title=" ">
<polygon fill="none" stroke="#bfbfbf" points="161.5,-0.5 161.5,-19.5 247.5,-19.5 247.5,-0.5 161.5,-0.5"/>
<text text-anchor="middle" x="204.5" y="-7.5" font-family="Helvetica,sans-Serif" font-size="10.00">avr/interrupt.h</text>
</a>
</g>
</g>
<!-- Node1&#45;&gt;Node4 -->
<g id="edge3" class="edge">
<title>Node1&#45;&gt;Node4</title>
<path fill="none" stroke="midnightblue" d="M127.28,-56.32C141.77,-47.82 164.07,-34.73 180.99,-24.8"/>
<polygon fill="midnightblue" stroke="midnightblue" points="182.9,-27.74 189.76,-19.65 179.36,-21.7 182.9,-27.74"/>
</g>
</g>
</svg>
