<?xml version="1.0" encoding="UTF-8" standalone="no"?>
<!DOCTYPE svg PUBLIC "-//W3C//DTD SVG 1.1//EN"
 "http://www.w3.org/Graphics/SVG/1.1/DTD/svg11.dtd">
<!-- Generated by graphviz version 2.43.0 (0)
 -->
<!-- Title: src/MeEncoderOnBoard.h Pages: 1 -->
<svg width="505pt" height="84pt"
 viewBox="0.00 0.00 504.50 84.00" xmlns="http://www.w3.org/2000/svg" xmlns:xlink="http://www.w3.org/1999/xlink">
<g id="graph0" class="graph" transform="scale(1 1) rotate(0) translate(4 80)">
<title>src/MeEncoderOnBoard.h</title>
<!-- Node1 -->
<g id="node1" class="node">
<title>Node1</title>
<g id="a_node1"><a xlink:title="Header for MeEncoderOnBoard.cpp module.">
<polygon fill="#bfbfbf" stroke="black" points="182,-56.5 182,-75.5 321,-75.5 321,-56.5 182,-56.5"/>
<text text-anchor="middle" x="251.5" y="-63.5" font-family="Helvetica,sans-Serif" font-size="10.00">src/MeEncoderOnBoard.h</text>
</a>
</g>
</g>
<!-- Node2 -->
<g id="node2" class="node">
<title>Node2</title>
<g id="a_node2"><a xlink:href="MeAuriga_8h.html" target="_top" xlink:title="Driver for MeAuriga board.">
<polygon fill="none" stroke="black" points="0,-0.5 0,-19.5 89,-19.5 89,-0.5 0,-0.5"/>
<text text-anchor="middle" x="44.5" y="-7.5" font-family="Helvetica,sans-Serif" font-size="10.00">src/MeAuriga.h</text>
</a>
</g>
</g>
<!-- Node1&#45;&gt;Node2 -->
<g id="edge1" class="edge">
<title>Node1&#45;&gt;Node2</title>
<path fill="none" stroke="midnightblue" d="M208.68,-53.83C169.59,-43.63 112.67,-28.78 77.15,-19.52"/>
<polygon fill="midnightblue" stroke="midnightblue" points="208.14,-57.31 218.7,-56.44 209.91,-50.53 208.14,-57.31"/>
</g>
<!-- Node3 -->
<g id="node3" class="node">
<title>Node3</title>
<g id="a_node3"><a xlink:href="MeEncoderOnBoard_8cpp.html" target="_top" xlink:title="Driver for Encoder module on MeAuriga and MeMegaPi.">
<polygon fill="none" stroke="black" points="106.5,-0.5 106.5,-19.5 256.5,-19.5 256.5,-0.5 106.5,-0.5"/>
<text text-anchor="middle" x="181.5" y="-7.5" font-family="Helvetica,sans-Serif" font-size="10.00">src/MeEncoderOnBoard.cpp</text>
</a>
</g>
</g>
<!-- Node1&#45;&gt;Node3 -->
<g id="edge2" class="edge">
<title>Node1&#45;&gt;Node3</title>
<path fill="none" stroke="midnightblue" d="M232.19,-50.1C219.59,-40.38 203.57,-28.03 192.95,-19.83"/>
<polygon fill="midnightblue" stroke="midnightblue" points="230.2,-52.99 240.25,-56.32 234.47,-47.44 230.2,-52.99"/>
</g>
<!-- Node4 -->
<g id="node4" class="node">
<title>Node4</title>
<g id="a_node4"><a xlink:href="MeMegaPi_8h.html" target="_top" xlink:title="Driver for MegaPi board.">
<polygon fill="none" stroke="black" points="274.5,-0.5 274.5,-19.5 368.5,-19.5 368.5,-0.5 274.5,-0.5"/>
<text text-anchor="middle" x="321.5" y="-7.5" font-family="Helvetica,sans-Serif" font-size="10.00">src/MeMegaPi.h</text>
</a>
</g>
</g>
<!-- Node1&#45;&gt;Node4 -->
<g id="edge3" class="edge">
<title>Node1&#45;&gt;Node4</title>
<path fill="none" stroke="midnightblue" d="M270.81,-50.1C283.41,-40.38 299.43,-28.03 310.05,-19.83"/>
<polygon fill="midnightblue" stroke="midnightblue" points="268.53,-47.44 262.75,-56.32 272.8,-52.99 268.53,-47.44"/>
</g>
<!-- Node5 -->
<g id="node5" class="node">
<title>Node5</title>
<g id="a_node5"><a xlink:href="MeMegaPiPro_8h.html" target="_top" xlink:title="Driver for MegaPiPro board.">
<polygon fill="none" stroke="black" points="386.5,-0.5 386.5,-19.5 496.5,-19.5 496.5,-0.5 386.5,-0.5"/>
<text text-anchor="middle" x="441.5" y="-7.5" font-family="Helvetica,sans-Serif" font-size="10.00">src/MeMegaPiPro.h</text>
</a>
</g>
</g>
<!-- Node1&#45;&gt;Node5 -->
<g id="edge4" class="edge">
<title>Node1&#45;&gt;Node5</title>
<path fill="none" stroke="midnightblue" d="M291.26,-53.7C327.12,-43.51 379.07,-28.74 411.53,-19.52"/>
<polygon fill="midnightblue" stroke="midnightblue" points="290.27,-50.34 281.61,-56.44 292.18,-57.08 290.27,-50.34"/>
</g>
</g>
</svg>
