<?xml version="1.0" encoding="UTF-8" standalone="no"?>
<!DOCTYPE svg PUBLIC "-//W3C//DTD SVG 1.1//EN"
 "http://www.w3.org/Graphics/SVG/1.1/DTD/svg11.dtd">
<!-- Generated by graphviz version 2.43.0 (0)
 -->
<!-- Title: src/MeFlameSensor.h Pages: 1 -->
<svg width="932pt" height="84pt"
 viewBox="0.00 0.00 931.50 84.00" xmlns="http://www.w3.org/2000/svg" xmlns:xlink="http://www.w3.org/1999/xlink">
<g id="graph0" class="graph" transform="scale(1 1) rotate(0) translate(4 80)">
<title>src/MeFlameSensor.h</title>
<!-- Node1 -->
<g id="node1" class="node">
<title>Node1</title>
<g id="a_node1"><a xlink:title="Header for MeFlameSensor.cpp module.">
<polygon fill="#bfbfbf" stroke="black" points="425,-56.5 425,-75.5 546,-75.5 546,-56.5 425,-56.5"/>
<text text-anchor="middle" x="485.5" y="-63.5" font-family="Helvetica,sans-Serif" font-size="10.00">src/MeFlameSensor.h</text>
</a>
</g>
</g>
<!-- Node2 -->
<g id="node2" class="node">
<title>Node2</title>
<g id="a_node2"><a xlink:href="MeAuriga_8h.html" target="_top" xlink:title="Driver for MeAuriga board.">
<polygon fill="none" stroke="black" points="0,-0.5 0,-19.5 89,-19.5 89,-0.5 0,-0.5"/>
<text text-anchor="middle" x="44.5" y="-7.5" font-family="Helvetica,sans-Serif" font-size="10.00">src/MeAuriga.h</text>
</a>
</g>
</g>
<!-- Node1&#45;&gt;Node2 -->
<g id="edge1" class="edge">
<title>Node1&#45;&gt;Node2</title>
<path fill="none" stroke="midnightblue" d="M414.56,-57.81C336.85,-49.69 208.59,-35.56 98.5,-20 95.49,-19.57 92.39,-19.11 89.26,-18.64"/>
<polygon fill="midnightblue" stroke="midnightblue" points="414.41,-61.32 424.72,-58.87 415.13,-54.35 414.41,-61.32"/>
</g>
<!-- Node3 -->
<g id="node3" class="node">
<title>Node3</title>
<g id="a_node3"><a xlink:href="MeBaseBoard_8h.html" target="_top" xlink:title="Driver for BaseBoard.">
<polygon fill="none" stroke="black" points="107.5,-0.5 107.5,-19.5 217.5,-19.5 217.5,-0.5 107.5,-0.5"/>
<text text-anchor="middle" x="162.5" y="-7.5" font-family="Helvetica,sans-Serif" font-size="10.00">src/MeBaseBoard.h</text>
</a>
</g>
</g>
<!-- Node1&#45;&gt;Node3 -->
<g id="edge2" class="edge">
<title>Node1&#45;&gt;Node3</title>
<path fill="none" stroke="midnightblue" d="M424.43,-54.79C363.4,-44.59 270.63,-29.08 213.44,-19.52"/>
<polygon fill="midnightblue" stroke="midnightblue" points="423.88,-58.25 434.32,-56.44 425.03,-51.34 423.88,-58.25"/>
</g>
<!-- Node4 -->
<g id="node4" class="node">
<title>Node4</title>
<g id="a_node4"><a xlink:href="MeFlameSensor_8cpp.html" target="_top" xlink:title="Driver for Me flame snesor device.">
<polygon fill="none" stroke="black" points="235.5,-0.5 235.5,-19.5 367.5,-19.5 367.5,-0.5 235.5,-0.5"/>
<text text-anchor="middle" x="301.5" y="-7.5" font-family="Helvetica,sans-Serif" font-size="10.00">src/MeFlameSensor.cpp</text>
</a>
</g>
</g>
<!-- Node1&#45;&gt;Node4 -->
<g id="edge3" class="edge">
<title>Node1&#45;&gt;Node4</title>
<path fill="none" stroke="midnightblue" d="M446.55,-53.57C411.84,-43.38 361.82,-28.7 330.52,-19.52"/>
<polygon fill="midnightblue" stroke="midnightblue" points="445.76,-56.99 456.34,-56.44 447.73,-50.27 445.76,-56.99"/>
</g>
<!-- Node5 -->
<g id="node5" class="node">
<title>Node5</title>
<g id="a_node5"><a xlink:href="MeMCore_8h.html" target="_top" xlink:title="Driver for mCore Board.">
<polygon fill="none" stroke="black" points="386,-0.5 386,-19.5 475,-19.5 475,-0.5 386,-0.5"/>
<text text-anchor="middle" x="430.5" y="-7.5" font-family="Helvetica,sans-Serif" font-size="10.00">src/MeMCore.h</text>
</a>
</g>
</g>
<!-- Node1&#45;&gt;Node5 -->
<g id="edge4" class="edge">
<title>Node1&#45;&gt;Node5</title>
<path fill="none" stroke="midnightblue" d="M469.21,-49C459.46,-39.43 447.45,-27.64 439.41,-19.75"/>
<polygon fill="midnightblue" stroke="midnightblue" points="466.83,-51.57 476.42,-56.08 471.73,-46.58 466.83,-51.57"/>
</g>
<!-- Node6 -->
<g id="node6" class="node">
<title>Node6</title>
<g id="a_node6"><a xlink:href="MeMegaPi_8h.html" target="_top" xlink:title="Driver for MegaPi board.">
<polygon fill="none" stroke="black" points="493.5,-0.5 493.5,-19.5 587.5,-19.5 587.5,-0.5 493.5,-0.5"/>
<text text-anchor="middle" x="540.5" y="-7.5" font-family="Helvetica,sans-Serif" font-size="10.00">src/MeMegaPi.h</text>
</a>
</g>
</g>
<!-- Node1&#45;&gt;Node6 -->
<g id="edge5" class="edge">
<title>Node1&#45;&gt;Node6</title>
<path fill="none" stroke="midnightblue" d="M501.79,-49C511.54,-39.43 523.55,-27.64 531.59,-19.75"/>
<polygon fill="midnightblue" stroke="midnightblue" points="499.27,-46.58 494.58,-56.08 504.17,-51.57 499.27,-46.58"/>
</g>
<!-- Node7 -->
<g id="node7" class="node">
<title>Node7</title>
<g id="a_node7"><a xlink:href="MeMegaPiPro_8h.html" target="_top" xlink:title="Driver for MegaPiPro board.">
<polygon fill="none" stroke="black" points="605.5,-0.5 605.5,-19.5 715.5,-19.5 715.5,-0.5 605.5,-0.5"/>
<text text-anchor="middle" x="660.5" y="-7.5" font-family="Helvetica,sans-Serif" font-size="10.00">src/MeMegaPiPro.h</text>
</a>
</g>
</g>
<!-- Node1&#45;&gt;Node7 -->
<g id="edge6" class="edge">
<title>Node1&#45;&gt;Node7</title>
<path fill="none" stroke="midnightblue" d="M522.97,-53.44C555.97,-43.26 603.26,-28.66 632.9,-19.52"/>
<polygon fill="midnightblue" stroke="midnightblue" points="521.75,-50.15 513.23,-56.44 523.82,-56.84 521.75,-50.15"/>
</g>
<!-- Node8 -->
<g id="node8" class="node">
<title>Node8</title>
<g id="a_node8"><a xlink:href="MeOrion_8h.html" target="_top" xlink:title="Driver for MeOrion board.">
<polygon fill="none" stroke="black" points="733.5,-0.5 733.5,-19.5 817.5,-19.5 817.5,-0.5 733.5,-0.5"/>
<text text-anchor="middle" x="775.5" y="-7.5" font-family="Helvetica,sans-Serif" font-size="10.00">src/MeOrion.h</text>
</a>
</g>
</g>
<!-- Node1&#45;&gt;Node8 -->
<g id="edge7" class="edge">
<title>Node1&#45;&gt;Node8</title>
<path fill="none" stroke="midnightblue" d="M541.56,-54.56C597.57,-44.13 682.42,-28.33 733.07,-18.9"/>
<polygon fill="midnightblue" stroke="midnightblue" points="540.64,-51.17 531.45,-56.44 541.92,-58.05 540.64,-51.17"/>
</g>
<!-- Node9 -->
<g id="node9" class="node">
<title>Node9</title>
<g id="a_node9"><a xlink:href="MeShield_8h.html" target="_top" xlink:title="Driver for Shield Board.">
<polygon fill="none" stroke="black" points="835.5,-0.5 835.5,-19.5 923.5,-19.5 923.5,-0.5 835.5,-0.5"/>
<text text-anchor="middle" x="879.5" y="-7.5" font-family="Helvetica,sans-Serif" font-size="10.00">src/MeShield.h</text>
</a>
</g>
</g>
<!-- Node1&#45;&gt;Node9 -->
<g id="edge8" class="edge">
<title>Node1&#45;&gt;Node9</title>
<path fill="none" stroke="midnightblue" d="M556.59,-56.4C625.65,-47.86 733.41,-34.04 826.5,-20 829.36,-19.57 832.31,-19.11 835.27,-18.64"/>
<polygon fill="midnightblue" stroke="midnightblue" points="555.77,-52.97 546.27,-57.67 556.62,-59.92 555.77,-52.97"/>
</g>
</g>
</svg>
