<?xml version="1.0" encoding="UTF-8" standalone="no"?>
<!DOCTYPE svg PUBLIC "-//W3C//DTD SVG 1.1//EN"
 "http://www.w3.org/Graphics/SVG/1.1/DTD/svg11.dtd">
<!-- Generated by graphviz version 2.43.0 (0)
 -->
<!-- Title: src/MeGyro.h Pages: 1 -->
<svg width="892pt" height="84pt"
 viewBox="0.00 0.00 891.50 84.00" xmlns="http://www.w3.org/2000/svg" xmlns:xlink="http://www.w3.org/1999/xlink">
<g id="graph0" class="graph" transform="scale(1 1) rotate(0) translate(4 80)">
<title>src/MeGyro.h</title>
<!-- Node1 -->
<g id="node1" class="node">
<title>Node1</title>
<g id="a_node1"><a xlink:title="Header for MeGyro.cpp module.">
<polygon fill="#bfbfbf" stroke="black" points="405,-56.5 405,-75.5 486,-75.5 486,-56.5 405,-56.5"/>
<text text-anchor="middle" x="445.5" y="-63.5" font-family="Helvetica,sans-Serif" font-size="10.00">src/MeGyro.h</text>
</a>
</g>
</g>
<!-- Node2 -->
<g id="node2" class="node">
<title>Node2</title>
<g id="a_node2"><a xlink:href="MeAuriga_8h.html" target="_top" xlink:title="Driver for MeAuriga board.">
<polygon fill="none" stroke="black" points="0,-0.5 0,-19.5 89,-19.5 89,-0.5 0,-0.5"/>
<text text-anchor="middle" x="44.5" y="-7.5" font-family="Helvetica,sans-Serif" font-size="10.00">src/MeAuriga.h</text>
</a>
</g>
</g>
<!-- Node1&#45;&gt;Node2 -->
<g id="edge1" class="edge">
<title>Node1&#45;&gt;Node2</title>
<path fill="none" stroke="midnightblue" d="M394.87,-59.02C327.22,-50.89 203.67,-35.58 98.5,-20 95.49,-19.55 92.39,-19.08 89.27,-18.59"/>
<polygon fill="midnightblue" stroke="midnightblue" points="394.49,-62.5 404.83,-60.21 395.32,-55.55 394.49,-62.5"/>
</g>
<!-- Node3 -->
<g id="node3" class="node">
<title>Node3</title>
<g id="a_node3"><a xlink:href="MeBaseBoard_8h.html" target="_top" xlink:title="Driver for BaseBoard.">
<polygon fill="none" stroke="black" points="107.5,-0.5 107.5,-19.5 217.5,-19.5 217.5,-0.5 107.5,-0.5"/>
<text text-anchor="middle" x="162.5" y="-7.5" font-family="Helvetica,sans-Serif" font-size="10.00">src/MeBaseBoard.h</text>
</a>
</g>
</g>
<!-- Node1&#45;&gt;Node3 -->
<g id="edge2" class="edge">
<title>Node1&#45;&gt;Node3</title>
<path fill="none" stroke="midnightblue" d="M395.02,-55.37C341.65,-45.18 258.24,-29.27 207.17,-19.52"/>
<polygon fill="midnightblue" stroke="midnightblue" points="394.47,-58.83 404.95,-57.26 395.79,-51.95 394.47,-58.83"/>
</g>
<!-- Node4 -->
<g id="node4" class="node">
<title>Node4</title>
<g id="a_node4"><a xlink:href="MeGyro_8cpp.html" target="_top" xlink:title="Driver for MeGyro module.">
<polygon fill="none" stroke="black" points="235.5,-0.5 235.5,-19.5 327.5,-19.5 327.5,-0.5 235.5,-0.5"/>
<text text-anchor="middle" x="281.5" y="-7.5" font-family="Helvetica,sans-Serif" font-size="10.00">src/MeGyro.cpp</text>
</a>
</g>
</g>
<!-- Node1&#45;&gt;Node4 -->
<g id="edge3" class="edge">
<title>Node1&#45;&gt;Node4</title>
<path fill="none" stroke="midnightblue" d="M409.98,-53.3C379.08,-43.13 335.03,-28.62 307.36,-19.52"/>
<polygon fill="midnightblue" stroke="midnightblue" points="408.92,-56.64 419.51,-56.44 411.11,-49.99 408.92,-56.64"/>
</g>
<!-- Node5 -->
<g id="node5" class="node">
<title>Node5</title>
<g id="a_node5"><a xlink:href="MeMCore_8h.html" target="_top" xlink:title="Driver for mCore Board.">
<polygon fill="none" stroke="black" points="346,-0.5 346,-19.5 435,-19.5 435,-0.5 346,-0.5"/>
<text text-anchor="middle" x="390.5" y="-7.5" font-family="Helvetica,sans-Serif" font-size="10.00">src/MeMCore.h</text>
</a>
</g>
</g>
<!-- Node1&#45;&gt;Node5 -->
<g id="edge4" class="edge">
<title>Node1&#45;&gt;Node5</title>
<path fill="none" stroke="midnightblue" d="M429.21,-49C419.46,-39.43 407.45,-27.64 399.41,-19.75"/>
<polygon fill="midnightblue" stroke="midnightblue" points="426.83,-51.57 436.42,-56.08 431.73,-46.58 426.83,-51.57"/>
</g>
<!-- Node6 -->
<g id="node6" class="node">
<title>Node6</title>
<g id="a_node6"><a xlink:href="MeMegaPi_8h.html" target="_top" xlink:title="Driver for MegaPi board.">
<polygon fill="none" stroke="black" points="453.5,-0.5 453.5,-19.5 547.5,-19.5 547.5,-0.5 453.5,-0.5"/>
<text text-anchor="middle" x="500.5" y="-7.5" font-family="Helvetica,sans-Serif" font-size="10.00">src/MeMegaPi.h</text>
</a>
</g>
</g>
<!-- Node1&#45;&gt;Node6 -->
<g id="edge5" class="edge">
<title>Node1&#45;&gt;Node6</title>
<path fill="none" stroke="midnightblue" d="M461.79,-49C471.54,-39.43 483.55,-27.64 491.59,-19.75"/>
<polygon fill="midnightblue" stroke="midnightblue" points="459.27,-46.58 454.58,-56.08 464.17,-51.57 459.27,-46.58"/>
</g>
<!-- Node7 -->
<g id="node7" class="node">
<title>Node7</title>
<g id="a_node7"><a xlink:href="MeMegaPiPro_8h.html" target="_top" xlink:title="Driver for MegaPiPro board.">
<polygon fill="none" stroke="black" points="565.5,-0.5 565.5,-19.5 675.5,-19.5 675.5,-0.5 565.5,-0.5"/>
<text text-anchor="middle" x="620.5" y="-7.5" font-family="Helvetica,sans-Serif" font-size="10.00">src/MeMegaPiPro.h</text>
</a>
</g>
</g>
<!-- Node1&#45;&gt;Node7 -->
<g id="edge6" class="edge">
<title>Node1&#45;&gt;Node7</title>
<path fill="none" stroke="midnightblue" d="M482.97,-53.44C515.97,-43.26 563.26,-28.66 592.9,-19.52"/>
<polygon fill="midnightblue" stroke="midnightblue" points="481.75,-50.15 473.23,-56.44 483.82,-56.84 481.75,-50.15"/>
</g>
<!-- Node8 -->
<g id="node8" class="node">
<title>Node8</title>
<g id="a_node8"><a xlink:href="MeOrion_8h.html" target="_top" xlink:title="Driver for MeOrion board.">
<polygon fill="none" stroke="black" points="693.5,-0.5 693.5,-19.5 777.5,-19.5 777.5,-0.5 693.5,-0.5"/>
<text text-anchor="middle" x="735.5" y="-7.5" font-family="Helvetica,sans-Serif" font-size="10.00">src/MeOrion.h</text>
</a>
</g>
</g>
<!-- Node1&#45;&gt;Node8 -->
<g id="edge7" class="edge">
<title>Node1&#45;&gt;Node8</title>
<path fill="none" stroke="midnightblue" d="M496.16,-55.57C552.06,-45.16 640.99,-28.6 693.26,-18.86"/>
<polygon fill="midnightblue" stroke="midnightblue" points="495.32,-52.16 486.13,-57.43 496.6,-59.04 495.32,-52.16"/>
</g>
<!-- Node9 -->
<g id="node9" class="node">
<title>Node9</title>
<g id="a_node9"><a xlink:href="MeShield_8h.html" target="_top" xlink:title="Driver for Shield Board.">
<polygon fill="none" stroke="black" points="795.5,-0.5 795.5,-19.5 883.5,-19.5 883.5,-0.5 795.5,-0.5"/>
<text text-anchor="middle" x="839.5" y="-7.5" font-family="Helvetica,sans-Serif" font-size="10.00">src/MeShield.h</text>
</a>
</g>
</g>
<!-- Node1&#45;&gt;Node9 -->
<g id="edge8" class="edge">
<title>Node1&#45;&gt;Node9</title>
<path fill="none" stroke="midnightblue" d="M496.49,-58.87C563.23,-50.71 683.79,-35.49 786.5,-20 789.36,-19.57 792.31,-19.11 795.27,-18.64"/>
<polygon fill="midnightblue" stroke="midnightblue" points="495.75,-55.43 486.25,-60.12 496.6,-62.38 495.75,-55.43"/>
</g>
</g>
</svg>
