<?xml version="1.0" encoding="UTF-8" standalone="no"?>
<!DOCTYPE svg PUBLIC "-//W3C//DTD SVG 1.1//EN"
 "http://www.w3.org/Graphics/SVG/1.1/DTD/svg11.dtd">
<!-- Generated by graphviz version 2.43.0 (0)
 -->
<!-- Title: src/MeHostParser.h Pages: 1 -->
<svg width="284pt" height="84pt"
 viewBox="0.00 0.00 283.50 84.00" xmlns="http://www.w3.org/2000/svg" xmlns:xlink="http://www.w3.org/1999/xlink">
<g id="graph0" class="graph" transform="scale(1 1) rotate(0) translate(4 80)">
<title>src/MeHostParser.h</title>
<!-- Node1 -->
<g id="node1" class="node">
<title>Node1</title>
<g id="a_node1"><a xlink:title="Header for MeHostParser.cpp module.">
<polygon fill="#bfbfbf" stroke="black" points="86,-56.5 86,-75.5 196,-75.5 196,-56.5 86,-56.5"/>
<text text-anchor="middle" x="141" y="-63.5" font-family="Helvetica,sans-Serif" font-size="10.00">src/MeHostParser.h</text>
</a>
</g>
</g>
<!-- Node2 -->
<g id="node2" class="node">
<title>Node2</title>
<g id="a_node2"><a xlink:href="MeEncoderMotor_8cpp.html" target="_top" xlink:title="Driver for Encoder Motor module.">
<polygon fill="none" stroke="black" points="0,-0.5 0,-19.5 136,-19.5 136,-0.5 0,-0.5"/>
<text text-anchor="middle" x="68" y="-7.5" font-family="Helvetica,sans-Serif" font-size="10.00">src/MeEncoderMotor.cpp</text>
</a>
</g>
</g>
<!-- Node1&#45;&gt;Node2 -->
<g id="edge1" class="edge">
<title>Node1&#45;&gt;Node2</title>
<path fill="none" stroke="midnightblue" d="M120.86,-50.1C107.72,-40.38 91.02,-28.03 79.94,-19.83"/>
<polygon fill="midnightblue" stroke="midnightblue" points="119.15,-53.19 129.27,-56.32 123.31,-47.56 119.15,-53.19"/>
</g>
<!-- Node3 -->
<g id="node3" class="node">
<title>Node3</title>
<g id="a_node3"><a xlink:href="MeHostParser_8cpp.html" target="_top" xlink:title="Driver for Me Host Parser module.">
<polygon fill="none" stroke="black" points="154.5,-0.5 154.5,-19.5 275.5,-19.5 275.5,-0.5 154.5,-0.5"/>
<text text-anchor="middle" x="215" y="-7.5" font-family="Helvetica,sans-Serif" font-size="10.00">src/MeHostParser.cpp</text>
</a>
</g>
</g>
<!-- Node1&#45;&gt;Node3 -->
<g id="edge2" class="edge">
<title>Node1&#45;&gt;Node3</title>
<path fill="none" stroke="midnightblue" d="M161.03,-50.38C174.41,-40.62 191.56,-28.11 202.89,-19.83"/>
<polygon fill="midnightblue" stroke="midnightblue" points="158.9,-47.6 152.89,-56.32 163.03,-53.26 158.9,-47.6"/>
</g>
</g>
</svg>
