<?xml version="1.0" encoding="UTF-8" standalone="no"?>
<!DOCTYPE svg PUBLIC "-//W3C//DTD SVG 1.1//EN"
 "http://www.w3.org/Graphics/SVG/1.1/DTD/svg11.dtd">
<!-- Generated by graphviz version 2.43.0 (0)
 -->
<!-- Title: src/MeHumitureSensor.h Pages: 1 -->
<svg width="947pt" height="84pt"
 viewBox="0.00 0.00 946.50 84.00" xmlns="http://www.w3.org/2000/svg" xmlns:xlink="http://www.w3.org/1999/xlink">
<g id="graph0" class="graph" transform="scale(1 1) rotate(0) translate(4 80)">
<title>src/MeHumitureSensor.h</title>
<!-- Node1 -->
<g id="node1" class="node">
<title>Node1</title>
<g id="a_node1"><a xlink:title="Header for for MeHumitureSensor.cpp module.">
<polygon fill="#bfbfbf" stroke="black" points="432.5,-56.5 432.5,-75.5 568.5,-75.5 568.5,-56.5 432.5,-56.5"/>
<text text-anchor="middle" x="500.5" y="-63.5" font-family="Helvetica,sans-Serif" font-size="10.00">src/MeHumitureSensor.h</text>
</a>
</g>
</g>
<!-- Node2 -->
<g id="node2" class="node">
<title>Node2</title>
<g id="a_node2"><a xlink:href="MeAuriga_8h.html" target="_top" xlink:title="Driver for MeAuriga board.">
<polygon fill="none" stroke="black" points="0,-0.5 0,-19.5 89,-19.5 89,-0.5 0,-0.5"/>
<text text-anchor="middle" x="44.5" y="-7.5" font-family="Helvetica,sans-Serif" font-size="10.00">src/MeAuriga.h</text>
</a>
</g>
</g>
<!-- Node1&#45;&gt;Node2 -->
<g id="edge1" class="edge">
<title>Node1&#45;&gt;Node2</title>
<path fill="none" stroke="midnightblue" d="M422.3,-57.5C341.18,-49.43 210.73,-35.62 98.5,-20 95.49,-19.58 92.38,-19.13 89.26,-18.65"/>
<polygon fill="midnightblue" stroke="midnightblue" points="422.14,-61 432.43,-58.51 422.83,-54.04 422.14,-61"/>
</g>
<!-- Node3 -->
<g id="node3" class="node">
<title>Node3</title>
<g id="a_node3"><a xlink:href="MeBaseBoard_8h.html" target="_top" xlink:title="Driver for BaseBoard.">
<polygon fill="none" stroke="black" points="107.5,-0.5 107.5,-19.5 217.5,-19.5 217.5,-0.5 107.5,-0.5"/>
<text text-anchor="middle" x="162.5" y="-7.5" font-family="Helvetica,sans-Serif" font-size="10.00">src/MeBaseBoard.h</text>
</a>
</g>
</g>
<!-- Node1&#45;&gt;Node3 -->
<g id="edge2" class="edge">
<title>Node1&#45;&gt;Node3</title>
<path fill="none" stroke="midnightblue" d="M436.99,-54.85C373.13,-44.65 275.78,-29.1 215.81,-19.52"/>
<polygon fill="midnightblue" stroke="midnightblue" points="436.52,-58.32 446.94,-56.44 437.62,-51.41 436.52,-58.32"/>
</g>
<!-- Node4 -->
<g id="node4" class="node">
<title>Node4</title>
<g id="a_node4"><a xlink:href="MeHumitureSensor_8cpp.html" target="_top" xlink:title="Driver for humiture sensor device.">
<polygon fill="none" stroke="black" points="236,-0.5 236,-19.5 383,-19.5 383,-0.5 236,-0.5"/>
<text text-anchor="middle" x="309.5" y="-7.5" font-family="Helvetica,sans-Serif" font-size="10.00">src/MeHumitureSensor.cpp</text>
</a>
</g>
</g>
<!-- Node1&#45;&gt;Node4 -->
<g id="edge3" class="edge">
<title>Node1&#45;&gt;Node4</title>
<path fill="none" stroke="midnightblue" d="M460.53,-53.7C424.48,-43.51 372.26,-28.74 339.62,-19.52"/>
<polygon fill="midnightblue" stroke="midnightblue" points="459.66,-57.09 470.24,-56.44 461.56,-50.35 459.66,-57.09"/>
</g>
<!-- Node5 -->
<g id="node5" class="node">
<title>Node5</title>
<g id="a_node5"><a xlink:href="MeMCore_8h.html" target="_top" xlink:title="Driver for mCore Board.">
<polygon fill="none" stroke="black" points="401,-0.5 401,-19.5 490,-19.5 490,-0.5 401,-0.5"/>
<text text-anchor="middle" x="445.5" y="-7.5" font-family="Helvetica,sans-Serif" font-size="10.00">src/MeMCore.h</text>
</a>
</g>
</g>
<!-- Node1&#45;&gt;Node5 -->
<g id="edge4" class="edge">
<title>Node1&#45;&gt;Node5</title>
<path fill="none" stroke="midnightblue" d="M484.21,-49C474.46,-39.43 462.45,-27.64 454.41,-19.75"/>
<polygon fill="midnightblue" stroke="midnightblue" points="481.83,-51.57 491.42,-56.08 486.73,-46.58 481.83,-51.57"/>
</g>
<!-- Node6 -->
<g id="node6" class="node">
<title>Node6</title>
<g id="a_node6"><a xlink:href="MeMegaPi_8h.html" target="_top" xlink:title="Driver for MegaPi board.">
<polygon fill="none" stroke="black" points="508.5,-0.5 508.5,-19.5 602.5,-19.5 602.5,-0.5 508.5,-0.5"/>
<text text-anchor="middle" x="555.5" y="-7.5" font-family="Helvetica,sans-Serif" font-size="10.00">src/MeMegaPi.h</text>
</a>
</g>
</g>
<!-- Node1&#45;&gt;Node6 -->
<g id="edge5" class="edge">
<title>Node1&#45;&gt;Node6</title>
<path fill="none" stroke="midnightblue" d="M516.79,-49C526.54,-39.43 538.55,-27.64 546.59,-19.75"/>
<polygon fill="midnightblue" stroke="midnightblue" points="514.27,-46.58 509.58,-56.08 519.17,-51.57 514.27,-46.58"/>
</g>
<!-- Node7 -->
<g id="node7" class="node">
<title>Node7</title>
<g id="a_node7"><a xlink:href="MeMegaPiPro_8h.html" target="_top" xlink:title="Driver for MegaPiPro board.">
<polygon fill="none" stroke="black" points="620.5,-0.5 620.5,-19.5 730.5,-19.5 730.5,-0.5 620.5,-0.5"/>
<text text-anchor="middle" x="675.5" y="-7.5" font-family="Helvetica,sans-Serif" font-size="10.00">src/MeMegaPiPro.h</text>
</a>
</g>
</g>
<!-- Node1&#45;&gt;Node7 -->
<g id="edge6" class="edge">
<title>Node1&#45;&gt;Node7</title>
<path fill="none" stroke="midnightblue" d="M537.97,-53.44C570.97,-43.26 618.26,-28.66 647.9,-19.52"/>
<polygon fill="midnightblue" stroke="midnightblue" points="536.75,-50.15 528.23,-56.44 538.82,-56.84 536.75,-50.15"/>
</g>
<!-- Node8 -->
<g id="node8" class="node">
<title>Node8</title>
<g id="a_node8"><a xlink:href="MeOrion_8h.html" target="_top" xlink:title="Driver for MeOrion board.">
<polygon fill="none" stroke="black" points="748.5,-0.5 748.5,-19.5 832.5,-19.5 832.5,-0.5 748.5,-0.5"/>
<text text-anchor="middle" x="790.5" y="-7.5" font-family="Helvetica,sans-Serif" font-size="10.00">src/MeOrion.h</text>
</a>
</g>
</g>
<!-- Node1&#45;&gt;Node8 -->
<g id="edge7" class="edge">
<title>Node1&#45;&gt;Node8</title>
<path fill="none" stroke="midnightblue" d="M556.56,-54.56C612.57,-44.13 697.42,-28.33 748.07,-18.9"/>
<polygon fill="midnightblue" stroke="midnightblue" points="555.64,-51.17 546.45,-56.44 556.92,-58.05 555.64,-51.17"/>
</g>
<!-- Node9 -->
<g id="node9" class="node">
<title>Node9</title>
<g id="a_node9"><a xlink:href="MeShield_8h.html" target="_top" xlink:title="Driver for Shield Board.">
<polygon fill="none" stroke="black" points="850.5,-0.5 850.5,-19.5 938.5,-19.5 938.5,-0.5 850.5,-0.5"/>
<text text-anchor="middle" x="894.5" y="-7.5" font-family="Helvetica,sans-Serif" font-size="10.00">src/MeShield.h</text>
</a>
</g>
</g>
<!-- Node1&#45;&gt;Node9 -->
<g id="edge8" class="edge">
<title>Node1&#45;&gt;Node9</title>
<path fill="none" stroke="midnightblue" d="M578.49,-55.54C647.68,-46.95 751.45,-33.58 841.5,-20 844.36,-19.57 847.31,-19.11 850.27,-18.64"/>
<polygon fill="midnightblue" stroke="midnightblue" points="578.03,-52.07 568.54,-56.77 578.89,-59.02 578.03,-52.07"/>
</g>
</g>
</svg>
