<?xml version="1.0" encoding="UTF-8" standalone="no"?>
<!DOCTYPE svg PUBLIC "-//W3C//DTD SVG 1.1//EN"
 "http://www.w3.org/Graphics/SVG/1.1/DTD/svg11.dtd">
<!-- Generated by graphviz version 2.43.0 (0)
 -->
<!-- Title: src/MeInfraredReceiver.h Pages: 1 -->
<svg width="949pt" height="84pt"
 viewBox="0.00 0.00 948.50 84.00" xmlns="http://www.w3.org/2000/svg" xmlns:xlink="http://www.w3.org/1999/xlink">
<g id="graph0" class="graph" transform="scale(1 1) rotate(0) translate(4 80)">
<title>src/MeInfraredReceiver.h</title>
<!-- Node1 -->
<g id="node1" class="node">
<title>Node1</title>
<g id="a_node1"><a xlink:title="Header for for MeInfraredReceiver.cpp module.">
<polygon fill="#bfbfbf" stroke="black" points="433.5,-56.5 433.5,-75.5 571.5,-75.5 571.5,-56.5 433.5,-56.5"/>
<text text-anchor="middle" x="502.5" y="-63.5" font-family="Helvetica,sans-Serif" font-size="10.00">src/MeInfraredReceiver.h</text>
</a>
</g>
</g>
<!-- Node2 -->
<g id="node2" class="node">
<title>Node2</title>
<g id="a_node2"><a xlink:href="MeAuriga_8h.html" target="_top" xlink:title="Driver for MeAuriga board.">
<polygon fill="none" stroke="black" points="0,-0.5 0,-19.5 89,-19.5 89,-0.5 0,-0.5"/>
<text text-anchor="middle" x="44.5" y="-7.5" font-family="Helvetica,sans-Serif" font-size="10.00">src/MeAuriga.h</text>
</a>
</g>
</g>
<!-- Node1&#45;&gt;Node2 -->
<g id="edge1" class="edge">
<title>Node1&#45;&gt;Node2</title>
<path fill="none" stroke="midnightblue" d="M423.18,-57.45C341.61,-49.38 210.95,-35.62 98.5,-20 95.49,-19.58 92.38,-19.13 89.26,-18.65"/>
<polygon fill="midnightblue" stroke="midnightblue" points="423.08,-60.95 433.37,-58.45 423.77,-53.99 423.08,-60.95"/>
</g>
<!-- Node3 -->
<g id="node3" class="node">
<title>Node3</title>
<g id="a_node3"><a xlink:href="MeBaseBoard_8h.html" target="_top" xlink:title="Driver for BaseBoard.">
<polygon fill="none" stroke="black" points="107.5,-0.5 107.5,-19.5 217.5,-19.5 217.5,-0.5 107.5,-0.5"/>
<text text-anchor="middle" x="162.5" y="-7.5" font-family="Helvetica,sans-Serif" font-size="10.00">src/MeBaseBoard.h</text>
</a>
</g>
</g>
<!-- Node1&#45;&gt;Node3 -->
<g id="edge2" class="edge">
<title>Node1&#45;&gt;Node3</title>
<path fill="none" stroke="midnightblue" d="M438.62,-54.85C374.38,-44.65 276.45,-29.1 216.12,-19.52"/>
<polygon fill="midnightblue" stroke="midnightblue" points="438.2,-58.33 448.63,-56.44 439.3,-51.42 438.2,-58.33"/>
</g>
<!-- Node4 -->
<g id="node4" class="node">
<title>Node4</title>
<g id="a_node4"><a xlink:href="MeInfraredReceiver_8cpp.html" target="_top" xlink:title="Driver for Me Infrared Receiver device.">
<polygon fill="none" stroke="black" points="236,-0.5 236,-19.5 385,-19.5 385,-0.5 236,-0.5"/>
<text text-anchor="middle" x="310.5" y="-7.5" font-family="Helvetica,sans-Serif" font-size="10.00">src/MeInfraredReceiver.cpp</text>
</a>
</g>
</g>
<!-- Node1&#45;&gt;Node4 -->
<g id="edge3" class="edge">
<title>Node1&#45;&gt;Node4</title>
<path fill="none" stroke="midnightblue" d="M462.32,-53.7C426.08,-43.51 373.59,-28.74 340.78,-19.52"/>
<polygon fill="midnightblue" stroke="midnightblue" points="461.5,-57.11 472.08,-56.44 463.4,-50.37 461.5,-57.11"/>
</g>
<!-- Node5 -->
<g id="node5" class="node">
<title>Node5</title>
<g id="a_node5"><a xlink:href="MeMCore_8h.html" target="_top" xlink:title="Driver for mCore Board.">
<polygon fill="none" stroke="black" points="403,-0.5 403,-19.5 492,-19.5 492,-0.5 403,-0.5"/>
<text text-anchor="middle" x="447.5" y="-7.5" font-family="Helvetica,sans-Serif" font-size="10.00">src/MeMCore.h</text>
</a>
</g>
</g>
<!-- Node1&#45;&gt;Node5 -->
<g id="edge4" class="edge">
<title>Node1&#45;&gt;Node5</title>
<path fill="none" stroke="midnightblue" d="M486.21,-49C476.46,-39.43 464.45,-27.64 456.41,-19.75"/>
<polygon fill="midnightblue" stroke="midnightblue" points="483.83,-51.57 493.42,-56.08 488.73,-46.58 483.83,-51.57"/>
</g>
<!-- Node6 -->
<g id="node6" class="node">
<title>Node6</title>
<g id="a_node6"><a xlink:href="MeMegaPi_8h.html" target="_top" xlink:title="Driver for MegaPi board.">
<polygon fill="none" stroke="black" points="510.5,-0.5 510.5,-19.5 604.5,-19.5 604.5,-0.5 510.5,-0.5"/>
<text text-anchor="middle" x="557.5" y="-7.5" font-family="Helvetica,sans-Serif" font-size="10.00">src/MeMegaPi.h</text>
</a>
</g>
</g>
<!-- Node1&#45;&gt;Node6 -->
<g id="edge5" class="edge">
<title>Node1&#45;&gt;Node6</title>
<path fill="none" stroke="midnightblue" d="M518.79,-49C528.54,-39.43 540.55,-27.64 548.59,-19.75"/>
<polygon fill="midnightblue" stroke="midnightblue" points="516.27,-46.58 511.58,-56.08 521.17,-51.57 516.27,-46.58"/>
</g>
<!-- Node7 -->
<g id="node7" class="node">
<title>Node7</title>
<g id="a_node7"><a xlink:href="MeMegaPiPro_8h.html" target="_top" xlink:title="Driver for MegaPiPro board.">
<polygon fill="none" stroke="black" points="622.5,-0.5 622.5,-19.5 732.5,-19.5 732.5,-0.5 622.5,-0.5"/>
<text text-anchor="middle" x="677.5" y="-7.5" font-family="Helvetica,sans-Serif" font-size="10.00">src/MeMegaPiPro.h</text>
</a>
</g>
</g>
<!-- Node1&#45;&gt;Node7 -->
<g id="edge6" class="edge">
<title>Node1&#45;&gt;Node7</title>
<path fill="none" stroke="midnightblue" d="M539.97,-53.44C572.97,-43.26 620.26,-28.66 649.9,-19.52"/>
<polygon fill="midnightblue" stroke="midnightblue" points="538.75,-50.15 530.23,-56.44 540.82,-56.84 538.75,-50.15"/>
</g>
<!-- Node8 -->
<g id="node8" class="node">
<title>Node8</title>
<g id="a_node8"><a xlink:href="MeOrion_8h.html" target="_top" xlink:title="Driver for MeOrion board.">
<polygon fill="none" stroke="black" points="750.5,-0.5 750.5,-19.5 834.5,-19.5 834.5,-0.5 750.5,-0.5"/>
<text text-anchor="middle" x="792.5" y="-7.5" font-family="Helvetica,sans-Serif" font-size="10.00">src/MeOrion.h</text>
</a>
</g>
</g>
<!-- Node1&#45;&gt;Node8 -->
<g id="edge7" class="edge">
<title>Node1&#45;&gt;Node8</title>
<path fill="none" stroke="midnightblue" d="M558.56,-54.56C614.57,-44.13 699.42,-28.33 750.07,-18.9"/>
<polygon fill="midnightblue" stroke="midnightblue" points="557.64,-51.17 548.45,-56.44 558.92,-58.05 557.64,-51.17"/>
</g>
<!-- Node9 -->
<g id="node9" class="node">
<title>Node9</title>
<g id="a_node9"><a xlink:href="MeShield_8h.html" target="_top" xlink:title="Driver for Shield Board.">
<polygon fill="none" stroke="black" points="852.5,-0.5 852.5,-19.5 940.5,-19.5 940.5,-0.5 852.5,-0.5"/>
<text text-anchor="middle" x="896.5" y="-7.5" font-family="Helvetica,sans-Serif" font-size="10.00">src/MeShield.h</text>
</a>
</g>
</g>
<!-- Node1&#45;&gt;Node9 -->
<g id="edge8" class="edge">
<title>Node1&#45;&gt;Node9</title>
<path fill="none" stroke="midnightblue" d="M581.47,-55.42C650.65,-46.83 753.88,-33.52 843.5,-20 846.36,-19.57 849.31,-19.11 852.27,-18.64"/>
<polygon fill="midnightblue" stroke="midnightblue" points="581,-51.95 571.51,-56.65 581.86,-58.9 581,-51.95"/>
</g>
</g>
</svg>
