<?xml version="1.0" encoding="UTF-8" standalone="no"?>
<!DOCTYPE svg PUBLIC "-//W3C//DTD SVG 1.1//EN"
 "http://www.w3.org/Graphics/SVG/1.1/DTD/svg11.dtd">
<!-- Generated by graphviz version 2.43.0 (0)
 -->
<!-- Title: src/MeIR.cpp Pages: 1 -->
<svg width="1015pt" height="308pt"
 viewBox="0.00 0.00 1015.00 308.00" xmlns="http://www.w3.org/2000/svg" xmlns:xlink="http://www.w3.org/1999/xlink">
<g id="graph0" class="graph" transform="scale(1 1) rotate(0) translate(4 304)">
<title>src/MeIR.cpp</title>
<!-- Node1 -->
<g id="node1" class="node">
<title>Node1</title>
<g id="a_node1"><a xlink:title="Driver for Me IR module.">
<polygon fill="#bfbfbf" stroke="black" points="867.5,-280.5 867.5,-299.5 946.5,-299.5 946.5,-280.5 867.5,-280.5"/>
<text text-anchor="middle" x="907" y="-287.5" font-family="Helvetica,sans-Serif" font-size="10.00">src/MeIR.cpp</text>
</a>
</g>
</g>
<!-- Node2 -->
<g id="node2" class="node">
<title>Node2</title>
<g id="a_node2"><a xlink:href="MeIR_8h.html" target="_top" xlink:title="Header for MeIR.cpp module.">
<polygon fill="none" stroke="black" points="823,-224.5 823,-243.5 873,-243.5 873,-224.5 823,-224.5"/>
<text text-anchor="middle" x="848" y="-231.5" font-family="Helvetica,sans-Serif" font-size="10.00">MeIR.h</text>
</a>
</g>
</g>
<!-- Node1&#45;&gt;Node2 -->
<g id="edge1" class="edge">
<title>Node1&#45;&gt;Node2</title>
<path fill="none" stroke="midnightblue" d="M897.52,-280.32C888.8,-272.34 875.66,-260.31 865.1,-250.65"/>
<polygon fill="midnightblue" stroke="midnightblue" points="867.39,-248 857.65,-243.83 862.67,-253.17 867.39,-248"/>
</g>
<!-- Node17 -->
<g id="node17" class="node">
<title>Node17</title>
<g id="a_node17"><a xlink:title=" ">
<polygon fill="none" stroke="#bfbfbf" points="921,-112.5 921,-131.5 1007,-131.5 1007,-112.5 921,-112.5"/>
<text text-anchor="middle" x="964" y="-119.5" font-family="Helvetica,sans-Serif" font-size="10.00">avr/interrupt.h</text>
</a>
</g>
</g>
<!-- Node1&#45;&gt;Node17 -->
<g id="edge28" class="edge">
<title>Node1&#45;&gt;Node17</title>
<path fill="none" stroke="midnightblue" d="M914.31,-280.28C927.72,-263.63 955.81,-225.64 966,-188 970.11,-172.83 969.16,-154.93 967.43,-141.77"/>
<polygon fill="midnightblue" stroke="midnightblue" points="970.84,-140.93 965.83,-131.6 963.93,-142.02 970.84,-140.93"/>
</g>
<!-- Node3 -->
<g id="node3" class="node">
<title>Node3</title>
<g id="a_node3"><a xlink:title=" ">
<polygon fill="none" stroke="#bfbfbf" points="790.5,-112.5 790.5,-131.5 843.5,-131.5 843.5,-112.5 790.5,-112.5"/>
<text text-anchor="middle" x="817" y="-119.5" font-family="Helvetica,sans-Serif" font-size="10.00">stdint.h</text>
</a>
</g>
</g>
<!-- Node2&#45;&gt;Node3 -->
<g id="edge2" class="edge">
<title>Node2&#45;&gt;Node3</title>
<path fill="none" stroke="midnightblue" d="M845.57,-224.37C840.54,-206.54 828.92,-165.3 822.15,-141.27"/>
<polygon fill="midnightblue" stroke="midnightblue" points="825.5,-140.27 819.42,-131.59 818.77,-142.17 825.5,-140.27"/>
</g>
<!-- Node4 -->
<g id="node4" class="node">
<title>Node4</title>
<g id="a_node4"><a xlink:title=" ">
<polygon fill="none" stroke="#bfbfbf" points="895,-168.5 895,-187.5 957,-187.5 957,-168.5 895,-168.5"/>
<text text-anchor="middle" x="926" y="-175.5" font-family="Helvetica,sans-Serif" font-size="10.00">stdbool.h</text>
</a>
</g>
</g>
<!-- Node2&#45;&gt;Node4 -->
<g id="edge3" class="edge">
<title>Node2&#45;&gt;Node4</title>
<path fill="none" stroke="midnightblue" d="M860.53,-224.32C872.59,-215.98 891.03,-203.21 905.27,-193.35"/>
<polygon fill="midnightblue" stroke="midnightblue" points="907.27,-196.22 913.5,-187.65 903.28,-190.47 907.27,-196.22"/>
</g>
<!-- Node5 -->
<g id="node5" class="node">
<title>Node5</title>
<g id="a_node5"><a xlink:title=" ">
<polygon fill="none" stroke="#bfbfbf" points="642.5,-0.5 642.5,-19.5 705.5,-19.5 705.5,-0.5 642.5,-0.5"/>
<text text-anchor="middle" x="674" y="-7.5" font-family="Helvetica,sans-Serif" font-size="10.00">Arduino.h</text>
</a>
</g>
</g>
<!-- Node2&#45;&gt;Node5 -->
<g id="edge4" class="edge">
<title>Node2&#45;&gt;Node5</title>
<path fill="none" stroke="midnightblue" d="M851.2,-224.33C858.38,-203.35 873.47,-148.87 852,-112 822.78,-61.83 758.35,-34.56 715.55,-21.39"/>
<polygon fill="midnightblue" stroke="midnightblue" points="716.29,-17.96 705.71,-18.49 714.31,-24.67 716.29,-17.96"/>
</g>
<!-- Node6 -->
<g id="node6" class="node">
<title>Node6</title>
<g id="a_node6"><a xlink:href="MeConfig_8h_source.html" target="_top" xlink:title=" ">
<polygon fill="none" stroke="black" points="361.5,-112.5 361.5,-131.5 432.5,-131.5 432.5,-112.5 361.5,-112.5"/>
<text text-anchor="middle" x="397" y="-119.5" font-family="Helvetica,sans-Serif" font-size="10.00">MeConfig.h</text>
</a>
</g>
</g>
<!-- Node2&#45;&gt;Node6 -->
<g id="edge5" class="edge">
<title>Node2&#45;&gt;Node6</title>
<path fill="none" stroke="midnightblue" d="M822.79,-226.85C749.4,-208.95 535.24,-156.72 441.65,-133.89"/>
<polygon fill="midnightblue" stroke="midnightblue" points="442.45,-130.48 431.91,-131.51 440.79,-137.28 442.45,-130.48"/>
</g>
<!-- Node16 -->
<g id="node16" class="node">
<title>Node16</title>
<g id="a_node16"><a xlink:href="MePort_8h.html" target="_top" xlink:title="Header for MePort.cpp module.">
<polygon fill="none" stroke="black" points="675,-168.5 675,-187.5 735,-187.5 735,-168.5 675,-168.5"/>
<text text-anchor="middle" x="705" y="-175.5" font-family="Helvetica,sans-Serif" font-size="10.00">MePort.h</text>
</a>
</g>
</g>
<!-- Node2&#45;&gt;Node16 -->
<g id="edge20" class="edge">
<title>Node2&#45;&gt;Node16</title>
<path fill="none" stroke="midnightblue" d="M825.34,-224.44C801.6,-215.48 764.09,-201.31 737.26,-191.18"/>
<polygon fill="midnightblue" stroke="midnightblue" points="738.14,-187.77 727.55,-187.52 735.67,-194.32 738.14,-187.77"/>
</g>
<!-- Node7 -->
<g id="node7" class="node">
<title>Node7</title>
<g id="a_node7"><a xlink:href="Servo_8h_source.html" target="_top" xlink:title=" ">
<polygon fill="none" stroke="black" points="244.5,-56.5 244.5,-75.5 329.5,-75.5 329.5,-56.5 244.5,-56.5"/>
<text text-anchor="middle" x="287" y="-63.5" font-family="Helvetica,sans-Serif" font-size="10.00">utility/Servo.h</text>
</a>
</g>
</g>
<!-- Node6&#45;&gt;Node7 -->
<g id="edge6" class="edge">
<title>Node6&#45;&gt;Node7</title>
<path fill="none" stroke="midnightblue" d="M379.33,-112.32C361.61,-103.62 334.1,-90.12 313.71,-80.11"/>
<polygon fill="midnightblue" stroke="midnightblue" points="315.15,-76.92 304.63,-75.65 312.06,-83.2 315.15,-76.92"/>
</g>
<!-- Node9 -->
<g id="node9" class="node">
<title>Node9</title>
<g id="a_node9"><a xlink:href="Wire_8h_source.html" target="_top" xlink:title=" ">
<polygon fill="none" stroke="black" points="0,-56.5 0,-75.5 80,-75.5 80,-56.5 0,-56.5"/>
<text text-anchor="middle" x="40" y="-63.5" font-family="Helvetica,sans-Serif" font-size="10.00">utility/Wire.h</text>
</a>
</g>
</g>
<!-- Node6&#45;&gt;Node9 -->
<g id="edge8" class="edge">
<title>Node6&#45;&gt;Node9</title>
<path fill="none" stroke="midnightblue" d="M361.36,-116.22C305.73,-108.68 194.6,-93.22 90.17,-76.14"/>
<polygon fill="midnightblue" stroke="midnightblue" points="90.53,-72.66 80.09,-74.49 89.39,-79.56 90.53,-72.66"/>
</g>
<!-- Node11 -->
<g id="node11" class="node">
<title>Node11</title>
<g id="a_node11"><a xlink:href="EEPROM_8h_source.html" target="_top" xlink:title=" ">
<polygon fill="none" stroke="black" points="348,-56.5 348,-75.5 446,-75.5 446,-56.5 348,-56.5"/>
<text text-anchor="middle" x="397" y="-63.5" font-family="Helvetica,sans-Serif" font-size="10.00">utility/EEPROM.h</text>
</a>
</g>
</g>
<!-- Node6&#45;&gt;Node11 -->
<g id="edge11" class="edge">
<title>Node6&#45;&gt;Node11</title>
<path fill="none" stroke="midnightblue" d="M397,-112.08C397,-105.01 397,-94.86 397,-85.99"/>
<polygon fill="midnightblue" stroke="midnightblue" points="400.5,-85.75 397,-75.75 393.5,-85.75 400.5,-85.75"/>
</g>
<!-- Node14 -->
<g id="node14" class="node">
<title>Node14</title>
<g id="a_node14"><a xlink:href="SoftwareSerial_8h_source.html" target="_top" xlink:title=" ">
<polygon fill="none" stroke="black" points="98,-56.5 98,-75.5 226,-75.5 226,-56.5 98,-56.5"/>
<text text-anchor="middle" x="162" y="-63.5" font-family="Helvetica,sans-Serif" font-size="10.00">utility/SoftwareSerial.h</text>
</a>
</g>
</g>
<!-- Node6&#45;&gt;Node14 -->
<g id="edge15" class="edge">
<title>Node6&#45;&gt;Node14</title>
<path fill="none" stroke="midnightblue" d="M361.31,-112.8C320.6,-103.44 253.89,-88.12 208.99,-77.8"/>
<polygon fill="midnightblue" stroke="midnightblue" points="209.72,-74.38 199.19,-75.55 208.16,-81.2 209.72,-74.38"/>
</g>
<!-- Node15 -->
<g id="node15" class="node">
<title>Node15</title>
<g id="a_node15"><a xlink:href="SPI_8h_source.html" target="_top" xlink:title=" ">
<polygon fill="none" stroke="black" points="464,-56.5 464,-75.5 536,-75.5 536,-56.5 464,-56.5"/>
<text text-anchor="middle" x="500" y="-63.5" font-family="Helvetica,sans-Serif" font-size="10.00">utility/SPI.h</text>
</a>
</g>
</g>
<!-- Node6&#45;&gt;Node15 -->
<g id="edge18" class="edge">
<title>Node6&#45;&gt;Node15</title>
<path fill="none" stroke="midnightblue" d="M413.55,-112.32C429.99,-103.7 455.43,-90.36 474.47,-80.39"/>
<polygon fill="midnightblue" stroke="midnightblue" points="476.26,-83.4 483.49,-75.65 473.01,-77.2 476.26,-83.4"/>
</g>
<!-- Node8 -->
<g id="node8" class="node">
<title>Node8</title>
<g id="a_node8"><a xlink:title=" ">
<polygon fill="none" stroke="#bfbfbf" points="179.5,-0.5 179.5,-19.5 244.5,-19.5 244.5,-0.5 179.5,-0.5"/>
<text text-anchor="middle" x="212" y="-7.5" font-family="Helvetica,sans-Serif" font-size="10.00">inttypes.h</text>
</a>
</g>
</g>
<!-- Node7&#45;&gt;Node8 -->
<g id="edge7" class="edge">
<title>Node7&#45;&gt;Node8</title>
<path fill="none" stroke="midnightblue" d="M274.95,-56.32C263.54,-48.11 246.17,-35.6 232.57,-25.81"/>
<polygon fill="midnightblue" stroke="midnightblue" points="234.43,-22.84 224.27,-19.83 230.34,-28.52 234.43,-22.84"/>
</g>
<!-- Node9&#45;&gt;Node8 -->
<g id="edge9" class="edge">
<title>Node9&#45;&gt;Node8</title>
<path fill="none" stroke="midnightblue" d="M67.25,-56.44C96.44,-47.28 142.92,-32.69 175.31,-22.52"/>
<polygon fill="midnightblue" stroke="midnightblue" points="176.38,-25.85 184.87,-19.52 174.28,-19.17 176.38,-25.85"/>
</g>
<!-- Node10 -->
<g id="node10" class="node">
<title>Node10</title>
<g id="a_node10"><a xlink:title=" ">
<polygon fill="none" stroke="#bfbfbf" points="80.5,-0.5 80.5,-19.5 141.5,-19.5 141.5,-0.5 80.5,-0.5"/>
<text text-anchor="middle" x="111" y="-7.5" font-family="Helvetica,sans-Serif" font-size="10.00">Stream.h</text>
</a>
</g>
</g>
<!-- Node9&#45;&gt;Node10 -->
<g id="edge10" class="edge">
<title>Node9&#45;&gt;Node10</title>
<path fill="none" stroke="midnightblue" d="M51.41,-56.32C62.11,-48.18 78.34,-35.84 91.16,-26.09"/>
<polygon fill="midnightblue" stroke="midnightblue" points="93.54,-28.67 99.39,-19.83 89.31,-23.1 93.54,-28.67"/>
</g>
<!-- Node11&#45;&gt;Node8 -->
<g id="edge12" class="edge">
<title>Node11&#45;&gt;Node8</title>
<path fill="none" stroke="midnightblue" d="M367.69,-56.44C336.16,-47.24 285.87,-32.56 251.01,-22.39"/>
<polygon fill="midnightblue" stroke="midnightblue" points="251.76,-18.96 241.18,-19.52 249.8,-25.68 251.76,-18.96"/>
</g>
<!-- Node12 -->
<g id="node12" class="node">
<title>Node12</title>
<g id="a_node12"><a xlink:title=" ">
<polygon fill="none" stroke="#bfbfbf" points="356,-0.5 356,-19.5 438,-19.5 438,-0.5 356,-0.5"/>
<text text-anchor="middle" x="397" y="-7.5" font-family="Helvetica,sans-Serif" font-size="10.00">avr/eeprom.h</text>
</a>
</g>
</g>
<!-- Node11&#45;&gt;Node12 -->
<g id="edge13" class="edge">
<title>Node11&#45;&gt;Node12</title>
<path fill="none" stroke="midnightblue" d="M397,-56.08C397,-49.01 397,-38.86 397,-29.99"/>
<polygon fill="midnightblue" stroke="midnightblue" points="400.5,-29.75 397,-19.75 393.5,-29.75 400.5,-29.75"/>
</g>
<!-- Node13 -->
<g id="node13" class="node">
<title>Node13</title>
<g id="a_node13"><a xlink:title=" ">
<polygon fill="none" stroke="#bfbfbf" points="497.5,-0.5 497.5,-19.5 550.5,-19.5 550.5,-0.5 497.5,-0.5"/>
<text text-anchor="middle" x="524" y="-7.5" font-family="Helvetica,sans-Serif" font-size="10.00">avr/io.h</text>
</a>
</g>
</g>
<!-- Node11&#45;&gt;Node13 -->
<g id="edge14" class="edge">
<title>Node11&#45;&gt;Node13</title>
<path fill="none" stroke="midnightblue" d="M417.12,-56.44C438.02,-47.56 470.93,-33.56 494.72,-23.45"/>
<polygon fill="midnightblue" stroke="midnightblue" points="496.14,-26.65 503.97,-19.52 493.4,-20.21 496.14,-26.65"/>
</g>
<!-- Node14&#45;&gt;Node8 -->
<g id="edge16" class="edge">
<title>Node14&#45;&gt;Node8</title>
<path fill="none" stroke="midnightblue" d="M170.26,-56.08C177.46,-48.3 188.11,-36.8 196.85,-27.37"/>
<polygon fill="midnightblue" stroke="midnightblue" points="199.67,-29.47 203.9,-19.75 194.53,-24.71 199.67,-29.47"/>
</g>
<!-- Node14&#45;&gt;Node10 -->
<g id="edge17" class="edge">
<title>Node14&#45;&gt;Node10</title>
<path fill="none" stroke="midnightblue" d="M153.58,-56.08C146.15,-48.22 135.15,-36.57 126.19,-27.08"/>
<polygon fill="midnightblue" stroke="midnightblue" points="128.68,-24.62 119.26,-19.75 123.59,-29.42 128.68,-24.62"/>
</g>
<!-- Node15&#45;&gt;Node5 -->
<g id="edge19" class="edge">
<title>Node15&#45;&gt;Node5</title>
<path fill="none" stroke="midnightblue" d="M527.57,-56.44C557.1,-47.28 604.12,-32.69 636.88,-22.52"/>
<polygon fill="midnightblue" stroke="midnightblue" points="638.04,-25.82 646.56,-19.52 635.97,-19.14 638.04,-25.82"/>
</g>
<!-- Node16&#45;&gt;Node3 -->
<g id="edge25" class="edge">
<title>Node16&#45;&gt;Node3</title>
<path fill="none" stroke="midnightblue" d="M722.99,-168.32C741.04,-159.62 769.05,-146.12 789.8,-136.11"/>
<polygon fill="midnightblue" stroke="midnightblue" points="791.56,-139.15 799.05,-131.65 788.52,-132.84 791.56,-139.15"/>
</g>
<!-- Node16&#45;&gt;Node5 -->
<g id="edge21" class="edge">
<title>Node16&#45;&gt;Node5</title>
<path fill="none" stroke="midnightblue" d="M702.43,-168.44C699.79,-159.43 695.71,-144.82 693,-132 685.41,-96.06 679.41,-53.53 676.31,-29.67"/>
<polygon fill="midnightblue" stroke="midnightblue" points="679.76,-29.04 675.03,-19.56 672.82,-29.93 679.76,-29.04"/>
</g>
<!-- Node16&#45;&gt;Node6 -->
<g id="edge27" class="edge">
<title>Node16&#45;&gt;Node6</title>
<path fill="none" stroke="midnightblue" d="M674.91,-171.72C620.85,-162.25 507,-142.29 443.07,-131.08"/>
<polygon fill="midnightblue" stroke="midnightblue" points="443.33,-127.57 432.87,-129.29 442.12,-134.46 443.33,-127.57"/>
</g>
<!-- Node16&#45;&gt;Node13 -->
<g id="edge23" class="edge">
<title>Node16&#45;&gt;Node13</title>
<path fill="none" stroke="midnightblue" d="M674.87,-172.42C647.95,-166.94 608.87,-155.4 583,-132 580.91,-130.11 548.4,-62.22 532.56,-28.98"/>
<polygon fill="midnightblue" stroke="midnightblue" points="535.52,-27.06 528.06,-19.53 529.2,-30.07 535.52,-27.06"/>
</g>
<!-- Node16&#45;&gt;Node17 -->
<g id="edge22" class="edge">
<title>Node16&#45;&gt;Node17</title>
<path fill="none" stroke="midnightblue" d="M735.22,-170.7C778.84,-161.6 860.04,-144.68 913.03,-133.63"/>
<polygon fill="midnightblue" stroke="midnightblue" points="913.84,-137.03 922.91,-131.57 912.41,-130.18 913.84,-137.03"/>
</g>
<!-- Node18 -->
<g id="node18" class="node">
<title>Node18</title>
<g id="a_node18"><a xlink:title=" ">
<polygon fill="none" stroke="#bfbfbf" points="702,-112.5 702,-131.5 772,-131.5 772,-112.5 702,-112.5"/>
<text text-anchor="middle" x="737" y="-119.5" font-family="Helvetica,sans-Serif" font-size="10.00">util/delay.h</text>
</a>
</g>
</g>
<!-- Node16&#45;&gt;Node18 -->
<g id="edge24" class="edge">
<title>Node16&#45;&gt;Node18</title>
<path fill="none" stroke="midnightblue" d="M710.28,-168.08C714.71,-160.61 721.16,-149.72 726.62,-140.52"/>
<polygon fill="midnightblue" stroke="midnightblue" points="729.73,-142.14 731.81,-131.75 723.71,-138.57 729.73,-142.14"/>
</g>
<!-- Node19 -->
<g id="node19" class="node">
<title>Node19</title>
<g id="a_node19"><a xlink:title=" ">
<polygon fill="none" stroke="#bfbfbf" points="592.5,-112.5 592.5,-131.5 645.5,-131.5 645.5,-112.5 592.5,-112.5"/>
<text text-anchor="middle" x="619" y="-119.5" font-family="Helvetica,sans-Serif" font-size="10.00">stdlib.h</text>
</a>
</g>
</g>
<!-- Node16&#45;&gt;Node19 -->
<g id="edge26" class="edge">
<title>Node16&#45;&gt;Node19</title>
<path fill="none" stroke="midnightblue" d="M691.18,-168.32C677.77,-159.9 657.18,-146.97 641.41,-137.07"/>
<polygon fill="midnightblue" stroke="midnightblue" points="643.11,-134.01 632.78,-131.65 639.39,-139.94 643.11,-134.01"/>
</g>
</g>
</svg>
