<?xml version="1.0" encoding="UTF-8" standalone="no"?>
<!DOCTYPE svg PUBLIC "-//W3C//DTD SVG 1.1//EN"
 "http://www.w3.org/Graphics/SVG/1.1/DTD/svg11.dtd">
<!-- Generated by graphviz version 2.43.0 (0)
 -->
<!-- Title: src/MeJoystick.h Pages: 1 -->
<svg width="907pt" height="84pt"
 viewBox="0.00 0.00 906.50 84.00" xmlns="http://www.w3.org/2000/svg" xmlns:xlink="http://www.w3.org/1999/xlink">
<g id="graph0" class="graph" transform="scale(1 1) rotate(0) translate(4 80)">
<title>src/MeJoystick.h</title>
<!-- Node1 -->
<g id="node1" class="node">
<title>Node1</title>
<g id="a_node1"><a xlink:title="Header for MeJoystick.cpp module.">
<polygon fill="#bfbfbf" stroke="black" points="412.5,-56.5 412.5,-75.5 508.5,-75.5 508.5,-56.5 412.5,-56.5"/>
<text text-anchor="middle" x="460.5" y="-63.5" font-family="Helvetica,sans-Serif" font-size="10.00">src/MeJoystick.h</text>
</a>
</g>
</g>
<!-- Node2 -->
<g id="node2" class="node">
<title>Node2</title>
<g id="a_node2"><a xlink:href="MeAuriga_8h.html" target="_top" xlink:title="Driver for MeAuriga board.">
<polygon fill="none" stroke="black" points="0,-0.5 0,-19.5 89,-19.5 89,-0.5 0,-0.5"/>
<text text-anchor="middle" x="44.5" y="-7.5" font-family="Helvetica,sans-Serif" font-size="10.00">src/MeAuriga.h</text>
</a>
</g>
</g>
<!-- Node1&#45;&gt;Node2 -->
<g id="edge1" class="edge">
<title>Node1&#45;&gt;Node2</title>
<path fill="none" stroke="midnightblue" d="M402.23,-58.51C330.61,-50.36 205.42,-35.55 98.5,-20 95.49,-19.56 92.39,-19.09 89.27,-18.61"/>
<polygon fill="midnightblue" stroke="midnightblue" points="402.07,-62.01 412.4,-59.66 402.86,-55.06 402.07,-62.01"/>
</g>
<!-- Node3 -->
<g id="node3" class="node">
<title>Node3</title>
<g id="a_node3"><a xlink:href="MeBaseBoard_8h.html" target="_top" xlink:title="Driver for BaseBoard.">
<polygon fill="none" stroke="black" points="107.5,-0.5 107.5,-19.5 217.5,-19.5 217.5,-0.5 107.5,-0.5"/>
<text text-anchor="middle" x="162.5" y="-7.5" font-family="Helvetica,sans-Serif" font-size="10.00">src/MeBaseBoard.h</text>
</a>
</g>
</g>
<!-- Node1&#45;&gt;Node3 -->
<g id="edge2" class="edge">
<title>Node1&#45;&gt;Node3</title>
<path fill="none" stroke="midnightblue" d="M403.11,-54.6C346.79,-44.4 261.94,-29.02 209.5,-19.52"/>
<polygon fill="midnightblue" stroke="midnightblue" points="402.82,-58.1 413.28,-56.44 404.07,-51.22 402.82,-58.1"/>
</g>
<!-- Node4 -->
<g id="node4" class="node">
<title>Node4</title>
<g id="a_node4"><a xlink:href="MeJoystick_8cpp.html" target="_top" xlink:title="Driver for Me Joystick module.">
<polygon fill="none" stroke="black" points="236,-0.5 236,-19.5 343,-19.5 343,-0.5 236,-0.5"/>
<text text-anchor="middle" x="289.5" y="-7.5" font-family="Helvetica,sans-Serif" font-size="10.00">src/MeJoystick.cpp</text>
</a>
</g>
</g>
<!-- Node1&#45;&gt;Node4 -->
<g id="edge3" class="edge">
<title>Node1&#45;&gt;Node4</title>
<path fill="none" stroke="midnightblue" d="M423.46,-53.3C391.24,-43.13 345.31,-28.62 316.47,-19.52"/>
<polygon fill="midnightblue" stroke="midnightblue" points="422.81,-56.77 433.4,-56.44 424.92,-50.09 422.81,-56.77"/>
</g>
<!-- Node5 -->
<g id="node5" class="node">
<title>Node5</title>
<g id="a_node5"><a xlink:href="MeMCore_8h.html" target="_top" xlink:title="Driver for mCore Board.">
<polygon fill="none" stroke="black" points="361,-0.5 361,-19.5 450,-19.5 450,-0.5 361,-0.5"/>
<text text-anchor="middle" x="405.5" y="-7.5" font-family="Helvetica,sans-Serif" font-size="10.00">src/MeMCore.h</text>
</a>
</g>
</g>
<!-- Node1&#45;&gt;Node5 -->
<g id="edge4" class="edge">
<title>Node1&#45;&gt;Node5</title>
<path fill="none" stroke="midnightblue" d="M444.21,-49C434.46,-39.43 422.45,-27.64 414.41,-19.75"/>
<polygon fill="midnightblue" stroke="midnightblue" points="441.83,-51.57 451.42,-56.08 446.73,-46.58 441.83,-51.57"/>
</g>
<!-- Node6 -->
<g id="node6" class="node">
<title>Node6</title>
<g id="a_node6"><a xlink:href="MeMegaPi_8h.html" target="_top" xlink:title="Driver for MegaPi board.">
<polygon fill="none" stroke="black" points="468.5,-0.5 468.5,-19.5 562.5,-19.5 562.5,-0.5 468.5,-0.5"/>
<text text-anchor="middle" x="515.5" y="-7.5" font-family="Helvetica,sans-Serif" font-size="10.00">src/MeMegaPi.h</text>
</a>
</g>
</g>
<!-- Node1&#45;&gt;Node6 -->
<g id="edge5" class="edge">
<title>Node1&#45;&gt;Node6</title>
<path fill="none" stroke="midnightblue" d="M476.79,-49C486.54,-39.43 498.55,-27.64 506.59,-19.75"/>
<polygon fill="midnightblue" stroke="midnightblue" points="474.27,-46.58 469.58,-56.08 479.17,-51.57 474.27,-46.58"/>
</g>
<!-- Node7 -->
<g id="node7" class="node">
<title>Node7</title>
<g id="a_node7"><a xlink:href="MeMegaPiPro_8h.html" target="_top" xlink:title="Driver for MegaPiPro board.">
<polygon fill="none" stroke="black" points="580.5,-0.5 580.5,-19.5 690.5,-19.5 690.5,-0.5 580.5,-0.5"/>
<text text-anchor="middle" x="635.5" y="-7.5" font-family="Helvetica,sans-Serif" font-size="10.00">src/MeMegaPiPro.h</text>
</a>
</g>
</g>
<!-- Node1&#45;&gt;Node7 -->
<g id="edge6" class="edge">
<title>Node1&#45;&gt;Node7</title>
<path fill="none" stroke="midnightblue" d="M497.97,-53.44C530.97,-43.26 578.26,-28.66 607.9,-19.52"/>
<polygon fill="midnightblue" stroke="midnightblue" points="496.75,-50.15 488.23,-56.44 498.82,-56.84 496.75,-50.15"/>
</g>
<!-- Node8 -->
<g id="node8" class="node">
<title>Node8</title>
<g id="a_node8"><a xlink:href="MeOrion_8h.html" target="_top" xlink:title="Driver for MeOrion board.">
<polygon fill="none" stroke="black" points="708.5,-0.5 708.5,-19.5 792.5,-19.5 792.5,-0.5 708.5,-0.5"/>
<text text-anchor="middle" x="750.5" y="-7.5" font-family="Helvetica,sans-Serif" font-size="10.00">src/MeOrion.h</text>
</a>
</g>
</g>
<!-- Node1&#45;&gt;Node8 -->
<g id="edge7" class="edge">
<title>Node1&#45;&gt;Node8</title>
<path fill="none" stroke="midnightblue" d="M516.56,-54.56C572.57,-44.13 657.42,-28.33 708.07,-18.9"/>
<polygon fill="midnightblue" stroke="midnightblue" points="515.64,-51.17 506.45,-56.44 516.92,-58.05 515.64,-51.17"/>
</g>
<!-- Node9 -->
<g id="node9" class="node">
<title>Node9</title>
<g id="a_node9"><a xlink:href="MeShield_8h.html" target="_top" xlink:title="Driver for Shield Board.">
<polygon fill="none" stroke="black" points="810.5,-0.5 810.5,-19.5 898.5,-19.5 898.5,-0.5 810.5,-0.5"/>
<text text-anchor="middle" x="854.5" y="-7.5" font-family="Helvetica,sans-Serif" font-size="10.00">src/MeShield.h</text>
</a>
</g>
</g>
<!-- Node1&#45;&gt;Node9 -->
<g id="edge8" class="edge">
<title>Node1&#45;&gt;Node9</title>
<path fill="none" stroke="midnightblue" d="M518.66,-57.99C586.61,-49.65 702.37,-34.95 801.5,-20 804.36,-19.57 807.31,-19.11 810.27,-18.64"/>
<polygon fill="midnightblue" stroke="midnightblue" points="518.08,-54.53 508.58,-59.22 518.93,-61.48 518.08,-54.53"/>
</g>
</g>
</svg>
