<?xml version="1.0" encoding="UTF-8" standalone="no"?>
<!DOCTYPE svg PUBLIC "-//W3C//DTD SVG 1.1//EN"
 "http://www.w3.org/Graphics/SVG/1.1/DTD/svg11.dtd">
<!-- Generated by graphviz version 2.43.0 (0)
 -->
<!-- Title: src/MeLineFollower.h Pages: 1 -->
<svg width="930pt" height="84pt"
 viewBox="0.00 0.00 929.50 84.00" xmlns="http://www.w3.org/2000/svg" xmlns:xlink="http://www.w3.org/1999/xlink">
<g id="graph0" class="graph" transform="scale(1 1) rotate(0) translate(4 80)">
<title>src/MeLineFollower.h</title>
<!-- Node1 -->
<g id="node1" class="node">
<title>Node1</title>
<g id="a_node1"><a xlink:title="Header for for MeLineFollower.cpp module.">
<polygon fill="#bfbfbf" stroke="black" points="424,-56.5 424,-75.5 543,-75.5 543,-56.5 424,-56.5"/>
<text text-anchor="middle" x="483.5" y="-63.5" font-family="Helvetica,sans-Serif" font-size="10.00">src/MeLineFollower.h</text>
</a>
</g>
</g>
<!-- Node2 -->
<g id="node2" class="node">
<title>Node2</title>
<g id="a_node2"><a xlink:href="MeAuriga_8h.html" target="_top" xlink:title="Driver for MeAuriga board.">
<polygon fill="none" stroke="black" points="0,-0.5 0,-19.5 89,-19.5 89,-0.5 0,-0.5"/>
<text text-anchor="middle" x="44.5" y="-7.5" font-family="Helvetica,sans-Serif" font-size="10.00">src/MeAuriga.h</text>
</a>
</g>
</g>
<!-- Node1&#45;&gt;Node2 -->
<g id="edge1" class="edge">
<title>Node1&#45;&gt;Node2</title>
<path fill="none" stroke="midnightblue" d="M413.6,-57.87C336.36,-49.74 208.34,-35.56 98.5,-20 95.49,-19.57 92.39,-19.11 89.26,-18.63"/>
<polygon fill="midnightblue" stroke="midnightblue" points="413.38,-61.36 423.7,-58.92 414.11,-54.4 413.38,-61.36"/>
</g>
<!-- Node3 -->
<g id="node3" class="node">
<title>Node3</title>
<g id="a_node3"><a xlink:href="MeBaseBoard_8h.html" target="_top" xlink:title="Driver for BaseBoard.">
<polygon fill="none" stroke="black" points="107.5,-0.5 107.5,-19.5 217.5,-19.5 217.5,-0.5 107.5,-0.5"/>
<text text-anchor="middle" x="162.5" y="-7.5" font-family="Helvetica,sans-Serif" font-size="10.00">src/MeBaseBoard.h</text>
</a>
</g>
</g>
<!-- Node1&#45;&gt;Node3 -->
<g id="edge2" class="edge">
<title>Node1&#45;&gt;Node3</title>
<path fill="none" stroke="midnightblue" d="M422.44,-54.73C361.78,-44.52 269.85,-29.06 213.13,-19.52"/>
<polygon fill="midnightblue" stroke="midnightblue" points="422.19,-58.24 432.64,-56.44 423.36,-51.33 422.19,-58.24"/>
</g>
<!-- Node4 -->
<g id="node4" class="node">
<title>Node4</title>
<g id="a_node4"><a xlink:href="MeLineFollower_8cpp.html" target="_top" xlink:title="Driver for Me line follwer device.">
<polygon fill="none" stroke="black" points="235.5,-0.5 235.5,-19.5 365.5,-19.5 365.5,-0.5 235.5,-0.5"/>
<text text-anchor="middle" x="300.5" y="-7.5" font-family="Helvetica,sans-Serif" font-size="10.00">src/MeLineFollower.cpp</text>
</a>
</g>
</g>
<!-- Node1&#45;&gt;Node4 -->
<g id="edge3" class="edge">
<title>Node1&#45;&gt;Node4</title>
<path fill="none" stroke="midnightblue" d="M444.76,-53.57C410.24,-43.38 360.49,-28.7 329.36,-19.52"/>
<polygon fill="midnightblue" stroke="midnightblue" points="443.92,-56.97 454.5,-56.44 445.9,-50.26 443.92,-56.97"/>
</g>
<!-- Node5 -->
<g id="node5" class="node">
<title>Node5</title>
<g id="a_node5"><a xlink:href="MeMCore_8h.html" target="_top" xlink:title="Driver for mCore Board.">
<polygon fill="none" stroke="black" points="384,-0.5 384,-19.5 473,-19.5 473,-0.5 384,-0.5"/>
<text text-anchor="middle" x="428.5" y="-7.5" font-family="Helvetica,sans-Serif" font-size="10.00">src/MeMCore.h</text>
</a>
</g>
</g>
<!-- Node1&#45;&gt;Node5 -->
<g id="edge4" class="edge">
<title>Node1&#45;&gt;Node5</title>
<path fill="none" stroke="midnightblue" d="M467.21,-49C457.46,-39.43 445.45,-27.64 437.41,-19.75"/>
<polygon fill="midnightblue" stroke="midnightblue" points="464.83,-51.57 474.42,-56.08 469.73,-46.58 464.83,-51.57"/>
</g>
<!-- Node6 -->
<g id="node6" class="node">
<title>Node6</title>
<g id="a_node6"><a xlink:href="MeMegaPi_8h.html" target="_top" xlink:title="Driver for MegaPi board.">
<polygon fill="none" stroke="black" points="491.5,-0.5 491.5,-19.5 585.5,-19.5 585.5,-0.5 491.5,-0.5"/>
<text text-anchor="middle" x="538.5" y="-7.5" font-family="Helvetica,sans-Serif" font-size="10.00">src/MeMegaPi.h</text>
</a>
</g>
</g>
<!-- Node1&#45;&gt;Node6 -->
<g id="edge5" class="edge">
<title>Node1&#45;&gt;Node6</title>
<path fill="none" stroke="midnightblue" d="M499.79,-49C509.54,-39.43 521.55,-27.64 529.59,-19.75"/>
<polygon fill="midnightblue" stroke="midnightblue" points="497.27,-46.58 492.58,-56.08 502.17,-51.57 497.27,-46.58"/>
</g>
<!-- Node7 -->
<g id="node7" class="node">
<title>Node7</title>
<g id="a_node7"><a xlink:href="MeMegaPiPro_8h.html" target="_top" xlink:title="Driver for MegaPiPro board.">
<polygon fill="none" stroke="black" points="603.5,-0.5 603.5,-19.5 713.5,-19.5 713.5,-0.5 603.5,-0.5"/>
<text text-anchor="middle" x="658.5" y="-7.5" font-family="Helvetica,sans-Serif" font-size="10.00">src/MeMegaPiPro.h</text>
</a>
</g>
</g>
<!-- Node1&#45;&gt;Node7 -->
<g id="edge6" class="edge">
<title>Node1&#45;&gt;Node7</title>
<path fill="none" stroke="midnightblue" d="M520.97,-53.44C553.97,-43.26 601.26,-28.66 630.9,-19.52"/>
<polygon fill="midnightblue" stroke="midnightblue" points="519.75,-50.15 511.23,-56.44 521.82,-56.84 519.75,-50.15"/>
</g>
<!-- Node8 -->
<g id="node8" class="node">
<title>Node8</title>
<g id="a_node8"><a xlink:href="MeOrion_8h.html" target="_top" xlink:title="Driver for MeOrion board.">
<polygon fill="none" stroke="black" points="731.5,-0.5 731.5,-19.5 815.5,-19.5 815.5,-0.5 731.5,-0.5"/>
<text text-anchor="middle" x="773.5" y="-7.5" font-family="Helvetica,sans-Serif" font-size="10.00">src/MeOrion.h</text>
</a>
</g>
</g>
<!-- Node1&#45;&gt;Node8 -->
<g id="edge7" class="edge">
<title>Node1&#45;&gt;Node8</title>
<path fill="none" stroke="midnightblue" d="M539.56,-54.56C595.57,-44.13 680.42,-28.33 731.07,-18.9"/>
<polygon fill="midnightblue" stroke="midnightblue" points="538.64,-51.17 529.45,-56.44 539.92,-58.05 538.64,-51.17"/>
</g>
<!-- Node9 -->
<g id="node9" class="node">
<title>Node9</title>
<g id="a_node9"><a xlink:href="MeShield_8h.html" target="_top" xlink:title="Driver for Shield Board.">
<polygon fill="none" stroke="black" points="833.5,-0.5 833.5,-19.5 921.5,-19.5 921.5,-0.5 833.5,-0.5"/>
<text text-anchor="middle" x="877.5" y="-7.5" font-family="Helvetica,sans-Serif" font-size="10.00">src/MeShield.h</text>
</a>
</g>
</g>
<!-- Node1&#45;&gt;Node9 -->
<g id="edge8" class="edge">
<title>Node1&#45;&gt;Node9</title>
<path fill="none" stroke="midnightblue" d="M553.35,-56.55C622.35,-48.02 730.85,-34.13 824.5,-20 827.36,-19.57 830.31,-19.11 833.27,-18.64"/>
<polygon fill="midnightblue" stroke="midnightblue" points="552.54,-53.12 543.04,-57.82 553.39,-60.07 552.54,-53.12"/>
</g>
</g>
</svg>
