<?xml version="1.0" encoding="UTF-8" standalone="no"?>
<!DOCTYPE svg PUBLIC "-//W3C//DTD SVG 1.1//EN"
 "http://www.w3.org/Graphics/SVG/1.1/DTD/svg11.dtd">
<!-- Generated by graphviz version 2.43.0 (0)
 -->
<!-- Title: src/MeLimitSwitch.h Pages: 1 -->
<!--zoomable 84 -->
<svg id="main" version="1.1" xmlns="http://www.w3.org/2000/svg" xmlns:xlink="http://www.w3.org/1999/xlink" xml:space="preserve" onload="init(evt)">
<style type="text/css"><![CDATA[
.edge:hover path { stroke: red; }
.edge:hover polygon { stroke: red; fill: red; }
]]></style>
<script type="text/javascript"><![CDATA[
var edges = document.getElementsByTagName('g');
if (edges && edges.length) {
  for (var i=0;i<edges.length;i++) {
    if (edges[i].id.substr(0,4)=='edge') {
      edges[i].setAttribute('class','edge');
    }
  }
}
]]></script>
        <defs>
                <circle id="rim" cx="0" cy="0" r="7"/>
                <circle id="rim2" cx="0" cy="0" r="3.5"/>
                <g id="zoomPlus">
                        <use xlink:href="#rim" fill="#404040">
                                <set attributeName="fill" to="#808080" begin="zoomplus.mouseover" end="zoomplus.mouseout"/>
                        </use>
                        <path d="M-4,0h8M0,-4v8" fill="none" stroke="white" stroke-width="1.5" pointer-events="none"/>
                </g>
                <g id="zoomMin">
                        <use xlink:href="#rim" fill="#404040">
                                <set attributeName="fill" to="#808080" begin="zoomminus.mouseover" end="zoomminus.mouseout"/>
                        </use>
                        <path d="M-4,0h8" fill="none" stroke="white" stroke-width="1.5" pointer-events="none"/>
                </g>
                <g id="dirArrow">
                        <path fill="none" stroke="white" stroke-width="1.5" d="M0,-3.0v7 M-2.5,-0.5L0,-3.0L2.5,-0.5"/>
                </g>
               <g id="resetDef">
                       <use xlink:href="#rim2" fill="#404040">
                               <set attributeName="fill" to="#808080" begin="reset.mouseover" end="reset.mouseout"/>
                       </use>
               </g>
        </defs>

<script type="text/javascript">
var viewWidth = 926;
var viewHeight = 84;
var sectionId = 'dynsection-1';
</script>
<script xlink:href="svgpan.js"/>
<svg id="graph" class="graph">
<g id="viewport">
<title>src/MeLimitSwitch.h</title>
<!-- Node1 -->
<g id="node1" class="node">
<title>Node1</title>
<g id="a_node1"><a xlink:title="Header for MeLimitSwitch.cpp.">
<polygon fill="#bfbfbf" stroke="black" points="422,-56.5 422,-75.5 537,-75.5 537,-56.5 422,-56.5"/>
<text text-anchor="middle" x="479.5" y="-63.5" font-family="Helvetica,sans-Serif" font-size="10.00">src/MeLimitSwitch.h</text>
</a>
</g>
</g>
<!-- Node2 -->
<g id="node2" class="node">
<title>Node2</title>
<g id="a_node2"><a xlink:href="MeAuriga_8h.html" target="_top" xlink:title="Driver for MeAuriga board.">
<polygon fill="none" stroke="black" points="0,-0.5 0,-19.5 89,-19.5 89,-0.5 0,-0.5"/>
<text text-anchor="middle" x="44.5" y="-7.5" font-family="Helvetica,sans-Serif" font-size="10.00">src/MeAuriga.h</text>
</a>
</g>
</g>
<!-- Node1&#45;&gt;Node2 -->
<g id="edge1" class="edge">
<title>Node1&#45;&gt;Node2</title>
<path fill="none" stroke="midnightblue" d="M411.99,-58.01C335.73,-49.88 207.99,-35.58 98.5,-20 95.49,-19.57 92.39,-19.11 89.26,-18.63"/>
<polygon fill="midnightblue" stroke="midnightblue" points="411.63,-61.49 421.94,-59.06 412.37,-54.53 411.63,-61.49"/>
</g>
<!-- Node3 -->
<g id="node3" class="node">
<title>Node3</title>
<g id="a_node3"><a xlink:href="MeBaseBoard_8h.html" target="_top" xlink:title="Driver for BaseBoard.">
<polygon fill="none" stroke="black" points="107.5,-0.5 107.5,-19.5 217.5,-19.5 217.5,-0.5 107.5,-0.5"/>
<text text-anchor="middle" x="162.5" y="-7.5" font-family="Helvetica,sans-Serif" font-size="10.00">src/MeBaseBoard.h</text>
</a>
</g>
</g>
<!-- Node1&#45;&gt;Node3 -->
<g id="edge2" class="edge">
<title>Node1&#45;&gt;Node3</title>
<path fill="none" stroke="midnightblue" d="M419.2,-54.73C359.29,-44.52 268.51,-29.06 212.49,-19.52"/>
<polygon fill="midnightblue" stroke="midnightblue" points="418.82,-58.21 429.27,-56.44 420,-51.31 418.82,-58.21"/>
</g>
<!-- Node4 -->
<g id="node4" class="node">
<title>Node4</title>
<g id="a_node4"><a xlink:href="MeLimitSwitch_8cpp.html" target="_top" xlink:title="Driver for Me LimitSwitch module.">
<polygon fill="none" stroke="black" points="235.5,-0.5 235.5,-19.5 361.5,-19.5 361.5,-0.5 235.5,-0.5"/>
<text text-anchor="middle" x="298.5" y="-7.5" font-family="Helvetica,sans-Serif" font-size="10.00">src/MeLimitSwitch.cpp</text>
</a>
</g>
</g>
<!-- Node1&#45;&gt;Node4 -->
<g id="edge3" class="edge">
<title>Node1&#45;&gt;Node4</title>
<path fill="none" stroke="midnightblue" d="M441.18,-53.57C407.04,-43.38 357.84,-28.7 327.05,-19.52"/>
<polygon fill="midnightblue" stroke="midnightblue" points="440.24,-56.94 450.82,-56.44 442.24,-50.23 440.24,-56.94"/>
</g>
<!-- Node5 -->
<g id="node5" class="node">
<title>Node5</title>
<g id="a_node5"><a xlink:href="MeMCore_8h.html" target="_top" xlink:title="Driver for mCore Board.">
<polygon fill="none" stroke="black" points="380,-0.5 380,-19.5 469,-19.5 469,-0.5 380,-0.5"/>
<text text-anchor="middle" x="424.5" y="-7.5" font-family="Helvetica,sans-Serif" font-size="10.00">src/MeMCore.h</text>
</a>
</g>
</g>
<!-- Node1&#45;&gt;Node5 -->
<g id="edge4" class="edge">
<title>Node1&#45;&gt;Node5</title>
<path fill="none" stroke="midnightblue" d="M463.21,-49C453.46,-39.43 441.45,-27.64 433.41,-19.75"/>
<polygon fill="midnightblue" stroke="midnightblue" points="460.83,-51.57 470.42,-56.08 465.73,-46.58 460.83,-51.57"/>
</g>
<!-- Node6 -->
<g id="node6" class="node">
<title>Node6</title>
<g id="a_node6"><a xlink:href="MeMegaPi_8h.html" target="_top" xlink:title="Driver for MegaPi board.">
<polygon fill="none" stroke="black" points="487.5,-0.5 487.5,-19.5 581.5,-19.5 581.5,-0.5 487.5,-0.5"/>
<text text-anchor="middle" x="534.5" y="-7.5" font-family="Helvetica,sans-Serif" font-size="10.00">src/MeMegaPi.h</text>
</a>
</g>
</g>
<!-- Node1&#45;&gt;Node6 -->
<g id="edge5" class="edge">
<title>Node1&#45;&gt;Node6</title>
<path fill="none" stroke="midnightblue" d="M495.79,-49C505.54,-39.43 517.55,-27.64 525.59,-19.75"/>
<polygon fill="midnightblue" stroke="midnightblue" points="493.27,-46.58 488.58,-56.08 498.17,-51.57 493.27,-46.58"/>
</g>
<!-- Node7 -->
<g id="node7" class="node">
<title>Node7</title>
<g id="a_node7"><a xlink:href="MeMegaPiPro_8h.html" target="_top" xlink:title="Driver for MegaPiPro board.">
<polygon fill="none" stroke="black" points="599.5,-0.5 599.5,-19.5 709.5,-19.5 709.5,-0.5 599.5,-0.5"/>
<text text-anchor="middle" x="654.5" y="-7.5" font-family="Helvetica,sans-Serif" font-size="10.00">src/MeMegaPiPro.h</text>
</a>
</g>
</g>
<!-- Node1&#45;&gt;Node7 -->
<g id="edge6" class="edge">
<title>Node1&#45;&gt;Node7</title>
<path fill="none" stroke="midnightblue" d="M516.97,-53.44C549.97,-43.26 597.26,-28.66 626.9,-19.52"/>
<polygon fill="midnightblue" stroke="midnightblue" points="515.75,-50.15 507.23,-56.44 517.82,-56.84 515.75,-50.15"/>
</g>
<!-- Node8 -->
<g id="node8" class="node">
<title>Node8</title>
<g id="a_node8"><a xlink:href="MeOrion_8h.html" target="_top" xlink:title="Driver for MeOrion board.">
<polygon fill="none" stroke="black" points="727.5,-0.5 727.5,-19.5 811.5,-19.5 811.5,-0.5 727.5,-0.5"/>
<text text-anchor="middle" x="769.5" y="-7.5" font-family="Helvetica,sans-Serif" font-size="10.00">src/MeOrion.h</text>
</a>
</g>
</g>
<!-- Node1&#45;&gt;Node8 -->
<g id="edge7" class="edge">
<title>Node1&#45;&gt;Node8</title>
<path fill="none" stroke="midnightblue" d="M535.56,-54.56C591.57,-44.13 676.42,-28.33 727.07,-18.9"/>
<polygon fill="midnightblue" stroke="midnightblue" points="534.64,-51.17 525.45,-56.44 535.92,-58.05 534.64,-51.17"/>
</g>
<!-- Node9 -->
<g id="node9" class="node">
<title>Node9</title>
<g id="a_node9"><a xlink:href="MeShield_8h.html" target="_top" xlink:title="Driver for Shield Board.">
<polygon fill="none" stroke="black" points="829.5,-0.5 829.5,-19.5 917.5,-19.5 917.5,-0.5 829.5,-0.5"/>
<text text-anchor="middle" x="873.5" y="-7.5" font-family="Helvetica,sans-Serif" font-size="10.00">src/MeShield.h</text>
</a>
</g>
</g>
<!-- Node1&#45;&gt;Node9 -->
<g id="edge8" class="edge">
<title>Node1&#45;&gt;Node9</title>
<path fill="none" stroke="midnightblue" d="M547.49,-56.78C616.39,-48.27 726,-34.25 820.5,-20 823.36,-19.57 826.31,-19.11 829.27,-18.64"/>
<polygon fill="midnightblue" stroke="midnightblue" points="546.71,-53.35 537.21,-58.04 547.56,-60.3 546.71,-53.35"/>
</g>
</g>
</svg>
        <g id="navigator" transform="translate(0 0)" fill="#404254">
                <rect fill="#f2f5e9" fill-opacity="0.5" stroke="#606060" stroke-width=".5" x="0" y="0" width="60" height="60"/>
                <use id="zoomplus" xlink:href="#zoomPlus" x="17" y="9" onmousedown="handleZoom(evt,'in')"/>
                <use id="zoomminus" xlink:href="#zoomMin" x="42" y="9" onmousedown="handleZoom(evt,'out')"/>
                <use id="reset" xlink:href="#resetDef" x="30" y="36" onmousedown="handleReset()"/>
                <g id="arrowUp" xlink:href="#dirArrow" transform="translate(30 24)" onmousedown="handlePan(0,-1)">
                  <use xlink:href="#rim" fill="#404040">
                        <set attributeName="fill" to="#808080" begin="arrowUp.mouseover" end="arrowUp.mouseout"/>
                  </use>
                  <path fill="none" stroke="white" stroke-width="1.5" d="M0,-3.0v7 M-2.5,-0.5L0,-3.0L2.5,-0.5"/>
                </g>
                <g id="arrowRight" xlink:href="#dirArrow" transform="rotate(90) translate(36 -43)" onmousedown="handlePan(1,0)">
                  <use xlink:href="#rim" fill="#404040">
                        <set attributeName="fill" to="#808080" begin="arrowRight.mouseover" end="arrowRight.mouseout"/>
                  </use>
                  <path fill="none" stroke="white" stroke-width="1.5" d="M0,-3.0v7 M-2.5,-0.5L0,-3.0L2.5,-0.5"/>
                </g>
                <g id="arrowDown" xlink:href="#dirArrow" transform="rotate(180) translate(-30 -48)" onmousedown="handlePan(0,1)">
                  <use xlink:href="#rim" fill="#404040">
                        <set attributeName="fill" to="#808080" begin="arrowDown.mouseover" end="arrowDown.mouseout"/>
                  </use>
                  <path fill="none" stroke="white" stroke-width="1.5" d="M0,-3.0v7 M-2.5,-0.5L0,-3.0L2.5,-0.5"/>
                </g>
                <g id="arrowLeft" xlink:href="#dirArrow" transform="rotate(270) translate(-36 17)" onmousedown="handlePan(-1,0)">
                  <use xlink:href="#rim" fill="#404040">
                        <set attributeName="fill" to="#808080" begin="arrowLeft.mouseover" end="arrowLeft.mouseout"/>
                  </use>
                  <path fill="none" stroke="white" stroke-width="1.5" d="M0,-3.0v7 M-2.5,-0.5L0,-3.0L2.5,-0.5"/>
                </g>
        </g>
        <svg viewBox="0 0 15 15" width="100%" height="30px" preserveAspectRatio="xMaxYMin meet">
         <g id="arrow_out" transform="scale(0.3 0.3)">
          <a xlink:href="MeLimitSwitch_8h__dep__incl_org.svg" target="_base">
           <rect id="button" ry="5" rx="5" y="6" x="6" height="38" width="38"
                fill="#f2f5e9" fill-opacity="0.5" stroke="#606060" stroke-width="1.0"/>
           <path id="arrow"
             d="M 11.500037,31.436501 C 11.940474,20.09759 22.043105,11.32322 32.158766,21.979434 L 37.068811,17.246167 C 37.068811,17.246167 37.088388,32 37.088388,32 L 22.160133,31.978069 C 22.160133,31.978069 26.997745,27.140456 26.997745,27.140456 C 18.528582,18.264221 13.291696,25.230495 11.500037,31.436501 z"
             style="fill:#404040;"/>
          </a>
         </g>
        </svg>
</svg>
