<?xml version="1.0" encoding="UTF-8" standalone="no"?>
<!DOCTYPE svg PUBLIC "-//W3C//DTD SVG 1.1//EN"
 "http://www.w3.org/Graphics/SVG/1.1/DTD/svg11.dtd">
<!-- Generated by graphviz version 2.43.0 (0)
 -->
<!-- Title: src/MeMbotDCMotor.cpp Pages: 1 -->
<!--zoomable 364 -->
<svg id="main" version="1.1" xmlns="http://www.w3.org/2000/svg" xmlns:xlink="http://www.w3.org/1999/xlink" xml:space="preserve" onload="init(evt)">
<style type="text/css"><![CDATA[
.edge:hover path { stroke: red; }
.edge:hover polygon { stroke: red; fill: red; }
]]></style>
<script type="text/javascript"><![CDATA[
var edges = document.getElementsByTagName('g');
if (edges && edges.length) {
  for (var i=0;i<edges.length;i++) {
    if (edges[i].id.substr(0,4)=='edge') {
      edges[i].setAttribute('class','edge');
    }
  }
}
]]></script>
        <defs>
                <circle id="rim" cx="0" cy="0" r="7"/>
                <circle id="rim2" cx="0" cy="0" r="3.5"/>
                <g id="zoomPlus">
                        <use xlink:href="#rim" fill="#404040">
                                <set attributeName="fill" to="#808080" begin="zoomplus.mouseover" end="zoomplus.mouseout"/>
                        </use>
                        <path d="M-4,0h8M0,-4v8" fill="none" stroke="white" stroke-width="1.5" pointer-events="none"/>
                </g>
                <g id="zoomMin">
                        <use xlink:href="#rim" fill="#404040">
                                <set attributeName="fill" to="#808080" begin="zoomminus.mouseover" end="zoomminus.mouseout"/>
                        </use>
                        <path d="M-4,0h8" fill="none" stroke="white" stroke-width="1.5" pointer-events="none"/>
                </g>
                <g id="dirArrow">
                        <path fill="none" stroke="white" stroke-width="1.5" d="M0,-3.0v7 M-2.5,-0.5L0,-3.0L2.5,-0.5"/>
                </g>
               <g id="resetDef">
                       <use xlink:href="#rim2" fill="#404040">
                               <set attributeName="fill" to="#808080" begin="reset.mouseover" end="reset.mouseout"/>
                       </use>
               </g>
        </defs>

<script type="text/javascript">
var viewWidth = 950;
var viewHeight = 364;
var sectionId = 'dynsection-0';
</script>
<script xlink:href="svgpan.js"/>
<svg id="graph" class="graph">
<g id="viewport">
<title>src/MeMbotDCMotor.cpp</title>
<!-- Node1 -->
<g id="node1" class="node">
<title>Node1</title>
<g id="a_node1"><a xlink:title="Driver for Mbot DC Motor.">
<polygon fill="#bfbfbf" stroke="black" points="469,-336.5 469,-355.5 605,-355.5 605,-336.5 469,-336.5"/>
<text text-anchor="middle" x="537" y="-343.5" font-family="Helvetica,sans-Serif" font-size="10.00">src/MeMbotDCMotor.cpp</text>
</a>
</g>
</g>
<!-- Node2 -->
<g id="node2" class="node">
<title>Node2</title>
<g id="a_node2"><a xlink:href="MeMbotDCMotor_8h.html" target="_top" xlink:title="Driver for Mbot DC Motor.">
<polygon fill="none" stroke="black" points="483.5,-280.5 483.5,-299.5 590.5,-299.5 590.5,-280.5 483.5,-280.5"/>
<text text-anchor="middle" x="537" y="-287.5" font-family="Helvetica,sans-Serif" font-size="10.00">MeMbotDCMotor.h</text>
</a>
</g>
</g>
<!-- Node1&#45;&gt;Node2 -->
<g id="edge1" class="edge">
<title>Node1&#45;&gt;Node2</title>
<path fill="none" stroke="midnightblue" d="M537,-336.08C537,-329.01 537,-318.86 537,-309.99"/>
<polygon fill="midnightblue" stroke="midnightblue" points="540.5,-309.75 537,-299.75 533.5,-309.75 540.5,-309.75"/>
</g>
<!-- Node3 -->
<g id="node3" class="node">
<title>Node3</title>
<g id="a_node3"><a xlink:title=" ">
<polygon fill="none" stroke="#bfbfbf" points="392.5,-112.5 392.5,-131.5 445.5,-131.5 445.5,-112.5 392.5,-112.5"/>
<text text-anchor="middle" x="419" y="-119.5" font-family="Helvetica,sans-Serif" font-size="10.00">stdint.h</text>
</a>
</g>
</g>
<!-- Node2&#45;&gt;Node3 -->
<g id="edge2" class="edge">
<title>Node2&#45;&gt;Node3</title>
<path fill="none" stroke="midnightblue" d="M507.45,-280.41C488.67,-273.49 465.3,-261.91 451,-244 427.02,-213.96 420.9,-167.65 419.41,-141.91"/>
<polygon fill="midnightblue" stroke="midnightblue" points="422.9,-141.51 419,-131.66 415.9,-141.79 422.9,-141.51"/>
</g>
<!-- Node4 -->
<g id="node4" class="node">
<title>Node4</title>
<g id="a_node4"><a xlink:title=" ">
<polygon fill="none" stroke="#bfbfbf" points="880,-168.5 880,-187.5 942,-187.5 942,-168.5 880,-168.5"/>
<text text-anchor="middle" x="911" y="-175.5" font-family="Helvetica,sans-Serif" font-size="10.00">stdbool.h</text>
</a>
</g>
</g>
<!-- Node2&#45;&gt;Node4 -->
<g id="edge3" class="edge">
<title>Node2&#45;&gt;Node4</title>
<path fill="none" stroke="midnightblue" d="M590.7,-286.86C671.84,-282.77 820.98,-271.64 866,-244 883.68,-233.15 896.17,-212.46 903.43,-197.32"/>
<polygon fill="midnightblue" stroke="midnightblue" points="906.75,-198.48 907.63,-187.93 900.35,-195.63 906.75,-198.48"/>
</g>
<!-- Node5 -->
<g id="node5" class="node">
<title>Node5</title>
<g id="a_node5"><a xlink:title=" ">
<polygon fill="none" stroke="#bfbfbf" points="676.5,-0.5 676.5,-19.5 739.5,-19.5 739.5,-0.5 676.5,-0.5"/>
<text text-anchor="middle" x="708" y="-7.5" font-family="Helvetica,sans-Serif" font-size="10.00">Arduino.h</text>
</a>
</g>
</g>
<!-- Node2&#45;&gt;Node5 -->
<g id="edge4" class="edge">
<title>Node2&#45;&gt;Node5</title>
<path fill="none" stroke="midnightblue" d="M590.79,-281.53C680.76,-267.52 852,-233.67 852,-179 852,-179 852,-179 852,-121 852,-68.76 791.41,-38.01 748.83,-22.85"/>
<polygon fill="midnightblue" stroke="midnightblue" points="749.84,-19.49 739.25,-19.58 747.59,-26.12 749.84,-19.49"/>
</g>
<!-- Node6 -->
<g id="node6" class="node">
<title>Node6</title>
<g id="a_node6"><a xlink:href="MeConfig_8h_source.html" target="_top" xlink:title=" ">
<polygon fill="none" stroke="black" points="303.5,-112.5 303.5,-131.5 374.5,-131.5 374.5,-112.5 303.5,-112.5"/>
<text text-anchor="middle" x="339" y="-119.5" font-family="Helvetica,sans-Serif" font-size="10.00">MeConfig.h</text>
</a>
</g>
</g>
<!-- Node2&#45;&gt;Node6 -->
<g id="edge5" class="edge">
<title>Node2&#45;&gt;Node6</title>
<path fill="none" stroke="midnightblue" d="M508.49,-280.39C487.11,-273.01 457.89,-260.88 436,-244 397.44,-214.25 364.94,-166.13 349.19,-140.45"/>
<polygon fill="midnightblue" stroke="midnightblue" points="352.14,-138.57 344,-131.8 346.14,-142.17 352.14,-138.57"/>
</g>
<!-- Node16 -->
<g id="node16" class="node">
<title>Node16</title>
<g id="a_node16"><a xlink:href="MePort_8h.html" target="_top" xlink:title="Header for MePort.cpp module.">
<polygon fill="none" stroke="black" points="485,-168.5 485,-187.5 545,-187.5 545,-168.5 485,-168.5"/>
<text text-anchor="middle" x="515" y="-175.5" font-family="Helvetica,sans-Serif" font-size="10.00">MePort.h</text>
</a>
</g>
</g>
<!-- Node2&#45;&gt;Node16 -->
<g id="edge20" class="edge">
<title>Node2&#45;&gt;Node16</title>
<path fill="none" stroke="midnightblue" d="M542.04,-280.4C548.76,-267.79 559.03,-243.62 552,-224 548.06,-213 540.14,-202.77 532.64,-194.85"/>
<polygon fill="midnightblue" stroke="midnightblue" points="535.02,-192.28 525.44,-187.76 530.11,-197.27 535.02,-192.28"/>
</g>
<!-- Node20 -->
<g id="node20" class="node">
<title>Node20</title>
<g id="a_node20"><a xlink:href="MeDCMotor_8h.html" target="_top" xlink:title="Header for MeDCMotor.cpp module.">
<polygon fill="none" stroke="black" points="460.5,-224.5 460.5,-243.5 543.5,-243.5 543.5,-224.5 460.5,-224.5"/>
<text text-anchor="middle" x="502" y="-231.5" font-family="Helvetica,sans-Serif" font-size="10.00">MeDCMotor.h</text>
</a>
</g>
</g>
<!-- Node2&#45;&gt;Node20 -->
<g id="edge28" class="edge">
<title>Node2&#45;&gt;Node20</title>
<path fill="none" stroke="midnightblue" d="M531.22,-280.08C526.33,-272.53 519.17,-261.49 513.17,-252.23"/>
<polygon fill="midnightblue" stroke="midnightblue" points="516.05,-250.24 507.67,-243.75 510.17,-254.05 516.05,-250.24"/>
</g>
<!-- Node7 -->
<g id="node7" class="node">
<title>Node7</title>
<g id="a_node7"><a xlink:href="Servo_8h_source.html" target="_top" xlink:title=" ">
<polygon fill="none" stroke="black" points="244.5,-56.5 244.5,-75.5 329.5,-75.5 329.5,-56.5 244.5,-56.5"/>
<text text-anchor="middle" x="287" y="-63.5" font-family="Helvetica,sans-Serif" font-size="10.00">utility/Servo.h</text>
</a>
</g>
</g>
<!-- Node6&#45;&gt;Node7 -->
<g id="edge6" class="edge">
<title>Node6&#45;&gt;Node7</title>
<path fill="none" stroke="midnightblue" d="M330.41,-112.08C322.84,-104.22 311.62,-92.57 302.49,-83.08"/>
<polygon fill="midnightblue" stroke="midnightblue" points="304.88,-80.53 295.43,-75.75 299.84,-85.38 304.88,-80.53"/>
</g>
<!-- Node9 -->
<g id="node9" class="node">
<title>Node9</title>
<g id="a_node9"><a xlink:href="Wire_8h_source.html" target="_top" xlink:title=" ">
<polygon fill="none" stroke="black" points="146,-56.5 146,-75.5 226,-75.5 226,-56.5 146,-56.5"/>
<text text-anchor="middle" x="186" y="-63.5" font-family="Helvetica,sans-Serif" font-size="10.00">utility/Wire.h</text>
</a>
</g>
</g>
<!-- Node6&#45;&gt;Node9 -->
<g id="edge8" class="edge">
<title>Node6&#45;&gt;Node9</title>
<path fill="none" stroke="midnightblue" d="M314.76,-112.44C289.13,-103.4 248.51,-89.06 219.76,-78.92"/>
<polygon fill="midnightblue" stroke="midnightblue" points="220.72,-75.54 210.13,-75.52 218.39,-82.15 220.72,-75.54"/>
</g>
<!-- Node11 -->
<g id="node11" class="node">
<title>Node11</title>
<g id="a_node11"><a xlink:href="EEPROM_8h_source.html" target="_top" xlink:title=" ">
<polygon fill="none" stroke="black" points="348,-56.5 348,-75.5 446,-75.5 446,-56.5 348,-56.5"/>
<text text-anchor="middle" x="397" y="-63.5" font-family="Helvetica,sans-Serif" font-size="10.00">utility/EEPROM.h</text>
</a>
</g>
</g>
<!-- Node6&#45;&gt;Node11 -->
<g id="edge11" class="edge">
<title>Node6&#45;&gt;Node11</title>
<path fill="none" stroke="midnightblue" d="M348.32,-112.32C356.89,-104.34 369.81,-92.31 380.19,-82.65"/>
<polygon fill="midnightblue" stroke="midnightblue" points="382.58,-85.21 387.51,-75.83 377.81,-80.09 382.58,-85.21"/>
</g>
<!-- Node14 -->
<g id="node14" class="node">
<title>Node14</title>
<g id="a_node14"><a xlink:href="SoftwareSerial_8h_source.html" target="_top" xlink:title=" ">
<polygon fill="none" stroke="black" points="0,-56.5 0,-75.5 128,-75.5 128,-56.5 0,-56.5"/>
<text text-anchor="middle" x="64" y="-63.5" font-family="Helvetica,sans-Serif" font-size="10.00">utility/SoftwareSerial.h</text>
</a>
</g>
</g>
<!-- Node6&#45;&gt;Node14 -->
<g id="edge15" class="edge">
<title>Node6&#45;&gt;Node14</title>
<path fill="none" stroke="midnightblue" d="M303.33,-114C255.99,-104.7 172.02,-88.21 117.19,-77.44"/>
<polygon fill="midnightblue" stroke="midnightblue" points="117.79,-74 107.3,-75.5 116.44,-80.86 117.79,-74"/>
</g>
<!-- Node15 -->
<g id="node15" class="node">
<title>Node15</title>
<g id="a_node15"><a xlink:href="SPI_8h_source.html" target="_top" xlink:title=" ">
<polygon fill="none" stroke="black" points="502,-56.5 502,-75.5 574,-75.5 574,-56.5 502,-56.5"/>
<text text-anchor="middle" x="538" y="-63.5" font-family="Helvetica,sans-Serif" font-size="10.00">utility/SPI.h</text>
</a>
</g>
</g>
<!-- Node6&#45;&gt;Node15 -->
<g id="edge18" class="edge">
<title>Node6&#45;&gt;Node15</title>
<path fill="none" stroke="midnightblue" d="M370.53,-112.44C404.59,-103.2 459.01,-88.44 496.52,-78.26"/>
<polygon fill="midnightblue" stroke="midnightblue" points="497.88,-81.51 506.62,-75.52 496.05,-74.76 497.88,-81.51"/>
</g>
<!-- Node8 -->
<g id="node8" class="node">
<title>Node8</title>
<g id="a_node8"><a xlink:title=" ">
<polygon fill="none" stroke="#bfbfbf" points="203.5,-0.5 203.5,-19.5 268.5,-19.5 268.5,-0.5 203.5,-0.5"/>
<text text-anchor="middle" x="236" y="-7.5" font-family="Helvetica,sans-Serif" font-size="10.00">inttypes.h</text>
</a>
</g>
</g>
<!-- Node7&#45;&gt;Node8 -->
<g id="edge7" class="edge">
<title>Node7&#45;&gt;Node8</title>
<path fill="none" stroke="midnightblue" d="M278.58,-56.08C271.15,-48.22 260.15,-36.57 251.19,-27.08"/>
<polygon fill="midnightblue" stroke="midnightblue" points="253.68,-24.62 244.26,-19.75 248.59,-29.42 253.68,-24.62"/>
</g>
<!-- Node9&#45;&gt;Node8 -->
<g id="edge9" class="edge">
<title>Node9&#45;&gt;Node8</title>
<path fill="none" stroke="midnightblue" d="M194.26,-56.08C201.46,-48.3 212.11,-36.8 220.85,-27.37"/>
<polygon fill="midnightblue" stroke="midnightblue" points="223.67,-29.47 227.9,-19.75 218.53,-24.71 223.67,-29.47"/>
</g>
<!-- Node10 -->
<g id="node10" class="node">
<title>Node10</title>
<g id="a_node10"><a xlink:title=" ">
<polygon fill="none" stroke="#bfbfbf" points="104.5,-0.5 104.5,-19.5 165.5,-19.5 165.5,-0.5 104.5,-0.5"/>
<text text-anchor="middle" x="135" y="-7.5" font-family="Helvetica,sans-Serif" font-size="10.00">Stream.h</text>
</a>
</g>
</g>
<!-- Node9&#45;&gt;Node10 -->
<g id="edge10" class="edge">
<title>Node9&#45;&gt;Node10</title>
<path fill="none" stroke="midnightblue" d="M177.58,-56.08C170.15,-48.22 159.15,-36.57 150.19,-27.08"/>
<polygon fill="midnightblue" stroke="midnightblue" points="152.68,-24.62 143.26,-19.75 147.59,-29.42 152.68,-24.62"/>
</g>
<!-- Node11&#45;&gt;Node8 -->
<g id="edge12" class="edge">
<title>Node11&#45;&gt;Node8</title>
<path fill="none" stroke="midnightblue" d="M371.49,-56.44C344.4,-47.36 301.41,-32.94 271.13,-22.78"/>
<polygon fill="midnightblue" stroke="midnightblue" points="271.99,-19.38 261.39,-19.52 269.76,-26.01 271.99,-19.38"/>
</g>
<!-- Node12 -->
<g id="node12" class="node">
<title>Node12</title>
<g id="a_node12"><a xlink:title=" ">
<polygon fill="none" stroke="#bfbfbf" points="347,-0.5 347,-19.5 429,-19.5 429,-0.5 347,-0.5"/>
<text text-anchor="middle" x="388" y="-7.5" font-family="Helvetica,sans-Serif" font-size="10.00">avr/eeprom.h</text>
</a>
</g>
</g>
<!-- Node11&#45;&gt;Node12 -->
<g id="edge13" class="edge">
<title>Node11&#45;&gt;Node12</title>
<path fill="none" stroke="midnightblue" d="M395.51,-56.08C394.32,-48.93 392.61,-38.64 391.12,-29.69"/>
<polygon fill="midnightblue" stroke="midnightblue" points="394.55,-29.04 389.46,-19.75 387.65,-30.19 394.55,-29.04"/>
</g>
<!-- Node13 -->
<g id="node13" class="node">
<title>Node13</title>
<g id="a_node13"><a xlink:title=" ">
<polygon fill="none" stroke="#bfbfbf" points="447.5,-0.5 447.5,-19.5 500.5,-19.5 500.5,-0.5 447.5,-0.5"/>
<text text-anchor="middle" x="474" y="-7.5" font-family="Helvetica,sans-Serif" font-size="10.00">avr/io.h</text>
</a>
</g>
</g>
<!-- Node11&#45;&gt;Node13 -->
<g id="edge14" class="edge">
<title>Node11&#45;&gt;Node13</title>
<path fill="none" stroke="midnightblue" d="M409.37,-56.32C421.16,-48.06 439.13,-35.45 453.14,-25.63"/>
<polygon fill="midnightblue" stroke="midnightblue" points="455.48,-28.26 461.66,-19.65 451.46,-22.53 455.48,-28.26"/>
</g>
<!-- Node14&#45;&gt;Node8 -->
<g id="edge16" class="edge">
<title>Node14&#45;&gt;Node8</title>
<path fill="none" stroke="midnightblue" d="M91.25,-56.44C120.44,-47.28 166.92,-32.69 199.31,-22.52"/>
<polygon fill="midnightblue" stroke="midnightblue" points="200.38,-25.85 208.87,-19.52 198.28,-19.17 200.38,-25.85"/>
</g>
<!-- Node14&#45;&gt;Node10 -->
<g id="edge17" class="edge">
<title>Node14&#45;&gt;Node10</title>
<path fill="none" stroke="midnightblue" d="M75.41,-56.32C86.11,-48.18 102.34,-35.84 115.16,-26.09"/>
<polygon fill="midnightblue" stroke="midnightblue" points="117.54,-28.67 123.39,-19.83 113.31,-23.1 117.54,-28.67"/>
</g>
<!-- Node15&#45;&gt;Node5 -->
<g id="edge19" class="edge">
<title>Node15&#45;&gt;Node5</title>
<path fill="none" stroke="midnightblue" d="M564.94,-56.44C593.66,-47.32 639.33,-32.81 671.32,-22.65"/>
<polygon fill="midnightblue" stroke="midnightblue" points="672.72,-25.88 681.19,-19.52 670.6,-19.21 672.72,-25.88"/>
</g>
<!-- Node16&#45;&gt;Node3 -->
<g id="edge25" class="edge">
<title>Node16&#45;&gt;Node3</title>
<path fill="none" stroke="midnightblue" d="M499.58,-168.32C484.46,-159.82 461.18,-146.73 443.53,-136.8"/>
<polygon fill="midnightblue" stroke="midnightblue" points="444.82,-133.51 434.39,-131.65 441.39,-139.61 444.82,-133.51"/>
</g>
<!-- Node16&#45;&gt;Node5 -->
<g id="edge21" class="edge">
<title>Node16&#45;&gt;Node5</title>
<path fill="none" stroke="midnightblue" d="M515.04,-168.08C515.54,-154.61 518.25,-128.88 531,-112 541.25,-98.43 635.93,-48.28 682.45,-24.14"/>
<polygon fill="midnightblue" stroke="midnightblue" points="684.06,-27.25 691.33,-19.55 680.84,-21.03 684.06,-27.25"/>
</g>
<!-- Node16&#45;&gt;Node6 -->
<g id="edge27" class="edge">
<title>Node16&#45;&gt;Node6</title>
<path fill="none" stroke="midnightblue" d="M487.11,-168.44C457.25,-159.28 409.69,-144.69 376.54,-134.52"/>
<polygon fill="midnightblue" stroke="midnightblue" points="377.34,-131.1 366.76,-131.52 375.29,-137.8 377.34,-131.1"/>
</g>
<!-- Node16&#45;&gt;Node13 -->
<g id="edge23" class="edge">
<title>Node16&#45;&gt;Node13</title>
<path fill="none" stroke="midnightblue" d="M511.17,-168.18C507.4,-159.21 501.67,-144.85 498,-132 487.83,-96.43 480.46,-53.77 476.74,-29.79"/>
<polygon fill="midnightblue" stroke="midnightblue" points="480.16,-28.99 475.21,-19.62 473.24,-30.03 480.16,-28.99"/>
</g>
<!-- Node17 -->
<g id="node17" class="node">
<title>Node17</title>
<g id="a_node17"><a xlink:title=" ">
<polygon fill="none" stroke="#bfbfbf" points="540,-112.5 540,-131.5 626,-131.5 626,-112.5 540,-112.5"/>
<text text-anchor="middle" x="583" y="-119.5" font-family="Helvetica,sans-Serif" font-size="10.00">avr/interrupt.h</text>
</a>
</g>
</g>
<!-- Node16&#45;&gt;Node17 -->
<g id="edge22" class="edge">
<title>Node16&#45;&gt;Node17</title>
<path fill="none" stroke="midnightblue" d="M525.93,-168.32C536.17,-160.18 551.72,-147.84 564,-138.09"/>
<polygon fill="midnightblue" stroke="midnightblue" points="566.22,-140.79 571.88,-131.83 561.87,-135.31 566.22,-140.79"/>
</g>
<!-- Node18 -->
<g id="node18" class="node">
<title>Node18</title>
<g id="a_node18"><a xlink:title=" ">
<polygon fill="none" stroke="#bfbfbf" points="644,-112.5 644,-131.5 714,-131.5 714,-112.5 644,-112.5"/>
<text text-anchor="middle" x="679" y="-119.5" font-family="Helvetica,sans-Serif" font-size="10.00">util/delay.h</text>
</a>
</g>
</g>
<!-- Node16&#45;&gt;Node18 -->
<g id="edge24" class="edge">
<title>Node16&#45;&gt;Node18</title>
<path fill="none" stroke="midnightblue" d="M540.99,-168.44C568.7,-159.32 612.75,-144.81 643.62,-134.65"/>
<polygon fill="midnightblue" stroke="midnightblue" points="644.73,-137.97 653.14,-131.52 642.54,-131.32 644.73,-137.97"/>
</g>
<!-- Node19 -->
<g id="node19" class="node">
<title>Node19</title>
<g id="a_node19"><a xlink:title=" ">
<polygon fill="none" stroke="#bfbfbf" points="732.5,-112.5 732.5,-131.5 785.5,-131.5 785.5,-112.5 732.5,-112.5"/>
<text text-anchor="middle" x="759" y="-119.5" font-family="Helvetica,sans-Serif" font-size="10.00">stdlib.h</text>
</a>
</g>
</g>
<!-- Node16&#45;&gt;Node19 -->
<g id="edge26" class="edge">
<title>Node16&#45;&gt;Node19</title>
<path fill="none" stroke="midnightblue" d="M545.03,-170.82C583.71,-162.78 653.24,-148.12 722.52,-132.05"/>
<polygon fill="midnightblue" stroke="midnightblue" points="723.34,-135.46 732.29,-129.78 721.75,-128.64 723.34,-135.46"/>
</g>
<!-- Node20&#45;&gt;Node3 -->
<g id="edge29" class="edge">
<title>Node20&#45;&gt;Node3</title>
<path fill="none" stroke="midnightblue" d="M495.49,-224.37C481.73,-206.14 449.5,-163.43 431.58,-139.68"/>
<polygon fill="midnightblue" stroke="midnightblue" points="434.3,-137.47 425.48,-131.59 428.71,-141.68 434.3,-137.47"/>
</g>
<!-- Node20&#45;&gt;Node4 -->
<g id="edge30" class="edge">
<title>Node20&#45;&gt;Node4</title>
<path fill="none" stroke="midnightblue" d="M543.85,-227.47C622.57,-217.08 791.77,-194.74 869.9,-184.43"/>
<polygon fill="midnightblue" stroke="midnightblue" points="870.41,-187.89 879.86,-183.11 869.49,-180.95 870.41,-187.89"/>
</g>
<!-- Node20&#45;&gt;Node5 -->
<g id="edge31" class="edge">
<title>Node20&#45;&gt;Node5</title>
<path fill="none" stroke="midnightblue" d="M543.51,-232.72C609.59,-229.75 737.13,-213.16 795,-132 822.58,-93.32 765.85,-47.89 731.56,-25.28"/>
<polygon fill="midnightblue" stroke="midnightblue" points="733.29,-22.23 722.98,-19.79 729.52,-28.13 733.29,-22.23"/>
</g>
<!-- Node20&#45;&gt;Node6 -->
<g id="edge32" class="edge">
<title>Node20&#45;&gt;Node6</title>
<path fill="none" stroke="midnightblue" d="M489.21,-224.37C461.24,-205.49 394.4,-160.38 360.1,-137.24"/>
<polygon fill="midnightblue" stroke="midnightblue" points="361.98,-134.28 351.73,-131.59 358.06,-140.09 361.98,-134.28"/>
</g>
<!-- Node20&#45;&gt;Node16 -->
<g id="edge33" class="edge">
<title>Node20&#45;&gt;Node16</title>
<path fill="none" stroke="midnightblue" d="M504.15,-224.08C505.87,-216.93 508.35,-206.64 510.5,-197.69"/>
<polygon fill="midnightblue" stroke="midnightblue" points="513.96,-198.29 512.89,-187.75 507.15,-196.65 513.96,-198.29"/>
</g>
</g>
</svg>
        <g id="navigator" transform="translate(0 0)" fill="#404254">
                <rect fill="#f2f5e9" fill-opacity="0.5" stroke="#606060" stroke-width=".5" x="0" y="0" width="60" height="60"/>
                <use id="zoomplus" xlink:href="#zoomPlus" x="17" y="9" onmousedown="handleZoom(evt,'in')"/>
                <use id="zoomminus" xlink:href="#zoomMin" x="42" y="9" onmousedown="handleZoom(evt,'out')"/>
                <use id="reset" xlink:href="#resetDef" x="30" y="36" onmousedown="handleReset()"/>
                <g id="arrowUp" xlink:href="#dirArrow" transform="translate(30 24)" onmousedown="handlePan(0,-1)">
                  <use xlink:href="#rim" fill="#404040">
                        <set attributeName="fill" to="#808080" begin="arrowUp.mouseover" end="arrowUp.mouseout"/>
                  </use>
                  <path fill="none" stroke="white" stroke-width="1.5" d="M0,-3.0v7 M-2.5,-0.5L0,-3.0L2.5,-0.5"/>
                </g>
                <g id="arrowRight" xlink:href="#dirArrow" transform="rotate(90) translate(36 -43)" onmousedown="handlePan(1,0)">
                  <use xlink:href="#rim" fill="#404040">
                        <set attributeName="fill" to="#808080" begin="arrowRight.mouseover" end="arrowRight.mouseout"/>
                  </use>
                  <path fill="none" stroke="white" stroke-width="1.5" d="M0,-3.0v7 M-2.5,-0.5L0,-3.0L2.5,-0.5"/>
                </g>
                <g id="arrowDown" xlink:href="#dirArrow" transform="rotate(180) translate(-30 -48)" onmousedown="handlePan(0,1)">
                  <use xlink:href="#rim" fill="#404040">
                        <set attributeName="fill" to="#808080" begin="arrowDown.mouseover" end="arrowDown.mouseout"/>
                  </use>
                  <path fill="none" stroke="white" stroke-width="1.5" d="M0,-3.0v7 M-2.5,-0.5L0,-3.0L2.5,-0.5"/>
                </g>
                <g id="arrowLeft" xlink:href="#dirArrow" transform="rotate(270) translate(-36 17)" onmousedown="handlePan(-1,0)">
                  <use xlink:href="#rim" fill="#404040">
                        <set attributeName="fill" to="#808080" begin="arrowLeft.mouseover" end="arrowLeft.mouseout"/>
                  </use>
                  <path fill="none" stroke="white" stroke-width="1.5" d="M0,-3.0v7 M-2.5,-0.5L0,-3.0L2.5,-0.5"/>
                </g>
        </g>
        <svg viewBox="0 0 15 15" width="100%" height="30px" preserveAspectRatio="xMaxYMin meet">
         <g id="arrow_out" transform="scale(0.3 0.3)">
          <a xlink:href="MeMbotDCMotor_8cpp__incl_org.svg" target="_base">
           <rect id="button" ry="5" rx="5" y="6" x="6" height="38" width="38"
                fill="#f2f5e9" fill-opacity="0.5" stroke="#606060" stroke-width="1.0"/>
           <path id="arrow"
             d="M 11.500037,31.436501 C 11.940474,20.09759 22.043105,11.32322 32.158766,21.979434 L 37.068811,17.246167 C 37.068811,17.246167 37.088388,32 37.088388,32 L 22.160133,31.978069 C 22.160133,31.978069 26.997745,27.140456 26.997745,27.140456 C 18.528582,18.264221 13.291696,25.230495 11.500037,31.436501 z"
             style="fill:#404040;"/>
          </a>
         </g>
        </svg>
</svg>
