<?xml version="1.0" encoding="UTF-8" standalone="no"?>
<!DOCTYPE svg PUBLIC "-//W3C//DTD SVG 1.1//EN"
 "http://www.w3.org/Graphics/SVG/1.1/DTD/svg11.dtd">
<!-- Generated by graphviz version 2.43.0 (0)
 -->
<!-- Title: src/MeMegaPiProESCMotor.h Pages: 1 -->
<svg width="304pt" height="84pt"
 viewBox="0.00 0.00 303.50 84.00" xmlns="http://www.w3.org/2000/svg" xmlns:xlink="http://www.w3.org/1999/xlink">
<g id="graph0" class="graph" transform="scale(1 1) rotate(0) translate(4 80)">
<title>src/MeMegaPiProESCMotor.h</title>
<!-- Node1 -->
<g id="node1" class="node">
<title>Node1</title>
<g id="a_node1"><a xlink:title="Header for MeMegaPiProESCMotor.cpp module.">
<polygon fill="#bfbfbf" stroke="black" points="55,-56.5 55,-75.5 211,-75.5 211,-56.5 55,-56.5"/>
<text text-anchor="middle" x="133" y="-63.5" font-family="Helvetica,sans-Serif" font-size="10.00">src/MeMegaPiProESCMotor.h</text>
</a>
</g>
</g>
<!-- Node2 -->
<g id="node2" class="node">
<title>Node2</title>
<g id="a_node2"><a xlink:href="MeMegaPiPro_8h.html" target="_top" xlink:title="Driver for MegaPiPro board.">
<polygon fill="none" stroke="black" points="0,-0.5 0,-19.5 110,-19.5 110,-0.5 0,-0.5"/>
<text text-anchor="middle" x="55" y="-7.5" font-family="Helvetica,sans-Serif" font-size="10.00">src/MeMegaPiPro.h</text>
</a>
</g>
</g>
<!-- Node1&#45;&gt;Node2 -->
<g id="edge1" class="edge">
<title>Node1&#45;&gt;Node2</title>
<path fill="none" stroke="midnightblue" d="M112.23,-50.62C97.98,-40.76 79.54,-27.99 67.5,-19.65"/>
<polygon fill="midnightblue" stroke="midnightblue" points="110.25,-53.51 120.47,-56.32 114.24,-47.75 110.25,-53.51"/>
</g>
<!-- Node3 -->
<g id="node3" class="node">
<title>Node3</title>
<g id="a_node3"><a xlink:href="MeMegaPiProESCMotor_8cpp.html" target="_top" xlink:title="Driver for Me Megapipro ESC motor device.">
<polygon fill="none" stroke="black" points="128.5,-0.5 128.5,-19.5 295.5,-19.5 295.5,-0.5 128.5,-0.5"/>
<text text-anchor="middle" x="212" y="-7.5" font-family="Helvetica,sans-Serif" font-size="10.00">src/MeMegaPiProESCMotor.cpp</text>
</a>
</g>
</g>
<!-- Node1&#45;&gt;Node3 -->
<g id="edge2" class="edge">
<title>Node1&#45;&gt;Node3</title>
<path fill="none" stroke="midnightblue" d="M154.03,-50.62C168.47,-40.76 187.14,-27.99 199.34,-19.65"/>
<polygon fill="midnightblue" stroke="midnightblue" points="151.97,-47.79 145.69,-56.32 155.92,-53.57 151.97,-47.79"/>
</g>
</g>
</svg>
