<?xml version="1.0" encoding="UTF-8" standalone="no"?>
<!DOCTYPE svg PUBLIC "-//W3C//DTD SVG 1.1//EN"
 "http://www.w3.org/Graphics/SVG/1.1/DTD/svg11.dtd">
<!-- Generated by graphviz version 2.43.0 (0)
 -->
<!-- Title: src/MeMegaPiDCMotor.h Pages: 1 -->
<svg width="396pt" height="84pt"
 viewBox="0.00 0.00 396.00 84.00" xmlns="http://www.w3.org/2000/svg" xmlns:xlink="http://www.w3.org/1999/xlink">
<g id="graph0" class="graph" transform="scale(1 1) rotate(0) translate(4 80)">
<title>src/MeMegaPiDCMotor.h</title>
<!-- Node1 -->
<g id="node1" class="node">
<title>Node1</title>
<g id="a_node1"><a xlink:title="Header for MeMegaPiDCMotor.cpp module.">
<polygon fill="#bfbfbf" stroke="black" points="118,-56.5 118,-75.5 254,-75.5 254,-56.5 118,-56.5"/>
<text text-anchor="middle" x="186" y="-63.5" font-family="Helvetica,sans-Serif" font-size="10.00">src/MeMegaPiDCMotor.h</text>
</a>
</g>
</g>
<!-- Node2 -->
<g id="node2" class="node">
<title>Node2</title>
<g id="a_node2"><a xlink:href="MeMegaPi_8h.html" target="_top" xlink:title="Driver for MegaPi board.">
<polygon fill="none" stroke="black" points="0,-0.5 0,-19.5 94,-19.5 94,-0.5 0,-0.5"/>
<text text-anchor="middle" x="47" y="-7.5" font-family="Helvetica,sans-Serif" font-size="10.00">src/MeMegaPi.h</text>
</a>
</g>
</g>
<!-- Node1&#45;&gt;Node2 -->
<g id="edge1" class="edge">
<title>Node1&#45;&gt;Node2</title>
<path fill="none" stroke="midnightblue" d="M154.52,-52.77C128.41,-42.63 91.96,-28.47 68.92,-19.52"/>
<polygon fill="midnightblue" stroke="midnightblue" points="153.39,-56.08 163.98,-56.44 155.92,-49.56 153.39,-56.08"/>
</g>
<!-- Node3 -->
<g id="node3" class="node">
<title>Node3</title>
<g id="a_node3"><a xlink:href="MeMegaPiDCMotor_8cpp.html" target="_top" xlink:title="Driver for Me Megapi DC motor device.">
<polygon fill="none" stroke="black" points="112.5,-0.5 112.5,-19.5 259.5,-19.5 259.5,-0.5 112.5,-0.5"/>
<text text-anchor="middle" x="186" y="-7.5" font-family="Helvetica,sans-Serif" font-size="10.00">src/MeMegaPiDCMotor.cpp</text>
</a>
</g>
</g>
<!-- Node1&#45;&gt;Node3 -->
<g id="edge2" class="edge">
<title>Node1&#45;&gt;Node3</title>
<path fill="none" stroke="midnightblue" d="M186,-45.8C186,-36.91 186,-26.78 186,-19.75"/>
<polygon fill="midnightblue" stroke="midnightblue" points="182.5,-46.08 186,-56.08 189.5,-46.08 182.5,-46.08"/>
</g>
<!-- Node4 -->
<g id="node4" class="node">
<title>Node4</title>
<g id="a_node4"><a xlink:href="MeMegaPiPro_8h.html" target="_top" xlink:title="Driver for MegaPiPro board.">
<polygon fill="none" stroke="black" points="278,-0.5 278,-19.5 388,-19.5 388,-0.5 278,-0.5"/>
<text text-anchor="middle" x="333" y="-7.5" font-family="Helvetica,sans-Serif" font-size="10.00">src/MeMegaPiPro.h</text>
</a>
</g>
</g>
<!-- Node1&#45;&gt;Node4 -->
<g id="edge3" class="edge">
<title>Node1&#45;&gt;Node4</title>
<path fill="none" stroke="midnightblue" d="M218.92,-52.91C246.56,-42.75 285.34,-28.51 309.82,-19.52"/>
<polygon fill="midnightblue" stroke="midnightblue" points="217.47,-49.71 209.29,-56.44 219.89,-56.28 217.47,-49.71"/>
</g>
</g>
</svg>
