<?xml version="1.0" encoding="UTF-8" standalone="no"?>
<!DOCTYPE svg PUBLIC "-//W3C//DTD SVG 1.1//EN"
 "http://www.w3.org/Graphics/SVG/1.1/DTD/svg11.dtd">
<!-- Generated by graphviz version 2.43.0 (0)
 -->
<!-- Title: src/MeOneWire.cpp Pages: 1 -->
<svg width="572pt" height="252pt"
 viewBox="0.00 0.00 571.50 252.00" xmlns="http://www.w3.org/2000/svg" xmlns:xlink="http://www.w3.org/1999/xlink">
<g id="graph0" class="graph" transform="scale(1 1) rotate(0) translate(4 248)">
<title>src/MeOneWire.cpp</title>
<!-- Node1 -->
<g id="node1" class="node">
<title>Node1</title>
<g id="a_node1"><a xlink:title="Driver for 1&#45;wire protocol.">
<polygon fill="#bfbfbf" stroke="black" points="243.5,-224.5 243.5,-243.5 354.5,-243.5 354.5,-224.5 243.5,-224.5"/>
<text text-anchor="middle" x="299" y="-231.5" font-family="Helvetica,sans-Serif" font-size="10.00">src/MeOneWire.cpp</text>
</a>
</g>
</g>
<!-- Node2 -->
<g id="node2" class="node">
<title>Node2</title>
<g id="a_node2"><a xlink:href="MeOneWire_8h.html" target="_top" xlink:title="Header for MeOneWire.cpp module.">
<polygon fill="none" stroke="black" points="257.5,-168.5 257.5,-187.5 340.5,-187.5 340.5,-168.5 257.5,-168.5"/>
<text text-anchor="middle" x="299" y="-175.5" font-family="Helvetica,sans-Serif" font-size="10.00">MeOneWire.h</text>
</a>
</g>
</g>
<!-- Node1&#45;&gt;Node2 -->
<g id="edge1" class="edge">
<title>Node1&#45;&gt;Node2</title>
<path fill="none" stroke="midnightblue" d="M299,-224.08C299,-217.01 299,-206.86 299,-197.99"/>
<polygon fill="midnightblue" stroke="midnightblue" points="302.5,-197.75 299,-187.75 295.5,-197.75 302.5,-197.75"/>
</g>
<!-- Node3 -->
<g id="node3" class="node">
<title>Node3</title>
<g id="a_node3"><a xlink:title=" ">
<polygon fill="none" stroke="#bfbfbf" points="154.5,-112.5 154.5,-131.5 207.5,-131.5 207.5,-112.5 154.5,-112.5"/>
<text text-anchor="middle" x="181" y="-119.5" font-family="Helvetica,sans-Serif" font-size="10.00">stdint.h</text>
</a>
</g>
</g>
<!-- Node2&#45;&gt;Node3 -->
<g id="edge2" class="edge">
<title>Node2&#45;&gt;Node3</title>
<path fill="none" stroke="midnightblue" d="M280.3,-168.44C261.06,-159.64 230.85,-145.81 208.8,-135.72"/>
<polygon fill="midnightblue" stroke="midnightblue" points="210.16,-132.5 199.61,-131.52 207.25,-138.86 210.16,-132.5"/>
</g>
<!-- Node4 -->
<g id="node4" class="node">
<title>Node4</title>
<g id="a_node4"><a xlink:title=" ">
<polygon fill="none" stroke="#bfbfbf" points="226,-112.5 226,-131.5 288,-131.5 288,-112.5 226,-112.5"/>
<text text-anchor="middle" x="257" y="-119.5" font-family="Helvetica,sans-Serif" font-size="10.00">stdbool.h</text>
</a>
</g>
</g>
<!-- Node2&#45;&gt;Node4 -->
<g id="edge3" class="edge">
<title>Node2&#45;&gt;Node4</title>
<path fill="none" stroke="midnightblue" d="M292.06,-168.08C286.07,-160.38 277.25,-149.03 269.95,-139.65"/>
<polygon fill="midnightblue" stroke="midnightblue" points="272.71,-137.5 263.81,-131.75 267.18,-141.79 272.71,-137.5"/>
</g>
<!-- Node5 -->
<g id="node5" class="node">
<title>Node5</title>
<g id="a_node5"><a xlink:title=" ">
<polygon fill="none" stroke="#bfbfbf" points="500.5,-0.5 500.5,-19.5 563.5,-19.5 563.5,-0.5 500.5,-0.5"/>
<text text-anchor="middle" x="532" y="-7.5" font-family="Helvetica,sans-Serif" font-size="10.00">Arduino.h</text>
</a>
</g>
</g>
<!-- Node2&#45;&gt;Node5 -->
<g id="edge4" class="edge">
<title>Node2&#45;&gt;Node5</title>
<path fill="none" stroke="midnightblue" d="M340.85,-173.59C398.18,-166.42 499.24,-144.26 545,-76 554.39,-62 548.78,-42.75 542.26,-28.83"/>
<polygon fill="midnightblue" stroke="midnightblue" points="545.28,-27.05 537.55,-19.79 539.07,-30.28 545.28,-27.05"/>
</g>
<!-- Node6 -->
<g id="node6" class="node">
<title>Node6</title>
<g id="a_node6"><a xlink:href="MeConfig_8h_source.html" target="_top" xlink:title=" ">
<polygon fill="none" stroke="black" points="306.5,-112.5 306.5,-131.5 377.5,-131.5 377.5,-112.5 306.5,-112.5"/>
<text text-anchor="middle" x="342" y="-119.5" font-family="Helvetica,sans-Serif" font-size="10.00">MeConfig.h</text>
</a>
</g>
</g>
<!-- Node2&#45;&gt;Node6 -->
<g id="edge5" class="edge">
<title>Node2&#45;&gt;Node6</title>
<path fill="none" stroke="midnightblue" d="M306.1,-168.08C312.24,-160.38 321.27,-149.03 328.74,-139.65"/>
<polygon fill="midnightblue" stroke="midnightblue" points="331.54,-141.75 335.03,-131.75 326.06,-137.39 331.54,-141.75"/>
</g>
<!-- Node7 -->
<g id="node7" class="node">
<title>Node7</title>
<g id="a_node7"><a xlink:href="Servo_8h_source.html" target="_top" xlink:title=" ">
<polygon fill="none" stroke="black" points="244.5,-56.5 244.5,-75.5 329.5,-75.5 329.5,-56.5 244.5,-56.5"/>
<text text-anchor="middle" x="287" y="-63.5" font-family="Helvetica,sans-Serif" font-size="10.00">utility/Servo.h</text>
</a>
</g>
</g>
<!-- Node6&#45;&gt;Node7 -->
<g id="edge6" class="edge">
<title>Node6&#45;&gt;Node7</title>
<path fill="none" stroke="midnightblue" d="M332.92,-112.08C324.83,-104.14 312.8,-92.34 303.09,-82.8"/>
<polygon fill="midnightblue" stroke="midnightblue" points="305.5,-80.26 295.91,-75.75 300.6,-85.25 305.5,-80.26"/>
</g>
<!-- Node9 -->
<g id="node9" class="node">
<title>Node9</title>
<g id="a_node9"><a xlink:href="Wire_8h_source.html" target="_top" xlink:title=" ">
<polygon fill="none" stroke="black" points="0,-56.5 0,-75.5 80,-75.5 80,-56.5 0,-56.5"/>
<text text-anchor="middle" x="40" y="-63.5" font-family="Helvetica,sans-Serif" font-size="10.00">utility/Wire.h</text>
</a>
</g>
</g>
<!-- Node6&#45;&gt;Node9 -->
<g id="edge8" class="edge">
<title>Node6&#45;&gt;Node9</title>
<path fill="none" stroke="midnightblue" d="M306.15,-113.74C303.06,-113.14 299.98,-112.56 297,-112 207.92,-95.39 183.04,-92.65 90.22,-76.2"/>
<polygon fill="midnightblue" stroke="midnightblue" points="90.56,-72.71 80.11,-74.4 89.34,-79.6 90.56,-72.71"/>
</g>
<!-- Node11 -->
<g id="node11" class="node">
<title>Node11</title>
<g id="a_node11"><a xlink:href="EEPROM_8h_source.html" target="_top" xlink:title=" ">
<polygon fill="none" stroke="black" points="348,-56.5 348,-75.5 446,-75.5 446,-56.5 348,-56.5"/>
<text text-anchor="middle" x="397" y="-63.5" font-family="Helvetica,sans-Serif" font-size="10.00">utility/EEPROM.h</text>
</a>
</g>
</g>
<!-- Node6&#45;&gt;Node11 -->
<g id="edge11" class="edge">
<title>Node6&#45;&gt;Node11</title>
<path fill="none" stroke="midnightblue" d="M351.08,-112.08C359.17,-104.14 371.2,-92.34 380.91,-82.8"/>
<polygon fill="midnightblue" stroke="midnightblue" points="383.4,-85.25 388.09,-75.75 378.5,-80.26 383.4,-85.25"/>
</g>
<!-- Node14 -->
<g id="node14" class="node">
<title>Node14</title>
<g id="a_node14"><a xlink:href="SoftwareSerial_8h_source.html" target="_top" xlink:title=" ">
<polygon fill="none" stroke="black" points="98,-56.5 98,-75.5 226,-75.5 226,-56.5 98,-56.5"/>
<text text-anchor="middle" x="162" y="-63.5" font-family="Helvetica,sans-Serif" font-size="10.00">utility/SoftwareSerial.h</text>
</a>
</g>
</g>
<!-- Node6&#45;&gt;Node14 -->
<g id="edge15" class="edge">
<title>Node6&#45;&gt;Node14</title>
<path fill="none" stroke="midnightblue" d="M313.48,-112.44C282.93,-103.28 234.29,-88.69 200.4,-78.52"/>
<polygon fill="midnightblue" stroke="midnightblue" points="200.97,-75.04 190.39,-75.52 198.96,-81.74 200.97,-75.04"/>
</g>
<!-- Node15 -->
<g id="node15" class="node">
<title>Node15</title>
<g id="a_node15"><a xlink:href="SPI_8h_source.html" target="_top" xlink:title=" ">
<polygon fill="none" stroke="black" points="464,-56.5 464,-75.5 536,-75.5 536,-56.5 464,-56.5"/>
<text text-anchor="middle" x="500" y="-63.5" font-family="Helvetica,sans-Serif" font-size="10.00">utility/SPI.h</text>
</a>
</g>
</g>
<!-- Node6&#45;&gt;Node15 -->
<g id="edge18" class="edge">
<title>Node6&#45;&gt;Node15</title>
<path fill="none" stroke="midnightblue" d="M367.04,-112.44C393.62,-103.36 435.81,-88.94 465.52,-78.78"/>
<polygon fill="midnightblue" stroke="midnightblue" points="466.75,-82.06 475.08,-75.52 464.49,-75.44 466.75,-82.06"/>
</g>
<!-- Node8 -->
<g id="node8" class="node">
<title>Node8</title>
<g id="a_node8"><a xlink:title=" ">
<polygon fill="none" stroke="#bfbfbf" points="165.5,-0.5 165.5,-19.5 230.5,-19.5 230.5,-0.5 165.5,-0.5"/>
<text text-anchor="middle" x="198" y="-7.5" font-family="Helvetica,sans-Serif" font-size="10.00">inttypes.h</text>
</a>
</g>
</g>
<!-- Node7&#45;&gt;Node8 -->
<g id="edge7" class="edge">
<title>Node7&#45;&gt;Node8</title>
<path fill="none" stroke="midnightblue" d="M272.7,-56.32C258.82,-47.9 237.51,-34.97 221.2,-25.07"/>
<polygon fill="midnightblue" stroke="midnightblue" points="222.63,-21.85 212.26,-19.65 219,-27.83 222.63,-21.85"/>
</g>
<!-- Node9&#45;&gt;Node8 -->
<g id="edge9" class="edge">
<title>Node9&#45;&gt;Node8</title>
<path fill="none" stroke="midnightblue" d="M65.04,-56.44C91.62,-47.36 133.81,-32.94 163.52,-22.78"/>
<polygon fill="midnightblue" stroke="midnightblue" points="164.75,-26.06 173.08,-19.52 162.49,-19.44 164.75,-26.06"/>
</g>
<!-- Node10 -->
<g id="node10" class="node">
<title>Node10</title>
<g id="a_node10"><a xlink:title=" ">
<polygon fill="none" stroke="#bfbfbf" points="66.5,-0.5 66.5,-19.5 127.5,-19.5 127.5,-0.5 66.5,-0.5"/>
<text text-anchor="middle" x="97" y="-7.5" font-family="Helvetica,sans-Serif" font-size="10.00">Stream.h</text>
</a>
</g>
</g>
<!-- Node9&#45;&gt;Node10 -->
<g id="edge10" class="edge">
<title>Node9&#45;&gt;Node10</title>
<path fill="none" stroke="midnightblue" d="M49.16,-56.32C57.5,-48.42 70.03,-36.55 80.18,-26.94"/>
<polygon fill="midnightblue" stroke="midnightblue" points="82.82,-29.25 87.68,-19.83 78.01,-24.17 82.82,-29.25"/>
</g>
<!-- Node11&#45;&gt;Node8 -->
<g id="edge12" class="edge">
<title>Node11&#45;&gt;Node8</title>
<path fill="none" stroke="midnightblue" d="M365.47,-56.44C331.41,-47.2 276.99,-32.44 239.48,-22.26"/>
<polygon fill="midnightblue" stroke="midnightblue" points="239.95,-18.76 229.38,-19.52 238.12,-25.51 239.95,-18.76"/>
</g>
<!-- Node12 -->
<g id="node12" class="node">
<title>Node12</title>
<g id="a_node12"><a xlink:title=" ">
<polygon fill="none" stroke="#bfbfbf" points="378,-0.5 378,-19.5 460,-19.5 460,-0.5 378,-0.5"/>
<text text-anchor="middle" x="419" y="-7.5" font-family="Helvetica,sans-Serif" font-size="10.00">avr/eeprom.h</text>
</a>
</g>
</g>
<!-- Node11&#45;&gt;Node12 -->
<g id="edge13" class="edge">
<title>Node11&#45;&gt;Node12</title>
<path fill="none" stroke="midnightblue" d="M400.63,-56.08C403.61,-48.77 407.93,-38.18 411.62,-29.1"/>
<polygon fill="midnightblue" stroke="midnightblue" points="414.9,-30.33 415.43,-19.75 408.42,-27.69 414.9,-30.33"/>
</g>
<!-- Node13 -->
<g id="node13" class="node">
<title>Node13</title>
<g id="a_node13"><a xlink:title=" ">
<polygon fill="none" stroke="#bfbfbf" points="306.5,-0.5 306.5,-19.5 359.5,-19.5 359.5,-0.5 306.5,-0.5"/>
<text text-anchor="middle" x="333" y="-7.5" font-family="Helvetica,sans-Serif" font-size="10.00">avr/io.h</text>
</a>
</g>
</g>
<!-- Node11&#45;&gt;Node13 -->
<g id="edge14" class="edge">
<title>Node11&#45;&gt;Node13</title>
<path fill="none" stroke="midnightblue" d="M386.72,-56.32C377.16,-48.26 362.72,-36.08 351.22,-26.37"/>
<polygon fill="midnightblue" stroke="midnightblue" points="353.37,-23.61 343.47,-19.83 348.86,-28.96 353.37,-23.61"/>
</g>
<!-- Node14&#45;&gt;Node8 -->
<g id="edge16" class="edge">
<title>Node14&#45;&gt;Node8</title>
<path fill="none" stroke="midnightblue" d="M167.94,-56.08C172.98,-48.53 180.34,-37.49 186.51,-28.23"/>
<polygon fill="midnightblue" stroke="midnightblue" points="189.53,-30.01 192.17,-19.75 183.71,-26.13 189.53,-30.01"/>
</g>
<!-- Node14&#45;&gt;Node10 -->
<g id="edge17" class="edge">
<title>Node14&#45;&gt;Node10</title>
<path fill="none" stroke="midnightblue" d="M151.56,-56.32C141.85,-48.26 127.18,-36.08 115.5,-26.37"/>
<polygon fill="midnightblue" stroke="midnightblue" points="117.56,-23.53 107.63,-19.83 113.09,-28.92 117.56,-23.53"/>
</g>
<!-- Node15&#45;&gt;Node5 -->
<g id="edge19" class="edge">
<title>Node15&#45;&gt;Node5</title>
<path fill="none" stroke="midnightblue" d="M505.28,-56.08C509.71,-48.61 516.16,-37.72 521.62,-28.52"/>
<polygon fill="midnightblue" stroke="midnightblue" points="524.73,-30.14 526.81,-19.75 518.71,-26.57 524.73,-30.14"/>
</g>
</g>
</svg>
