<?xml version="1.0" encoding="UTF-8" standalone="no"?>
<!DOCTYPE svg PUBLIC "-//W3C//DTD SVG 1.1//EN"
 "http://www.w3.org/Graphics/SVG/1.1/DTD/svg11.dtd">
<!-- Generated by graphviz version 2.43.0 (0)
 -->
<!-- Title: src/MeOnBoardTemp.h Pages: 1 -->
<svg width="252pt" height="84pt"
 viewBox="0.00 0.00 252.00 84.00" xmlns="http://www.w3.org/2000/svg" xmlns:xlink="http://www.w3.org/1999/xlink">
<g id="graph0" class="graph" transform="scale(1 1) rotate(0) translate(4 80)">
<title>src/MeOnBoardTemp.h</title>
<!-- Node1 -->
<g id="node1" class="node">
<title>Node1</title>
<g id="a_node1"><a xlink:title="Header for MeOnBoardTemp.cpp module.">
<polygon fill="#bfbfbf" stroke="black" points="46.5,-56.5 46.5,-75.5 172.5,-75.5 172.5,-56.5 46.5,-56.5"/>
<text text-anchor="middle" x="109.5" y="-63.5" font-family="Helvetica,sans-Serif" font-size="10.00">src/MeOnBoardTemp.h</text>
</a>
</g>
</g>
<!-- Node2 -->
<g id="node2" class="node">
<title>Node2</title>
<g id="a_node2"><a xlink:href="MeAuriga_8h.html" target="_top" xlink:title="Driver for MeAuriga board.">
<polygon fill="none" stroke="black" points="0,-0.5 0,-19.5 89,-19.5 89,-0.5 0,-0.5"/>
<text text-anchor="middle" x="44.5" y="-7.5" font-family="Helvetica,sans-Serif" font-size="10.00">src/MeAuriga.h</text>
</a>
</g>
</g>
<!-- Node1&#45;&gt;Node2 -->
<g id="edge1" class="edge">
<title>Node1&#45;&gt;Node2</title>
<path fill="none" stroke="midnightblue" d="M91.23,-49.82C79.58,-40.15 64.9,-27.95 55.13,-19.83"/>
<polygon fill="midnightblue" stroke="midnightblue" points="89.13,-52.63 99.06,-56.32 93.6,-47.24 89.13,-52.63"/>
</g>
<!-- Node3 -->
<g id="node3" class="node">
<title>Node3</title>
<g id="a_node3"><a xlink:href="MeOnBoardTemp_8cpp.html" target="_top" xlink:title="Driver for Auriga On Board Temperature device.">
<polygon fill="none" stroke="black" points="107,-0.5 107,-19.5 244,-19.5 244,-0.5 107,-0.5"/>
<text text-anchor="middle" x="175.5" y="-7.5" font-family="Helvetica,sans-Serif" font-size="10.00">src/MeOnBoardTemp.cpp</text>
</a>
</g>
</g>
<!-- Node1&#45;&gt;Node3 -->
<g id="edge2" class="edge">
<title>Node1&#45;&gt;Node3</title>
<path fill="none" stroke="midnightblue" d="M128.05,-49.82C139.88,-40.15 154.79,-27.95 164.7,-19.83"/>
<polygon fill="midnightblue" stroke="midnightblue" points="125.63,-47.28 120.1,-56.32 130.06,-52.7 125.63,-47.28"/>
</g>
</g>
</svg>
