<?xml version="1.0" encoding="UTF-8" standalone="no"?>
<!DOCTYPE svg PUBLIC "-//W3C//DTD SVG 1.1//EN"
 "http://www.w3.org/Graphics/SVG/1.1/DTD/svg11.dtd">
<!-- Generated by graphviz version 2.43.0 (0)
 -->
<!-- Title: src/MePort.cpp Pages: 1 -->
<svg width="944pt" height="252pt"
 viewBox="0.00 0.00 944.00 252.00" xmlns="http://www.w3.org/2000/svg" xmlns:xlink="http://www.w3.org/1999/xlink">
<g id="graph0" class="graph" transform="scale(1 1) rotate(0) translate(4 248)">
<title>src/MePort.cpp</title>
<!-- Node1 -->
<g id="node1" class="node">
<title>Node1</title>
<g id="a_node1"><a xlink:title="Port Mapping for RJ25.">
<polygon fill="#bfbfbf" stroke="black" points="618,-224.5 618,-243.5 707,-243.5 707,-224.5 618,-224.5"/>
<text text-anchor="middle" x="662.5" y="-231.5" font-family="Helvetica,sans-Serif" font-size="10.00">src/MePort.cpp</text>
</a>
</g>
</g>
<!-- Node2 -->
<g id="node2" class="node">
<title>Node2</title>
<g id="a_node2"><a xlink:href="MePort_8h.html" target="_top" xlink:title="Header for MePort.cpp module.">
<polygon fill="none" stroke="black" points="632.5,-168.5 632.5,-187.5 692.5,-187.5 692.5,-168.5 632.5,-168.5"/>
<text text-anchor="middle" x="662.5" y="-175.5" font-family="Helvetica,sans-Serif" font-size="10.00">MePort.h</text>
</a>
</g>
</g>
<!-- Node1&#45;&gt;Node2 -->
<g id="edge1" class="edge">
<title>Node1&#45;&gt;Node2</title>
<path fill="none" stroke="midnightblue" d="M662.5,-224.08C662.5,-217.01 662.5,-206.86 662.5,-197.99"/>
<polygon fill="midnightblue" stroke="midnightblue" points="666,-197.75 662.5,-187.75 659,-197.75 666,-197.75"/>
</g>
<!-- Node3 -->
<g id="node3" class="node">
<title>Node3</title>
<g id="a_node3"><a xlink:title=" ">
<polygon fill="none" stroke="#bfbfbf" points="0,-0.5 0,-19.5 63,-19.5 63,-0.5 0,-0.5"/>
<text text-anchor="middle" x="31.5" y="-7.5" font-family="Helvetica,sans-Serif" font-size="10.00">Arduino.h</text>
</a>
</g>
</g>
<!-- Node2&#45;&gt;Node3 -->
<g id="edge2" class="edge">
<title>Node2&#45;&gt;Node3</title>
<path fill="none" stroke="midnightblue" d="M632.16,-177.29C515.34,-177.67 97.27,-172.22 18.5,-76 7.6,-62.69 13.87,-42.76 20.96,-28.48"/>
<polygon fill="midnightblue" stroke="midnightblue" points="24.07,-30.1 25.81,-19.64 17.93,-26.73 24.07,-30.1"/>
</g>
<!-- Node4 -->
<g id="node4" class="node">
<title>Node4</title>
<g id="a_node4"><a xlink:title=" ">
<polygon fill="none" stroke="#bfbfbf" points="619.5,-112.5 619.5,-131.5 705.5,-131.5 705.5,-112.5 619.5,-112.5"/>
<text text-anchor="middle" x="662.5" y="-119.5" font-family="Helvetica,sans-Serif" font-size="10.00">avr/interrupt.h</text>
</a>
</g>
</g>
<!-- Node2&#45;&gt;Node4 -->
<g id="edge3" class="edge">
<title>Node2&#45;&gt;Node4</title>
<path fill="none" stroke="midnightblue" d="M662.5,-168.08C662.5,-161.01 662.5,-150.86 662.5,-141.99"/>
<polygon fill="midnightblue" stroke="midnightblue" points="666,-141.75 662.5,-131.75 659,-141.75 666,-141.75"/>
</g>
<!-- Node5 -->
<g id="node5" class="node">
<title>Node5</title>
<g id="a_node5"><a xlink:title=" ">
<polygon fill="none" stroke="#bfbfbf" points="565,-0.5 565,-19.5 618,-19.5 618,-0.5 565,-0.5"/>
<text text-anchor="middle" x="591.5" y="-7.5" font-family="Helvetica,sans-Serif" font-size="10.00">avr/io.h</text>
</a>
</g>
</g>
<!-- Node2&#45;&gt;Node5 -->
<g id="edge4" class="edge">
<title>Node2&#45;&gt;Node5</title>
<path fill="none" stroke="midnightblue" d="M647.61,-168.3C635.55,-160.42 619.19,-147.66 610.5,-132 592.42,-99.42 590.19,-54.74 590.58,-29.8"/>
<polygon fill="midnightblue" stroke="midnightblue" points="594.09,-29.67 590.91,-19.56 587.09,-29.44 594.09,-29.67"/>
</g>
<!-- Node6 -->
<g id="node6" class="node">
<title>Node6</title>
<g id="a_node6"><a xlink:title=" ">
<polygon fill="none" stroke="#bfbfbf" points="723.5,-112.5 723.5,-131.5 793.5,-131.5 793.5,-112.5 723.5,-112.5"/>
<text text-anchor="middle" x="758.5" y="-119.5" font-family="Helvetica,sans-Serif" font-size="10.00">util/delay.h</text>
</a>
</g>
</g>
<!-- Node2&#45;&gt;Node6 -->
<g id="edge5" class="edge">
<title>Node2&#45;&gt;Node6</title>
<path fill="none" stroke="midnightblue" d="M677.92,-168.32C693.04,-159.82 716.32,-146.73 733.97,-136.8"/>
<polygon fill="midnightblue" stroke="midnightblue" points="736.11,-139.61 743.11,-131.65 732.68,-133.51 736.11,-139.61"/>
</g>
<!-- Node7 -->
<g id="node7" class="node">
<title>Node7</title>
<g id="a_node7"><a xlink:title=" ">
<polygon fill="none" stroke="#bfbfbf" points="812,-112.5 812,-131.5 865,-131.5 865,-112.5 812,-112.5"/>
<text text-anchor="middle" x="838.5" y="-119.5" font-family="Helvetica,sans-Serif" font-size="10.00">stdint.h</text>
</a>
</g>
</g>
<!-- Node2&#45;&gt;Node7 -->
<g id="edge6" class="edge">
<title>Node2&#45;&gt;Node7</title>
<path fill="none" stroke="midnightblue" d="M690.39,-168.44C720.61,-159.17 768.94,-144.34 802.12,-134.16"/>
<polygon fill="midnightblue" stroke="midnightblue" points="803.36,-137.44 811.89,-131.16 801.31,-130.75 803.36,-137.44"/>
</g>
<!-- Node8 -->
<g id="node8" class="node">
<title>Node8</title>
<g id="a_node8"><a xlink:title=" ">
<polygon fill="none" stroke="#bfbfbf" points="883,-112.5 883,-131.5 936,-131.5 936,-112.5 883,-112.5"/>
<text text-anchor="middle" x="909.5" y="-119.5" font-family="Helvetica,sans-Serif" font-size="10.00">stdlib.h</text>
</a>
</g>
</g>
<!-- Node2&#45;&gt;Node8 -->
<g id="edge7" class="edge">
<title>Node2&#45;&gt;Node8</title>
<path fill="none" stroke="midnightblue" d="M692.78,-170.99C732.15,-163.09 803.27,-148.51 872.96,-132.3"/>
<polygon fill="midnightblue" stroke="midnightblue" points="873.84,-135.68 882.78,-130 872.24,-128.87 873.84,-135.68"/>
</g>
<!-- Node9 -->
<g id="node9" class="node">
<title>Node9</title>
<g id="a_node9"><a xlink:href="MeConfig_8h_source.html" target="_top" xlink:title=" ">
<polygon fill="none" stroke="black" points="306,-112.5 306,-131.5 377,-131.5 377,-112.5 306,-112.5"/>
<text text-anchor="middle" x="341.5" y="-119.5" font-family="Helvetica,sans-Serif" font-size="10.00">MeConfig.h</text>
</a>
</g>
</g>
<!-- Node2&#45;&gt;Node9 -->
<g id="edge8" class="edge">
<title>Node2&#45;&gt;Node9</title>
<path fill="none" stroke="midnightblue" d="M632.3,-171.92C575.86,-162.42 454.06,-141.94 387.4,-130.72"/>
<polygon fill="midnightblue" stroke="midnightblue" points="387.63,-127.21 377.19,-129 386.47,-134.11 387.63,-127.21"/>
</g>
<!-- Node10 -->
<g id="node10" class="node">
<title>Node10</title>
<g id="a_node10"><a xlink:href="Servo_8h_source.html" target="_top" xlink:title=" ">
<polygon fill="none" stroke="black" points="362,-56.5 362,-75.5 447,-75.5 447,-56.5 362,-56.5"/>
<text text-anchor="middle" x="404.5" y="-63.5" font-family="Helvetica,sans-Serif" font-size="10.00">utility/Servo.h</text>
</a>
</g>
</g>
<!-- Node9&#45;&gt;Node10 -->
<g id="edge9" class="edge">
<title>Node9&#45;&gt;Node10</title>
<path fill="none" stroke="midnightblue" d="M351.62,-112.32C361.03,-104.26 375.24,-92.08 386.57,-82.37"/>
<polygon fill="midnightblue" stroke="midnightblue" points="388.88,-85 394.19,-75.83 384.32,-79.68 388.88,-85"/>
</g>
<!-- Node12 -->
<g id="node12" class="node">
<title>Node12</title>
<g id="a_node12"><a xlink:href="Wire_8h_source.html" target="_top" xlink:title=" ">
<polygon fill="none" stroke="black" points="117.5,-56.5 117.5,-75.5 197.5,-75.5 197.5,-56.5 117.5,-56.5"/>
<text text-anchor="middle" x="157.5" y="-63.5" font-family="Helvetica,sans-Serif" font-size="10.00">utility/Wire.h</text>
</a>
</g>
</g>
<!-- Node9&#45;&gt;Node12 -->
<g id="edge11" class="edge">
<title>Node9&#45;&gt;Node12</title>
<path fill="none" stroke="midnightblue" d="M312.34,-112.44C280.99,-103.24 230.97,-88.56 196.3,-78.39"/>
<polygon fill="midnightblue" stroke="midnightblue" points="197.1,-74.97 186.52,-75.52 195.13,-81.69 197.1,-74.97"/>
</g>
<!-- Node14 -->
<g id="node14" class="node">
<title>Node14</title>
<g id="a_node14"><a xlink:href="EEPROM_8h_source.html" target="_top" xlink:title=" ">
<polygon fill="none" stroke="black" points="465.5,-56.5 465.5,-75.5 563.5,-75.5 563.5,-56.5 465.5,-56.5"/>
<text text-anchor="middle" x="514.5" y="-63.5" font-family="Helvetica,sans-Serif" font-size="10.00">utility/EEPROM.h</text>
</a>
</g>
</g>
<!-- Node9&#45;&gt;Node14 -->
<g id="edge14" class="edge">
<title>Node9&#45;&gt;Node14</title>
<path fill="none" stroke="midnightblue" d="M368.91,-112.44C398.27,-103.28 445.02,-88.69 477.6,-78.52"/>
<polygon fill="midnightblue" stroke="midnightblue" points="478.71,-81.84 487.22,-75.52 476.63,-75.16 478.71,-81.84"/>
</g>
<!-- Node16 -->
<g id="node16" class="node">
<title>Node16</title>
<g id="a_node16"><a xlink:href="SoftwareSerial_8h_source.html" target="_top" xlink:title=" ">
<polygon fill="none" stroke="black" points="215.5,-56.5 215.5,-75.5 343.5,-75.5 343.5,-56.5 215.5,-56.5"/>
<text text-anchor="middle" x="279.5" y="-63.5" font-family="Helvetica,sans-Serif" font-size="10.00">utility/SoftwareSerial.h</text>
</a>
</g>
</g>
<!-- Node9&#45;&gt;Node16 -->
<g id="edge18" class="edge">
<title>Node9&#45;&gt;Node16</title>
<path fill="none" stroke="midnightblue" d="M331.54,-112.32C322.37,-104.34 308.56,-92.31 297.47,-82.65"/>
<polygon fill="midnightblue" stroke="midnightblue" points="299.48,-79.76 289.64,-75.83 294.88,-85.04 299.48,-79.76"/>
</g>
<!-- Node17 -->
<g id="node17" class="node">
<title>Node17</title>
<g id="a_node17"><a xlink:href="SPI_8h_source.html" target="_top" xlink:title=" ">
<polygon fill="none" stroke="black" points="27.5,-56.5 27.5,-75.5 99.5,-75.5 99.5,-56.5 27.5,-56.5"/>
<text text-anchor="middle" x="63.5" y="-63.5" font-family="Helvetica,sans-Serif" font-size="10.00">utility/SPI.h</text>
</a>
</g>
</g>
<!-- Node9&#45;&gt;Node17 -->
<g id="edge21" class="edge">
<title>Node9&#45;&gt;Node17</title>
<path fill="none" stroke="midnightblue" d="M305.96,-114.21C262.22,-105.84 185.4,-91.08 109.99,-76.28"/>
<polygon fill="midnightblue" stroke="midnightblue" points="110.33,-72.78 99.85,-74.29 108.98,-79.65 110.33,-72.78"/>
</g>
<!-- Node11 -->
<g id="node11" class="node">
<title>Node11</title>
<g id="a_node11"><a xlink:title=" ">
<polygon fill="none" stroke="#bfbfbf" points="309,-0.5 309,-19.5 374,-19.5 374,-0.5 309,-0.5"/>
<text text-anchor="middle" x="341.5" y="-7.5" font-family="Helvetica,sans-Serif" font-size="10.00">inttypes.h</text>
</a>
</g>
</g>
<!-- Node10&#45;&gt;Node11 -->
<g id="edge10" class="edge">
<title>Node10&#45;&gt;Node11</title>
<path fill="none" stroke="midnightblue" d="M394.38,-56.32C384.97,-48.26 370.76,-36.08 359.43,-26.37"/>
<polygon fill="midnightblue" stroke="midnightblue" points="361.68,-23.68 351.81,-19.83 357.12,-29 361.68,-23.68"/>
</g>
<!-- Node12&#45;&gt;Node11 -->
<g id="edge12" class="edge">
<title>Node12&#45;&gt;Node11</title>
<path fill="none" stroke="midnightblue" d="M186.66,-56.44C218.01,-47.24 268.03,-32.56 302.7,-22.39"/>
<polygon fill="midnightblue" stroke="midnightblue" points="303.87,-25.69 312.48,-19.52 301.9,-18.97 303.87,-25.69"/>
</g>
<!-- Node13 -->
<g id="node13" class="node">
<title>Node13</title>
<g id="a_node13"><a xlink:title=" ">
<polygon fill="none" stroke="#bfbfbf" points="147,-0.5 147,-19.5 208,-19.5 208,-0.5 147,-0.5"/>
<text text-anchor="middle" x="177.5" y="-7.5" font-family="Helvetica,sans-Serif" font-size="10.00">Stream.h</text>
</a>
</g>
</g>
<!-- Node12&#45;&gt;Node13 -->
<g id="edge13" class="edge">
<title>Node12&#45;&gt;Node13</title>
<path fill="none" stroke="midnightblue" d="M160.8,-56.08C163.48,-48.85 167.35,-38.41 170.69,-29.4"/>
<polygon fill="midnightblue" stroke="midnightblue" points="174.07,-30.34 174.26,-19.75 167.5,-27.91 174.07,-30.34"/>
</g>
<!-- Node14&#45;&gt;Node5 -->
<g id="edge17" class="edge">
<title>Node14&#45;&gt;Node5</title>
<path fill="none" stroke="midnightblue" d="M526.87,-56.32C538.66,-48.06 556.63,-35.45 570.64,-25.63"/>
<polygon fill="midnightblue" stroke="midnightblue" points="572.98,-28.26 579.16,-19.65 568.96,-22.53 572.98,-28.26"/>
</g>
<!-- Node14&#45;&gt;Node11 -->
<g id="edge15" class="edge">
<title>Node14&#45;&gt;Node11</title>
<path fill="none" stroke="midnightblue" d="M487.09,-56.44C457.73,-47.28 410.98,-32.69 378.4,-22.52"/>
<polygon fill="midnightblue" stroke="midnightblue" points="379.37,-19.16 368.78,-19.52 377.29,-25.84 379.37,-19.16"/>
</g>
<!-- Node15 -->
<g id="node15" class="node">
<title>Node15</title>
<g id="a_node15"><a xlink:title=" ">
<polygon fill="none" stroke="#bfbfbf" points="464.5,-0.5 464.5,-19.5 546.5,-19.5 546.5,-0.5 464.5,-0.5"/>
<text text-anchor="middle" x="505.5" y="-7.5" font-family="Helvetica,sans-Serif" font-size="10.00">avr/eeprom.h</text>
</a>
</g>
</g>
<!-- Node14&#45;&gt;Node15 -->
<g id="edge16" class="edge">
<title>Node14&#45;&gt;Node15</title>
<path fill="none" stroke="midnightblue" d="M513.01,-56.08C511.82,-48.93 510.11,-38.64 508.62,-29.69"/>
<polygon fill="midnightblue" stroke="midnightblue" points="512.05,-29.04 506.96,-19.75 505.15,-30.19 512.05,-29.04"/>
</g>
<!-- Node16&#45;&gt;Node11 -->
<g id="edge19" class="edge">
<title>Node16&#45;&gt;Node11</title>
<path fill="none" stroke="midnightblue" d="M289.46,-56.32C298.63,-48.34 312.44,-36.31 323.53,-26.65"/>
<polygon fill="midnightblue" stroke="midnightblue" points="326.12,-29.04 331.36,-19.83 321.52,-23.76 326.12,-29.04"/>
</g>
<!-- Node16&#45;&gt;Node13 -->
<g id="edge20" class="edge">
<title>Node16&#45;&gt;Node13</title>
<path fill="none" stroke="midnightblue" d="M263.11,-56.32C246.83,-47.7 221.63,-34.36 202.78,-24.39"/>
<polygon fill="midnightblue" stroke="midnightblue" points="204.32,-21.24 193.85,-19.65 201.05,-27.43 204.32,-21.24"/>
</g>
<!-- Node17&#45;&gt;Node3 -->
<g id="edge22" class="edge">
<title>Node17&#45;&gt;Node3</title>
<path fill="none" stroke="midnightblue" d="M58.22,-56.08C53.79,-48.61 47.34,-37.72 41.88,-28.52"/>
<polygon fill="midnightblue" stroke="midnightblue" points="44.79,-26.57 36.69,-19.75 38.77,-30.14 44.79,-26.57"/>
</g>
</g>
</svg>
