<?xml version="1.0" encoding="UTF-8" standalone="no"?>
<!DOCTYPE svg PUBLIC "-//W3C//DTD SVG 1.1//EN"
 "http://www.w3.org/Graphics/SVG/1.1/DTD/svg11.dtd">
<!-- Generated by graphviz version 2.43.0 (0)
 -->
<!-- Title: src/MePS2.h Pages: 1 -->
<svg width="550pt" height="84pt"
 viewBox="0.00 0.00 550.00 84.00" xmlns="http://www.w3.org/2000/svg" xmlns:xlink="http://www.w3.org/1999/xlink">
<g id="graph0" class="graph" transform="scale(1 1) rotate(0) translate(4 80)">
<title>src/MePS2.h</title>
<!-- Node1 -->
<g id="node1" class="node">
<title>Node1</title>
<g id="a_node1"><a xlink:title="Header for MePS2.cpp module.">
<polygon fill="#bfbfbf" stroke="black" points="223.5,-56.5 223.5,-75.5 299.5,-75.5 299.5,-56.5 223.5,-56.5"/>
<text text-anchor="middle" x="261.5" y="-63.5" font-family="Helvetica,sans-Serif" font-size="10.00">src/MePS2.h</text>
</a>
</g>
</g>
<!-- Node2 -->
<g id="node2" class="node">
<title>Node2</title>
<g id="a_node2"><a xlink:href="MeAuriga_8h.html" target="_top" xlink:title="Driver for MeAuriga board.">
<polygon fill="none" stroke="black" points="0,-0.5 0,-19.5 89,-19.5 89,-0.5 0,-0.5"/>
<text text-anchor="middle" x="44.5" y="-7.5" font-family="Helvetica,sans-Serif" font-size="10.00">src/MeAuriga.h</text>
</a>
</g>
</g>
<!-- Node1&#45;&gt;Node2 -->
<g id="edge1" class="edge">
<title>Node1&#45;&gt;Node2</title>
<path fill="none" stroke="midnightblue" d="M217.39,-54.02C176.4,-43.82 116.2,-28.84 78.72,-19.52"/>
<polygon fill="midnightblue" stroke="midnightblue" points="216.57,-57.43 227.12,-56.44 218.26,-50.63 216.57,-57.43"/>
</g>
<!-- Node3 -->
<g id="node3" class="node">
<title>Node3</title>
<g id="a_node3"><a xlink:href="MeMCore_8h.html" target="_top" xlink:title="Driver for mCore Board.">
<polygon fill="none" stroke="black" points="107,-0.5 107,-19.5 196,-19.5 196,-0.5 107,-0.5"/>
<text text-anchor="middle" x="151.5" y="-7.5" font-family="Helvetica,sans-Serif" font-size="10.00">src/MeMCore.h</text>
</a>
</g>
</g>
<!-- Node1&#45;&gt;Node3 -->
<g id="edge2" class="edge">
<title>Node1&#45;&gt;Node3</title>
<path fill="none" stroke="midnightblue" d="M234.74,-51.86C214.34,-41.85 186.83,-28.35 169.13,-19.65"/>
<polygon fill="midnightblue" stroke="midnightblue" points="233.31,-55.06 243.83,-56.32 236.39,-48.78 233.31,-55.06"/>
</g>
<!-- Node4 -->
<g id="node4" class="node">
<title>Node4</title>
<g id="a_node4"><a xlink:href="MeMegaPi_8h.html" target="_top" xlink:title="Driver for MegaPi board.">
<polygon fill="none" stroke="black" points="214.5,-0.5 214.5,-19.5 308.5,-19.5 308.5,-0.5 214.5,-0.5"/>
<text text-anchor="middle" x="261.5" y="-7.5" font-family="Helvetica,sans-Serif" font-size="10.00">src/MeMegaPi.h</text>
</a>
</g>
</g>
<!-- Node1&#45;&gt;Node4 -->
<g id="edge3" class="edge">
<title>Node1&#45;&gt;Node4</title>
<path fill="none" stroke="midnightblue" d="M261.5,-45.8C261.5,-36.91 261.5,-26.78 261.5,-19.75"/>
<polygon fill="midnightblue" stroke="midnightblue" points="258,-46.08 261.5,-56.08 265,-46.08 258,-46.08"/>
</g>
<!-- Node5 -->
<g id="node5" class="node">
<title>Node5</title>
<g id="a_node5"><a xlink:href="MeMegaPiPro_8h.html" target="_top" xlink:title="Driver for MegaPiPro board.">
<polygon fill="none" stroke="black" points="326.5,-0.5 326.5,-19.5 436.5,-19.5 436.5,-0.5 326.5,-0.5"/>
<text text-anchor="middle" x="381.5" y="-7.5" font-family="Helvetica,sans-Serif" font-size="10.00">src/MeMegaPiPro.h</text>
</a>
</g>
</g>
<!-- Node1&#45;&gt;Node5 -->
<g id="edge4" class="edge">
<title>Node1&#45;&gt;Node5</title>
<path fill="none" stroke="midnightblue" d="M289.87,-52.23C312.32,-42.13 343.04,-28.31 362.57,-19.52"/>
<polygon fill="midnightblue" stroke="midnightblue" points="288.2,-49.15 280.51,-56.44 291.07,-55.53 288.2,-49.15"/>
</g>
<!-- Node6 -->
<g id="node6" class="node">
<title>Node6</title>
<g id="a_node6"><a xlink:href="MePS2_8cpp.html" target="_top" xlink:title="Driver for MePS2 device.">
<polygon fill="none" stroke="black" points="455,-0.5 455,-19.5 542,-19.5 542,-0.5 455,-0.5"/>
<text text-anchor="middle" x="498.5" y="-7.5" font-family="Helvetica,sans-Serif" font-size="10.00">src/MePS2.cpp</text>
</a>
</g>
</g>
<!-- Node1&#45;&gt;Node6 -->
<g id="edge5" class="edge">
<title>Node1&#45;&gt;Node6</title>
<path fill="none" stroke="midnightblue" d="M308.82,-54.22C353.61,-44.01 419.94,-28.9 461.12,-19.52"/>
<polygon fill="midnightblue" stroke="midnightblue" points="308.03,-50.81 299.05,-56.44 309.58,-57.63 308.03,-50.81"/>
</g>
</g>
</svg>
