<?xml version="1.0" encoding="UTF-8" standalone="no"?>
<!DOCTYPE svg PUBLIC "-//W3C//DTD SVG 1.1//EN"
 "http://www.w3.org/Graphics/SVG/1.1/DTD/svg11.dtd">
<!-- Generated by graphviz version 2.43.0 (0)
 -->
<!-- Title: src/MePS2.h Pages: 1 -->
<svg width="860pt" height="308pt"
 viewBox="0.00 0.00 860.00 308.00" xmlns="http://www.w3.org/2000/svg" xmlns:xlink="http://www.w3.org/1999/xlink">
<g id="graph0" class="graph" transform="scale(1 1) rotate(0) translate(4 304)">
<title>src/MePS2.h</title>
<!-- Node1 -->
<g id="node1" class="node">
<title>Node1</title>
<g id="a_node1"><a xlink:title="Header for MePS2.cpp module.">
<polygon fill="#bfbfbf" stroke="black" points="433,-280.5 433,-299.5 509,-299.5 509,-280.5 433,-280.5"/>
<text text-anchor="middle" x="471" y="-287.5" font-family="Helvetica,sans-Serif" font-size="10.00">src/MePS2.h</text>
</a>
</g>
</g>
<!-- Node2 -->
<g id="node2" class="node">
<title>Node2</title>
<g id="a_node2"><a xlink:title=" ">
<polygon fill="none" stroke="#bfbfbf" points="405,-168.5 405,-187.5 467,-187.5 467,-168.5 405,-168.5"/>
<text text-anchor="middle" x="436" y="-175.5" font-family="Helvetica,sans-Serif" font-size="10.00">stdbool.h</text>
</a>
</g>
</g>
<!-- Node1&#45;&gt;Node2 -->
<g id="edge1" class="edge">
<title>Node1&#45;&gt;Node2</title>
<path fill="none" stroke="midnightblue" d="M468.25,-280.37C462.58,-262.54 449.46,-221.3 441.81,-197.27"/>
<polygon fill="midnightblue" stroke="midnightblue" points="445.1,-196.06 438.73,-187.59 438.43,-198.18 445.1,-196.06"/>
</g>
<!-- Node3 -->
<g id="node3" class="node">
<title>Node3</title>
<g id="a_node3"><a xlink:title=" ">
<polygon fill="none" stroke="#bfbfbf" points="392.5,-112.5 392.5,-131.5 445.5,-131.5 445.5,-112.5 392.5,-112.5"/>
<text text-anchor="middle" x="419" y="-119.5" font-family="Helvetica,sans-Serif" font-size="10.00">stdint.h</text>
</a>
</g>
</g>
<!-- Node1&#45;&gt;Node3 -->
<g id="edge2" class="edge">
<title>Node1&#45;&gt;Node3</title>
<path fill="none" stroke="midnightblue" d="M461.48,-280.43C444.4,-264.33 409.1,-227.61 396,-188 390.62,-171.72 398.46,-153.31 406.41,-140.25"/>
<polygon fill="midnightblue" stroke="midnightblue" points="409.41,-142.06 412.03,-131.79 403.58,-138.18 409.41,-142.06"/>
</g>
<!-- Node4 -->
<g id="node4" class="node">
<title>Node4</title>
<g id="a_node4"><a xlink:title=" ">
<polygon fill="none" stroke="#bfbfbf" points="719.5,-0.5 719.5,-19.5 782.5,-19.5 782.5,-0.5 719.5,-0.5"/>
<text text-anchor="middle" x="751" y="-7.5" font-family="Helvetica,sans-Serif" font-size="10.00">Arduino.h</text>
</a>
</g>
</g>
<!-- Node1&#45;&gt;Node4 -->
<g id="edge3" class="edge">
<title>Node1&#45;&gt;Node4</title>
<path fill="none" stroke="midnightblue" d="M509.28,-286.14C605.89,-277.86 852,-249.83 852,-179 852,-179 852,-179 852,-121 852,-76.59 806.79,-42.37 776.86,-24.58"/>
<polygon fill="midnightblue" stroke="midnightblue" points="778.55,-21.51 768.13,-19.59 775.08,-27.59 778.55,-21.51"/>
</g>
<!-- Node5 -->
<g id="node5" class="node">
<title>Node5</title>
<g id="a_node5"><a xlink:href="MeConfig_8h_source.html" target="_top" xlink:title=" ">
<polygon fill="none" stroke="black" points="303.5,-112.5 303.5,-131.5 374.5,-131.5 374.5,-112.5 303.5,-112.5"/>
<text text-anchor="middle" x="339" y="-119.5" font-family="Helvetica,sans-Serif" font-size="10.00">MeConfig.h</text>
</a>
</g>
</g>
<!-- Node1&#45;&gt;Node5 -->
<g id="edge4" class="edge">
<title>Node1&#45;&gt;Node5</title>
<path fill="none" stroke="midnightblue" d="M456.4,-280.36C443.39,-272.17 424.4,-258.92 411,-244 381.98,-211.7 358.57,-165.97 346.95,-141"/>
<polygon fill="midnightblue" stroke="midnightblue" points="350.04,-139.32 342.72,-131.67 343.66,-142.22 350.04,-139.32"/>
</g>
<!-- Node15 -->
<g id="node15" class="node">
<title>Node15</title>
<g id="a_node15"><a xlink:href="MeSerial_8h.html" target="_top" xlink:title="Header for for MeSerial.cpp module.">
<polygon fill="none" stroke="black" points="483,-224.5 483,-243.5 551,-243.5 551,-224.5 483,-224.5"/>
<text text-anchor="middle" x="517" y="-231.5" font-family="Helvetica,sans-Serif" font-size="10.00">MeSerial.h</text>
</a>
</g>
</g>
<!-- Node1&#45;&gt;Node15 -->
<g id="edge19" class="edge">
<title>Node1&#45;&gt;Node15</title>
<path fill="none" stroke="midnightblue" d="M478.6,-280.08C485.23,-272.3 495.02,-260.8 503.06,-251.37"/>
<polygon fill="midnightblue" stroke="midnightblue" points="505.73,-253.63 509.55,-243.75 500.4,-249.09 505.73,-253.63"/>
</g>
<!-- Node16 -->
<g id="node16" class="node">
<title>Node16</title>
<g id="a_node16"><a xlink:href="MePort_8h.html" target="_top" xlink:title="Header for MePort.cpp module.">
<polygon fill="none" stroke="black" points="561,-168.5 561,-187.5 621,-187.5 621,-168.5 561,-168.5"/>
<text text-anchor="middle" x="591" y="-175.5" font-family="Helvetica,sans-Serif" font-size="10.00">MePort.h</text>
</a>
</g>
</g>
<!-- Node1&#45;&gt;Node16 -->
<g id="edge32" class="edge">
<title>Node1&#45;&gt;Node16</title>
<path fill="none" stroke="midnightblue" d="M498.41,-280.49C517.67,-273.34 542.94,-261.46 560,-244 572.81,-230.89 581.12,-211.47 585.88,-197.28"/>
<polygon fill="midnightblue" stroke="midnightblue" points="589.25,-198.22 588.84,-187.63 582.56,-196.16 589.25,-198.22"/>
</g>
<!-- Node6 -->
<g id="node6" class="node">
<title>Node6</title>
<g id="a_node6"><a xlink:href="Servo_8h_source.html" target="_top" xlink:title=" ">
<polygon fill="none" stroke="black" points="244.5,-56.5 244.5,-75.5 329.5,-75.5 329.5,-56.5 244.5,-56.5"/>
<text text-anchor="middle" x="287" y="-63.5" font-family="Helvetica,sans-Serif" font-size="10.00">utility/Servo.h</text>
</a>
</g>
</g>
<!-- Node5&#45;&gt;Node6 -->
<g id="edge5" class="edge">
<title>Node5&#45;&gt;Node6</title>
<path fill="none" stroke="midnightblue" d="M330.41,-112.08C322.84,-104.22 311.62,-92.57 302.49,-83.08"/>
<polygon fill="midnightblue" stroke="midnightblue" points="304.88,-80.53 295.43,-75.75 299.84,-85.38 304.88,-80.53"/>
</g>
<!-- Node8 -->
<g id="node8" class="node">
<title>Node8</title>
<g id="a_node8"><a xlink:href="Wire_8h_source.html" target="_top" xlink:title=" ">
<polygon fill="none" stroke="black" points="146,-56.5 146,-75.5 226,-75.5 226,-56.5 146,-56.5"/>
<text text-anchor="middle" x="186" y="-63.5" font-family="Helvetica,sans-Serif" font-size="10.00">utility/Wire.h</text>
</a>
</g>
</g>
<!-- Node5&#45;&gt;Node8 -->
<g id="edge7" class="edge">
<title>Node5&#45;&gt;Node8</title>
<path fill="none" stroke="midnightblue" d="M314.76,-112.44C289.13,-103.4 248.51,-89.06 219.76,-78.92"/>
<polygon fill="midnightblue" stroke="midnightblue" points="220.72,-75.54 210.13,-75.52 218.39,-82.15 220.72,-75.54"/>
</g>
<!-- Node10 -->
<g id="node10" class="node">
<title>Node10</title>
<g id="a_node10"><a xlink:href="EEPROM_8h_source.html" target="_top" xlink:title=" ">
<polygon fill="none" stroke="black" points="348,-56.5 348,-75.5 446,-75.5 446,-56.5 348,-56.5"/>
<text text-anchor="middle" x="397" y="-63.5" font-family="Helvetica,sans-Serif" font-size="10.00">utility/EEPROM.h</text>
</a>
</g>
</g>
<!-- Node5&#45;&gt;Node10 -->
<g id="edge10" class="edge">
<title>Node5&#45;&gt;Node10</title>
<path fill="none" stroke="midnightblue" d="M348.32,-112.32C356.89,-104.34 369.81,-92.31 380.19,-82.65"/>
<polygon fill="midnightblue" stroke="midnightblue" points="382.58,-85.21 387.51,-75.83 377.81,-80.09 382.58,-85.21"/>
</g>
<!-- Node13 -->
<g id="node13" class="node">
<title>Node13</title>
<g id="a_node13"><a xlink:href="SoftwareSerial_8h_source.html" target="_top" xlink:title=" ">
<polygon fill="none" stroke="black" points="0,-56.5 0,-75.5 128,-75.5 128,-56.5 0,-56.5"/>
<text text-anchor="middle" x="64" y="-63.5" font-family="Helvetica,sans-Serif" font-size="10.00">utility/SoftwareSerial.h</text>
</a>
</g>
</g>
<!-- Node5&#45;&gt;Node13 -->
<g id="edge14" class="edge">
<title>Node5&#45;&gt;Node13</title>
<path fill="none" stroke="midnightblue" d="M303.33,-114C255.99,-104.7 172.02,-88.21 117.19,-77.44"/>
<polygon fill="midnightblue" stroke="midnightblue" points="117.79,-74 107.3,-75.5 116.44,-80.86 117.79,-74"/>
</g>
<!-- Node14 -->
<g id="node14" class="node">
<title>Node14</title>
<g id="a_node14"><a xlink:href="SPI_8h_source.html" target="_top" xlink:title=" ">
<polygon fill="none" stroke="black" points="545,-56.5 545,-75.5 617,-75.5 617,-56.5 545,-56.5"/>
<text text-anchor="middle" x="581" y="-63.5" font-family="Helvetica,sans-Serif" font-size="10.00">utility/SPI.h</text>
</a>
</g>
</g>
<!-- Node5&#45;&gt;Node14 -->
<g id="edge17" class="edge">
<title>Node5&#45;&gt;Node14</title>
<path fill="none" stroke="midnightblue" d="M374.71,-113.03C417.21,-103.55 488.28,-87.69 534.9,-77.29"/>
<polygon fill="midnightblue" stroke="midnightblue" points="535.75,-80.68 544.75,-75.09 534.23,-73.85 535.75,-80.68"/>
</g>
<!-- Node7 -->
<g id="node7" class="node">
<title>Node7</title>
<g id="a_node7"><a xlink:title=" ">
<polygon fill="none" stroke="#bfbfbf" points="203.5,-0.5 203.5,-19.5 268.5,-19.5 268.5,-0.5 203.5,-0.5"/>
<text text-anchor="middle" x="236" y="-7.5" font-family="Helvetica,sans-Serif" font-size="10.00">inttypes.h</text>
</a>
</g>
</g>
<!-- Node6&#45;&gt;Node7 -->
<g id="edge6" class="edge">
<title>Node6&#45;&gt;Node7</title>
<path fill="none" stroke="midnightblue" d="M278.58,-56.08C271.15,-48.22 260.15,-36.57 251.19,-27.08"/>
<polygon fill="midnightblue" stroke="midnightblue" points="253.68,-24.62 244.26,-19.75 248.59,-29.42 253.68,-24.62"/>
</g>
<!-- Node8&#45;&gt;Node7 -->
<g id="edge8" class="edge">
<title>Node8&#45;&gt;Node7</title>
<path fill="none" stroke="midnightblue" d="M194.26,-56.08C201.46,-48.3 212.11,-36.8 220.85,-27.37"/>
<polygon fill="midnightblue" stroke="midnightblue" points="223.67,-29.47 227.9,-19.75 218.53,-24.71 223.67,-29.47"/>
</g>
<!-- Node9 -->
<g id="node9" class="node">
<title>Node9</title>
<g id="a_node9"><a xlink:title=" ">
<polygon fill="none" stroke="#bfbfbf" points="104.5,-0.5 104.5,-19.5 165.5,-19.5 165.5,-0.5 104.5,-0.5"/>
<text text-anchor="middle" x="135" y="-7.5" font-family="Helvetica,sans-Serif" font-size="10.00">Stream.h</text>
</a>
</g>
</g>
<!-- Node8&#45;&gt;Node9 -->
<g id="edge9" class="edge">
<title>Node8&#45;&gt;Node9</title>
<path fill="none" stroke="midnightblue" d="M177.58,-56.08C170.15,-48.22 159.15,-36.57 150.19,-27.08"/>
<polygon fill="midnightblue" stroke="midnightblue" points="152.68,-24.62 143.26,-19.75 147.59,-29.42 152.68,-24.62"/>
</g>
<!-- Node10&#45;&gt;Node7 -->
<g id="edge11" class="edge">
<title>Node10&#45;&gt;Node7</title>
<path fill="none" stroke="midnightblue" d="M371.49,-56.44C344.4,-47.36 301.41,-32.94 271.13,-22.78"/>
<polygon fill="midnightblue" stroke="midnightblue" points="271.99,-19.38 261.39,-19.52 269.76,-26.01 271.99,-19.38"/>
</g>
<!-- Node11 -->
<g id="node11" class="node">
<title>Node11</title>
<g id="a_node11"><a xlink:title=" ">
<polygon fill="none" stroke="#bfbfbf" points="347,-0.5 347,-19.5 429,-19.5 429,-0.5 347,-0.5"/>
<text text-anchor="middle" x="388" y="-7.5" font-family="Helvetica,sans-Serif" font-size="10.00">avr/eeprom.h</text>
</a>
</g>
</g>
<!-- Node10&#45;&gt;Node11 -->
<g id="edge12" class="edge">
<title>Node10&#45;&gt;Node11</title>
<path fill="none" stroke="midnightblue" d="M395.51,-56.08C394.32,-48.93 392.61,-38.64 391.12,-29.69"/>
<polygon fill="midnightblue" stroke="midnightblue" points="394.55,-29.04 389.46,-19.75 387.65,-30.19 394.55,-29.04"/>
</g>
<!-- Node12 -->
<g id="node12" class="node">
<title>Node12</title>
<g id="a_node12"><a xlink:title=" ">
<polygon fill="none" stroke="#bfbfbf" points="447.5,-0.5 447.5,-19.5 500.5,-19.5 500.5,-0.5 447.5,-0.5"/>
<text text-anchor="middle" x="474" y="-7.5" font-family="Helvetica,sans-Serif" font-size="10.00">avr/io.h</text>
</a>
</g>
</g>
<!-- Node10&#45;&gt;Node12 -->
<g id="edge13" class="edge">
<title>Node10&#45;&gt;Node12</title>
<path fill="none" stroke="midnightblue" d="M409.37,-56.32C421.16,-48.06 439.13,-35.45 453.14,-25.63"/>
<polygon fill="midnightblue" stroke="midnightblue" points="455.48,-28.26 461.66,-19.65 451.46,-22.53 455.48,-28.26"/>
</g>
<!-- Node13&#45;&gt;Node7 -->
<g id="edge15" class="edge">
<title>Node13&#45;&gt;Node7</title>
<path fill="none" stroke="midnightblue" d="M91.25,-56.44C120.44,-47.28 166.92,-32.69 199.31,-22.52"/>
<polygon fill="midnightblue" stroke="midnightblue" points="200.38,-25.85 208.87,-19.52 198.28,-19.17 200.38,-25.85"/>
</g>
<!-- Node13&#45;&gt;Node9 -->
<g id="edge16" class="edge">
<title>Node13&#45;&gt;Node9</title>
<path fill="none" stroke="midnightblue" d="M75.41,-56.32C86.11,-48.18 102.34,-35.84 115.16,-26.09"/>
<polygon fill="midnightblue" stroke="midnightblue" points="117.54,-28.67 123.39,-19.83 113.31,-23.1 117.54,-28.67"/>
</g>
<!-- Node14&#45;&gt;Node4 -->
<g id="edge18" class="edge">
<title>Node14&#45;&gt;Node4</title>
<path fill="none" stroke="midnightblue" d="M607.94,-56.44C636.66,-47.32 682.33,-32.81 714.32,-22.65"/>
<polygon fill="midnightblue" stroke="midnightblue" points="715.72,-25.88 724.19,-19.52 713.6,-19.21 715.72,-25.88"/>
</g>
<!-- Node15&#45;&gt;Node2 -->
<g id="edge21" class="edge">
<title>Node15&#45;&gt;Node2</title>
<path fill="none" stroke="midnightblue" d="M503.99,-224.32C491.47,-215.98 472.32,-203.21 457.53,-193.35"/>
<polygon fill="midnightblue" stroke="midnightblue" points="459.24,-190.29 448.98,-187.65 455.36,-196.11 459.24,-190.29"/>
</g>
<!-- Node15&#45;&gt;Node3 -->
<g id="edge20" class="edge">
<title>Node15&#45;&gt;Node3</title>
<path fill="none" stroke="midnightblue" d="M518.37,-224.08C519.94,-210.63 520.94,-184.9 509,-168 496.3,-150.01 474.29,-138.83 455.22,-132.11"/>
<polygon fill="midnightblue" stroke="midnightblue" points="456.17,-128.74 445.58,-128.99 454.01,-135.4 456.17,-128.74"/>
</g>
<!-- Node15&#45;&gt;Node4 -->
<g id="edge22" class="edge">
<title>Node15&#45;&gt;Node4</title>
<path fill="none" stroke="midnightblue" d="M551.26,-232.28C612.33,-228.92 738.87,-212.12 795,-132 818.29,-98.76 786.4,-51.79 765.89,-27.3"/>
<polygon fill="midnightblue" stroke="midnightblue" points="768.43,-24.88 759.22,-19.63 763.15,-29.47 768.43,-24.88"/>
</g>
<!-- Node15&#45;&gt;Node5 -->
<g id="edge23" class="edge">
<title>Node15&#45;&gt;Node5</title>
<path fill="none" stroke="midnightblue" d="M513.69,-224.05C508.07,-210.08 495.35,-183.1 476,-168 461.36,-156.57 417.68,-143.28 383.53,-134.12"/>
<polygon fill="midnightblue" stroke="midnightblue" points="384.3,-130.7 373.74,-131.53 382.51,-137.47 384.3,-130.7"/>
</g>
<!-- Node15&#45;&gt;Node16 -->
<g id="edge24" class="edge">
<title>Node15&#45;&gt;Node16</title>
<path fill="none" stroke="midnightblue" d="M528.89,-224.32C540.15,-216.11 557.29,-203.6 570.71,-193.81"/>
<polygon fill="midnightblue" stroke="midnightblue" points="572.88,-196.56 578.89,-187.83 568.75,-190.9 572.88,-196.56"/>
</g>
<!-- Node16&#45;&gt;Node3 -->
<g id="edge29" class="edge">
<title>Node16&#45;&gt;Node3</title>
<path fill="none" stroke="midnightblue" d="M563.75,-168.44C534.39,-159.23 487.53,-144.52 455.12,-134.34"/>
<polygon fill="midnightblue" stroke="midnightblue" points="456.15,-131 445.56,-131.34 454.05,-137.67 456.15,-131"/>
</g>
<!-- Node16&#45;&gt;Node4 -->
<g id="edge25" class="edge">
<title>Node16&#45;&gt;Node4</title>
<path fill="none" stroke="midnightblue" d="M611.21,-168.46C628,-160.68 651.83,-147.97 669,-132 702.31,-101.01 729.19,-54.08 742.3,-28.73"/>
<polygon fill="midnightblue" stroke="midnightblue" points="745.54,-30.09 746.92,-19.58 739.29,-26.94 745.54,-30.09"/>
</g>
<!-- Node16&#45;&gt;Node5 -->
<g id="edge31" class="edge">
<title>Node16&#45;&gt;Node5</title>
<path fill="none" stroke="midnightblue" d="M560.6,-170.49C516.88,-161.12 435.9,-143.76 384.88,-132.83"/>
<polygon fill="midnightblue" stroke="midnightblue" points="385.29,-129.34 374.78,-130.67 383.83,-136.19 385.29,-129.34"/>
</g>
<!-- Node16&#45;&gt;Node12 -->
<g id="edge27" class="edge">
<title>Node16&#45;&gt;Node12</title>
<path fill="none" stroke="midnightblue" d="M560.95,-171.16C538.65,-165.21 509.39,-153.64 493,-132 470.29,-102.01 469.9,-55.69 471.82,-29.92"/>
<polygon fill="midnightblue" stroke="midnightblue" points="475.33,-29.95 472.79,-19.67 468.36,-29.29 475.33,-29.95"/>
</g>
<!-- Node17 -->
<g id="node17" class="node">
<title>Node17</title>
<g id="a_node17"><a xlink:title=" ">
<polygon fill="none" stroke="#bfbfbf" points="574,-112.5 574,-131.5 660,-131.5 660,-112.5 574,-112.5"/>
<text text-anchor="middle" x="617" y="-119.5" font-family="Helvetica,sans-Serif" font-size="10.00">avr/interrupt.h</text>
</a>
</g>
</g>
<!-- Node16&#45;&gt;Node17 -->
<g id="edge26" class="edge">
<title>Node16&#45;&gt;Node17</title>
<path fill="none" stroke="midnightblue" d="M595.29,-168.08C598.85,-160.69 604.02,-149.95 608.42,-140.81"/>
<polygon fill="midnightblue" stroke="midnightblue" points="611.6,-142.28 612.79,-131.75 605.29,-139.24 611.6,-142.28"/>
</g>
<!-- Node18 -->
<g id="node18" class="node">
<title>Node18</title>
<g id="a_node18"><a xlink:title=" ">
<polygon fill="none" stroke="#bfbfbf" points="716,-112.5 716,-131.5 786,-131.5 786,-112.5 716,-112.5"/>
<text text-anchor="middle" x="751" y="-119.5" font-family="Helvetica,sans-Serif" font-size="10.00">util/delay.h</text>
</a>
</g>
</g>
<!-- Node16&#45;&gt;Node18 -->
<g id="edge28" class="edge">
<title>Node16&#45;&gt;Node18</title>
<path fill="none" stroke="midnightblue" d="M616.35,-168.44C643.27,-159.36 686,-144.94 716.09,-134.78"/>
<polygon fill="midnightblue" stroke="midnightblue" points="717.41,-138.03 725.77,-131.52 715.17,-131.4 717.41,-138.03"/>
</g>
<!-- Node19 -->
<g id="node19" class="node">
<title>Node19</title>
<g id="a_node19"><a xlink:title=" ">
<polygon fill="none" stroke="#bfbfbf" points="502.5,-112.5 502.5,-131.5 555.5,-131.5 555.5,-112.5 502.5,-112.5"/>
<text text-anchor="middle" x="529" y="-119.5" font-family="Helvetica,sans-Serif" font-size="10.00">stdlib.h</text>
</a>
</g>
</g>
<!-- Node16&#45;&gt;Node19 -->
<g id="edge30" class="edge">
<title>Node16&#45;&gt;Node19</title>
<path fill="none" stroke="midnightblue" d="M581.04,-168.32C571.87,-160.34 558.06,-148.31 546.97,-138.65"/>
<polygon fill="midnightblue" stroke="midnightblue" points="548.98,-135.76 539.14,-131.83 544.38,-141.04 548.98,-135.76"/>
</g>
</g>
</svg>
