<?xml version="1.0" encoding="UTF-8" standalone="no"?>
<!DOCTYPE svg PUBLIC "-//W3C//DTD SVG 1.1//EN"
 "http://www.w3.org/Graphics/SVG/1.1/DTD/svg11.dtd">
<!-- Generated by graphviz version 2.43.0 (0)
 -->
<!-- Title: src/MePS2.cpp Pages: 1 -->
<!--zoomable 364 -->
<svg id="main" version="1.1" xmlns="http://www.w3.org/2000/svg" xmlns:xlink="http://www.w3.org/1999/xlink" xml:space="preserve" onload="init(evt)">
<style type="text/css"><![CDATA[
.edge:hover path { stroke: red; }
.edge:hover polygon { stroke: red; fill: red; }
]]></style>
<script type="text/javascript"><![CDATA[
var edges = document.getElementsByTagName('g');
if (edges && edges.length) {
  for (var i=0;i<edges.length;i++) {
    if (edges[i].id.substr(0,4)=='edge') {
      edges[i].setAttribute('class','edge');
    }
  }
}
]]></script>
        <defs>
                <circle id="rim" cx="0" cy="0" r="7"/>
                <circle id="rim2" cx="0" cy="0" r="3.5"/>
                <g id="zoomPlus">
                        <use xlink:href="#rim" fill="#404040">
                                <set attributeName="fill" to="#808080" begin="zoomplus.mouseover" end="zoomplus.mouseout"/>
                        </use>
                        <path d="M-4,0h8M0,-4v8" fill="none" stroke="white" stroke-width="1.5" pointer-events="none"/>
                </g>
                <g id="zoomMin">
                        <use xlink:href="#rim" fill="#404040">
                                <set attributeName="fill" to="#808080" begin="zoomminus.mouseover" end="zoomminus.mouseout"/>
                        </use>
                        <path d="M-4,0h8" fill="none" stroke="white" stroke-width="1.5" pointer-events="none"/>
                </g>
                <g id="dirArrow">
                        <path fill="none" stroke="white" stroke-width="1.5" d="M0,-3.0v7 M-2.5,-0.5L0,-3.0L2.5,-0.5"/>
                </g>
               <g id="resetDef">
                       <use xlink:href="#rim2" fill="#404040">
                               <set attributeName="fill" to="#808080" begin="reset.mouseover" end="reset.mouseout"/>
                       </use>
               </g>
        </defs>

<script type="text/javascript">
var viewWidth = 952;
var viewHeight = 364;
var sectionId = 'dynsection-0';
</script>
<script xlink:href="svgpan.js"/>
<svg id="graph" class="graph">
<g id="viewport">
<title>src/MePS2.cpp</title>
<!-- Node1 -->
<g id="node1" class="node">
<title>Node1</title>
<g id="a_node1"><a xlink:title="Driver for MePS2 device.">
<polygon fill="#bfbfbf" stroke="black" points="333.5,-336.5 333.5,-355.5 420.5,-355.5 420.5,-336.5 333.5,-336.5"/>
<text text-anchor="middle" x="377" y="-343.5" font-family="Helvetica,sans-Serif" font-size="10.00">src/MePS2.cpp</text>
</a>
</g>
</g>
<!-- Node2 -->
<g id="node2" class="node">
<title>Node2</title>
<g id="a_node2"><a xlink:href="MePS2_8h.html" target="_top" xlink:title="Header for MePS2.cpp module.">
<polygon fill="none" stroke="black" points="318.5,-280.5 318.5,-299.5 377.5,-299.5 377.5,-280.5 318.5,-280.5"/>
<text text-anchor="middle" x="348" y="-287.5" font-family="Helvetica,sans-Serif" font-size="10.00">MePS2.h</text>
</a>
</g>
</g>
<!-- Node1&#45;&gt;Node2 -->
<g id="edge1" class="edge">
<title>Node1&#45;&gt;Node2</title>
<path fill="none" stroke="midnightblue" d="M372.21,-336.08C368.24,-328.69 362.47,-317.95 357.57,-308.81"/>
<polygon fill="midnightblue" stroke="midnightblue" points="360.51,-306.91 352.7,-299.75 354.35,-310.22 360.51,-306.91"/>
</g>
<!-- Node16 -->
<g id="node16" class="node">
<title>Node16</title>
<g id="a_node16"><a xlink:href="MeSerial_8h.html" target="_top" xlink:title="Header for for MeSerial.cpp module.">
<polygon fill="none" stroke="black" points="372,-224.5 372,-243.5 440,-243.5 440,-224.5 372,-224.5"/>
<text text-anchor="middle" x="406" y="-231.5" font-family="Helvetica,sans-Serif" font-size="10.00">MeSerial.h</text>
</a>
</g>
</g>
<!-- Node1&#45;&gt;Node16 -->
<g id="edge34" class="edge">
<title>Node1&#45;&gt;Node16</title>
<path fill="none" stroke="midnightblue" d="M379.28,-336.37C383.98,-318.54 394.85,-277.3 401.18,-253.27"/>
<polygon fill="midnightblue" stroke="midnightblue" points="404.57,-254.15 403.73,-243.59 397.8,-252.37 404.57,-254.15"/>
</g>
<!-- Node3 -->
<g id="node3" class="node">
<title>Node3</title>
<g id="a_node3"><a xlink:title=" ">
<polygon fill="none" stroke="#bfbfbf" points="472,-168.5 472,-187.5 534,-187.5 534,-168.5 472,-168.5"/>
<text text-anchor="middle" x="503" y="-175.5" font-family="Helvetica,sans-Serif" font-size="10.00">stdbool.h</text>
</a>
</g>
</g>
<!-- Node2&#45;&gt;Node3 -->
<g id="edge2" class="edge">
<title>Node2&#45;&gt;Node3</title>
<path fill="none" stroke="midnightblue" d="M375.99,-280.44C397.36,-273.01 426.81,-260.81 449,-244 466.65,-230.63 482.26,-210.43 492.1,-196.1"/>
<polygon fill="midnightblue" stroke="midnightblue" points="495.08,-197.93 497.69,-187.66 489.25,-194.06 495.08,-197.93"/>
</g>
<!-- Node4 -->
<g id="node4" class="node">
<title>Node4</title>
<g id="a_node4"><a xlink:title=" ">
<polygon fill="none" stroke="#bfbfbf" points="28.5,-112.5 28.5,-131.5 81.5,-131.5 81.5,-112.5 28.5,-112.5"/>
<text text-anchor="middle" x="55" y="-119.5" font-family="Helvetica,sans-Serif" font-size="10.00">stdint.h</text>
</a>
</g>
</g>
<!-- Node2&#45;&gt;Node4 -->
<g id="edge3" class="edge">
<title>Node2&#45;&gt;Node4</title>
<path fill="none" stroke="midnightblue" d="M332.66,-280.31C284.7,-253.14 137.32,-169.64 79.06,-136.63"/>
<polygon fill="midnightblue" stroke="midnightblue" points="80.61,-133.49 70.19,-131.61 77.16,-139.58 80.61,-133.49"/>
</g>
<!-- Node5 -->
<g id="node5" class="node">
<title>Node5</title>
<g id="a_node5"><a xlink:title=" ">
<polygon fill="none" stroke="#bfbfbf" points="194.5,-0.5 194.5,-19.5 257.5,-19.5 257.5,-0.5 194.5,-0.5"/>
<text text-anchor="middle" x="226" y="-7.5" font-family="Helvetica,sans-Serif" font-size="10.00">Arduino.h</text>
</a>
</g>
</g>
<!-- Node2&#45;&gt;Node5 -->
<g id="edge4" class="edge">
<title>Node2&#45;&gt;Node5</title>
<path fill="none" stroke="midnightblue" d="M318.33,-286.07C234.17,-276.93 0,-245.53 0,-179 0,-179 0,-179 0,-121 0,-40.02 118.76,-18.64 184.1,-13.01"/>
<polygon fill="midnightblue" stroke="midnightblue" points="184.4,-16.5 194.1,-12.23 183.86,-9.52 184.4,-16.5"/>
</g>
<!-- Node6 -->
<g id="node6" class="node">
<title>Node6</title>
<g id="a_node6"><a xlink:href="MeConfig_8h_source.html" target="_top" xlink:title=" ">
<polygon fill="none" stroke="black" points="521.5,-112.5 521.5,-131.5 592.5,-131.5 592.5,-112.5 521.5,-112.5"/>
<text text-anchor="middle" x="557" y="-119.5" font-family="Helvetica,sans-Serif" font-size="10.00">MeConfig.h</text>
</a>
</g>
</g>
<!-- Node2&#45;&gt;Node6 -->
<g id="edge5" class="edge">
<title>Node2&#45;&gt;Node6</title>
<path fill="none" stroke="midnightblue" d="M377.57,-283.52C422.42,-273.45 506.29,-247.33 543,-188 551.64,-174.04 555,-155.54 556.28,-141.84"/>
<polygon fill="midnightblue" stroke="midnightblue" points="559.78,-141.88 556.94,-131.68 552.8,-141.43 559.78,-141.88"/>
</g>
<!-- Node2&#45;&gt;Node16 -->
<g id="edge20" class="edge">
<title>Node2&#45;&gt;Node16</title>
<path fill="none" stroke="midnightblue" d="M357.32,-280.32C365.89,-272.34 378.81,-260.31 389.19,-250.65"/>
<polygon fill="midnightblue" stroke="midnightblue" points="391.58,-253.21 396.51,-243.83 386.81,-248.09 391.58,-253.21"/>
</g>
<!-- Node17 -->
<g id="node17" class="node">
<title>Node17</title>
<g id="a_node17"><a xlink:href="MePort_8h.html" target="_top" xlink:title="Header for MePort.cpp module.">
<polygon fill="none" stroke="black" points="314,-168.5 314,-187.5 374,-187.5 374,-168.5 314,-168.5"/>
<text text-anchor="middle" x="344" y="-175.5" font-family="Helvetica,sans-Serif" font-size="10.00">MePort.h</text>
</a>
</g>
</g>
<!-- Node2&#45;&gt;Node17 -->
<g id="edge33" class="edge">
<title>Node2&#45;&gt;Node17</title>
<path fill="none" stroke="midnightblue" d="M347.69,-280.37C347.04,-262.62 345.55,-221.67 344.68,-197.6"/>
<polygon fill="midnightblue" stroke="midnightblue" points="348.17,-197.46 344.31,-187.59 341.18,-197.71 348.17,-197.46"/>
</g>
<!-- Node7 -->
<g id="node7" class="node">
<title>Node7</title>
<g id="a_node7"><a xlink:href="Servo_8h_source.html" target="_top" xlink:title=" ">
<polygon fill="none" stroke="black" points="614.5,-56.5 614.5,-75.5 699.5,-75.5 699.5,-56.5 614.5,-56.5"/>
<text text-anchor="middle" x="657" y="-63.5" font-family="Helvetica,sans-Serif" font-size="10.00">utility/Servo.h</text>
</a>
</g>
</g>
<!-- Node6&#45;&gt;Node7 -->
<g id="edge6" class="edge">
<title>Node6&#45;&gt;Node7</title>
<path fill="none" stroke="midnightblue" d="M573.07,-112.32C588.96,-103.74 613.51,-90.49 631.96,-80.52"/>
<polygon fill="midnightblue" stroke="midnightblue" points="633.84,-83.49 640.97,-75.65 630.51,-77.33 633.84,-83.49"/>
</g>
<!-- Node9 -->
<g id="node9" class="node">
<title>Node9</title>
<g id="a_node9"><a xlink:href="Wire_8h_source.html" target="_top" xlink:title=" ">
<polygon fill="none" stroke="black" points="864,-56.5 864,-75.5 944,-75.5 944,-56.5 864,-56.5"/>
<text text-anchor="middle" x="904" y="-63.5" font-family="Helvetica,sans-Serif" font-size="10.00">utility/Wire.h</text>
</a>
</g>
</g>
<!-- Node6&#45;&gt;Node9 -->
<g id="edge8" class="edge">
<title>Node6&#45;&gt;Node9</title>
<path fill="none" stroke="midnightblue" d="M592.84,-115.96C647.06,-108.26 753.42,-92.84 853.89,-76.14"/>
<polygon fill="midnightblue" stroke="midnightblue" points="854.62,-79.57 863.91,-74.47 853.47,-72.67 854.62,-79.57"/>
</g>
<!-- Node11 -->
<g id="node11" class="node">
<title>Node11</title>
<g id="a_node11"><a xlink:href="EEPROM_8h_source.html" target="_top" xlink:title=" ">
<polygon fill="none" stroke="black" points="498,-56.5 498,-75.5 596,-75.5 596,-56.5 498,-56.5"/>
<text text-anchor="middle" x="547" y="-63.5" font-family="Helvetica,sans-Serif" font-size="10.00">utility/EEPROM.h</text>
</a>
</g>
</g>
<!-- Node6&#45;&gt;Node11 -->
<g id="edge11" class="edge">
<title>Node6&#45;&gt;Node11</title>
<path fill="none" stroke="midnightblue" d="M555.35,-112.08C554.02,-104.93 552.12,-94.64 550.46,-85.69"/>
<polygon fill="midnightblue" stroke="midnightblue" points="553.88,-84.95 548.62,-75.75 547,-86.22 553.88,-84.95"/>
</g>
<!-- Node14 -->
<g id="node14" class="node">
<title>Node14</title>
<g id="a_node14"><a xlink:href="SoftwareSerial_8h_source.html" target="_top" xlink:title=" ">
<polygon fill="none" stroke="black" points="718,-56.5 718,-75.5 846,-75.5 846,-56.5 718,-56.5"/>
<text text-anchor="middle" x="782" y="-63.5" font-family="Helvetica,sans-Serif" font-size="10.00">utility/SoftwareSerial.h</text>
</a>
</g>
</g>
<!-- Node6&#45;&gt;Node14 -->
<g id="edge15" class="edge">
<title>Node6&#45;&gt;Node14</title>
<path fill="none" stroke="midnightblue" d="M592.65,-112.44C631.66,-103.08 694.27,-88.06 736.72,-77.87"/>
<polygon fill="midnightblue" stroke="midnightblue" points="737.61,-81.25 746.51,-75.52 735.97,-74.45 737.61,-81.25"/>
</g>
<!-- Node15 -->
<g id="node15" class="node">
<title>Node15</title>
<g id="a_node15"><a xlink:href="SPI_8h_source.html" target="_top" xlink:title=" ">
<polygon fill="none" stroke="black" points="370,-56.5 370,-75.5 442,-75.5 442,-56.5 370,-56.5"/>
<text text-anchor="middle" x="406" y="-63.5" font-family="Helvetica,sans-Serif" font-size="10.00">utility/SPI.h</text>
</a>
</g>
</g>
<!-- Node6&#45;&gt;Node15 -->
<g id="edge18" class="edge">
<title>Node6&#45;&gt;Node15</title>
<path fill="none" stroke="midnightblue" d="M533.07,-112.44C507.78,-103.4 467.7,-89.06 439.32,-78.92"/>
<polygon fill="midnightblue" stroke="midnightblue" points="440.41,-75.59 429.81,-75.52 438.05,-82.18 440.41,-75.59"/>
</g>
<!-- Node8 -->
<g id="node8" class="node">
<title>Node8</title>
<g id="a_node8"><a xlink:title=" ">
<polygon fill="none" stroke="#bfbfbf" points="646.5,-0.5 646.5,-19.5 711.5,-19.5 711.5,-0.5 646.5,-0.5"/>
<text text-anchor="middle" x="679" y="-7.5" font-family="Helvetica,sans-Serif" font-size="10.00">inttypes.h</text>
</a>
</g>
</g>
<!-- Node7&#45;&gt;Node8 -->
<g id="edge7" class="edge">
<title>Node7&#45;&gt;Node8</title>
<path fill="none" stroke="midnightblue" d="M660.63,-56.08C663.61,-48.77 667.93,-38.18 671.62,-29.1"/>
<polygon fill="midnightblue" stroke="midnightblue" points="674.9,-30.33 675.43,-19.75 668.42,-27.69 674.9,-30.33"/>
</g>
<!-- Node9&#45;&gt;Node8 -->
<g id="edge9" class="edge">
<title>Node9&#45;&gt;Node8</title>
<path fill="none" stroke="midnightblue" d="M868.35,-56.44C828.43,-46.86 763.77,-31.35 721.32,-21.16"/>
<polygon fill="midnightblue" stroke="midnightblue" points="722.1,-17.75 711.56,-18.82 720.47,-24.55 722.1,-17.75"/>
</g>
<!-- Node10 -->
<g id="node10" class="node">
<title>Node10</title>
<g id="a_node10"><a xlink:title=" ">
<polygon fill="none" stroke="#bfbfbf" points="812.5,-0.5 812.5,-19.5 873.5,-19.5 873.5,-0.5 812.5,-0.5"/>
<text text-anchor="middle" x="843" y="-7.5" font-family="Helvetica,sans-Serif" font-size="10.00">Stream.h</text>
</a>
</g>
</g>
<!-- Node9&#45;&gt;Node10 -->
<g id="edge10" class="edge">
<title>Node9&#45;&gt;Node10</title>
<path fill="none" stroke="midnightblue" d="M894.2,-56.32C885.18,-48.34 871.59,-36.31 860.68,-26.65"/>
<polygon fill="midnightblue" stroke="midnightblue" points="862.79,-23.84 852.98,-19.83 858.15,-29.08 862.79,-23.84"/>
</g>
<!-- Node11&#45;&gt;Node8 -->
<g id="edge12" class="edge">
<title>Node11&#45;&gt;Node8</title>
<path fill="none" stroke="midnightblue" d="M567.92,-56.44C589.74,-47.52 624.15,-33.44 648.89,-23.32"/>
<polygon fill="midnightblue" stroke="midnightblue" points="650.25,-26.54 658.18,-19.52 647.6,-20.06 650.25,-26.54"/>
</g>
<!-- Node12 -->
<g id="node12" class="node">
<title>Node12</title>
<g id="a_node12"><a xlink:title=" ">
<polygon fill="none" stroke="#bfbfbf" points="515,-0.5 515,-19.5 597,-19.5 597,-0.5 515,-0.5"/>
<text text-anchor="middle" x="556" y="-7.5" font-family="Helvetica,sans-Serif" font-size="10.00">avr/eeprom.h</text>
</a>
</g>
</g>
<!-- Node11&#45;&gt;Node12 -->
<g id="edge13" class="edge">
<title>Node11&#45;&gt;Node12</title>
<path fill="none" stroke="midnightblue" d="M548.49,-56.08C549.68,-48.93 551.39,-38.64 552.88,-29.69"/>
<polygon fill="midnightblue" stroke="midnightblue" points="556.35,-30.19 554.54,-19.75 549.45,-29.04 556.35,-30.19"/>
</g>
<!-- Node13 -->
<g id="node13" class="node">
<title>Node13</title>
<g id="a_node13"><a xlink:title=" ">
<polygon fill="none" stroke="#bfbfbf" points="443.5,-0.5 443.5,-19.5 496.5,-19.5 496.5,-0.5 443.5,-0.5"/>
<text text-anchor="middle" x="470" y="-7.5" font-family="Helvetica,sans-Serif" font-size="10.00">avr/io.h</text>
</a>
</g>
</g>
<!-- Node11&#45;&gt;Node13 -->
<g id="edge14" class="edge">
<title>Node11&#45;&gt;Node13</title>
<path fill="none" stroke="midnightblue" d="M534.63,-56.32C522.84,-48.06 504.87,-35.45 490.86,-25.63"/>
<polygon fill="midnightblue" stroke="midnightblue" points="492.54,-22.53 482.34,-19.65 488.52,-28.26 492.54,-22.53"/>
</g>
<!-- Node14&#45;&gt;Node8 -->
<g id="edge16" class="edge">
<title>Node14&#45;&gt;Node8</title>
<path fill="none" stroke="midnightblue" d="M765.45,-56.32C749.01,-47.7 723.57,-34.36 704.53,-24.39"/>
<polygon fill="midnightblue" stroke="midnightblue" points="705.99,-21.2 695.51,-19.65 702.74,-27.4 705.99,-21.2"/>
</g>
<!-- Node14&#45;&gt;Node10 -->
<g id="edge17" class="edge">
<title>Node14&#45;&gt;Node10</title>
<path fill="none" stroke="midnightblue" d="M791.8,-56.32C800.82,-48.34 814.41,-36.31 825.32,-26.65"/>
<polygon fill="midnightblue" stroke="midnightblue" points="827.85,-29.08 833.02,-19.83 823.21,-23.84 827.85,-29.08"/>
</g>
<!-- Node15&#45;&gt;Node5 -->
<g id="edge19" class="edge">
<title>Node15&#45;&gt;Node5</title>
<path fill="none" stroke="midnightblue" d="M377.48,-56.44C346.93,-47.28 298.29,-32.69 264.4,-22.52"/>
<polygon fill="midnightblue" stroke="midnightblue" points="264.97,-19.04 254.39,-19.52 262.96,-25.74 264.97,-19.04"/>
</g>
<!-- Node16&#45;&gt;Node3 -->
<g id="edge22" class="edge">
<title>Node16&#45;&gt;Node3</title>
<path fill="none" stroke="midnightblue" d="M421.58,-224.32C437,-215.74 460.81,-202.49 478.71,-192.52"/>
<polygon fill="midnightblue" stroke="midnightblue" points="480.42,-195.58 487.45,-187.65 477.01,-189.46 480.42,-195.58"/>
</g>
<!-- Node16&#45;&gt;Node4 -->
<g id="edge21" class="edge">
<title>Node16&#45;&gt;Node4</title>
<path fill="none" stroke="midnightblue" d="M378.75,-224.46C316.11,-204.83 161.86,-156.49 91.3,-134.37"/>
<polygon fill="midnightblue" stroke="midnightblue" points="92.1,-130.96 81.51,-131.31 90.01,-137.64 92.1,-130.96"/>
</g>
<!-- Node16&#45;&gt;Node5 -->
<g id="edge23" class="edge">
<title>Node16&#45;&gt;Node5</title>
<path fill="none" stroke="midnightblue" d="M407.43,-224.24C410.39,-203.05 415.15,-148.15 392,-112 362.31,-65.65 303.03,-37.35 263.94,-22.93"/>
<polygon fill="midnightblue" stroke="midnightblue" points="265.06,-19.61 254.47,-19.55 262.71,-26.2 265.06,-19.61"/>
</g>
<!-- Node16&#45;&gt;Node6 -->
<g id="edge24" class="edge">
<title>Node16&#45;&gt;Node6</title>
<path fill="none" stroke="midnightblue" d="M411.77,-224.43C421.17,-210.96 440.99,-184.68 463,-168 481.17,-154.22 504.23,-143.11 522.97,-135.37"/>
<polygon fill="midnightblue" stroke="midnightblue" points="524.33,-138.59 532.32,-131.63 521.73,-132.09 524.33,-138.59"/>
</g>
<!-- Node16&#45;&gt;Node17 -->
<g id="edge25" class="edge">
<title>Node16&#45;&gt;Node17</title>
<path fill="none" stroke="midnightblue" d="M396.04,-224.32C386.87,-216.34 373.06,-204.31 361.97,-194.65"/>
<polygon fill="midnightblue" stroke="midnightblue" points="363.98,-191.76 354.14,-187.83 359.38,-197.04 363.98,-191.76"/>
</g>
<!-- Node17&#45;&gt;Node4 -->
<g id="edge30" class="edge">
<title>Node17&#45;&gt;Node4</title>
<path fill="none" stroke="midnightblue" d="M313.77,-171.88C267,-163.88 174.3,-147.69 96,-132 94.71,-131.74 93.41,-131.48 92.09,-131.2"/>
<polygon fill="midnightblue" stroke="midnightblue" points="92.38,-127.69 81.88,-129.05 90.94,-134.54 92.38,-127.69"/>
</g>
<!-- Node17&#45;&gt;Node5 -->
<g id="edge26" class="edge">
<title>Node17&#45;&gt;Node5</title>
<path fill="none" stroke="midnightblue" d="M313.89,-172.82C257.51,-164.7 140.63,-146.32 129,-132 97.54,-93.28 162.44,-47.22 200.69,-24.73"/>
<polygon fill="midnightblue" stroke="midnightblue" points="202.82,-27.54 209.77,-19.54 199.35,-21.47 202.82,-27.54"/>
</g>
<!-- Node17&#45;&gt;Node6 -->
<g id="edge32" class="edge">
<title>Node17&#45;&gt;Node6</title>
<path fill="none" stroke="midnightblue" d="M374.07,-169.38C410.4,-160.17 471.83,-144.59 513.38,-134.06"/>
<polygon fill="midnightblue" stroke="midnightblue" points="514.39,-137.41 523.22,-131.56 512.67,-130.63 514.39,-137.41"/>
</g>
<!-- Node17&#45;&gt;Node13 -->
<g id="edge28" class="edge">
<title>Node17&#45;&gt;Node13</title>
<path fill="none" stroke="midnightblue" d="M356.98,-168.34C379.51,-152.62 425.85,-117.21 451,-76 459.71,-61.73 464.6,-43.26 467.24,-29.66"/>
<polygon fill="midnightblue" stroke="midnightblue" points="470.73,-30.02 468.95,-19.58 463.82,-28.85 470.73,-30.02"/>
</g>
<!-- Node18 -->
<g id="node18" class="node">
<title>Node18</title>
<g id="a_node18"><a xlink:title=" ">
<polygon fill="none" stroke="#bfbfbf" points="138,-112.5 138,-131.5 224,-131.5 224,-112.5 138,-112.5"/>
<text text-anchor="middle" x="181" y="-119.5" font-family="Helvetica,sans-Serif" font-size="10.00">avr/interrupt.h</text>
</a>
</g>
</g>
<!-- Node17&#45;&gt;Node18 -->
<g id="edge27" class="edge">
<title>Node17&#45;&gt;Node18</title>
<path fill="none" stroke="midnightblue" d="M318.17,-168.44C290.75,-159.36 247.22,-144.94 216.57,-134.78"/>
<polygon fill="midnightblue" stroke="midnightblue" points="217.3,-131.34 206.71,-131.52 215.1,-137.98 217.3,-131.34"/>
</g>
<!-- Node19 -->
<g id="node19" class="node">
<title>Node19</title>
<g id="a_node19"><a xlink:title=" ">
<polygon fill="none" stroke="#bfbfbf" points="242,-112.5 242,-131.5 312,-131.5 312,-112.5 242,-112.5"/>
<text text-anchor="middle" x="277" y="-119.5" font-family="Helvetica,sans-Serif" font-size="10.00">util/delay.h</text>
</a>
</g>
</g>
<!-- Node17&#45;&gt;Node19 -->
<g id="edge29" class="edge">
<title>Node17&#45;&gt;Node19</title>
<path fill="none" stroke="midnightblue" d="M333.24,-168.32C323.23,-160.26 308.11,-148.08 296.07,-138.37"/>
<polygon fill="midnightblue" stroke="midnightblue" points="297.94,-135.38 287.96,-131.83 293.55,-140.83 297.94,-135.38"/>
</g>
<!-- Node20 -->
<g id="node20" class="node">
<title>Node20</title>
<g id="a_node20"><a xlink:title=" ">
<polygon fill="none" stroke="#bfbfbf" points="330.5,-112.5 330.5,-131.5 383.5,-131.5 383.5,-112.5 330.5,-112.5"/>
<text text-anchor="middle" x="357" y="-119.5" font-family="Helvetica,sans-Serif" font-size="10.00">stdlib.h</text>
</a>
</g>
</g>
<!-- Node17&#45;&gt;Node20 -->
<g id="edge31" class="edge">
<title>Node17&#45;&gt;Node20</title>
<path fill="none" stroke="midnightblue" d="M346.15,-168.08C347.87,-160.93 350.35,-150.64 352.5,-141.69"/>
<polygon fill="midnightblue" stroke="midnightblue" points="355.96,-142.29 354.89,-131.75 349.15,-140.65 355.96,-142.29"/>
</g>
</g>
</svg>
        <g id="navigator" transform="translate(0 0)" fill="#404254">
                <rect fill="#f2f5e9" fill-opacity="0.5" stroke="#606060" stroke-width=".5" x="0" y="0" width="60" height="60"/>
                <use id="zoomplus" xlink:href="#zoomPlus" x="17" y="9" onmousedown="handleZoom(evt,'in')"/>
                <use id="zoomminus" xlink:href="#zoomMin" x="42" y="9" onmousedown="handleZoom(evt,'out')"/>
                <use id="reset" xlink:href="#resetDef" x="30" y="36" onmousedown="handleReset()"/>
                <g id="arrowUp" xlink:href="#dirArrow" transform="translate(30 24)" onmousedown="handlePan(0,-1)">
                  <use xlink:href="#rim" fill="#404040">
                        <set attributeName="fill" to="#808080" begin="arrowUp.mouseover" end="arrowUp.mouseout"/>
                  </use>
                  <path fill="none" stroke="white" stroke-width="1.5" d="M0,-3.0v7 M-2.5,-0.5L0,-3.0L2.5,-0.5"/>
                </g>
                <g id="arrowRight" xlink:href="#dirArrow" transform="rotate(90) translate(36 -43)" onmousedown="handlePan(1,0)">
                  <use xlink:href="#rim" fill="#404040">
                        <set attributeName="fill" to="#808080" begin="arrowRight.mouseover" end="arrowRight.mouseout"/>
                  </use>
                  <path fill="none" stroke="white" stroke-width="1.5" d="M0,-3.0v7 M-2.5,-0.5L0,-3.0L2.5,-0.5"/>
                </g>
                <g id="arrowDown" xlink:href="#dirArrow" transform="rotate(180) translate(-30 -48)" onmousedown="handlePan(0,1)">
                  <use xlink:href="#rim" fill="#404040">
                        <set attributeName="fill" to="#808080" begin="arrowDown.mouseover" end="arrowDown.mouseout"/>
                  </use>
                  <path fill="none" stroke="white" stroke-width="1.5" d="M0,-3.0v7 M-2.5,-0.5L0,-3.0L2.5,-0.5"/>
                </g>
                <g id="arrowLeft" xlink:href="#dirArrow" transform="rotate(270) translate(-36 17)" onmousedown="handlePan(-1,0)">
                  <use xlink:href="#rim" fill="#404040">
                        <set attributeName="fill" to="#808080" begin="arrowLeft.mouseover" end="arrowLeft.mouseout"/>
                  </use>
                  <path fill="none" stroke="white" stroke-width="1.5" d="M0,-3.0v7 M-2.5,-0.5L0,-3.0L2.5,-0.5"/>
                </g>
        </g>
        <svg viewBox="0 0 15 15" width="100%" height="30px" preserveAspectRatio="xMaxYMin meet">
         <g id="arrow_out" transform="scale(0.3 0.3)">
          <a xlink:href="MePS2_8cpp__incl_org.svg" target="_base">
           <rect id="button" ry="5" rx="5" y="6" x="6" height="38" width="38"
                fill="#f2f5e9" fill-opacity="0.5" stroke="#606060" stroke-width="1.0"/>
           <path id="arrow"
             d="M 11.500037,31.436501 C 11.940474,20.09759 22.043105,11.32322 32.158766,21.979434 L 37.068811,17.246167 C 37.068811,17.246167 37.088388,32 37.088388,32 L 22.160133,31.978069 C 22.160133,31.978069 26.997745,27.140456 26.997745,27.140456 C 18.528582,18.264221 13.291696,25.230495 11.500037,31.436501 z"
             style="fill:#404040;"/>
          </a>
         </g>
        </svg>
</svg>
