<?xml version="1.0" encoding="UTF-8" standalone="no"?>
<!DOCTYPE svg PUBLIC "-//W3C//DTD SVG 1.1//EN"
 "http://www.w3.org/Graphics/SVG/1.1/DTD/svg11.dtd">
<!-- Generated by graphviz version 2.43.0 (0)
 -->
<!-- Title: src/MeSerial.h Pages: 1 -->
<svg width="1828pt" height="140pt"
 viewBox="0.00 0.00 1827.50 140.00" xmlns="http://www.w3.org/2000/svg" xmlns:xlink="http://www.w3.org/1999/xlink">
<g id="graph0" class="graph" transform="scale(1 1) rotate(0) translate(4 136)">
<title>src/MeSerial.h</title>
<!-- Node1 -->
<g id="node1" class="node">
<title>Node1</title>
<g id="a_node1"><a xlink:title="Header for for MeSerial.cpp module.">
<polygon fill="#bfbfbf" stroke="black" points="964,-112.5 964,-131.5 1050,-131.5 1050,-112.5 964,-112.5"/>
<text text-anchor="middle" x="1007" y="-119.5" font-family="Helvetica,sans-Serif" font-size="10.00">src/MeSerial.h</text>
</a>
</g>
</g>
<!-- Node2 -->
<g id="node2" class="node">
<title>Node2</title>
<g id="a_node2"><a xlink:href="MeAuriga_8h.html" target="_top" xlink:title="Driver for MeAuriga board.">
<polygon fill="none" stroke="black" points="1114.5,-0.5 1114.5,-19.5 1203.5,-19.5 1203.5,-0.5 1114.5,-0.5"/>
<text text-anchor="middle" x="1159" y="-7.5" font-family="Helvetica,sans-Serif" font-size="10.00">src/MeAuriga.h</text>
</a>
</g>
</g>
<!-- Node1&#45;&gt;Node2 -->
<g id="edge1" class="edge">
<title>Node1&#45;&gt;Node2</title>
<path fill="none" stroke="midnightblue" d="M1060.46,-117.23C1116.86,-112.01 1200.28,-100.32 1220,-76 1237.25,-54.72 1201.49,-31.8 1177.77,-19.67"/>
<polygon fill="midnightblue" stroke="midnightblue" points="1059.92,-113.76 1050.27,-118.13 1060.53,-120.74 1059.92,-113.76"/>
</g>
<!-- Node3 -->
<g id="node3" class="node">
<title>Node3</title>
<g id="a_node3"><a xlink:href="MeBaseBoard_8h.html" target="_top" xlink:title="Driver for BaseBoard.">
<polygon fill="none" stroke="black" points="134,-0.5 134,-19.5 244,-19.5 244,-0.5 134,-0.5"/>
<text text-anchor="middle" x="189" y="-7.5" font-family="Helvetica,sans-Serif" font-size="10.00">src/MeBaseBoard.h</text>
</a>
</g>
</g>
<!-- Node1&#45;&gt;Node3 -->
<g id="edge2" class="edge">
<title>Node1&#45;&gt;Node3</title>
<path fill="none" stroke="midnightblue" d="M953.76,-119.71C817.19,-116.02 457,-103.87 341,-76 288.54,-63.4 231.15,-34.25 204.37,-19.65"/>
<polygon fill="midnightblue" stroke="midnightblue" points="953.88,-123.21 963.97,-119.98 954.07,-116.21 953.88,-123.21"/>
</g>
<!-- Node4 -->
<g id="node4" class="node">
<title>Node4</title>
<g id="a_node4"><a xlink:href="MeBluetooth_8h.html" target="_top" xlink:title="Header for MeBluetooth.cpp module.">
<polygon fill="none" stroke="black" points="393.5,-56.5 393.5,-75.5 498.5,-75.5 498.5,-56.5 393.5,-56.5"/>
<text text-anchor="middle" x="446" y="-63.5" font-family="Helvetica,sans-Serif" font-size="10.00">src/MeBluetooth.h</text>
</a>
</g>
</g>
<!-- Node1&#45;&gt;Node4 -->
<g id="edge3" class="edge">
<title>Node1&#45;&gt;Node4</title>
<path fill="none" stroke="midnightblue" d="M953.76,-117.15C862.42,-110.34 670,-95.05 508,-76 504.98,-75.64 501.87,-75.26 498.74,-74.85"/>
<polygon fill="midnightblue" stroke="midnightblue" points="953.63,-120.65 963.87,-117.9 954.15,-113.67 953.63,-120.65"/>
</g>
<!-- Node6 -->
<g id="node6" class="node">
<title>Node6</title>
<g id="a_node6"><a xlink:href="MeMCore_8h.html" target="_top" xlink:title="Driver for mCore Board.">
<polygon fill="none" stroke="black" points="878.5,-0.5 878.5,-19.5 967.5,-19.5 967.5,-0.5 878.5,-0.5"/>
<text text-anchor="middle" x="923" y="-7.5" font-family="Helvetica,sans-Serif" font-size="10.00">src/MeMCore.h</text>
</a>
</g>
</g>
<!-- Node1&#45;&gt;Node6 -->
<g id="edge21" class="edge">
<title>Node1&#45;&gt;Node6</title>
<path fill="none" stroke="midnightblue" d="M994.23,-104.27C976.07,-80.49 943.46,-37.79 929.56,-19.59"/>
<polygon fill="midnightblue" stroke="midnightblue" points="991.56,-106.54 1000.41,-112.37 997.12,-102.3 991.56,-106.54"/>
</g>
<!-- Node7 -->
<g id="node7" class="node">
<title>Node7</title>
<g id="a_node7"><a xlink:href="MeMegaPi_8h.html" target="_top" xlink:title="Driver for MegaPi board.">
<polygon fill="none" stroke="black" points="636,-0.5 636,-19.5 730,-19.5 730,-0.5 636,-0.5"/>
<text text-anchor="middle" x="683" y="-7.5" font-family="Helvetica,sans-Serif" font-size="10.00">src/MeMegaPi.h</text>
</a>
</g>
</g>
<!-- Node1&#45;&gt;Node7 -->
<g id="edge22" class="edge">
<title>Node1&#45;&gt;Node7</title>
<path fill="none" stroke="midnightblue" d="M953.97,-119.89C876.78,-117.2 738.65,-107.92 702,-76 685.51,-61.64 682.95,-33.83 682.79,-19.7"/>
<polygon fill="midnightblue" stroke="midnightblue" points="953.88,-123.39 963.99,-120.22 954.11,-116.4 953.88,-123.39"/>
</g>
<!-- Node8 -->
<g id="node8" class="node">
<title>Node8</title>
<g id="a_node8"><a xlink:href="MeMegaPiPro_8h.html" target="_top" xlink:title="Driver for MegaPiPro board.">
<polygon fill="none" stroke="black" points="986,-0.5 986,-19.5 1096,-19.5 1096,-0.5 986,-0.5"/>
<text text-anchor="middle" x="1041" y="-7.5" font-family="Helvetica,sans-Serif" font-size="10.00">src/MeMegaPiPro.h</text>
</a>
</g>
</g>
<!-- Node1&#45;&gt;Node8 -->
<g id="edge23" class="edge">
<title>Node1&#45;&gt;Node8</title>
<path fill="none" stroke="midnightblue" d="M997.44,-103.16C991.61,-89.77 986.42,-71.19 993,-56 999.81,-40.28 1015.12,-27.53 1026.63,-19.67"/>
<polygon fill="midnightblue" stroke="midnightblue" points="994.34,-104.78 1001.85,-112.26 1000.64,-101.73 994.34,-104.78"/>
</g>
<!-- Node9 -->
<g id="node9" class="node">
<title>Node9</title>
<g id="a_node9"><a xlink:href="MeOrion_8h.html" target="_top" xlink:title="Driver for MeOrion board.">
<polygon fill="none" stroke="black" points="262,-0.5 262,-19.5 346,-19.5 346,-0.5 262,-0.5"/>
<text text-anchor="middle" x="304" y="-7.5" font-family="Helvetica,sans-Serif" font-size="10.00">src/MeOrion.h</text>
</a>
</g>
</g>
<!-- Node1&#45;&gt;Node9 -->
<g id="edge24" class="edge">
<title>Node1&#45;&gt;Node9</title>
<path fill="none" stroke="midnightblue" d="M953.61,-121.61C820.91,-122.43 479.42,-120.06 376,-76 346.87,-63.59 321.7,-34.35 310.38,-19.7"/>
<polygon fill="midnightblue" stroke="midnightblue" points="953.95,-125.11 963.92,-121.54 953.9,-118.11 953.95,-125.11"/>
</g>
<!-- Node10 -->
<g id="node10" class="node">
<title>Node10</title>
<g id="a_node10"><a xlink:href="MeShield_8h.html" target="_top" xlink:title="Driver for Shield Board.">
<polygon fill="none" stroke="black" points="530,-0.5 530,-19.5 618,-19.5 618,-0.5 530,-0.5"/>
<text text-anchor="middle" x="574" y="-7.5" font-family="Helvetica,sans-Serif" font-size="10.00">src/MeShield.h</text>
</a>
</g>
</g>
<!-- Node1&#45;&gt;Node10 -->
<g id="edge37" class="edge">
<title>Node1&#45;&gt;Node10</title>
<path fill="none" stroke="midnightblue" d="M953.65,-121.2C809.84,-121.19 422.42,-117.29 384,-76 377.95,-69.49 378.49,-62.97 384,-56 393.09,-44.5 476.67,-27.99 529.9,-18.5"/>
<polygon fill="midnightblue" stroke="midnightblue" points="953.98,-124.7 963.98,-121.2 953.98,-117.7 953.98,-124.7"/>
</g>
<!-- Node11 -->
<g id="node11" class="node">
<title>Node11</title>
<g id="a_node11"><a xlink:href="MeInfraredReceiver_8h.html" target="_top" xlink:title="Header for for MeInfraredReceiver.cpp module.">
<polygon fill="none" stroke="black" points="517,-56.5 517,-75.5 655,-75.5 655,-56.5 517,-56.5"/>
<text text-anchor="middle" x="586" y="-63.5" font-family="Helvetica,sans-Serif" font-size="10.00">src/MeInfraredReceiver.h</text>
</a>
</g>
</g>
<!-- Node1&#45;&gt;Node11 -->
<g id="edge12" class="edge">
<title>Node1&#45;&gt;Node11</title>
<path fill="none" stroke="midnightblue" d="M953.54,-114.14C876.85,-104.31 735.7,-86.2 652.41,-75.52"/>
<polygon fill="midnightblue" stroke="midnightblue" points="953.56,-117.67 963.92,-115.47 954.45,-110.73 953.56,-117.67"/>
</g>
<!-- Node13 -->
<g id="node13" class="node">
<title>Node13</title>
<g id="a_node13"><a xlink:href="MePm25Sensor_8cpp.html" target="_top" xlink:title="Driver for Me PM2.5 sensor device.">
<polygon fill="none" stroke="black" points="1577.5,-0.5 1577.5,-19.5 1706.5,-19.5 1706.5,-0.5 1577.5,-0.5"/>
<text text-anchor="middle" x="1642" y="-7.5" font-family="Helvetica,sans-Serif" font-size="10.00">src/MePm25Sensor.cpp</text>
</a>
</g>
</g>
<!-- Node1&#45;&gt;Node13 -->
<g id="edge25" class="edge">
<title>Node1&#45;&gt;Node13</title>
<path fill="none" stroke="midnightblue" d="M1060.41,-120.61C1202.52,-119.09 1582.09,-111.7 1625,-76 1641.68,-62.13 1643.1,-34.1 1642.62,-19.81"/>
<polygon fill="midnightblue" stroke="midnightblue" points="1060.16,-117.11 1050.19,-120.71 1060.23,-124.11 1060.16,-117.11"/>
</g>
<!-- Node14 -->
<g id="node14" class="node">
<title>Node14</title>
<g id="a_node14"><a xlink:href="MePm25Sensor_8h.html" target="_top" xlink:title="Header for for MePm25Sensor.cpp module.">
<polygon fill="none" stroke="black" points="1498,-56.5 1498,-75.5 1616,-75.5 1616,-56.5 1498,-56.5"/>
<text text-anchor="middle" x="1557" y="-63.5" font-family="Helvetica,sans-Serif" font-size="10.00">src/MePm25Sensor.h</text>
</a>
</g>
</g>
<!-- Node1&#45;&gt;Node14 -->
<g id="edge26" class="edge">
<title>Node1&#45;&gt;Node14</title>
<path fill="none" stroke="midnightblue" d="M1060.15,-116.49C1148.3,-108.89 1330.28,-92.72 1484,-76 1488.44,-75.52 1493.04,-75 1497.65,-74.46"/>
<polygon fill="midnightblue" stroke="midnightblue" points="1059.79,-113 1050.12,-117.35 1060.39,-119.98 1059.79,-113"/>
</g>
<!-- Node15 -->
<g id="node15" class="node">
<title>Node15</title>
<g id="a_node15"><a xlink:href="MePS2_8cpp.html" target="_top" xlink:title="Driver for MePS2 device.">
<polygon fill="none" stroke="black" points="1327.5,-0.5 1327.5,-19.5 1414.5,-19.5 1414.5,-0.5 1327.5,-0.5"/>
<text text-anchor="middle" x="1371" y="-7.5" font-family="Helvetica,sans-Serif" font-size="10.00">src/MePS2.cpp</text>
</a>
</g>
</g>
<!-- Node1&#45;&gt;Node15 -->
<g id="edge29" class="edge">
<title>Node1&#45;&gt;Node15</title>
<path fill="none" stroke="midnightblue" d="M1060.54,-118.62C1161.16,-113.6 1370.34,-100.34 1392,-76 1406.51,-59.7 1389.31,-33.25 1378.49,-19.66"/>
<polygon fill="midnightblue" stroke="midnightblue" points="1060.1,-115.14 1050.28,-119.13 1060.44,-122.13 1060.1,-115.14"/>
</g>
<!-- Node16 -->
<g id="node16" class="node">
<title>Node16</title>
<g id="a_node16"><a xlink:href="MePS2_8h.html" target="_top" xlink:title="Header for MePS2.cpp module.">
<polygon fill="none" stroke="black" points="1002,-56.5 1002,-75.5 1078,-75.5 1078,-56.5 1002,-56.5"/>
<text text-anchor="middle" x="1040" y="-63.5" font-family="Helvetica,sans-Serif" font-size="10.00">src/MePS2.h</text>
</a>
</g>
</g>
<!-- Node1&#45;&gt;Node16 -->
<g id="edge30" class="edge">
<title>Node1&#45;&gt;Node16</title>
<path fill="none" stroke="midnightblue" d="M1017.83,-103.27C1023.47,-94.05 1030.12,-83.17 1034.65,-75.75"/>
<polygon fill="midnightblue" stroke="midnightblue" points="1014.68,-101.73 1012.45,-112.08 1020.65,-105.38 1014.68,-101.73"/>
</g>
<!-- Node17 -->
<g id="node17" class="node">
<title>Node17</title>
<g id="a_node17"><a xlink:href="MeSerial_8cpp.html" target="_top" xlink:title="this file is a drive for serial">
<polygon fill="none" stroke="black" points="1268.5,-56.5 1268.5,-75.5 1365.5,-75.5 1365.5,-56.5 1268.5,-56.5"/>
<text text-anchor="middle" x="1317" y="-63.5" font-family="Helvetica,sans-Serif" font-size="10.00">src/MeSerial.cpp</text>
</a>
</g>
</g>
<!-- Node1&#45;&gt;Node17 -->
<g id="edge36" class="edge">
<title>Node1&#45;&gt;Node17</title>
<path fill="none" stroke="midnightblue" d="M1060.25,-111.72C1118.73,-101.54 1211.83,-85.32 1268.4,-75.47"/>
<polygon fill="midnightblue" stroke="midnightblue" points="1059.36,-108.33 1050.1,-113.49 1060.56,-115.22 1059.36,-108.33"/>
</g>
<!-- Node18 -->
<g id="node18" class="node">
<title>Node18</title>
<g id="a_node18"><a xlink:href="MeSmartServo_8cpp.html" target="_top" xlink:title="Driver for Me Smart Servo device.">
<polygon fill="none" stroke="black" points="1433,-0.5 1433,-19.5 1559,-19.5 1559,-0.5 1433,-0.5"/>
<text text-anchor="middle" x="1496" y="-7.5" font-family="Helvetica,sans-Serif" font-size="10.00">src/MeSmartServo.cpp</text>
</a>
</g>
</g>
<!-- Node1&#45;&gt;Node18 -->
<g id="edge38" class="edge">
<title>Node1&#45;&gt;Node18</title>
<path fill="none" stroke="midnightblue" d="M1060.47,-118.49C1154.84,-113.49 1346.84,-100.58 1409,-76 1441.96,-62.97 1473.43,-34.02 1487.82,-19.56"/>
<polygon fill="midnightblue" stroke="midnightblue" points="1060.08,-115.01 1050.28,-119.02 1060.45,-122 1060.08,-115.01"/>
</g>
<!-- Node19 -->
<g id="node19" class="node">
<title>Node19</title>
<g id="a_node19"><a xlink:href="MeSmartServo_8h.html" target="_top" xlink:title="Header for for MeSmartServo.cpp module.">
<polygon fill="none" stroke="black" points="1096.5,-56.5 1096.5,-75.5 1211.5,-75.5 1211.5,-56.5 1096.5,-56.5"/>
<text text-anchor="middle" x="1154" y="-63.5" font-family="Helvetica,sans-Serif" font-size="10.00">src/MeSmartServo.h</text>
</a>
</g>
</g>
<!-- Node1&#45;&gt;Node19 -->
<g id="edge39" class="edge">
<title>Node1&#45;&gt;Node19</title>
<path fill="none" stroke="midnightblue" d="M1039.92,-108.91C1067.56,-98.75 1106.34,-84.51 1130.82,-75.52"/>
<polygon fill="midnightblue" stroke="midnightblue" points="1038.47,-105.71 1030.29,-112.44 1040.89,-112.28 1038.47,-105.71"/>
</g>
<!-- Node20 -->
<g id="node20" class="node">
<title>Node20</title>
<g id="a_node20"><a xlink:href="MeUSBHost_8h.html" target="_top" xlink:title="Header for MeUSBHost.cpp module.">
<polygon fill="none" stroke="black" points="711.5,-56.5 711.5,-75.5 812.5,-75.5 812.5,-56.5 711.5,-56.5"/>
<text text-anchor="middle" x="762" y="-63.5" font-family="Helvetica,sans-Serif" font-size="10.00">src/MeUSBHost.h</text>
</a>
</g>
</g>
<!-- Node1&#45;&gt;Node20 -->
<g id="edge43" class="edge">
<title>Node1&#45;&gt;Node20</title>
<path fill="none" stroke="midnightblue" d="M958.37,-110.28C912.07,-100.08 843.31,-84.92 800.64,-75.52"/>
<polygon fill="midnightblue" stroke="midnightblue" points="957.66,-113.71 968.18,-112.44 959.17,-106.87 957.66,-113.71"/>
</g>
<!-- Node22 -->
<g id="node22" class="node">
<title>Node22</title>
<g id="a_node22"><a xlink:href="MeVoice_8h.html" target="_top" xlink:title="Header for for MeVoice.cpp module.">
<polygon fill="none" stroke="black" points="1701,-56.5 1701,-75.5 1785,-75.5 1785,-56.5 1701,-56.5"/>
<text text-anchor="middle" x="1743" y="-63.5" font-family="Helvetica,sans-Serif" font-size="10.00">src/MeVoice.h</text>
</a>
</g>
</g>
<!-- Node1&#45;&gt;Node22 -->
<g id="edge52" class="edge">
<title>Node1&#45;&gt;Node22</title>
<path fill="none" stroke="midnightblue" d="M1060.36,-117.97C1171.59,-111.52 1436.33,-95.39 1658,-76 1671.9,-74.78 1687.05,-73.25 1700.66,-71.79"/>
<polygon fill="midnightblue" stroke="midnightblue" points="1059.86,-114.5 1050.08,-118.57 1060.27,-121.48 1059.86,-114.5"/>
</g>
<!-- Node24 -->
<g id="node24" class="node">
<title>Node24</title>
<g id="a_node24"><a xlink:href="MeWifi_8cpp.html" target="_top" xlink:title="Driver for Me wifi device.">
<polygon fill="none" stroke="black" points="1221,-0.5 1221,-19.5 1309,-19.5 1309,-0.5 1221,-0.5"/>
<text text-anchor="middle" x="1265" y="-7.5" font-family="Helvetica,sans-Serif" font-size="10.00">src/MeWifi.cpp</text>
</a>
</g>
</g>
<!-- Node1&#45;&gt;Node24 -->
<g id="edge54" class="edge">
<title>Node1&#45;&gt;Node24</title>
<path fill="none" stroke="midnightblue" d="M1060.51,-118.3C1157.35,-112.85 1353.58,-99.08 1374,-76 1398.02,-48.86 1346.16,-29.76 1306.03,-19.57"/>
<polygon fill="midnightblue" stroke="midnightblue" points="1060.12,-114.81 1050.33,-118.86 1060.51,-121.8 1060.12,-114.81"/>
</g>
<!-- Node25 -->
<g id="node25" class="node">
<title>Node25</title>
<g id="a_node25"><a xlink:href="MeWifi_8h.html" target="_top" xlink:title="Header for for MeWifi.cpp module.">
<polygon fill="none" stroke="black" points="830.5,-56.5 830.5,-75.5 907.5,-75.5 907.5,-56.5 830.5,-56.5"/>
<text text-anchor="middle" x="869" y="-63.5" font-family="Helvetica,sans-Serif" font-size="10.00">src/MeWifi.h</text>
</a>
</g>
</g>
<!-- Node1&#45;&gt;Node25 -->
<g id="edge55" class="edge">
<title>Node1&#45;&gt;Node25</title>
<path fill="none" stroke="midnightblue" d="M975.75,-108.77C949.83,-98.63 913.64,-84.47 890.76,-75.52"/>
<polygon fill="midnightblue" stroke="midnightblue" points="974.55,-112.06 985.13,-112.44 977.1,-105.54 974.55,-112.06"/>
</g>
<!-- Node4&#45;&gt;Node2 -->
<g id="edge4" class="edge">
<title>Node4&#45;&gt;Node2</title>
<path fill="none" stroke="midnightblue" d="M509.05,-55.99C774.2,-29.41 844.22,-49.51 1105,-20 1108.02,-19.66 1111.13,-19.26 1114.26,-18.83"/>
<polygon fill="midnightblue" stroke="midnightblue" points="508.32,-52.55 498.73,-57.04 509.03,-59.51 508.32,-52.55"/>
</g>
<!-- Node4&#45;&gt;Node3 -->
<g id="edge5" class="edge">
<title>Node4&#45;&gt;Node3</title>
<path fill="none" stroke="midnightblue" d="M395.29,-54.35C346.72,-44.14 274.38,-28.94 229.53,-19.52"/>
<polygon fill="midnightblue" stroke="midnightblue" points="394.77,-57.81 405.28,-56.44 396.21,-50.96 394.77,-57.81"/>
</g>
<!-- Node5 -->
<g id="node5" class="node">
<title>Node5</title>
<g id="a_node5"><a xlink:href="MeBluetooth_8cpp.html" target="_top" xlink:title="Driver for Me Bluetooth device.">
<polygon fill="none" stroke="black" points="0,-0.5 0,-19.5 116,-19.5 116,-0.5 0,-0.5"/>
<text text-anchor="middle" x="58" y="-7.5" font-family="Helvetica,sans-Serif" font-size="10.00">src/MeBluetooth.cpp</text>
</a>
</g>
</g>
<!-- Node4&#45;&gt;Node5 -->
<g id="edge6" class="edge">
<title>Node4&#45;&gt;Node5</title>
<path fill="none" stroke="midnightblue" d="M383.19,-56.26C309.43,-45.99 188.07,-29.1 116.32,-19.12"/>
<polygon fill="midnightblue" stroke="midnightblue" points="382.88,-59.75 393.27,-57.66 383.85,-52.82 382.88,-59.75"/>
</g>
<!-- Node4&#45;&gt;Node6 -->
<g id="edge7" class="edge">
<title>Node4&#45;&gt;Node6</title>
<path fill="none" stroke="midnightblue" d="M509,-55.93C669.78,-36.6 712.45,-40.83 869,-20 872.01,-19.6 875.12,-19.16 878.24,-18.69"/>
<polygon fill="midnightblue" stroke="midnightblue" points="508.25,-52.5 498.74,-57.18 509.09,-59.45 508.25,-52.5"/>
</g>
<!-- Node4&#45;&gt;Node7 -->
<g id="edge8" class="edge">
<title>Node4&#45;&gt;Node7</title>
<path fill="none" stroke="midnightblue" d="M493.32,-54.22C538.11,-44.01 604.44,-28.9 645.62,-19.52"/>
<polygon fill="midnightblue" stroke="midnightblue" points="492.53,-50.81 483.55,-56.44 494.08,-57.63 492.53,-50.81"/>
</g>
<!-- Node4&#45;&gt;Node8 -->
<g id="edge9" class="edge">
<title>Node4&#45;&gt;Node8</title>
<path fill="none" stroke="midnightblue" d="M508.77,-55.99C717.04,-33.29 771.82,-41.97 976,-20 979.17,-19.66 982.43,-19.28 985.71,-18.89"/>
<polygon fill="midnightblue" stroke="midnightblue" points="508.29,-52.52 498.73,-57.1 509.06,-59.48 508.29,-52.52"/>
</g>
<!-- Node4&#45;&gt;Node9 -->
<g id="edge10" class="edge">
<title>Node4&#45;&gt;Node9</title>
<path fill="none" stroke="midnightblue" d="M413.84,-52.77C387.17,-42.63 349.93,-28.47 326.4,-19.52"/>
<polygon fill="midnightblue" stroke="midnightblue" points="412.91,-56.16 423.5,-56.44 415.4,-49.62 412.91,-56.16"/>
</g>
<!-- Node4&#45;&gt;Node10 -->
<g id="edge11" class="edge">
<title>Node4&#45;&gt;Node10</title>
<path fill="none" stroke="midnightblue" d="M475.62,-52.5C499.62,-42.38 532.78,-28.39 553.81,-19.52"/>
<polygon fill="midnightblue" stroke="midnightblue" points="474.14,-49.33 466.28,-56.44 476.86,-55.78 474.14,-49.33"/>
</g>
<!-- Node11&#45;&gt;Node2 -->
<g id="edge13" class="edge">
<title>Node11&#45;&gt;Node2</title>
<path fill="none" stroke="midnightblue" d="M665.43,-58.46C800.05,-47.32 1062.61,-25.36 1105,-20 1108.02,-19.62 1111.12,-19.19 1114.25,-18.74"/>
<polygon fill="midnightblue" stroke="midnightblue" points="664.85,-55 655.18,-59.31 665.43,-61.97 664.85,-55"/>
</g>
<!-- Node11&#45;&gt;Node3 -->
<g id="edge14" class="edge">
<title>Node11&#45;&gt;Node3</title>
<path fill="none" stroke="midnightblue" d="M512.04,-55.12C444.55,-46.08 342.05,-32.28 253,-20 250.11,-19.6 247.15,-19.19 244.16,-18.78"/>
<polygon fill="midnightblue" stroke="midnightblue" points="511.77,-58.62 522.15,-56.48 512.7,-51.68 511.77,-58.62"/>
</g>
<!-- Node11&#45;&gt;Node6 -->
<g id="edge16" class="edge">
<title>Node11&#45;&gt;Node6</title>
<path fill="none" stroke="midnightblue" d="M650.29,-54.92C707.66,-45.89 793.96,-32.22 869,-20 872,-19.51 875.1,-19 878.22,-18.49"/>
<polygon fill="midnightblue" stroke="midnightblue" points="649.61,-51.48 640.27,-56.49 650.69,-58.4 649.61,-51.48"/>
</g>
<!-- Node11&#45;&gt;Node7 -->
<g id="edge17" class="edge">
<title>Node11&#45;&gt;Node7</title>
<path fill="none" stroke="midnightblue" d="M610.34,-51.45C628.24,-41.48 652.05,-28.23 667.45,-19.65"/>
<polygon fill="midnightblue" stroke="midnightblue" points="608.62,-48.4 601.58,-56.32 612.02,-54.52 608.62,-48.4"/>
</g>
<!-- Node11&#45;&gt;Node8 -->
<g id="edge18" class="edge">
<title>Node11&#45;&gt;Node8</title>
<path fill="none" stroke="midnightblue" d="M665.44,-56.37C744.29,-47.67 868.58,-33.63 976,-20 979.16,-19.6 982.41,-19.18 985.69,-18.74"/>
<polygon fill="midnightblue" stroke="midnightblue" points="664.65,-52.93 655.1,-57.51 665.42,-59.89 664.65,-52.93"/>
</g>
<!-- Node11&#45;&gt;Node9 -->
<g id="edge19" class="edge">
<title>Node11&#45;&gt;Node9</title>
<path fill="none" stroke="midnightblue" d="M531.21,-54.51C477.08,-44.14 395.44,-28.51 346.17,-19.08"/>
<polygon fill="midnightblue" stroke="midnightblue" points="530.84,-58 541.32,-56.44 532.15,-51.13 530.84,-58"/>
</g>
<!-- Node11&#45;&gt;Node10 -->
<g id="edge20" class="edge">
<title>Node11&#45;&gt;Node10</title>
<path fill="none" stroke="midnightblue" d="M581.8,-46.1C579.81,-37.14 577.52,-26.86 575.94,-19.75"/>
<polygon fill="midnightblue" stroke="midnightblue" points="578.43,-47.08 584.02,-56.08 585.27,-45.56 578.43,-47.08"/>
</g>
<!-- Node12 -->
<g id="node12" class="node">
<title>Node12</title>
<g id="a_node12"><a xlink:href="MeInfraredReceiver_8cpp.html" target="_top" xlink:title="Driver for Me Infrared Receiver device.">
<polygon fill="none" stroke="black" points="363.5,-0.5 363.5,-19.5 512.5,-19.5 512.5,-0.5 363.5,-0.5"/>
<text text-anchor="middle" x="438" y="-7.5" font-family="Helvetica,sans-Serif" font-size="10.00">src/MeInfraredReceiver.cpp</text>
</a>
</g>
</g>
<!-- Node11&#45;&gt;Node12 -->
<g id="edge15" class="edge">
<title>Node11&#45;&gt;Node12</title>
<path fill="none" stroke="midnightblue" d="M552.85,-52.91C525.03,-42.75 485.98,-28.51 461.34,-19.52"/>
<polygon fill="midnightblue" stroke="midnightblue" points="551.96,-56.3 562.55,-56.44 554.35,-49.73 551.96,-56.3"/>
</g>
<!-- Node14&#45;&gt;Node2 -->
<g id="edge27" class="edge">
<title>Node14&#45;&gt;Node2</title>
<path fill="none" stroke="midnightblue" d="M1488.01,-56.79C1418.29,-48.32 1307.51,-34.33 1212,-20 1209.23,-19.58 1206.38,-19.14 1203.51,-18.69"/>
<polygon fill="midnightblue" stroke="midnightblue" points="1487.65,-60.28 1497.99,-58 1488.49,-53.33 1487.65,-60.28"/>
</g>
<!-- Node14&#45;&gt;Node13 -->
<g id="edge28" class="edge">
<title>Node14&#45;&gt;Node13</title>
<path fill="none" stroke="midnightblue" d="M1579.19,-50.9C1594.78,-41 1615.13,-28.07 1628.38,-19.65"/>
<polygon fill="midnightblue" stroke="midnightblue" points="1577.22,-48.01 1570.66,-56.32 1580.97,-53.92 1577.22,-48.01"/>
</g>
<!-- Node16&#45;&gt;Node2 -->
<g id="edge31" class="edge">
<title>Node16&#45;&gt;Node2</title>
<path fill="none" stroke="midnightblue" d="M1068.14,-52.23C1090.4,-42.13 1120.86,-28.31 1140.23,-19.52"/>
<polygon fill="midnightblue" stroke="midnightblue" points="1066.52,-49.12 1058.86,-56.44 1069.41,-55.5 1066.52,-49.12"/>
</g>
<!-- Node16&#45;&gt;Node6 -->
<g id="edge32" class="edge">
<title>Node16&#45;&gt;Node6</title>
<path fill="none" stroke="midnightblue" d="M1012.34,-52.23C990.45,-42.13 960.5,-28.31 941.45,-19.52"/>
<polygon fill="midnightblue" stroke="midnightblue" points="1010.91,-55.43 1021.46,-56.44 1013.85,-49.08 1010.91,-55.43"/>
</g>
<!-- Node16&#45;&gt;Node7 -->
<g id="edge33" class="edge">
<title>Node16&#45;&gt;Node7</title>
<path fill="none" stroke="midnightblue" d="M991.75,-57.95C932.28,-49.23 828.15,-33.83 739,-20 736.08,-19.55 733.08,-19.08 730.05,-18.6"/>
<polygon fill="midnightblue" stroke="midnightblue" points="991.57,-61.46 1001.97,-59.45 992.58,-54.54 991.57,-61.46"/>
</g>
<!-- Node16&#45;&gt;Node8 -->
<g id="edge34" class="edge">
<title>Node16&#45;&gt;Node8</title>
<path fill="none" stroke="midnightblue" d="M1040.36,-45.8C1040.52,-36.91 1040.71,-26.78 1040.84,-19.75"/>
<polygon fill="midnightblue" stroke="midnightblue" points="1036.85,-46.02 1040.17,-56.08 1043.85,-46.15 1036.85,-46.02"/>
</g>
<!-- Node16&#45;&gt;Node15 -->
<g id="edge35" class="edge">
<title>Node16&#45;&gt;Node15</title>
<path fill="none" stroke="midnightblue" d="M1088.07,-55.86C1191.02,-38.12 1218.55,-36.19 1318,-20 1321.04,-19.51 1324.18,-18.99 1327.34,-18.46"/>
<polygon fill="midnightblue" stroke="midnightblue" points="1087.46,-52.42 1078.2,-57.57 1088.65,-59.31 1087.46,-52.42"/>
</g>
<!-- Node19&#45;&gt;Node2 -->
<g id="edge40" class="edge">
<title>Node19&#45;&gt;Node2</title>
<path fill="none" stroke="midnightblue" d="M1155.75,-46.1C1156.58,-37.14 1157.53,-26.86 1158.19,-19.75"/>
<polygon fill="midnightblue" stroke="midnightblue" points="1152.26,-45.8 1154.83,-56.08 1159.23,-46.45 1152.26,-45.8"/>
</g>
<!-- Node19&#45;&gt;Node8 -->
<g id="edge41" class="edge">
<title>Node19&#45;&gt;Node8</title>
<path fill="none" stroke="midnightblue" d="M1127,-52.1C1105.89,-42.01 1077.14,-28.27 1058.82,-19.52"/>
<polygon fill="midnightblue" stroke="midnightblue" points="1125.56,-55.29 1136.09,-56.44 1128.58,-48.97 1125.56,-55.29"/>
</g>
<!-- Node19&#45;&gt;Node18 -->
<g id="edge42" class="edge">
<title>Node19&#45;&gt;Node18</title>
<path fill="none" stroke="midnightblue" d="M1218.26,-54.85C1282.88,-44.65 1381.38,-29.1 1442.06,-19.52"/>
<polygon fill="midnightblue" stroke="midnightblue" points="1217.52,-51.43 1208.19,-56.44 1218.61,-58.34 1217.52,-51.43"/>
</g>
<!-- Node20&#45;&gt;Node2 -->
<g id="edge44" class="edge">
<title>Node20&#45;&gt;Node2</title>
<path fill="none" stroke="midnightblue" d="M822.57,-55.81C948.7,-38.4 982.31,-37.99 1105,-20 1108.01,-19.56 1111.11,-19.09 1114.23,-18.6"/>
<polygon fill="midnightblue" stroke="midnightblue" points="821.94,-52.36 812.52,-57.21 822.9,-59.3 821.94,-52.36"/>
</g>
<!-- Node20&#45;&gt;Node3 -->
<g id="edge45" class="edge">
<title>Node20&#45;&gt;Node3</title>
<path fill="none" stroke="midnightblue" d="M701.21,-59.38C688.89,-58.25 676.03,-57.08 664,-56 481.37,-39.62 435.19,-40.77 253,-20 250.1,-19.67 247.13,-19.31 244.13,-18.94"/>
<polygon fill="midnightblue" stroke="midnightblue" points="701.11,-62.88 711.39,-60.31 701.75,-55.91 701.11,-62.88"/>
</g>
<!-- Node20&#45;&gt;Node6 -->
<g id="edge46" class="edge">
<title>Node20&#45;&gt;Node6</title>
<path fill="none" stroke="midnightblue" d="M797.26,-53.17C827.58,-43 870.57,-28.59 897.61,-19.52"/>
<polygon fill="midnightblue" stroke="midnightblue" points="795.88,-49.95 787.51,-56.44 798.1,-56.58 795.88,-49.95"/>
</g>
<!-- Node20&#45;&gt;Node7 -->
<g id="edge47" class="edge">
<title>Node20&#45;&gt;Node7</title>
<path fill="none" stroke="midnightblue" d="M740.97,-50.62C726.53,-40.76 707.86,-27.99 695.66,-19.65"/>
<polygon fill="midnightblue" stroke="midnightblue" points="739.08,-53.57 749.31,-56.32 743.03,-47.79 739.08,-53.57"/>
</g>
<!-- Node20&#45;&gt;Node8 -->
<g id="edge48" class="edge">
<title>Node20&#45;&gt;Node8</title>
<path fill="none" stroke="midnightblue" d="M816.06,-54.54C868.79,-44.33 948,-29 997,-19.52"/>
<polygon fill="midnightblue" stroke="midnightblue" points="815.36,-51.11 806.21,-56.44 816.69,-57.98 815.36,-51.11"/>
</g>
<!-- Node20&#45;&gt;Node9 -->
<g id="edge49" class="edge">
<title>Node20&#45;&gt;Node9</title>
<path fill="none" stroke="midnightblue" d="M701.08,-58.8C604.23,-48.85 419.41,-29.48 354,-20 351.47,-19.63 348.87,-19.23 346.25,-18.81"/>
<polygon fill="midnightblue" stroke="midnightblue" points="701,-62.31 711.31,-59.85 701.72,-55.34 701,-62.31"/>
</g>
<!-- Node20&#45;&gt;Node10 -->
<g id="edge50" class="edge">
<title>Node20&#45;&gt;Node10</title>
<path fill="none" stroke="midnightblue" d="M722.2,-53.57C686.73,-43.38 635.63,-28.7 603.65,-19.52"/>
<polygon fill="midnightblue" stroke="midnightblue" points="721.63,-57.05 732.21,-56.44 723.57,-50.32 721.63,-57.05"/>
</g>
<!-- Node21 -->
<g id="node21" class="node">
<title>Node21</title>
<g id="a_node21"><a xlink:href="MeUSBHost_8cpp.html" target="_top" xlink:title="Driver for Me USB Host module.">
<polygon fill="none" stroke="black" points="748,-0.5 748,-19.5 860,-19.5 860,-0.5 748,-0.5"/>
<text text-anchor="middle" x="804" y="-7.5" font-family="Helvetica,sans-Serif" font-size="10.00">src/MeUSBHost.cpp</text>
</a>
</g>
</g>
<!-- Node20&#45;&gt;Node21 -->
<g id="edge51" class="edge">
<title>Node20&#45;&gt;Node21</title>
<path fill="none" stroke="midnightblue" d="M775.11,-48.14C782.43,-38.74 791.24,-27.4 797.19,-19.75"/>
<polygon fill="midnightblue" stroke="midnightblue" points="772.31,-46.04 768.94,-56.08 777.84,-50.34 772.31,-46.04"/>
</g>
<!-- Node23 -->
<g id="node23" class="node">
<title>Node23</title>
<g id="a_node23"><a xlink:href="MeVoice_8cpp.html" target="_top" xlink:title="Driver for Me voice device.">
<polygon fill="none" stroke="black" points="1724.5,-0.5 1724.5,-19.5 1819.5,-19.5 1819.5,-0.5 1724.5,-0.5"/>
<text text-anchor="middle" x="1772" y="-7.5" font-family="Helvetica,sans-Serif" font-size="10.00">src/MeVoice.cpp</text>
</a>
</g>
</g>
<!-- Node22&#45;&gt;Node23 -->
<g id="edge53" class="edge">
<title>Node22&#45;&gt;Node23</title>
<path fill="none" stroke="midnightblue" d="M1752.68,-46.98C1757.6,-37.82 1763.36,-27.09 1767.3,-19.75"/>
<polygon fill="midnightblue" stroke="midnightblue" points="1749.44,-45.62 1747.79,-56.08 1755.6,-48.93 1749.44,-45.62"/>
</g>
<!-- Node25&#45;&gt;Node2 -->
<g id="edge56" class="edge">
<title>Node25&#45;&gt;Node2</title>
<path fill="none" stroke="midnightblue" d="M917.68,-55.94C972.51,-45.72 1060.91,-29.26 1114.14,-19.35"/>
<polygon fill="midnightblue" stroke="midnightblue" points="916.7,-52.56 907.51,-57.83 917.98,-59.44 916.7,-52.56"/>
</g>
<!-- Node25&#45;&gt;Node3 -->
<g id="edge57" class="edge">
<title>Node25&#45;&gt;Node3</title>
<path fill="none" stroke="midnightblue" d="M820.1,-56.06C568.25,-25.18 501.33,-45.29 253,-20 250.1,-19.7 247.12,-19.38 244.13,-19.02"/>
<polygon fill="midnightblue" stroke="midnightblue" points="819.94,-59.56 830.29,-57.32 820.8,-52.62 819.94,-59.56"/>
</g>
<!-- Node25&#45;&gt;Node6 -->
<g id="edge58" class="edge">
<title>Node25&#45;&gt;Node6</title>
<path fill="none" stroke="midnightblue" d="M885,-49C894.57,-39.43 906.36,-27.64 914.25,-19.75"/>
<polygon fill="midnightblue" stroke="midnightblue" points="882.51,-46.54 877.92,-56.08 887.46,-51.49 882.51,-46.54"/>
</g>
<!-- Node25&#45;&gt;Node7 -->
<g id="edge59" class="edge">
<title>Node25&#45;&gt;Node7</title>
<path fill="none" stroke="midnightblue" d="M829.62,-53.57C794.53,-43.38 743.98,-28.7 712.33,-19.52"/>
<polygon fill="midnightblue" stroke="midnightblue" points="828.95,-57.02 839.53,-56.44 830.9,-50.29 828.95,-57.02"/>
</g>
<!-- Node25&#45;&gt;Node8 -->
<g id="edge60" class="edge">
<title>Node25&#45;&gt;Node8</title>
<path fill="none" stroke="midnightblue" d="M905.83,-53.44C938.26,-43.26 984.74,-28.66 1013.87,-19.52"/>
<polygon fill="midnightblue" stroke="midnightblue" points="904.75,-50.11 896.25,-56.44 906.84,-56.79 904.75,-50.11"/>
</g>
<!-- Node25&#45;&gt;Node9 -->
<g id="edge61" class="edge">
<title>Node25&#45;&gt;Node9</title>
<path fill="none" stroke="midnightblue" d="M820.29,-56.06C612.89,-29.32 557.25,-46.06 354,-20 351.46,-19.67 348.86,-19.31 346.24,-18.91"/>
<polygon fill="midnightblue" stroke="midnightblue" points="819.92,-59.54 830.29,-57.37 820.82,-52.6 819.92,-59.54"/>
</g>
<!-- Node25&#45;&gt;Node10 -->
<g id="edge62" class="edge">
<title>Node25&#45;&gt;Node10</title>
<path fill="none" stroke="midnightblue" d="M820.59,-55.93C743.36,-41.67 665.59,-27.56 618.18,-18.98"/>
<polygon fill="midnightblue" stroke="midnightblue" points="820.02,-59.39 830.49,-57.76 821.29,-52.5 820.02,-59.39"/>
</g>
<!-- Node25&#45;&gt;Node24 -->
<g id="edge63" class="edge">
<title>Node25&#45;&gt;Node24</title>
<path fill="none" stroke="midnightblue" d="M917.84,-59.18C984.44,-51.11 1107.43,-35.73 1212,-20 1214.86,-19.57 1217.81,-19.11 1220.77,-18.64"/>
<polygon fill="midnightblue" stroke="midnightblue" points="917.15,-55.74 907.65,-60.41 917.99,-62.69 917.15,-55.74"/>
</g>
</g>
</svg>
