<?xml version="1.0" encoding="UTF-8" standalone="no"?>
<!DOCTYPE svg PUBLIC "-//W3C//DTD SVG 1.1//EN"
 "http://www.w3.org/Graphics/SVG/1.1/DTD/svg11.dtd">
<!-- Generated by graphviz version 2.43.0 (0)
 -->
<!-- Title: src/MeShutter.h Pages: 1 -->
<svg width="904pt" height="84pt"
 viewBox="0.00 0.00 903.50 84.00" xmlns="http://www.w3.org/2000/svg" xmlns:xlink="http://www.w3.org/1999/xlink">
<g id="graph0" class="graph" transform="scale(1 1) rotate(0) translate(4 80)">
<title>src/MeShutter.h</title>
<!-- Node1 -->
<g id="node1" class="node">
<title>Node1</title>
<g id="a_node1"><a xlink:title="Header for MeShutter.cpp module.">
<polygon fill="#bfbfbf" stroke="black" points="404.5,-56.5 404.5,-75.5 496.5,-75.5 496.5,-56.5 404.5,-56.5"/>
<text text-anchor="middle" x="450.5" y="-63.5" font-family="Helvetica,sans-Serif" font-size="10.00">src/MeShutter.h</text>
</a>
</g>
</g>
<!-- Node2 -->
<g id="node2" class="node">
<title>Node2</title>
<g id="a_node2"><a xlink:href="MeAuriga_8h.html" target="_top" xlink:title="Driver for MeAuriga board.">
<polygon fill="none" stroke="black" points="0,-0.5 0,-19.5 89,-19.5 89,-0.5 0,-0.5"/>
<text text-anchor="middle" x="44.5" y="-7.5" font-family="Helvetica,sans-Serif" font-size="10.00">src/MeAuriga.h</text>
</a>
</g>
</g>
<!-- Node1&#45;&gt;Node2 -->
<g id="edge1" class="edge">
<title>Node1&#45;&gt;Node2</title>
<path fill="none" stroke="midnightblue" d="M394,-58.45C324.39,-50.22 202.57,-35.32 98.5,-20 95.49,-19.56 92.39,-19.08 89.27,-18.6"/>
<polygon fill="midnightblue" stroke="midnightblue" points="393.96,-61.97 404.3,-59.66 394.78,-55.01 393.96,-61.97"/>
</g>
<!-- Node3 -->
<g id="node3" class="node">
<title>Node3</title>
<g id="a_node3"><a xlink:href="MeBaseBoard_8h.html" target="_top" xlink:title="Driver for BaseBoard.">
<polygon fill="none" stroke="black" points="107.5,-0.5 107.5,-19.5 217.5,-19.5 217.5,-0.5 107.5,-0.5"/>
<text text-anchor="middle" x="162.5" y="-7.5" font-family="Helvetica,sans-Serif" font-size="10.00">src/MeBaseBoard.h</text>
</a>
</g>
</g>
<!-- Node1&#45;&gt;Node3 -->
<g id="edge2" class="edge">
<title>Node1&#45;&gt;Node3</title>
<path fill="none" stroke="midnightblue" d="M394.7,-54.54C340.27,-44.33 258.5,-29 207.92,-19.52"/>
<polygon fill="midnightblue" stroke="midnightblue" points="394.39,-58.04 404.87,-56.44 395.68,-51.16 394.39,-58.04"/>
</g>
<!-- Node4 -->
<g id="node4" class="node">
<title>Node4</title>
<g id="a_node4"><a xlink:href="MeMCore_8h.html" target="_top" xlink:title="Driver for mCore Board.">
<polygon fill="none" stroke="black" points="236,-0.5 236,-19.5 325,-19.5 325,-0.5 236,-0.5"/>
<text text-anchor="middle" x="280.5" y="-7.5" font-family="Helvetica,sans-Serif" font-size="10.00">src/MeMCore.h</text>
</a>
</g>
</g>
<!-- Node1&#45;&gt;Node4 -->
<g id="edge3" class="edge">
<title>Node1&#45;&gt;Node4</title>
<path fill="none" stroke="midnightblue" d="M413.68,-53.3C381.65,-43.13 335.98,-28.62 307.31,-19.52"/>
<polygon fill="midnightblue" stroke="midnightblue" points="412.97,-56.75 423.56,-56.44 415.09,-50.08 412.97,-56.75"/>
</g>
<!-- Node5 -->
<g id="node5" class="node">
<title>Node5</title>
<g id="a_node5"><a xlink:href="MeMegaPi_8h.html" target="_top" xlink:title="Driver for MegaPi board.">
<polygon fill="none" stroke="black" points="343.5,-0.5 343.5,-19.5 437.5,-19.5 437.5,-0.5 343.5,-0.5"/>
<text text-anchor="middle" x="390.5" y="-7.5" font-family="Helvetica,sans-Serif" font-size="10.00">src/MeMegaPi.h</text>
</a>
</g>
</g>
<!-- Node1&#45;&gt;Node5 -->
<g id="edge4" class="edge">
<title>Node1&#45;&gt;Node5</title>
<path fill="none" stroke="midnightblue" d="M433.32,-49.54C422.62,-39.91 409.24,-27.87 400.32,-19.83"/>
<polygon fill="midnightblue" stroke="midnightblue" points="431.09,-52.24 440.86,-56.32 435.77,-47.03 431.09,-52.24"/>
</g>
<!-- Node6 -->
<g id="node6" class="node">
<title>Node6</title>
<g id="a_node6"><a xlink:href="MeMegaPiPro_8h.html" target="_top" xlink:title="Driver for MegaPiPro board.">
<polygon fill="none" stroke="black" points="455.5,-0.5 455.5,-19.5 565.5,-19.5 565.5,-0.5 455.5,-0.5"/>
<text text-anchor="middle" x="510.5" y="-7.5" font-family="Helvetica,sans-Serif" font-size="10.00">src/MeMegaPiPro.h</text>
</a>
</g>
</g>
<!-- Node1&#45;&gt;Node6 -->
<g id="edge5" class="edge">
<title>Node1&#45;&gt;Node6</title>
<path fill="none" stroke="midnightblue" d="M467.68,-49.54C478.38,-39.91 491.76,-27.87 500.68,-19.83"/>
<polygon fill="midnightblue" stroke="midnightblue" points="465.23,-47.03 460.14,-56.32 469.91,-52.24 465.23,-47.03"/>
</g>
<!-- Node7 -->
<g id="node7" class="node">
<title>Node7</title>
<g id="a_node7"><a xlink:href="MeOrion_8h.html" target="_top" xlink:title="Driver for MeOrion board.">
<polygon fill="none" stroke="black" points="583.5,-0.5 583.5,-19.5 667.5,-19.5 667.5,-0.5 583.5,-0.5"/>
<text text-anchor="middle" x="625.5" y="-7.5" font-family="Helvetica,sans-Serif" font-size="10.00">src/MeOrion.h</text>
</a>
</g>
</g>
<!-- Node1&#45;&gt;Node7 -->
<g id="edge6" class="edge">
<title>Node1&#45;&gt;Node7</title>
<path fill="none" stroke="midnightblue" d="M487.97,-53.44C520.97,-43.26 568.26,-28.66 597.9,-19.52"/>
<polygon fill="midnightblue" stroke="midnightblue" points="486.75,-50.15 478.23,-56.44 488.82,-56.84 486.75,-50.15"/>
</g>
<!-- Node8 -->
<g id="node8" class="node">
<title>Node8</title>
<g id="a_node8"><a xlink:href="MeShield_8h.html" target="_top" xlink:title="Driver for Shield Board.">
<polygon fill="none" stroke="black" points="685.5,-0.5 685.5,-19.5 773.5,-19.5 773.5,-0.5 685.5,-0.5"/>
<text text-anchor="middle" x="729.5" y="-7.5" font-family="Helvetica,sans-Serif" font-size="10.00">src/MeShield.h</text>
</a>
</g>
</g>
<!-- Node1&#45;&gt;Node8 -->
<g id="edge7" class="edge">
<title>Node1&#45;&gt;Node8</title>
<path fill="none" stroke="midnightblue" d="M504.56,-54.54C557.29,-44.33 636.5,-29 685.5,-19.52"/>
<polygon fill="midnightblue" stroke="midnightblue" points="503.86,-51.11 494.71,-56.44 505.19,-57.98 503.86,-51.11"/>
</g>
<!-- Node9 -->
<g id="node9" class="node">
<title>Node9</title>
<g id="a_node9"><a xlink:href="MeShutter_8cpp.html" target="_top" xlink:title="Driver for Me Shutter device.">
<polygon fill="none" stroke="black" points="791.5,-0.5 791.5,-19.5 895.5,-19.5 895.5,-0.5 791.5,-0.5"/>
<text text-anchor="middle" x="843.5" y="-7.5" font-family="Helvetica,sans-Serif" font-size="10.00">src/MeShutter.cpp</text>
</a>
</g>
</g>
<!-- Node1&#45;&gt;Node9 -->
<g id="edge8" class="edge">
<title>Node1&#45;&gt;Node9</title>
<path fill="none" stroke="midnightblue" d="M506.91,-57.56C572.99,-48.8 685.74,-33.7 782.5,-20 785.36,-19.59 788.3,-19.18 791.26,-18.75"/>
<polygon fill="midnightblue" stroke="midnightblue" points="506.17,-54.13 496.71,-58.91 507.09,-61.07 506.17,-54.13"/>
</g>
</g>
</svg>
