<?xml version="1.0" encoding="UTF-8" standalone="no"?>
<!DOCTYPE svg PUBLIC "-//W3C//DTD SVG 1.1//EN"
 "http://www.w3.org/Graphics/SVG/1.1/DTD/svg11.dtd">
<!-- Generated by graphviz version 2.43.0 (0)
 -->
<!-- Title: src/MeSmartServo.cpp Pages: 1 -->
<svg width="758pt" height="364pt"
 viewBox="0.00 0.00 758.00 364.00" xmlns="http://www.w3.org/2000/svg" xmlns:xlink="http://www.w3.org/1999/xlink">
<g id="graph0" class="graph" transform="scale(1 1) rotate(0) translate(4 360)">
<title>src/MeSmartServo.cpp</title>
<!-- Node1 -->
<g id="node1" class="node">
<title>Node1</title>
<g id="a_node1"><a xlink:title="Driver for Me Smart Servo device.">
<polygon fill="#bfbfbf" stroke="black" points="530,-336.5 530,-355.5 656,-355.5 656,-336.5 530,-336.5"/>
<text text-anchor="middle" x="593" y="-343.5" font-family="Helvetica,sans-Serif" font-size="10.00">src/MeSmartServo.cpp</text>
</a>
</g>
</g>
<!-- Node2 -->
<g id="node2" class="node">
<title>Node2</title>
<g id="a_node2"><a xlink:href="MeSmartServo_8h.html" target="_top" xlink:title="Header for for MeSmartServo.cpp module.">
<polygon fill="none" stroke="black" points="467,-280.5 467,-299.5 565,-299.5 565,-280.5 467,-280.5"/>
<text text-anchor="middle" x="516" y="-287.5" font-family="Helvetica,sans-Serif" font-size="10.00">MeSmartServo.h</text>
</a>
</g>
</g>
<!-- Node1&#45;&gt;Node2 -->
<g id="edge1" class="edge">
<title>Node1&#45;&gt;Node2</title>
<path fill="none" stroke="midnightblue" d="M580.63,-336.32C568.84,-328.06 550.87,-315.45 536.86,-305.63"/>
<polygon fill="midnightblue" stroke="midnightblue" points="538.54,-302.53 528.34,-299.65 534.52,-308.26 538.54,-302.53"/>
</g>
<!-- Node16 -->
<g id="node16" class="node">
<title>Node16</title>
<g id="a_node16"><a xlink:href="MeSerial_8h.html" target="_top" xlink:title="Header for for MeSerial.cpp module.">
<polygon fill="none" stroke="black" points="544,-224.5 544,-243.5 612,-243.5 612,-224.5 544,-224.5"/>
<text text-anchor="middle" x="578" y="-231.5" font-family="Helvetica,sans-Serif" font-size="10.00">MeSerial.h</text>
</a>
</g>
</g>
<!-- Node1&#45;&gt;Node16 -->
<g id="edge34" class="edge">
<title>Node1&#45;&gt;Node16</title>
<path fill="none" stroke="midnightblue" d="M591.82,-336.37C589.4,-318.62 583.82,-277.67 580.54,-253.6"/>
<polygon fill="midnightblue" stroke="midnightblue" points="583.99,-253.03 579.17,-243.59 577.05,-253.97 583.99,-253.03"/>
</g>
<!-- Node21 -->
<g id="node21" class="node">
<title>Node21</title>
<g id="a_node21"><a xlink:title=" ">
<polygon fill="none" stroke="#bfbfbf" points="621,-280.5 621,-299.5 683,-299.5 683,-280.5 621,-280.5"/>
<text text-anchor="middle" x="652" y="-287.5" font-family="Helvetica,sans-Serif" font-size="10.00">avr/wdt.h</text>
</a>
</g>
</g>
<!-- Node1&#45;&gt;Node21 -->
<g id="edge35" class="edge">
<title>Node1&#45;&gt;Node21</title>
<path fill="none" stroke="midnightblue" d="M602.48,-336.32C611.2,-328.34 624.34,-316.31 634.9,-306.65"/>
<polygon fill="midnightblue" stroke="midnightblue" points="637.33,-309.17 642.35,-299.83 632.61,-304 637.33,-309.17"/>
</g>
<!-- Node3 -->
<g id="node3" class="node">
<title>Node3</title>
<g id="a_node3"><a xlink:title=" ">
<polygon fill="none" stroke="#bfbfbf" points="630.5,-112.5 630.5,-131.5 683.5,-131.5 683.5,-112.5 630.5,-112.5"/>
<text text-anchor="middle" x="657" y="-119.5" font-family="Helvetica,sans-Serif" font-size="10.00">stdint.h</text>
</a>
</g>
</g>
<!-- Node2&#45;&gt;Node3 -->
<g id="edge2" class="edge">
<title>Node2&#45;&gt;Node3</title>
<path fill="none" stroke="midnightblue" d="M556.61,-280.49C578.48,-273.94 604.32,-262.74 621,-244 646.9,-214.91 654.19,-167.9 656.23,-141.87"/>
<polygon fill="midnightblue" stroke="midnightblue" points="659.72,-142.01 656.83,-131.82 652.74,-141.59 659.72,-142.01"/>
</g>
<!-- Node4 -->
<g id="node4" class="node">
<title>Node4</title>
<g id="a_node4"><a xlink:title=" ">
<polygon fill="none" stroke="#bfbfbf" points="413,-168.5 413,-187.5 475,-187.5 475,-168.5 413,-168.5"/>
<text text-anchor="middle" x="444" y="-175.5" font-family="Helvetica,sans-Serif" font-size="10.00">stdbool.h</text>
</a>
</g>
</g>
<!-- Node2&#45;&gt;Node4 -->
<g id="edge3" class="edge">
<title>Node2&#45;&gt;Node4</title>
<path fill="none" stroke="midnightblue" d="M510.35,-280.37C498.47,-262.22 470.71,-219.8 455.12,-195.99"/>
<polygon fill="midnightblue" stroke="midnightblue" points="458.03,-194.04 449.62,-187.59 452.17,-197.88 458.03,-194.04"/>
</g>
<!-- Node5 -->
<g id="node5" class="node">
<title>Node5</title>
<g id="a_node5"><a xlink:title=" ">
<polygon fill="none" stroke="#bfbfbf" points="599.5,-0.5 599.5,-19.5 662.5,-19.5 662.5,-0.5 599.5,-0.5"/>
<text text-anchor="middle" x="631" y="-7.5" font-family="Helvetica,sans-Serif" font-size="10.00">Arduino.h</text>
</a>
</g>
</g>
<!-- Node2&#45;&gt;Node5 -->
<g id="edge4" class="edge">
<title>Node2&#45;&gt;Node5</title>
<path fill="none" stroke="midnightblue" d="M550.53,-280.43C615.62,-263.26 750,-222.54 750,-179 750,-179 750,-179 750,-121 750,-73.3 697.8,-40.53 662.54,-23.84"/>
<polygon fill="midnightblue" stroke="midnightblue" points="663.66,-20.5 653.1,-19.56 660.77,-26.88 663.66,-20.5"/>
</g>
<!-- Node6 -->
<g id="node6" class="node">
<title>Node6</title>
<g id="a_node6"><a xlink:href="MeConfig_8h_source.html" target="_top" xlink:title=" ">
<polygon fill="none" stroke="black" points="200.5,-112.5 200.5,-131.5 271.5,-131.5 271.5,-112.5 200.5,-112.5"/>
<text text-anchor="middle" x="236" y="-119.5" font-family="Helvetica,sans-Serif" font-size="10.00">MeConfig.h</text>
</a>
</g>
</g>
<!-- Node2&#45;&gt;Node6 -->
<g id="edge5" class="edge">
<title>Node2&#45;&gt;Node6</title>
<path fill="none" stroke="midnightblue" d="M501.34,-280.31C455.6,-253.19 315.24,-169.98 259.34,-136.83"/>
<polygon fill="midnightblue" stroke="midnightblue" points="260.9,-133.69 250.51,-131.61 257.33,-139.72 260.9,-133.69"/>
</g>
<!-- Node2&#45;&gt;Node16 -->
<g id="edge20" class="edge">
<title>Node2&#45;&gt;Node16</title>
<path fill="none" stroke="midnightblue" d="M525.96,-280.32C535.13,-272.34 548.94,-260.31 560.03,-250.65"/>
<polygon fill="midnightblue" stroke="midnightblue" points="562.62,-253.04 567.86,-243.83 558.02,-247.76 562.62,-253.04"/>
</g>
<!-- Node17 -->
<g id="node17" class="node">
<title>Node17</title>
<g id="a_node17"><a xlink:href="MePort_8h.html" target="_top" xlink:title="Header for MePort.cpp module.">
<polygon fill="none" stroke="black" points="531,-168.5 531,-187.5 591,-187.5 591,-168.5 531,-168.5"/>
<text text-anchor="middle" x="561" y="-175.5" font-family="Helvetica,sans-Serif" font-size="10.00">MePort.h</text>
</a>
</g>
</g>
<!-- Node2&#45;&gt;Node17 -->
<g id="edge33" class="edge">
<title>Node2&#45;&gt;Node17</title>
<path fill="none" stroke="midnightblue" d="M517.83,-280.36C520.67,-267.69 526.68,-243.46 535,-224 539.08,-214.46 544.74,-204.41 549.74,-196.23"/>
<polygon fill="midnightblue" stroke="midnightblue" points="552.79,-197.96 555.17,-187.64 546.87,-194.22 552.79,-197.96"/>
</g>
<!-- Node7 -->
<g id="node7" class="node">
<title>Node7</title>
<g id="a_node7"><a xlink:href="Servo_8h_source.html" target="_top" xlink:title=" ">
<polygon fill="none" stroke="black" points="244.5,-56.5 244.5,-75.5 329.5,-75.5 329.5,-56.5 244.5,-56.5"/>
<text text-anchor="middle" x="287" y="-63.5" font-family="Helvetica,sans-Serif" font-size="10.00">utility/Servo.h</text>
</a>
</g>
</g>
<!-- Node6&#45;&gt;Node7 -->
<g id="edge6" class="edge">
<title>Node6&#45;&gt;Node7</title>
<path fill="none" stroke="midnightblue" d="M244.42,-112.08C251.85,-104.22 262.85,-92.57 271.81,-83.08"/>
<polygon fill="midnightblue" stroke="midnightblue" points="274.41,-85.42 278.74,-75.75 269.32,-80.62 274.41,-85.42"/>
</g>
<!-- Node9 -->
<g id="node9" class="node">
<title>Node9</title>
<g id="a_node9"><a xlink:href="Wire_8h_source.html" target="_top" xlink:title=" ">
<polygon fill="none" stroke="black" points="0,-56.5 0,-75.5 80,-75.5 80,-56.5 0,-56.5"/>
<text text-anchor="middle" x="40" y="-63.5" font-family="Helvetica,sans-Serif" font-size="10.00">utility/Wire.h</text>
</a>
</g>
</g>
<!-- Node6&#45;&gt;Node9 -->
<g id="edge8" class="edge">
<title>Node6&#45;&gt;Node9</title>
<path fill="none" stroke="midnightblue" d="M204.94,-112.44C171.4,-103.2 117.8,-88.44 80.86,-78.26"/>
<polygon fill="midnightblue" stroke="midnightblue" points="81.48,-74.8 70.91,-75.52 79.62,-81.55 81.48,-74.8"/>
</g>
<!-- Node11 -->
<g id="node11" class="node">
<title>Node11</title>
<g id="a_node11"><a xlink:href="EEPROM_8h_source.html" target="_top" xlink:title=" ">
<polygon fill="none" stroke="black" points="348,-56.5 348,-75.5 446,-75.5 446,-56.5 348,-56.5"/>
<text text-anchor="middle" x="397" y="-63.5" font-family="Helvetica,sans-Serif" font-size="10.00">utility/EEPROM.h</text>
</a>
</g>
</g>
<!-- Node6&#45;&gt;Node11 -->
<g id="edge11" class="edge">
<title>Node6&#45;&gt;Node11</title>
<path fill="none" stroke="midnightblue" d="M261.51,-112.44C288.6,-103.36 331.59,-88.94 361.87,-78.78"/>
<polygon fill="midnightblue" stroke="midnightblue" points="363.24,-82.01 371.61,-75.52 361.01,-75.38 363.24,-82.01"/>
</g>
<!-- Node14 -->
<g id="node14" class="node">
<title>Node14</title>
<g id="a_node14"><a xlink:href="SoftwareSerial_8h_source.html" target="_top" xlink:title=" ">
<polygon fill="none" stroke="black" points="98,-56.5 98,-75.5 226,-75.5 226,-56.5 98,-56.5"/>
<text text-anchor="middle" x="162" y="-63.5" font-family="Helvetica,sans-Serif" font-size="10.00">utility/SoftwareSerial.h</text>
</a>
</g>
</g>
<!-- Node6&#45;&gt;Node14 -->
<g id="edge15" class="edge">
<title>Node6&#45;&gt;Node14</title>
<path fill="none" stroke="midnightblue" d="M224.11,-112.32C212.85,-104.11 195.71,-91.6 182.29,-81.81"/>
<polygon fill="midnightblue" stroke="midnightblue" points="184.25,-78.9 174.11,-75.83 180.12,-84.56 184.25,-78.9"/>
</g>
<!-- Node15 -->
<g id="node15" class="node">
<title>Node15</title>
<g id="a_node15"><a xlink:href="SPI_8h_source.html" target="_top" xlink:title=" ">
<polygon fill="none" stroke="black" points="464,-56.5 464,-75.5 536,-75.5 536,-56.5 464,-56.5"/>
<text text-anchor="middle" x="500" y="-63.5" font-family="Helvetica,sans-Serif" font-size="10.00">utility/SPI.h</text>
</a>
</g>
</g>
<!-- Node6&#45;&gt;Node15 -->
<g id="edge18" class="edge">
<title>Node6&#45;&gt;Node15</title>
<path fill="none" stroke="midnightblue" d="M271.6,-113.72C318.71,-104.08 401.83,-87.08 453.74,-76.46"/>
<polygon fill="midnightblue" stroke="midnightblue" points="454.6,-79.86 463.69,-74.43 453.19,-73 454.6,-79.86"/>
</g>
<!-- Node8 -->
<g id="node8" class="node">
<title>Node8</title>
<g id="a_node8"><a xlink:title=" ">
<polygon fill="none" stroke="#bfbfbf" points="179.5,-0.5 179.5,-19.5 244.5,-19.5 244.5,-0.5 179.5,-0.5"/>
<text text-anchor="middle" x="212" y="-7.5" font-family="Helvetica,sans-Serif" font-size="10.00">inttypes.h</text>
</a>
</g>
</g>
<!-- Node7&#45;&gt;Node8 -->
<g id="edge7" class="edge">
<title>Node7&#45;&gt;Node8</title>
<path fill="none" stroke="midnightblue" d="M274.95,-56.32C263.54,-48.11 246.17,-35.6 232.57,-25.81"/>
<polygon fill="midnightblue" stroke="midnightblue" points="234.43,-22.84 224.27,-19.83 230.34,-28.52 234.43,-22.84"/>
</g>
<!-- Node9&#45;&gt;Node8 -->
<g id="edge9" class="edge">
<title>Node9&#45;&gt;Node8</title>
<path fill="none" stroke="midnightblue" d="M67.25,-56.44C96.44,-47.28 142.92,-32.69 175.31,-22.52"/>
<polygon fill="midnightblue" stroke="midnightblue" points="176.38,-25.85 184.87,-19.52 174.28,-19.17 176.38,-25.85"/>
</g>
<!-- Node10 -->
<g id="node10" class="node">
<title>Node10</title>
<g id="a_node10"><a xlink:title=" ">
<polygon fill="none" stroke="#bfbfbf" points="80.5,-0.5 80.5,-19.5 141.5,-19.5 141.5,-0.5 80.5,-0.5"/>
<text text-anchor="middle" x="111" y="-7.5" font-family="Helvetica,sans-Serif" font-size="10.00">Stream.h</text>
</a>
</g>
</g>
<!-- Node9&#45;&gt;Node10 -->
<g id="edge10" class="edge">
<title>Node9&#45;&gt;Node10</title>
<path fill="none" stroke="midnightblue" d="M51.41,-56.32C62.11,-48.18 78.34,-35.84 91.16,-26.09"/>
<polygon fill="midnightblue" stroke="midnightblue" points="93.54,-28.67 99.39,-19.83 89.31,-23.1 93.54,-28.67"/>
</g>
<!-- Node11&#45;&gt;Node8 -->
<g id="edge12" class="edge">
<title>Node11&#45;&gt;Node8</title>
<path fill="none" stroke="midnightblue" d="M367.69,-56.44C336.16,-47.24 285.87,-32.56 251.01,-22.39"/>
<polygon fill="midnightblue" stroke="midnightblue" points="251.76,-18.96 241.18,-19.52 249.8,-25.68 251.76,-18.96"/>
</g>
<!-- Node12 -->
<g id="node12" class="node">
<title>Node12</title>
<g id="a_node12"><a xlink:title=" ">
<polygon fill="none" stroke="#bfbfbf" points="356,-0.5 356,-19.5 438,-19.5 438,-0.5 356,-0.5"/>
<text text-anchor="middle" x="397" y="-7.5" font-family="Helvetica,sans-Serif" font-size="10.00">avr/eeprom.h</text>
</a>
</g>
</g>
<!-- Node11&#45;&gt;Node12 -->
<g id="edge13" class="edge">
<title>Node11&#45;&gt;Node12</title>
<path fill="none" stroke="midnightblue" d="M397,-56.08C397,-49.01 397,-38.86 397,-29.99"/>
<polygon fill="midnightblue" stroke="midnightblue" points="400.5,-29.75 397,-19.75 393.5,-29.75 400.5,-29.75"/>
</g>
<!-- Node13 -->
<g id="node13" class="node">
<title>Node13</title>
<g id="a_node13"><a xlink:title=" ">
<polygon fill="none" stroke="#bfbfbf" points="507.5,-0.5 507.5,-19.5 560.5,-19.5 560.5,-0.5 507.5,-0.5"/>
<text text-anchor="middle" x="534" y="-7.5" font-family="Helvetica,sans-Serif" font-size="10.00">avr/io.h</text>
</a>
</g>
</g>
<!-- Node11&#45;&gt;Node13 -->
<g id="edge14" class="edge">
<title>Node11&#45;&gt;Node13</title>
<path fill="none" stroke="midnightblue" d="M418.71,-56.44C441.35,-47.52 477.07,-33.44 502.75,-23.32"/>
<polygon fill="midnightblue" stroke="midnightblue" points="504.37,-26.44 512.39,-19.52 501.81,-19.93 504.37,-26.44"/>
</g>
<!-- Node14&#45;&gt;Node8 -->
<g id="edge16" class="edge">
<title>Node14&#45;&gt;Node8</title>
<path fill="none" stroke="midnightblue" d="M170.26,-56.08C177.46,-48.3 188.11,-36.8 196.85,-27.37"/>
<polygon fill="midnightblue" stroke="midnightblue" points="199.67,-29.47 203.9,-19.75 194.53,-24.71 199.67,-29.47"/>
</g>
<!-- Node14&#45;&gt;Node10 -->
<g id="edge17" class="edge">
<title>Node14&#45;&gt;Node10</title>
<path fill="none" stroke="midnightblue" d="M153.58,-56.08C146.15,-48.22 135.15,-36.57 126.19,-27.08"/>
<polygon fill="midnightblue" stroke="midnightblue" points="128.68,-24.62 119.26,-19.75 123.59,-29.42 128.68,-24.62"/>
</g>
<!-- Node15&#45;&gt;Node5 -->
<g id="edge19" class="edge">
<title>Node15&#45;&gt;Node5</title>
<path fill="none" stroke="midnightblue" d="M520.76,-56.44C542.32,-47.56 576.26,-33.56 600.79,-23.45"/>
<polygon fill="midnightblue" stroke="midnightblue" points="602.43,-26.56 610.34,-19.52 599.76,-20.09 602.43,-26.56"/>
</g>
<!-- Node16&#45;&gt;Node3 -->
<g id="edge21" class="edge">
<title>Node16&#45;&gt;Node3</title>
<path fill="none" stroke="midnightblue" d="M584.2,-224.37C597.24,-206.22 627.7,-163.8 644.8,-139.99"/>
<polygon fill="midnightblue" stroke="midnightblue" points="647.84,-141.76 650.83,-131.59 642.15,-137.67 647.84,-141.76"/>
</g>
<!-- Node16&#45;&gt;Node4 -->
<g id="edge22" class="edge">
<title>Node16&#45;&gt;Node4</title>
<path fill="none" stroke="midnightblue" d="M556.77,-224.44C534.62,-215.52 499.68,-201.44 474.56,-191.32"/>
<polygon fill="midnightblue" stroke="midnightblue" points="475.72,-188.01 465.13,-187.52 473.1,-194.5 475.72,-188.01"/>
</g>
<!-- Node16&#45;&gt;Node5 -->
<g id="edge23" class="edge">
<title>Node16&#45;&gt;Node5</title>
<path fill="none" stroke="midnightblue" d="M595.02,-224.37C621.87,-209.66 673.04,-176.92 693,-132 710.22,-93.24 672.72,-49.28 648.83,-26.51"/>
<polygon fill="midnightblue" stroke="midnightblue" points="651.09,-23.83 641.35,-19.64 646.35,-28.99 651.09,-23.83"/>
</g>
<!-- Node16&#45;&gt;Node6 -->
<g id="edge24" class="edge">
<title>Node16&#45;&gt;Node6</title>
<path fill="none" stroke="midnightblue" d="M568.67,-224.46C552.65,-210.29 518.31,-182.11 484,-168 402.16,-134.33 373.04,-147.96 281.78,-132.05"/>
<polygon fill="midnightblue" stroke="midnightblue" points="282.31,-128.59 271.85,-130.24 281.06,-135.47 282.31,-128.59"/>
</g>
<!-- Node16&#45;&gt;Node17 -->
<g id="edge25" class="edge">
<title>Node16&#45;&gt;Node17</title>
<path fill="none" stroke="midnightblue" d="M575.19,-224.08C572.92,-216.85 569.63,-206.41 566.79,-197.4"/>
<polygon fill="midnightblue" stroke="midnightblue" points="570.1,-196.24 563.75,-187.75 563.42,-198.34 570.1,-196.24"/>
</g>
<!-- Node17&#45;&gt;Node3 -->
<g id="edge30" class="edge">
<title>Node17&#45;&gt;Node3</title>
<path fill="none" stroke="midnightblue" d="M576.42,-168.32C591.54,-159.82 614.82,-146.73 632.47,-136.8"/>
<polygon fill="midnightblue" stroke="midnightblue" points="634.61,-139.61 641.61,-131.65 631.18,-133.51 634.61,-139.61"/>
</g>
<!-- Node17&#45;&gt;Node5 -->
<g id="edge26" class="edge">
<title>Node17&#45;&gt;Node5</title>
<path fill="none" stroke="midnightblue" d="M564.76,-168.08C575.83,-141.83 608.42,-64.55 623.36,-29.12"/>
<polygon fill="midnightblue" stroke="midnightblue" points="626.73,-30.14 627.39,-19.57 620.28,-27.42 626.73,-30.14"/>
</g>
<!-- Node17&#45;&gt;Node6 -->
<g id="edge32" class="edge">
<title>Node17&#45;&gt;Node6</title>
<path fill="none" stroke="midnightblue" d="M530.74,-170.6C526.15,-169.69 521.45,-168.79 517,-168 415.71,-149.93 387.2,-150.36 281.92,-132.09"/>
<polygon fill="midnightblue" stroke="midnightblue" points="282.29,-128.6 271.83,-130.32 281.08,-135.49 282.29,-128.6"/>
</g>
<!-- Node17&#45;&gt;Node13 -->
<g id="edge28" class="edge">
<title>Node17&#45;&gt;Node13</title>
<path fill="none" stroke="midnightblue" d="M560.19,-168.44C558.24,-148.58 552.86,-97.86 545,-56 543.35,-47.2 541.05,-37.54 538.98,-29.43"/>
<polygon fill="midnightblue" stroke="midnightblue" points="542.32,-28.35 536.39,-19.57 535.55,-30.13 542.32,-28.35"/>
</g>
<!-- Node18 -->
<g id="node18" class="node">
<title>Node18</title>
<g id="a_node18"><a xlink:title=" ">
<polygon fill="none" stroke="#bfbfbf" points="290,-112.5 290,-131.5 376,-131.5 376,-112.5 290,-112.5"/>
<text text-anchor="middle" x="333" y="-119.5" font-family="Helvetica,sans-Serif" font-size="10.00">avr/interrupt.h</text>
</a>
</g>
</g>
<!-- Node17&#45;&gt;Node18 -->
<g id="edge27" class="edge">
<title>Node17&#45;&gt;Node18</title>
<path fill="none" stroke="midnightblue" d="M530.72,-169.83C491.87,-160.63 424.1,-144.58 378.89,-133.87"/>
<polygon fill="midnightblue" stroke="midnightblue" points="379.58,-130.44 369.05,-131.54 377.97,-137.25 379.58,-130.44"/>
</g>
<!-- Node19 -->
<g id="node19" class="node">
<title>Node19</title>
<g id="a_node19"><a xlink:title=" ">
<polygon fill="none" stroke="#bfbfbf" points="394,-112.5 394,-131.5 464,-131.5 464,-112.5 394,-112.5"/>
<text text-anchor="middle" x="429" y="-119.5" font-family="Helvetica,sans-Serif" font-size="10.00">util/delay.h</text>
</a>
</g>
</g>
<!-- Node17&#45;&gt;Node19 -->
<g id="edge29" class="edge">
<title>Node17&#45;&gt;Node19</title>
<path fill="none" stroke="midnightblue" d="M540.08,-168.44C518.26,-159.52 483.85,-145.44 459.11,-135.32"/>
<polygon fill="midnightblue" stroke="midnightblue" points="460.4,-132.06 449.82,-131.52 457.75,-138.54 460.4,-132.06"/>
</g>
<!-- Node20 -->
<g id="node20" class="node">
<title>Node20</title>
<g id="a_node20"><a xlink:title=" ">
<polygon fill="none" stroke="#bfbfbf" points="482.5,-112.5 482.5,-131.5 535.5,-131.5 535.5,-112.5 482.5,-112.5"/>
<text text-anchor="middle" x="509" y="-119.5" font-family="Helvetica,sans-Serif" font-size="10.00">stdlib.h</text>
</a>
</g>
</g>
<!-- Node17&#45;&gt;Node20 -->
<g id="edge31" class="edge">
<title>Node17&#45;&gt;Node20</title>
<path fill="none" stroke="midnightblue" d="M552.41,-168.08C544.84,-160.22 533.62,-148.57 524.49,-139.08"/>
<polygon fill="midnightblue" stroke="midnightblue" points="526.88,-136.53 517.43,-131.75 521.84,-141.38 526.88,-136.53"/>
</g>
</g>
</svg>
