<?xml version="1.0" encoding="UTF-8" standalone="no"?>
<!DOCTYPE svg PUBLIC "-//W3C//DTD SVG 1.1//EN"
 "http://www.w3.org/Graphics/SVG/1.1/DTD/svg11.dtd">
<!-- Generated by graphviz version 2.43.0 (0)
 -->
<!-- Title: src/MeSmartServo.h Pages: 1 -->
<svg width="860pt" height="308pt"
 viewBox="0.00 0.00 860.00 308.00" xmlns="http://www.w3.org/2000/svg" xmlns:xlink="http://www.w3.org/1999/xlink">
<g id="graph0" class="graph" transform="scale(1 1) rotate(0) translate(4 304)">
<title>src/MeSmartServo.h</title>
<!-- Node1 -->
<g id="node1" class="node">
<title>Node1</title>
<g id="a_node1"><a xlink:title="Header for for MeSmartServo.cpp module.">
<polygon fill="#bfbfbf" stroke="black" points="354.5,-280.5 354.5,-299.5 469.5,-299.5 469.5,-280.5 354.5,-280.5"/>
<text text-anchor="middle" x="412" y="-287.5" font-family="Helvetica,sans-Serif" font-size="10.00">src/MeSmartServo.h</text>
</a>
</g>
</g>
<!-- Node2 -->
<g id="node2" class="node">
<title>Node2</title>
<g id="a_node2"><a xlink:title=" ">
<polygon fill="none" stroke="#bfbfbf" points="406.5,-112.5 406.5,-131.5 459.5,-131.5 459.5,-112.5 406.5,-112.5"/>
<text text-anchor="middle" x="433" y="-119.5" font-family="Helvetica,sans-Serif" font-size="10.00">stdint.h</text>
</a>
</g>
</g>
<!-- Node1&#45;&gt;Node2 -->
<g id="edge1" class="edge">
<title>Node1&#45;&gt;Node2</title>
<path fill="none" stroke="midnightblue" d="M408.91,-280.17C405.95,-271.2 401.68,-256.83 400,-244 395.07,-206.39 412.13,-163.93 423.54,-140.64"/>
<polygon fill="midnightblue" stroke="midnightblue" points="426.71,-142.14 428.14,-131.64 420.47,-138.95 426.71,-142.14"/>
</g>
<!-- Node3 -->
<g id="node3" class="node">
<title>Node3</title>
<g id="a_node3"><a xlink:title=" ">
<polygon fill="none" stroke="#bfbfbf" points="485,-168.5 485,-187.5 547,-187.5 547,-168.5 485,-168.5"/>
<text text-anchor="middle" x="516" y="-175.5" font-family="Helvetica,sans-Serif" font-size="10.00">stdbool.h</text>
</a>
</g>
</g>
<!-- Node1&#45;&gt;Node3 -->
<g id="edge2" class="edge">
<title>Node1&#45;&gt;Node3</title>
<path fill="none" stroke="midnightblue" d="M432.82,-280.44C449.07,-272.88 471.29,-260.49 486,-244 497.88,-230.68 505.87,-211.85 510.6,-197.88"/>
<polygon fill="midnightblue" stroke="midnightblue" points="514.07,-198.51 513.7,-187.92 507.39,-196.43 514.07,-198.51"/>
</g>
<!-- Node4 -->
<g id="node4" class="node">
<title>Node4</title>
<g id="a_node4"><a xlink:title=" ">
<polygon fill="none" stroke="#bfbfbf" points="25.5,-0.5 25.5,-19.5 88.5,-19.5 88.5,-0.5 25.5,-0.5"/>
<text text-anchor="middle" x="57" y="-7.5" font-family="Helvetica,sans-Serif" font-size="10.00">Arduino.h</text>
</a>
</g>
</g>
<!-- Node1&#45;&gt;Node4 -->
<g id="edge3" class="edge">
<title>Node1&#45;&gt;Node4</title>
<path fill="none" stroke="midnightblue" d="M354.28,-285.63C240.89,-277.42 0,-251.46 0,-179 0,-179 0,-179 0,-121 0,-84.3 25.32,-47.66 42.21,-27.3"/>
<polygon fill="midnightblue" stroke="midnightblue" points="44.95,-29.48 48.83,-19.62 39.65,-24.9 44.95,-29.48"/>
</g>
<!-- Node5 -->
<g id="node5" class="node">
<title>Node5</title>
<g id="a_node5"><a xlink:href="MeConfig_8h_source.html" target="_top" xlink:title=" ">
<polygon fill="none" stroke="black" points="503.5,-112.5 503.5,-131.5 574.5,-131.5 574.5,-112.5 503.5,-112.5"/>
<text text-anchor="middle" x="539" y="-119.5" font-family="Helvetica,sans-Serif" font-size="10.00">MeConfig.h</text>
</a>
</g>
</g>
<!-- Node1&#45;&gt;Node5 -->
<g id="edge4" class="edge">
<title>Node1&#45;&gt;Node5</title>
<path fill="none" stroke="midnightblue" d="M439.48,-280.4C475.62,-267.29 536.79,-238.36 556,-188 561.96,-172.37 555.91,-153.85 549.43,-140.58"/>
<polygon fill="midnightblue" stroke="midnightblue" points="552.41,-138.74 544.58,-131.6 546.25,-142.06 552.41,-138.74"/>
</g>
<!-- Node15 -->
<g id="node15" class="node">
<title>Node15</title>
<g id="a_node15"><a xlink:href="MeSerial_8h.html" target="_top" xlink:title="Header for for MeSerial.cpp module.">
<polygon fill="none" stroke="black" points="409,-224.5 409,-243.5 477,-243.5 477,-224.5 409,-224.5"/>
<text text-anchor="middle" x="443" y="-231.5" font-family="Helvetica,sans-Serif" font-size="10.00">MeSerial.h</text>
</a>
</g>
</g>
<!-- Node1&#45;&gt;Node15 -->
<g id="edge19" class="edge">
<title>Node1&#45;&gt;Node15</title>
<path fill="none" stroke="midnightblue" d="M417.12,-280.08C421.41,-272.61 427.66,-261.72 432.94,-252.52"/>
<polygon fill="midnightblue" stroke="midnightblue" points="436.03,-254.17 437.98,-243.75 429.96,-250.68 436.03,-254.17"/>
</g>
<!-- Node16 -->
<g id="node16" class="node">
<title>Node16</title>
<g id="a_node16"><a xlink:href="MePort_8h.html" target="_top" xlink:title="Header for MePort.cpp module.">
<polygon fill="none" stroke="black" points="293,-168.5 293,-187.5 353,-187.5 353,-168.5 293,-168.5"/>
<text text-anchor="middle" x="323" y="-175.5" font-family="Helvetica,sans-Serif" font-size="10.00">MePort.h</text>
</a>
</g>
</g>
<!-- Node1&#45;&gt;Node16 -->
<g id="edge32" class="edge">
<title>Node1&#45;&gt;Node16</title>
<path fill="none" stroke="midnightblue" d="M402.15,-280.18C392.65,-271.45 378.11,-257.46 367,-244 354.43,-228.78 342,-209.97 333.57,-196.51"/>
<polygon fill="midnightblue" stroke="midnightblue" points="336.42,-194.47 328.2,-187.78 330.46,-198.13 336.42,-194.47"/>
</g>
<!-- Node6 -->
<g id="node6" class="node">
<title>Node6</title>
<g id="a_node6"><a xlink:href="Servo_8h_source.html" target="_top" xlink:title=" ">
<polygon fill="none" stroke="black" points="522.5,-56.5 522.5,-75.5 607.5,-75.5 607.5,-56.5 522.5,-56.5"/>
<text text-anchor="middle" x="565" y="-63.5" font-family="Helvetica,sans-Serif" font-size="10.00">utility/Servo.h</text>
</a>
</g>
</g>
<!-- Node5&#45;&gt;Node6 -->
<g id="edge5" class="edge">
<title>Node5&#45;&gt;Node6</title>
<path fill="none" stroke="midnightblue" d="M543.29,-112.08C546.85,-104.69 552.02,-93.95 556.42,-84.81"/>
<polygon fill="midnightblue" stroke="midnightblue" points="559.6,-86.28 560.79,-75.75 553.29,-83.24 559.6,-86.28"/>
</g>
<!-- Node8 -->
<g id="node8" class="node">
<title>Node8</title>
<g id="a_node8"><a xlink:href="Wire_8h_source.html" target="_top" xlink:title=" ">
<polygon fill="none" stroke="black" points="626,-56.5 626,-75.5 706,-75.5 706,-56.5 626,-56.5"/>
<text text-anchor="middle" x="666" y="-63.5" font-family="Helvetica,sans-Serif" font-size="10.00">utility/Wire.h</text>
</a>
</g>
</g>
<!-- Node5&#45;&gt;Node8 -->
<g id="edge7" class="edge">
<title>Node5&#45;&gt;Node8</title>
<path fill="none" stroke="midnightblue" d="M559.12,-112.44C580.02,-103.56 612.93,-89.56 636.72,-79.45"/>
<polygon fill="midnightblue" stroke="midnightblue" points="638.14,-82.65 645.97,-75.52 635.4,-76.21 638.14,-82.65"/>
</g>
<!-- Node10 -->
<g id="node10" class="node">
<title>Node10</title>
<g id="a_node10"><a xlink:href="EEPROM_8h_source.html" target="_top" xlink:title=" ">
<polygon fill="none" stroke="black" points="406,-56.5 406,-75.5 504,-75.5 504,-56.5 406,-56.5"/>
<text text-anchor="middle" x="455" y="-63.5" font-family="Helvetica,sans-Serif" font-size="10.00">utility/EEPROM.h</text>
</a>
</g>
</g>
<!-- Node5&#45;&gt;Node10 -->
<g id="edge10" class="edge">
<title>Node5&#45;&gt;Node10</title>
<path fill="none" stroke="midnightblue" d="M525.5,-112.32C512.4,-103.9 492.29,-90.97 476.89,-81.07"/>
<polygon fill="midnightblue" stroke="midnightblue" points="478.77,-78.12 468.46,-75.65 474.98,-84.01 478.77,-78.12"/>
</g>
<!-- Node13 -->
<g id="node13" class="node">
<title>Node13</title>
<g id="a_node13"><a xlink:href="SoftwareSerial_8h_source.html" target="_top" xlink:title=" ">
<polygon fill="none" stroke="black" points="724,-56.5 724,-75.5 852,-75.5 852,-56.5 724,-56.5"/>
<text text-anchor="middle" x="788" y="-63.5" font-family="Helvetica,sans-Serif" font-size="10.00">utility/SoftwareSerial.h</text>
</a>
</g>
</g>
<!-- Node5&#45;&gt;Node13 -->
<g id="edge14" class="edge">
<title>Node5&#45;&gt;Node13</title>
<path fill="none" stroke="midnightblue" d="M574.68,-113.26C617.74,-103.92 690.38,-88.17 738.76,-77.68"/>
<polygon fill="midnightblue" stroke="midnightblue" points="739.66,-81.06 748.69,-75.52 738.18,-74.22 739.66,-81.06"/>
</g>
<!-- Node14 -->
<g id="node14" class="node">
<title>Node14</title>
<g id="a_node14"><a xlink:href="SPI_8h_source.html" target="_top" xlink:title=" ">
<polygon fill="none" stroke="black" points="191,-56.5 191,-75.5 263,-75.5 263,-56.5 191,-56.5"/>
<text text-anchor="middle" x="227" y="-63.5" font-family="Helvetica,sans-Serif" font-size="10.00">utility/SPI.h</text>
</a>
</g>
</g>
<!-- Node5&#45;&gt;Node14 -->
<g id="edge17" class="edge">
<title>Node5&#45;&gt;Node14</title>
<path fill="none" stroke="midnightblue" d="M503.21,-114.81C446.5,-104.99 336.03,-85.87 273.34,-75.02"/>
<polygon fill="midnightblue" stroke="midnightblue" points="273.78,-71.55 263.33,-73.29 272.59,-78.44 273.78,-71.55"/>
</g>
<!-- Node7 -->
<g id="node7" class="node">
<title>Node7</title>
<g id="a_node7"><a xlink:title=" ">
<polygon fill="none" stroke="#bfbfbf" points="542.5,-0.5 542.5,-19.5 607.5,-19.5 607.5,-0.5 542.5,-0.5"/>
<text text-anchor="middle" x="575" y="-7.5" font-family="Helvetica,sans-Serif" font-size="10.00">inttypes.h</text>
</a>
</g>
</g>
<!-- Node6&#45;&gt;Node7 -->
<g id="edge6" class="edge">
<title>Node6&#45;&gt;Node7</title>
<path fill="none" stroke="midnightblue" d="M566.65,-56.08C567.98,-48.93 569.88,-38.64 571.54,-29.69"/>
<polygon fill="midnightblue" stroke="midnightblue" points="575,-30.22 573.38,-19.75 568.12,-28.95 575,-30.22"/>
</g>
<!-- Node8&#45;&gt;Node7 -->
<g id="edge8" class="edge">
<title>Node8&#45;&gt;Node7</title>
<path fill="none" stroke="midnightblue" d="M651.38,-56.32C637.05,-47.82 614.99,-34.73 598.25,-24.8"/>
<polygon fill="midnightblue" stroke="midnightblue" points="599.97,-21.75 589.58,-19.65 596.4,-27.77 599.97,-21.75"/>
</g>
<!-- Node9 -->
<g id="node9" class="node">
<title>Node9</title>
<g id="a_node9"><a xlink:title=" ">
<polygon fill="none" stroke="#bfbfbf" points="696.5,-0.5 696.5,-19.5 757.5,-19.5 757.5,-0.5 696.5,-0.5"/>
<text text-anchor="middle" x="727" y="-7.5" font-family="Helvetica,sans-Serif" font-size="10.00">Stream.h</text>
</a>
</g>
</g>
<!-- Node8&#45;&gt;Node9 -->
<g id="edge9" class="edge">
<title>Node8&#45;&gt;Node9</title>
<path fill="none" stroke="midnightblue" d="M675.8,-56.32C684.82,-48.34 698.41,-36.31 709.32,-26.65"/>
<polygon fill="midnightblue" stroke="midnightblue" points="711.85,-29.08 717.02,-19.83 707.21,-23.84 711.85,-29.08"/>
</g>
<!-- Node10&#45;&gt;Node7 -->
<g id="edge11" class="edge">
<title>Node10&#45;&gt;Node7</title>
<path fill="none" stroke="midnightblue" d="M474.01,-56.44C493.59,-47.64 524.31,-33.81 546.73,-23.72"/>
<polygon fill="midnightblue" stroke="midnightblue" points="548.39,-26.81 556.07,-19.52 545.52,-20.43 548.39,-26.81"/>
</g>
<!-- Node11 -->
<g id="node11" class="node">
<title>Node11</title>
<g id="a_node11"><a xlink:title=" ">
<polygon fill="none" stroke="#bfbfbf" points="423,-0.5 423,-19.5 505,-19.5 505,-0.5 423,-0.5"/>
<text text-anchor="middle" x="464" y="-7.5" font-family="Helvetica,sans-Serif" font-size="10.00">avr/eeprom.h</text>
</a>
</g>
</g>
<!-- Node10&#45;&gt;Node11 -->
<g id="edge12" class="edge">
<title>Node10&#45;&gt;Node11</title>
<path fill="none" stroke="midnightblue" d="M456.49,-56.08C457.68,-48.93 459.39,-38.64 460.88,-29.69"/>
<polygon fill="midnightblue" stroke="midnightblue" points="464.35,-30.19 462.54,-19.75 457.45,-29.04 464.35,-30.19"/>
</g>
<!-- Node12 -->
<g id="node12" class="node">
<title>Node12</title>
<g id="a_node12"><a xlink:title=" ">
<polygon fill="none" stroke="#bfbfbf" points="351.5,-0.5 351.5,-19.5 404.5,-19.5 404.5,-0.5 351.5,-0.5"/>
<text text-anchor="middle" x="378" y="-7.5" font-family="Helvetica,sans-Serif" font-size="10.00">avr/io.h</text>
</a>
</g>
</g>
<!-- Node10&#45;&gt;Node12 -->
<g id="edge13" class="edge">
<title>Node10&#45;&gt;Node12</title>
<path fill="none" stroke="midnightblue" d="M442.63,-56.32C430.84,-48.06 412.87,-35.45 398.86,-25.63"/>
<polygon fill="midnightblue" stroke="midnightblue" points="400.54,-22.53 390.34,-19.65 396.52,-28.26 400.54,-22.53"/>
</g>
<!-- Node13&#45;&gt;Node7 -->
<g id="edge15" class="edge">
<title>Node13&#45;&gt;Node7</title>
<path fill="none" stroke="midnightblue" d="M754.25,-56.44C717.16,-47.04 657.51,-31.92 617.32,-21.73"/>
<polygon fill="midnightblue" stroke="midnightblue" points="618.1,-18.32 607.54,-19.25 616.38,-25.1 618.1,-18.32"/>
</g>
<!-- Node13&#45;&gt;Node9 -->
<g id="edge16" class="edge">
<title>Node13&#45;&gt;Node9</title>
<path fill="none" stroke="midnightblue" d="M778.2,-56.32C769.18,-48.34 755.59,-36.31 744.68,-26.65"/>
<polygon fill="midnightblue" stroke="midnightblue" points="746.79,-23.84 736.98,-19.83 742.15,-29.08 746.79,-23.84"/>
</g>
<!-- Node14&#45;&gt;Node4 -->
<g id="edge18" class="edge">
<title>Node14&#45;&gt;Node4</title>
<path fill="none" stroke="midnightblue" d="M200.06,-56.44C171.34,-47.32 125.67,-32.81 93.68,-22.65"/>
<polygon fill="midnightblue" stroke="midnightblue" points="94.4,-19.21 83.81,-19.52 92.28,-25.88 94.4,-19.21"/>
</g>
<!-- Node15&#45;&gt;Node2 -->
<g id="edge20" class="edge">
<title>Node15&#45;&gt;Node2</title>
<path fill="none" stroke="midnightblue" d="M442.22,-224.37C440.6,-206.62 436.88,-165.67 434.69,-141.6"/>
<polygon fill="midnightblue" stroke="midnightblue" points="438.17,-141.23 433.78,-131.59 431.2,-141.87 438.17,-141.23"/>
</g>
<!-- Node15&#45;&gt;Node3 -->
<g id="edge21" class="edge">
<title>Node15&#45;&gt;Node3</title>
<path fill="none" stroke="midnightblue" d="M454.73,-224.32C465.84,-216.11 482.74,-203.6 495.98,-193.81"/>
<polygon fill="midnightblue" stroke="midnightblue" points="498.1,-196.59 504.06,-187.83 493.94,-190.97 498.1,-196.59"/>
</g>
<!-- Node15&#45;&gt;Node4 -->
<g id="edge22" class="edge">
<title>Node15&#45;&gt;Node4</title>
<path fill="none" stroke="midnightblue" d="M408.87,-233.61C337.41,-233.01 170.83,-221.43 76,-132 48.12,-105.7 50.08,-56.45 53.68,-29.61"/>
<polygon fill="midnightblue" stroke="midnightblue" points="57.16,-30.03 55.24,-19.6 50.24,-28.94 57.16,-30.03"/>
</g>
<!-- Node15&#45;&gt;Node5 -->
<g id="edge23" class="edge">
<title>Node15&#45;&gt;Node5</title>
<path fill="none" stroke="midnightblue" d="M445.91,-224.22C450.64,-210.95 460.98,-185.47 476,-168 486.72,-155.53 501.58,-144.71 514.17,-136.8"/>
<polygon fill="midnightblue" stroke="midnightblue" points="516.09,-139.73 522.85,-131.58 512.48,-133.73 516.09,-139.73"/>
</g>
<!-- Node15&#45;&gt;Node16 -->
<g id="edge24" class="edge">
<title>Node15&#45;&gt;Node16</title>
<path fill="none" stroke="midnightblue" d="M423.99,-224.44C404.41,-215.64 373.69,-201.81 351.27,-191.72"/>
<polygon fill="midnightblue" stroke="midnightblue" points="352.48,-188.43 341.93,-187.52 349.61,-194.81 352.48,-188.43"/>
</g>
<!-- Node16&#45;&gt;Node2 -->
<g id="edge29" class="edge">
<title>Node16&#45;&gt;Node2</title>
<path fill="none" stroke="midnightblue" d="M340.67,-168.32C358.39,-159.62 385.9,-146.12 406.29,-136.11"/>
<polygon fill="midnightblue" stroke="midnightblue" points="407.94,-139.2 415.37,-131.65 404.85,-132.92 407.94,-139.2"/>
</g>
<!-- Node16&#45;&gt;Node4 -->
<g id="edge25" class="edge">
<title>Node16&#45;&gt;Node4</title>
<path fill="none" stroke="midnightblue" d="M292.78,-174.82C237.67,-170.24 123.85,-157.85 95,-132 65.58,-105.63 58.73,-56.78 57.27,-29.92"/>
<polygon fill="midnightblue" stroke="midnightblue" points="60.75,-29.46 56.92,-19.58 53.76,-29.69 60.75,-29.46"/>
</g>
<!-- Node16&#45;&gt;Node5 -->
<g id="edge31" class="edge">
<title>Node16&#45;&gt;Node5</title>
<path fill="none" stroke="midnightblue" d="M353.03,-169.49C389.95,-160.26 452.89,-144.53 495.2,-133.95"/>
<polygon fill="midnightblue" stroke="midnightblue" points="496.1,-137.33 504.95,-131.51 494.4,-130.54 496.1,-137.33"/>
</g>
<!-- Node16&#45;&gt;Node12 -->
<g id="edge27" class="edge">
<title>Node16&#45;&gt;Node12</title>
<path fill="none" stroke="midnightblue" d="M332.02,-168.24C340.17,-159.76 351.81,-146.15 358,-132 372.88,-97.98 376.77,-54.16 377.74,-29.68"/>
<polygon fill="midnightblue" stroke="midnightblue" points="381.24,-29.71 378.01,-19.62 374.24,-29.52 381.24,-29.71"/>
</g>
<!-- Node17 -->
<g id="node17" class="node">
<title>Node17</title>
<g id="a_node17"><a xlink:title=" ">
<polygon fill="none" stroke="#bfbfbf" points="104,-112.5 104,-131.5 190,-131.5 190,-112.5 104,-112.5"/>
<text text-anchor="middle" x="147" y="-119.5" font-family="Helvetica,sans-Serif" font-size="10.00">avr/interrupt.h</text>
</a>
</g>
</g>
<!-- Node16&#45;&gt;Node17 -->
<g id="edge26" class="edge">
<title>Node16&#45;&gt;Node17</title>
<path fill="none" stroke="midnightblue" d="M295.11,-168.44C265.25,-159.28 217.69,-144.69 184.54,-134.52"/>
<polygon fill="midnightblue" stroke="midnightblue" points="185.34,-131.1 174.76,-131.52 183.29,-137.8 185.34,-131.1"/>
</g>
<!-- Node18 -->
<g id="node18" class="node">
<title>Node18</title>
<g id="a_node18"><a xlink:title=" ">
<polygon fill="none" stroke="#bfbfbf" points="208,-112.5 208,-131.5 278,-131.5 278,-112.5 208,-112.5"/>
<text text-anchor="middle" x="243" y="-119.5" font-family="Helvetica,sans-Serif" font-size="10.00">util/delay.h</text>
</a>
</g>
</g>
<!-- Node16&#45;&gt;Node18 -->
<g id="edge28" class="edge">
<title>Node16&#45;&gt;Node18</title>
<path fill="none" stroke="midnightblue" d="M310.15,-168.32C297.78,-159.98 278.87,-147.21 264.26,-137.35"/>
<polygon fill="midnightblue" stroke="midnightblue" points="266.07,-134.35 255.82,-131.65 262.15,-140.15 266.07,-134.35"/>
</g>
<!-- Node19 -->
<g id="node19" class="node">
<title>Node19</title>
<g id="a_node19"><a xlink:title=" ">
<polygon fill="none" stroke="#bfbfbf" points="296.5,-112.5 296.5,-131.5 349.5,-131.5 349.5,-112.5 296.5,-112.5"/>
<text text-anchor="middle" x="323" y="-119.5" font-family="Helvetica,sans-Serif" font-size="10.00">stdlib.h</text>
</a>
</g>
</g>
<!-- Node16&#45;&gt;Node19 -->
<g id="edge30" class="edge">
<title>Node16&#45;&gt;Node19</title>
<path fill="none" stroke="midnightblue" d="M323,-168.08C323,-161.01 323,-150.86 323,-141.99"/>
<polygon fill="midnightblue" stroke="midnightblue" points="326.5,-141.75 323,-131.75 319.5,-141.75 326.5,-141.75"/>
</g>
</g>
</svg>
