<?xml version="1.0" encoding="UTF-8" standalone="no"?>
<!DOCTYPE svg PUBLIC "-//W3C//DTD SVG 1.1//EN"
 "http://www.w3.org/Graphics/SVG/1.1/DTD/svg11.dtd">
<!-- Generated by graphviz version 2.43.0 (0)
 -->
<!-- Title: src/MeSmartServo.h Pages: 1 -->
<svg width="370pt" height="84pt"
 viewBox="0.00 0.00 369.50 84.00" xmlns="http://www.w3.org/2000/svg" xmlns:xlink="http://www.w3.org/1999/xlink">
<g id="graph0" class="graph" transform="scale(1 1) rotate(0) translate(4 80)">
<title>src/MeSmartServo.h</title>
<!-- Node1 -->
<g id="node1" class="node">
<title>Node1</title>
<g id="a_node1"><a xlink:title="Header for for MeSmartServo.cpp module.">
<polygon fill="#bfbfbf" stroke="black" points="105,-56.5 105,-75.5 220,-75.5 220,-56.5 105,-56.5"/>
<text text-anchor="middle" x="162.5" y="-63.5" font-family="Helvetica,sans-Serif" font-size="10.00">src/MeSmartServo.h</text>
</a>
</g>
</g>
<!-- Node2 -->
<g id="node2" class="node">
<title>Node2</title>
<g id="a_node2"><a xlink:href="MeAuriga_8h.html" target="_top" xlink:title="Driver for MeAuriga board.">
<polygon fill="none" stroke="black" points="0,-0.5 0,-19.5 89,-19.5 89,-0.5 0,-0.5"/>
<text text-anchor="middle" x="44.5" y="-7.5" font-family="Helvetica,sans-Serif" font-size="10.00">src/MeAuriga.h</text>
</a>
</g>
</g>
<!-- Node1&#45;&gt;Node2 -->
<g id="edge1" class="edge">
<title>Node1&#45;&gt;Node2</title>
<path fill="none" stroke="midnightblue" d="M134.6,-52.23C112.53,-42.13 82.32,-28.31 63.11,-19.52"/>
<polygon fill="midnightblue" stroke="midnightblue" points="133.25,-55.46 143.8,-56.44 136.17,-49.1 133.25,-55.46"/>
</g>
<!-- Node3 -->
<g id="node3" class="node">
<title>Node3</title>
<g id="a_node3"><a xlink:href="MeMegaPiPro_8h.html" target="_top" xlink:title="Driver for MegaPiPro board.">
<polygon fill="none" stroke="black" points="107.5,-0.5 107.5,-19.5 217.5,-19.5 217.5,-0.5 107.5,-0.5"/>
<text text-anchor="middle" x="162.5" y="-7.5" font-family="Helvetica,sans-Serif" font-size="10.00">src/MeMegaPiPro.h</text>
</a>
</g>
</g>
<!-- Node1&#45;&gt;Node3 -->
<g id="edge2" class="edge">
<title>Node1&#45;&gt;Node3</title>
<path fill="none" stroke="midnightblue" d="M162.5,-45.8C162.5,-36.91 162.5,-26.78 162.5,-19.75"/>
<polygon fill="midnightblue" stroke="midnightblue" points="159,-46.08 162.5,-56.08 166,-46.08 159,-46.08"/>
</g>
<!-- Node4 -->
<g id="node4" class="node">
<title>Node4</title>
<g id="a_node4"><a xlink:href="MeSmartServo_8cpp.html" target="_top" xlink:title="Driver for Me Smart Servo device.">
<polygon fill="none" stroke="black" points="235.5,-0.5 235.5,-19.5 361.5,-19.5 361.5,-0.5 235.5,-0.5"/>
<text text-anchor="middle" x="298.5" y="-7.5" font-family="Helvetica,sans-Serif" font-size="10.00">src/MeSmartServo.cpp</text>
</a>
</g>
</g>
<!-- Node1&#45;&gt;Node4 -->
<g id="edge3" class="edge">
<title>Node1&#45;&gt;Node4</title>
<path fill="none" stroke="midnightblue" d="M193.63,-52.64C219.16,-42.5 254.61,-28.43 277.05,-19.52"/>
<polygon fill="midnightblue" stroke="midnightblue" points="192.05,-49.5 184.05,-56.44 194.64,-56.01 192.05,-49.5"/>
</g>
</g>
</svg>
