<?xml version="1.0" encoding="UTF-8" standalone="no"?>
<!DOCTYPE svg PUBLIC "-//W3C//DTD SVG 1.1//EN"
 "http://www.w3.org/Graphics/SVG/1.1/DTD/svg11.dtd">
<!-- Generated by graphviz version 2.43.0 (0)
 -->
<!-- Title: src/MeStepper.cpp Pages: 1 -->
<svg width="851pt" height="308pt"
 viewBox="0.00 0.00 851.00 308.00" xmlns="http://www.w3.org/2000/svg" xmlns:xlink="http://www.w3.org/1999/xlink">
<g id="graph0" class="graph" transform="scale(1 1) rotate(0) translate(4 304)">
<title>src/MeStepper.cpp</title>
<!-- Node1 -->
<g id="node1" class="node">
<title>Node1</title>
<g id="a_node1"><a xlink:title="Driver for Stepper device.">
<polygon fill="#bfbfbf" stroke="black" points="643,-280.5 643,-299.5 749,-299.5 749,-280.5 643,-280.5"/>
<text text-anchor="middle" x="696" y="-287.5" font-family="Helvetica,sans-Serif" font-size="10.00">src/MeStepper.cpp</text>
</a>
</g>
</g>
<!-- Node2 -->
<g id="node2" class="node">
<title>Node2</title>
<g id="a_node2"><a xlink:href="MeStepper_8h.html" target="_top" xlink:title="Header for MeStepper.cpp module.">
<polygon fill="none" stroke="black" points="657.5,-224.5 657.5,-243.5 734.5,-243.5 734.5,-224.5 657.5,-224.5"/>
<text text-anchor="middle" x="696" y="-231.5" font-family="Helvetica,sans-Serif" font-size="10.00">MeStepper.h</text>
</a>
</g>
</g>
<!-- Node1&#45;&gt;Node2 -->
<g id="edge1" class="edge">
<title>Node1&#45;&gt;Node2</title>
<path fill="none" stroke="midnightblue" d="M696,-280.08C696,-273.01 696,-262.86 696,-253.99"/>
<polygon fill="midnightblue" stroke="midnightblue" points="699.5,-253.75 696,-243.75 692.5,-253.75 699.5,-253.75"/>
</g>
<!-- Node3 -->
<g id="node3" class="node">
<title>Node3</title>
<g id="a_node3"><a xlink:href="MePort_8h.html" target="_top" xlink:title="Header for MePort.cpp module.">
<polygon fill="none" stroke="black" points="417,-168.5 417,-187.5 477,-187.5 477,-168.5 417,-168.5"/>
<text text-anchor="middle" x="447" y="-175.5" font-family="Helvetica,sans-Serif" font-size="10.00">MePort.h</text>
</a>
</g>
</g>
<!-- Node2&#45;&gt;Node3 -->
<g id="edge2" class="edge">
<title>Node2&#45;&gt;Node3</title>
<path fill="none" stroke="midnightblue" d="M657.37,-224.62C611.04,-214.58 533.8,-197.82 486.91,-187.66"/>
<polygon fill="midnightblue" stroke="midnightblue" points="487.62,-184.23 477.11,-185.53 486.14,-191.07 487.62,-184.23"/>
</g>
<!-- Node9 -->
<g id="node9" class="node">
<title>Node9</title>
<g id="a_node9"><a xlink:title=" ">
<polygon fill="none" stroke="#bfbfbf" points="734.5,-112.5 734.5,-131.5 787.5,-131.5 787.5,-112.5 734.5,-112.5"/>
<text text-anchor="middle" x="761" y="-119.5" font-family="Helvetica,sans-Serif" font-size="10.00">stdlib.h</text>
</a>
</g>
</g>
<!-- Node2&#45;&gt;Node9 -->
<g id="edge25" class="edge">
<title>Node2&#45;&gt;Node9</title>
<path fill="none" stroke="midnightblue" d="M690.74,-224.39C683.51,-211.34 672.52,-186.14 683,-168 692.07,-152.3 708.92,-141.6 724.64,-134.58"/>
<polygon fill="midnightblue" stroke="midnightblue" points="726.28,-137.69 734.21,-130.67 723.63,-131.21 726.28,-137.69"/>
</g>
<!-- Node19 -->
<g id="node19" class="node">
<title>Node19</title>
<g id="a_node19"><a xlink:title=" ">
<polygon fill="none" stroke="#bfbfbf" points="691.5,-168.5 691.5,-187.5 768.5,-187.5 768.5,-168.5 691.5,-168.5"/>
<text text-anchor="middle" x="730" y="-175.5" font-family="Helvetica,sans-Serif" font-size="10.00">WProgram.h</text>
</a>
</g>
</g>
<!-- Node2&#45;&gt;Node19 -->
<g id="edge24" class="edge">
<title>Node2&#45;&gt;Node19</title>
<path fill="none" stroke="midnightblue" d="M701.61,-224.08C706.37,-216.53 713.32,-205.49 719.15,-196.23"/>
<polygon fill="midnightblue" stroke="midnightblue" points="722.12,-198.08 724.49,-187.75 716.2,-194.35 722.12,-198.08"/>
</g>
<!-- Node20 -->
<g id="node20" class="node">
<title>Node20</title>
<g id="a_node20"><a xlink:title=" ">
<polygon fill="none" stroke="#bfbfbf" points="787,-168.5 787,-187.5 843,-187.5 843,-168.5 787,-168.5"/>
<text text-anchor="middle" x="815" y="-175.5" font-family="Helvetica,sans-Serif" font-size="10.00">wiring.h</text>
</a>
</g>
</g>
<!-- Node2&#45;&gt;Node20 -->
<g id="edge26" class="edge">
<title>Node2&#45;&gt;Node20</title>
<path fill="none" stroke="midnightblue" d="M714.86,-224.44C734.27,-215.64 764.73,-201.81 786.96,-191.72"/>
<polygon fill="midnightblue" stroke="midnightblue" points="788.57,-194.84 796.23,-187.52 785.68,-188.46 788.57,-194.84"/>
</g>
<!-- Node4 -->
<g id="node4" class="node">
<title>Node4</title>
<g id="a_node4"><a xlink:title=" ">
<polygon fill="none" stroke="#bfbfbf" points="642.5,-0.5 642.5,-19.5 705.5,-19.5 705.5,-0.5 642.5,-0.5"/>
<text text-anchor="middle" x="674" y="-7.5" font-family="Helvetica,sans-Serif" font-size="10.00">Arduino.h</text>
</a>
</g>
</g>
<!-- Node3&#45;&gt;Node4 -->
<g id="edge3" class="edge">
<title>Node3&#45;&gt;Node4</title>
<path fill="none" stroke="midnightblue" d="M477.16,-174.59C530.3,-168.53 639.48,-147.55 687,-76 696.32,-61.96 690.73,-42.71 684.23,-28.81"/>
<polygon fill="midnightblue" stroke="midnightblue" points="687.25,-27.04 679.54,-19.78 681.04,-30.27 687.25,-27.04"/>
</g>
<!-- Node5 -->
<g id="node5" class="node">
<title>Node5</title>
<g id="a_node5"><a xlink:title=" ">
<polygon fill="none" stroke="#bfbfbf" points="0,-112.5 0,-131.5 86,-131.5 86,-112.5 0,-112.5"/>
<text text-anchor="middle" x="43" y="-119.5" font-family="Helvetica,sans-Serif" font-size="10.00">avr/interrupt.h</text>
</a>
</g>
</g>
<!-- Node3&#45;&gt;Node5 -->
<g id="edge4" class="edge">
<title>Node3&#45;&gt;Node5</title>
<path fill="none" stroke="midnightblue" d="M416.79,-173.37C356.5,-166.05 216.95,-148.81 100,-132 98.74,-131.82 97.47,-131.63 96.19,-131.45"/>
<polygon fill="midnightblue" stroke="midnightblue" points="96.65,-127.98 86.24,-129.96 95.61,-134.9 96.65,-127.98"/>
</g>
<!-- Node6 -->
<g id="node6" class="node">
<title>Node6</title>
<g id="a_node6"><a xlink:title=" ">
<polygon fill="none" stroke="#bfbfbf" points="87.5,-0.5 87.5,-19.5 140.5,-19.5 140.5,-0.5 87.5,-0.5"/>
<text text-anchor="middle" x="114" y="-7.5" font-family="Helvetica,sans-Serif" font-size="10.00">avr/io.h</text>
</a>
</g>
</g>
<!-- Node3&#45;&gt;Node6 -->
<g id="edge5" class="edge">
<title>Node3&#45;&gt;Node6</title>
<path fill="none" stroke="midnightblue" d="M416.89,-176.54C354.35,-173.89 209.81,-158.62 133,-76 121.38,-63.5 116.83,-44.27 115.07,-29.97"/>
<polygon fill="midnightblue" stroke="midnightblue" points="118.53,-29.43 114.17,-19.77 111.56,-30.04 118.53,-29.43"/>
</g>
<!-- Node7 -->
<g id="node7" class="node">
<title>Node7</title>
<g id="a_node7"><a xlink:title=" ">
<polygon fill="none" stroke="#bfbfbf" points="292,-112.5 292,-131.5 362,-131.5 362,-112.5 292,-112.5"/>
<text text-anchor="middle" x="327" y="-119.5" font-family="Helvetica,sans-Serif" font-size="10.00">util/delay.h</text>
</a>
</g>
</g>
<!-- Node3&#45;&gt;Node7 -->
<g id="edge6" class="edge">
<title>Node3&#45;&gt;Node7</title>
<path fill="none" stroke="midnightblue" d="M427.99,-168.44C408.41,-159.64 377.69,-145.81 355.27,-135.72"/>
<polygon fill="midnightblue" stroke="midnightblue" points="356.48,-132.43 345.93,-131.52 353.61,-138.81 356.48,-132.43"/>
</g>
<!-- Node8 -->
<g id="node8" class="node">
<title>Node8</title>
<g id="a_node8"><a xlink:title=" ">
<polygon fill="none" stroke="#bfbfbf" points="380.5,-112.5 380.5,-131.5 433.5,-131.5 433.5,-112.5 380.5,-112.5"/>
<text text-anchor="middle" x="407" y="-119.5" font-family="Helvetica,sans-Serif" font-size="10.00">stdint.h</text>
</a>
</g>
</g>
<!-- Node3&#45;&gt;Node8 -->
<g id="edge7" class="edge">
<title>Node3&#45;&gt;Node8</title>
<path fill="none" stroke="midnightblue" d="M440.39,-168.08C434.74,-160.46 426.46,-149.26 419.55,-139.94"/>
<polygon fill="midnightblue" stroke="midnightblue" points="422.25,-137.7 413.48,-131.75 416.62,-141.87 422.25,-137.7"/>
</g>
<!-- Node3&#45;&gt;Node9 -->
<g id="edge8" class="edge">
<title>Node3&#45;&gt;Node9</title>
<path fill="none" stroke="midnightblue" d="M477.39,-172.53C527.9,-164.97 632.26,-148.85 720,-132 721.29,-131.75 722.6,-131.5 723.92,-131.23"/>
<polygon fill="midnightblue" stroke="midnightblue" points="725.06,-134.57 734.14,-129.11 723.63,-127.72 725.06,-134.57"/>
</g>
<!-- Node10 -->
<g id="node10" class="node">
<title>Node10</title>
<g id="a_node10"><a xlink:href="MeConfig_8h_source.html" target="_top" xlink:title=" ">
<polygon fill="none" stroke="black" points="451.5,-112.5 451.5,-131.5 522.5,-131.5 522.5,-112.5 451.5,-112.5"/>
<text text-anchor="middle" x="487" y="-119.5" font-family="Helvetica,sans-Serif" font-size="10.00">MeConfig.h</text>
</a>
</g>
</g>
<!-- Node3&#45;&gt;Node10 -->
<g id="edge9" class="edge">
<title>Node3&#45;&gt;Node10</title>
<path fill="none" stroke="midnightblue" d="M453.61,-168.08C459.26,-160.46 467.54,-149.26 474.45,-139.94"/>
<polygon fill="midnightblue" stroke="midnightblue" points="477.38,-141.87 480.52,-131.75 471.75,-137.7 477.38,-141.87"/>
</g>
<!-- Node11 -->
<g id="node11" class="node">
<title>Node11</title>
<g id="a_node11"><a xlink:href="Servo_8h_source.html" target="_top" xlink:title=" ">
<polygon fill="none" stroke="black" points="258.5,-56.5 258.5,-75.5 343.5,-75.5 343.5,-56.5 258.5,-56.5"/>
<text text-anchor="middle" x="301" y="-63.5" font-family="Helvetica,sans-Serif" font-size="10.00">utility/Servo.h</text>
</a>
</g>
</g>
<!-- Node10&#45;&gt;Node11 -->
<g id="edge10" class="edge">
<title>Node10&#45;&gt;Node11</title>
<path fill="none" stroke="midnightblue" d="M457.53,-112.44C425.83,-103.24 375.27,-88.56 340.23,-78.39"/>
<polygon fill="midnightblue" stroke="midnightblue" points="340.91,-74.94 330.33,-75.52 338.96,-81.67 340.91,-74.94"/>
</g>
<!-- Node13 -->
<g id="node13" class="node">
<title>Node13</title>
<g id="a_node13"><a xlink:href="Wire_8h_source.html" target="_top" xlink:title=" ">
<polygon fill="none" stroke="black" points="508,-56.5 508,-75.5 588,-75.5 588,-56.5 508,-56.5"/>
<text text-anchor="middle" x="548" y="-63.5" font-family="Helvetica,sans-Serif" font-size="10.00">utility/Wire.h</text>
</a>
</g>
</g>
<!-- Node10&#45;&gt;Node13 -->
<g id="edge12" class="edge">
<title>Node10&#45;&gt;Node13</title>
<path fill="none" stroke="midnightblue" d="M496.8,-112.32C505.82,-104.34 519.41,-92.31 530.32,-82.65"/>
<polygon fill="midnightblue" stroke="midnightblue" points="532.85,-85.08 538.02,-75.83 528.21,-79.84 532.85,-85.08"/>
</g>
<!-- Node15 -->
<g id="node15" class="node">
<title>Node15</title>
<g id="a_node15"><a xlink:href="EEPROM_8h_source.html" target="_top" xlink:title=" ">
<polygon fill="none" stroke="black" points="142,-56.5 142,-75.5 240,-75.5 240,-56.5 142,-56.5"/>
<text text-anchor="middle" x="191" y="-63.5" font-family="Helvetica,sans-Serif" font-size="10.00">utility/EEPROM.h</text>
</a>
</g>
</g>
<!-- Node10&#45;&gt;Node15 -->
<g id="edge15" class="edge">
<title>Node10&#45;&gt;Node15</title>
<path fill="none" stroke="midnightblue" d="M451.15,-113.76C448.06,-113.16 444.97,-112.56 442,-112 376.48,-99.58 301.17,-86.19 250.27,-77.28"/>
<polygon fill="midnightblue" stroke="midnightblue" points="250.56,-73.78 240.11,-75.51 249.36,-80.68 250.56,-73.78"/>
</g>
<!-- Node17 -->
<g id="node17" class="node">
<title>Node17</title>
<g id="a_node17"><a xlink:href="SoftwareSerial_8h_source.html" target="_top" xlink:title=" ">
<polygon fill="none" stroke="black" points="362,-56.5 362,-75.5 490,-75.5 490,-56.5 362,-56.5"/>
<text text-anchor="middle" x="426" y="-63.5" font-family="Helvetica,sans-Serif" font-size="10.00">utility/SoftwareSerial.h</text>
</a>
</g>
</g>
<!-- Node10&#45;&gt;Node17 -->
<g id="edge19" class="edge">
<title>Node10&#45;&gt;Node17</title>
<path fill="none" stroke="midnightblue" d="M477.2,-112.32C468.18,-104.34 454.59,-92.31 443.68,-82.65"/>
<polygon fill="midnightblue" stroke="midnightblue" points="445.79,-79.84 435.98,-75.83 441.15,-85.08 445.79,-79.84"/>
</g>
<!-- Node18 -->
<g id="node18" class="node">
<title>Node18</title>
<g id="a_node18"><a xlink:href="SPI_8h_source.html" target="_top" xlink:title=" ">
<polygon fill="none" stroke="black" points="606,-56.5 606,-75.5 678,-75.5 678,-56.5 606,-56.5"/>
<text text-anchor="middle" x="642" y="-63.5" font-family="Helvetica,sans-Serif" font-size="10.00">utility/SPI.h</text>
</a>
</g>
</g>
<!-- Node10&#45;&gt;Node18 -->
<g id="edge22" class="edge">
<title>Node10&#45;&gt;Node18</title>
<path fill="none" stroke="midnightblue" d="M511.56,-112.44C537.52,-103.4 578.67,-89.06 607.8,-78.92"/>
<polygon fill="midnightblue" stroke="midnightblue" points="609.26,-82.11 617.55,-75.52 606.96,-75.5 609.26,-82.11"/>
</g>
<!-- Node12 -->
<g id="node12" class="node">
<title>Node12</title>
<g id="a_node12"><a xlink:title=" ">
<polygon fill="none" stroke="#bfbfbf" points="290.5,-0.5 290.5,-19.5 355.5,-19.5 355.5,-0.5 290.5,-0.5"/>
<text text-anchor="middle" x="323" y="-7.5" font-family="Helvetica,sans-Serif" font-size="10.00">inttypes.h</text>
</a>
</g>
</g>
<!-- Node11&#45;&gt;Node12 -->
<g id="edge11" class="edge">
<title>Node11&#45;&gt;Node12</title>
<path fill="none" stroke="midnightblue" d="M304.63,-56.08C307.61,-48.77 311.93,-38.18 315.62,-29.1"/>
<polygon fill="midnightblue" stroke="midnightblue" points="318.9,-30.33 319.43,-19.75 312.42,-27.69 318.9,-30.33"/>
</g>
<!-- Node13&#45;&gt;Node12 -->
<g id="edge13" class="edge">
<title>Node13&#45;&gt;Node12</title>
<path fill="none" stroke="midnightblue" d="M512.35,-56.44C472.43,-46.86 407.77,-31.35 365.32,-21.16"/>
<polygon fill="midnightblue" stroke="midnightblue" points="366.1,-17.75 355.56,-18.82 364.47,-24.55 366.1,-17.75"/>
</g>
<!-- Node14 -->
<g id="node14" class="node">
<title>Node14</title>
<g id="a_node14"><a xlink:title=" ">
<polygon fill="none" stroke="#bfbfbf" points="456.5,-0.5 456.5,-19.5 517.5,-19.5 517.5,-0.5 456.5,-0.5"/>
<text text-anchor="middle" x="487" y="-7.5" font-family="Helvetica,sans-Serif" font-size="10.00">Stream.h</text>
</a>
</g>
</g>
<!-- Node13&#45;&gt;Node14 -->
<g id="edge14" class="edge">
<title>Node13&#45;&gt;Node14</title>
<path fill="none" stroke="midnightblue" d="M538.2,-56.32C529.18,-48.34 515.59,-36.31 504.68,-26.65"/>
<polygon fill="midnightblue" stroke="midnightblue" points="506.79,-23.84 496.98,-19.83 502.15,-29.08 506.79,-23.84"/>
</g>
<!-- Node15&#45;&gt;Node6 -->
<g id="edge18" class="edge">
<title>Node15&#45;&gt;Node6</title>
<path fill="none" stroke="midnightblue" d="M178.63,-56.32C166.84,-48.06 148.87,-35.45 134.86,-25.63"/>
<polygon fill="midnightblue" stroke="midnightblue" points="136.54,-22.53 126.34,-19.65 132.52,-28.26 136.54,-22.53"/>
</g>
<!-- Node15&#45;&gt;Node12 -->
<g id="edge16" class="edge">
<title>Node15&#45;&gt;Node12</title>
<path fill="none" stroke="midnightblue" d="M211.92,-56.44C233.74,-47.52 268.15,-33.44 292.89,-23.32"/>
<polygon fill="midnightblue" stroke="midnightblue" points="294.25,-26.54 302.18,-19.52 291.6,-20.06 294.25,-26.54"/>
</g>
<!-- Node16 -->
<g id="node16" class="node">
<title>Node16</title>
<g id="a_node16"><a xlink:title=" ">
<polygon fill="none" stroke="#bfbfbf" points="159,-0.5 159,-19.5 241,-19.5 241,-0.5 159,-0.5"/>
<text text-anchor="middle" x="200" y="-7.5" font-family="Helvetica,sans-Serif" font-size="10.00">avr/eeprom.h</text>
</a>
</g>
</g>
<!-- Node15&#45;&gt;Node16 -->
<g id="edge17" class="edge">
<title>Node15&#45;&gt;Node16</title>
<path fill="none" stroke="midnightblue" d="M192.49,-56.08C193.68,-48.93 195.39,-38.64 196.88,-29.69"/>
<polygon fill="midnightblue" stroke="midnightblue" points="200.35,-30.19 198.54,-19.75 193.45,-29.04 200.35,-30.19"/>
</g>
<!-- Node17&#45;&gt;Node12 -->
<g id="edge20" class="edge">
<title>Node17&#45;&gt;Node12</title>
<path fill="none" stroke="midnightblue" d="M409.45,-56.32C393.01,-47.7 367.57,-34.36 348.53,-24.39"/>
<polygon fill="midnightblue" stroke="midnightblue" points="349.99,-21.2 339.51,-19.65 346.74,-27.4 349.99,-21.2"/>
</g>
<!-- Node17&#45;&gt;Node14 -->
<g id="edge21" class="edge">
<title>Node17&#45;&gt;Node14</title>
<path fill="none" stroke="midnightblue" d="M435.8,-56.32C444.82,-48.34 458.41,-36.31 469.32,-26.65"/>
<polygon fill="midnightblue" stroke="midnightblue" points="471.85,-29.08 477.02,-19.83 467.21,-23.84 471.85,-29.08"/>
</g>
<!-- Node18&#45;&gt;Node4 -->
<g id="edge23" class="edge">
<title>Node18&#45;&gt;Node4</title>
<path fill="none" stroke="midnightblue" d="M647.28,-56.08C651.71,-48.61 658.16,-37.72 663.62,-28.52"/>
<polygon fill="midnightblue" stroke="midnightblue" points="666.73,-30.14 668.81,-19.75 660.71,-26.57 666.73,-30.14"/>
</g>
</g>
</svg>
