<?xml version="1.0" encoding="UTF-8" standalone="no"?>
<!DOCTYPE svg PUBLIC "-//W3C//DTD SVG 1.1//EN"
 "http://www.w3.org/Graphics/SVG/1.1/DTD/svg11.dtd">
<!-- Generated by graphviz version 2.43.0 (0)
 -->
<!-- Title: src/MeStepperOnBoard.h Pages: 1 -->
<svg width="231pt" height="84pt"
 viewBox="0.00 0.00 230.50 84.00" xmlns="http://www.w3.org/2000/svg" xmlns:xlink="http://www.w3.org/1999/xlink">
<g id="graph0" class="graph" transform="scale(1 1) rotate(0) translate(4 80)">
<title>src/MeStepperOnBoard.h</title>
<!-- Node1 -->
<g id="node1" class="node">
<title>Node1</title>
<g id="a_node1"><a xlink:title="Header for MeStepperOnBoard.cpp module.">
<polygon fill="#bfbfbf" stroke="black" points="53,-56.5 53,-75.5 190,-75.5 190,-56.5 53,-56.5"/>
<text text-anchor="middle" x="121.5" y="-63.5" font-family="Helvetica,sans-Serif" font-size="10.00">src/MeStepperOnBoard.h</text>
</a>
</g>
</g>
<!-- Node2 -->
<g id="node2" class="node">
<title>Node2</title>
<g id="a_node2"><a xlink:title=" ">
<polygon fill="none" stroke="#bfbfbf" points="0,-0.5 0,-19.5 77,-19.5 77,-0.5 0,-0.5"/>
<text text-anchor="middle" x="38.5" y="-7.5" font-family="Helvetica,sans-Serif" font-size="10.00">WProgram.h</text>
</a>
</g>
</g>
<!-- Node1&#45;&gt;Node2 -->
<g id="edge1" class="edge">
<title>Node1&#45;&gt;Node2</title>
<path fill="none" stroke="midnightblue" d="M108.16,-56.32C95.34,-47.98 75.72,-35.21 60.56,-25.35"/>
<polygon fill="midnightblue" stroke="midnightblue" points="62.09,-22.17 51.8,-19.65 58.28,-28.04 62.09,-22.17"/>
</g>
<!-- Node3 -->
<g id="node3" class="node">
<title>Node3</title>
<g id="a_node3"><a xlink:title=" ">
<polygon fill="none" stroke="#bfbfbf" points="95,-0.5 95,-19.5 148,-19.5 148,-0.5 95,-0.5"/>
<text text-anchor="middle" x="121.5" y="-7.5" font-family="Helvetica,sans-Serif" font-size="10.00">stdlib.h</text>
</a>
</g>
</g>
<!-- Node1&#45;&gt;Node3 -->
<g id="edge2" class="edge">
<title>Node1&#45;&gt;Node3</title>
<path fill="none" stroke="midnightblue" d="M121.5,-56.08C121.5,-49.01 121.5,-38.86 121.5,-29.99"/>
<polygon fill="midnightblue" stroke="midnightblue" points="125,-29.75 121.5,-19.75 118,-29.75 125,-29.75"/>
</g>
<!-- Node4 -->
<g id="node4" class="node">
<title>Node4</title>
<g id="a_node4"><a xlink:title=" ">
<polygon fill="none" stroke="#bfbfbf" points="166.5,-0.5 166.5,-19.5 222.5,-19.5 222.5,-0.5 166.5,-0.5"/>
<text text-anchor="middle" x="194.5" y="-7.5" font-family="Helvetica,sans-Serif" font-size="10.00">wiring.h</text>
</a>
</g>
</g>
<!-- Node1&#45;&gt;Node4 -->
<g id="edge3" class="edge">
<title>Node1&#45;&gt;Node4</title>
<path fill="none" stroke="midnightblue" d="M133.23,-56.32C144.34,-48.11 161.24,-35.6 174.48,-25.81"/>
<polygon fill="midnightblue" stroke="midnightblue" points="176.6,-28.59 182.56,-19.83 172.44,-22.97 176.6,-28.59"/>
</g>
</g>
</svg>
