<?xml version="1.0" encoding="UTF-8" standalone="no"?>
<!DOCTYPE svg PUBLIC "-//W3C//DTD SVG 1.1//EN"
 "http://www.w3.org/Graphics/SVG/1.1/DTD/svg11.dtd">
<!-- Generated by graphviz version 2.43.0 (0)
 -->
<!-- Title: src/MeStepperOnBoard.h Pages: 1 -->
<svg width="398pt" height="84pt"
 viewBox="0.00 0.00 397.50 84.00" xmlns="http://www.w3.org/2000/svg" xmlns:xlink="http://www.w3.org/1999/xlink">
<g id="graph0" class="graph" transform="scale(1 1) rotate(0) translate(4 80)">
<title>src/MeStepperOnBoard.h</title>
<!-- Node1 -->
<g id="node1" class="node">
<title>Node1</title>
<g id="a_node1"><a xlink:title="Header for MeStepperOnBoard.cpp module.">
<polygon fill="#bfbfbf" stroke="black" points="98.5,-56.5 98.5,-75.5 235.5,-75.5 235.5,-56.5 98.5,-56.5"/>
<text text-anchor="middle" x="167" y="-63.5" font-family="Helvetica,sans-Serif" font-size="10.00">src/MeStepperOnBoard.h</text>
</a>
</g>
</g>
<!-- Node2 -->
<g id="node2" class="node">
<title>Node2</title>
<g id="a_node2"><a xlink:href="MeMegaPi_8h.html" target="_top" xlink:title="Driver for MegaPi board.">
<polygon fill="none" stroke="black" points="0,-0.5 0,-19.5 94,-19.5 94,-0.5 0,-0.5"/>
<text text-anchor="middle" x="47" y="-7.5" font-family="Helvetica,sans-Serif" font-size="10.00">src/MeMegaPi.h</text>
</a>
</g>
</g>
<!-- Node1&#45;&gt;Node2 -->
<g id="edge1" class="edge">
<title>Node1&#45;&gt;Node2</title>
<path fill="none" stroke="midnightblue" d="M138.63,-52.23C116.18,-42.13 85.46,-28.31 65.93,-19.52"/>
<polygon fill="midnightblue" stroke="midnightblue" points="137.43,-55.53 147.99,-56.44 140.3,-49.15 137.43,-55.53"/>
</g>
<!-- Node3 -->
<g id="node3" class="node">
<title>Node3</title>
<g id="a_node3"><a xlink:href="MeMegaPiPro_8h.html" target="_top" xlink:title="Driver for MegaPiPro board.">
<polygon fill="none" stroke="black" points="112,-0.5 112,-19.5 222,-19.5 222,-0.5 112,-0.5"/>
<text text-anchor="middle" x="167" y="-7.5" font-family="Helvetica,sans-Serif" font-size="10.00">src/MeMegaPiPro.h</text>
</a>
</g>
</g>
<!-- Node1&#45;&gt;Node3 -->
<g id="edge2" class="edge">
<title>Node1&#45;&gt;Node3</title>
<path fill="none" stroke="midnightblue" d="M167,-45.8C167,-36.91 167,-26.78 167,-19.75"/>
<polygon fill="midnightblue" stroke="midnightblue" points="163.5,-46.08 167,-56.08 170.5,-46.08 163.5,-46.08"/>
</g>
<!-- Node4 -->
<g id="node4" class="node">
<title>Node4</title>
<g id="a_node4"><a xlink:href="MeStepperOnBoard_8cpp.html" target="_top" xlink:title="Driver for Stepper device.">
<polygon fill="none" stroke="black" points="240.5,-0.5 240.5,-19.5 389.5,-19.5 389.5,-0.5 240.5,-0.5"/>
<text text-anchor="middle" x="315" y="-7.5" font-family="Helvetica,sans-Serif" font-size="10.00">src/MeStepperOnBoard.cpp</text>
</a>
</g>
</g>
<!-- Node1&#45;&gt;Node4 -->
<g id="edge3" class="edge">
<title>Node1&#45;&gt;Node4</title>
<path fill="none" stroke="midnightblue" d="M200.15,-52.91C227.97,-42.75 267.02,-28.51 291.66,-19.52"/>
<polygon fill="midnightblue" stroke="midnightblue" points="198.65,-49.73 190.45,-56.44 201.04,-56.3 198.65,-49.73"/>
</g>
</g>
</svg>
