<?xml version="1.0" encoding="UTF-8" standalone="no"?>
<!DOCTYPE svg PUBLIC "-//W3C//DTD SVG 1.1//EN"
 "http://www.w3.org/Graphics/SVG/1.1/DTD/svg11.dtd">
<!-- Generated by graphviz version 2.43.0 (0)
 -->
<!-- Title: src/MeTemperature.h Pages: 1 -->
<!--zoomable 252 -->
<svg id="main" version="1.1" xmlns="http://www.w3.org/2000/svg" xmlns:xlink="http://www.w3.org/1999/xlink" xml:space="preserve" onload="init(evt)">
<style type="text/css"><![CDATA[
.edge:hover path { stroke: red; }
.edge:hover polygon { stroke: red; fill: red; }
]]></style>
<script type="text/javascript"><![CDATA[
var edges = document.getElementsByTagName('g');
if (edges && edges.length) {
  for (var i=0;i<edges.length;i++) {
    if (edges[i].id.substr(0,4)=='edge') {
      edges[i].setAttribute('class','edge');
    }
  }
}
]]></script>
        <defs>
                <circle id="rim" cx="0" cy="0" r="7"/>
                <circle id="rim2" cx="0" cy="0" r="3.5"/>
                <g id="zoomPlus">
                        <use xlink:href="#rim" fill="#404040">
                                <set attributeName="fill" to="#808080" begin="zoomplus.mouseover" end="zoomplus.mouseout"/>
                        </use>
                        <path d="M-4,0h8M0,-4v8" fill="none" stroke="white" stroke-width="1.5" pointer-events="none"/>
                </g>
                <g id="zoomMin">
                        <use xlink:href="#rim" fill="#404040">
                                <set attributeName="fill" to="#808080" begin="zoomminus.mouseover" end="zoomminus.mouseout"/>
                        </use>
                        <path d="M-4,0h8" fill="none" stroke="white" stroke-width="1.5" pointer-events="none"/>
                </g>
                <g id="dirArrow">
                        <path fill="none" stroke="white" stroke-width="1.5" d="M0,-3.0v7 M-2.5,-0.5L0,-3.0L2.5,-0.5"/>
                </g>
               <g id="resetDef">
                       <use xlink:href="#rim2" fill="#404040">
                               <set attributeName="fill" to="#808080" begin="reset.mouseover" end="reset.mouseout"/>
                       </use>
               </g>
        </defs>

<script type="text/javascript">
var viewWidth = 890;
var viewHeight = 252;
var sectionId = 'dynsection-0';
</script>
<script xlink:href="svgpan.js"/>
<svg id="graph" class="graph">
<g id="viewport">
<title>src/MeTemperature.h</title>
<!-- Node1 -->
<g id="node1" class="node">
<title>Node1</title>
<g id="a_node1"><a xlink:title="Header for MeTemperature.cpp module.">
<polygon fill="#bfbfbf" stroke="black" points="88.58,-224.5 88.58,-243.5 207.58,-243.5 207.58,-224.5 88.58,-224.5"/>
<text text-anchor="middle" x="148.08" y="-231.5" font-family="Helvetica,sans-Serif" font-size="10.00">src/MeTemperature.h</text>
</a>
</g>
</g>
<!-- Node2 -->
<g id="node2" class="node">
<title>Node2</title>
<g id="a_node2"><a xlink:title=" ">
<polygon fill="none" stroke="#bfbfbf" points="130.58,-112.5 130.58,-131.5 183.58,-131.5 183.58,-112.5 130.58,-112.5"/>
<text text-anchor="middle" x="157.08" y="-119.5" font-family="Helvetica,sans-Serif" font-size="10.00">stdint.h</text>
</a>
</g>
</g>
<!-- Node1&#45;&gt;Node2 -->
<g id="edge1" class="edge">
<title>Node1&#45;&gt;Node2</title>
<path fill="none" stroke="midnightblue" d="M152.19,-224.28C156.14,-215.38 161.82,-201.07 164.08,-188 166.73,-172.6 164.51,-154.97 161.89,-141.95"/>
<polygon fill="midnightblue" stroke="midnightblue" points="165.22,-140.85 159.59,-131.88 158.4,-142.41 165.22,-140.85"/>
</g>
<!-- Node3 -->
<g id="node3" class="node">
<title>Node3</title>
<g id="a_node3"><a xlink:title=" ">
<polygon fill="none" stroke="#bfbfbf" points="12.08,-112.5 12.08,-131.5 74.08,-131.5 74.08,-112.5 12.08,-112.5"/>
<text text-anchor="middle" x="43.08" y="-119.5" font-family="Helvetica,sans-Serif" font-size="10.00">stdbool.h</text>
</a>
</g>
</g>
<!-- Node1&#45;&gt;Node3 -->
<g id="edge2" class="edge">
<title>Node1&#45;&gt;Node3</title>
<path fill="none" stroke="midnightblue" d="M119.09,-224.44C100.31,-217.49 76.71,-205.86 62.08,-188 51.26,-174.8 46.6,-155.66 44.59,-141.57"/>
<polygon fill="midnightblue" stroke="midnightblue" points="48.07,-141.12 43.49,-131.56 41.11,-141.89 48.07,-141.12"/>
</g>
<!-- Node4 -->
<g id="node4" class="node">
<title>Node4</title>
<g id="a_node4"><a xlink:title=" ">
<polygon fill="none" stroke="#bfbfbf" points="89.58,-0.5 89.58,-19.5 152.58,-19.5 152.58,-0.5 89.58,-0.5"/>
<text text-anchor="middle" x="121.08" y="-7.5" font-family="Helvetica,sans-Serif" font-size="10.00">Arduino.h</text>
</a>
</g>
</g>
<!-- Node1&#45;&gt;Node4 -->
<g id="edge3" class="edge">
<title>Node1&#45;&gt;Node4</title>
<path fill="none" stroke="midnightblue" d="M119.7,-224.5C82.82,-211.57 21.01,-182.93 3.08,-132 -14.37,-82.42 50.38,-42.98 90.84,-23.76"/>
<polygon fill="midnightblue" stroke="midnightblue" points="92.41,-26.89 100.04,-19.54 89.49,-20.53 92.41,-26.89"/>
</g>
<!-- Node5 -->
<g id="node5" class="node">
<title>Node5</title>
<g id="a_node5"><a xlink:href="MeConfig_8h_source.html" target="_top" xlink:title=" ">
<polygon fill="none" stroke="black" points="323.58,-112.5 323.58,-131.5 394.58,-131.5 394.58,-112.5 323.58,-112.5"/>
<text text-anchor="middle" x="359.08" y="-119.5" font-family="Helvetica,sans-Serif" font-size="10.00">MeConfig.h</text>
</a>
</g>
</g>
<!-- Node1&#45;&gt;Node5 -->
<g id="edge4" class="edge">
<title>Node1&#45;&gt;Node5</title>
<path fill="none" stroke="midnightblue" d="M164.64,-224.37C201.38,-205.21 289.96,-159.04 333.73,-136.22"/>
<polygon fill="midnightblue" stroke="midnightblue" points="335.35,-139.32 342.6,-131.59 332.11,-133.11 335.35,-139.32"/>
</g>
<!-- Node15 -->
<g id="node15" class="node">
<title>Node15</title>
<g id="a_node15"><a xlink:href="MeOneWire_8h.html" target="_top" xlink:title="Header for MeOneWire.cpp module.">
<polygon fill="none" stroke="black" points="71.58,-168.5 71.58,-187.5 154.58,-187.5 154.58,-168.5 71.58,-168.5"/>
<text text-anchor="middle" x="113.08" y="-175.5" font-family="Helvetica,sans-Serif" font-size="10.00">MeOneWire.h</text>
</a>
</g>
</g>
<!-- Node1&#45;&gt;Node15 -->
<g id="edge19" class="edge">
<title>Node1&#45;&gt;Node15</title>
<path fill="none" stroke="midnightblue" d="M142.3,-224.08C137.41,-216.53 130.25,-205.49 124.25,-196.23"/>
<polygon fill="midnightblue" stroke="midnightblue" points="127.13,-194.24 118.75,-187.75 121.25,-198.05 127.13,-194.24"/>
</g>
<!-- Node16 -->
<g id="node16" class="node">
<title>Node16</title>
<g id="a_node16"><a xlink:href="MePort_8h.html" target="_top" xlink:title="Header for MePort.cpp module.">
<polygon fill="none" stroke="black" points="362.08,-168.5 362.08,-187.5 422.08,-187.5 422.08,-168.5 362.08,-168.5"/>
<text text-anchor="middle" x="392.08" y="-175.5" font-family="Helvetica,sans-Serif" font-size="10.00">MePort.h</text>
</a>
</g>
</g>
<!-- Node1&#45;&gt;Node16 -->
<g id="edge24" class="edge">
<title>Node1&#45;&gt;Node16</title>
<path fill="none" stroke="midnightblue" d="M186.74,-224.44C231.97,-214.43 306.46,-197.95 352.2,-187.83"/>
<polygon fill="midnightblue" stroke="midnightblue" points="353.05,-191.22 362.06,-185.64 351.54,-184.39 353.05,-191.22"/>
</g>
<!-- Node6 -->
<g id="node6" class="node">
<title>Node6</title>
<g id="a_node6"><a xlink:href="Servo_8h_source.html" target="_top" xlink:title=" ">
<polygon fill="none" stroke="black" points="502.58,-56.5 502.58,-75.5 587.58,-75.5 587.58,-56.5 502.58,-56.5"/>
<text text-anchor="middle" x="545.08" y="-63.5" font-family="Helvetica,sans-Serif" font-size="10.00">utility/Servo.h</text>
</a>
</g>
</g>
<!-- Node5&#45;&gt;Node6 -->
<g id="edge5" class="edge">
<title>Node5&#45;&gt;Node6</title>
<path fill="none" stroke="midnightblue" d="M388.55,-112.44C420.25,-103.24 470.81,-88.56 505.85,-78.39"/>
<polygon fill="midnightblue" stroke="midnightblue" points="507.12,-81.67 515.74,-75.52 505.17,-74.94 507.12,-81.67"/>
</g>
<!-- Node8 -->
<g id="node8" class="node">
<title>Node8</title>
<g id="a_node8"><a xlink:href="Wire_8h_source.html" target="_top" xlink:title=" ">
<polygon fill="none" stroke="black" points="258.08,-56.5 258.08,-75.5 338.08,-75.5 338.08,-56.5 258.08,-56.5"/>
<text text-anchor="middle" x="298.08" y="-63.5" font-family="Helvetica,sans-Serif" font-size="10.00">utility/Wire.h</text>
</a>
</g>
</g>
<!-- Node5&#45;&gt;Node8 -->
<g id="edge7" class="edge">
<title>Node5&#45;&gt;Node8</title>
<path fill="none" stroke="midnightblue" d="M349.28,-112.32C340.26,-104.34 326.67,-92.31 315.76,-82.65"/>
<polygon fill="midnightblue" stroke="midnightblue" points="317.87,-79.84 308.06,-75.83 313.23,-85.08 317.87,-79.84"/>
</g>
<!-- Node10 -->
<g id="node10" class="node">
<title>Node10</title>
<g id="a_node10"><a xlink:href="EEPROM_8h_source.html" target="_top" xlink:title=" ">
<polygon fill="none" stroke="black" points="606.08,-56.5 606.08,-75.5 704.08,-75.5 704.08,-56.5 606.08,-56.5"/>
<text text-anchor="middle" x="655.08" y="-63.5" font-family="Helvetica,sans-Serif" font-size="10.00">utility/EEPROM.h</text>
</a>
</g>
</g>
<!-- Node5&#45;&gt;Node10 -->
<g id="edge10" class="edge">
<title>Node5&#45;&gt;Node10</title>
<path fill="none" stroke="midnightblue" d="M394.78,-114.49C445.29,-105.27 538.14,-88.33 598.2,-77.38"/>
<polygon fill="midnightblue" stroke="midnightblue" points="599.07,-80.77 608.28,-75.54 597.82,-73.89 599.07,-80.77"/>
</g>
<!-- Node13 -->
<g id="node13" class="node">
<title>Node13</title>
<g id="a_node13"><a xlink:href="SoftwareSerial_8h_source.html" target="_top" xlink:title=" ">
<polygon fill="none" stroke="black" points="356.08,-56.5 356.08,-75.5 484.08,-75.5 484.08,-56.5 356.08,-56.5"/>
<text text-anchor="middle" x="420.08" y="-63.5" font-family="Helvetica,sans-Serif" font-size="10.00">utility/SoftwareSerial.h</text>
</a>
</g>
</g>
<!-- Node5&#45;&gt;Node13 -->
<g id="edge14" class="edge">
<title>Node5&#45;&gt;Node13</title>
<path fill="none" stroke="midnightblue" d="M368.88,-112.32C377.9,-104.34 391.48,-92.31 402.4,-82.65"/>
<polygon fill="midnightblue" stroke="midnightblue" points="404.93,-85.08 410.1,-75.83 400.29,-79.84 404.93,-85.08"/>
</g>
<!-- Node14 -->
<g id="node14" class="node">
<title>Node14</title>
<g id="a_node14"><a xlink:href="SPI_8h_source.html" target="_top" xlink:title=" ">
<polygon fill="none" stroke="black" points="168.08,-56.5 168.08,-75.5 240.08,-75.5 240.08,-56.5 168.08,-56.5"/>
<text text-anchor="middle" x="204.08" y="-63.5" font-family="Helvetica,sans-Serif" font-size="10.00">utility/SPI.h</text>
</a>
</g>
</g>
<!-- Node5&#45;&gt;Node14 -->
<g id="edge17" class="edge">
<title>Node5&#45;&gt;Node14</title>
<path fill="none" stroke="midnightblue" d="M334.52,-112.44C308.56,-103.4 267.41,-89.06 238.28,-78.92"/>
<polygon fill="midnightblue" stroke="midnightblue" points="239.12,-75.5 228.52,-75.52 236.82,-82.11 239.12,-75.5"/>
</g>
<!-- Node7 -->
<g id="node7" class="node">
<title>Node7</title>
<g id="a_node7"><a xlink:title=" ">
<polygon fill="none" stroke="#bfbfbf" points="449.58,-0.5 449.58,-19.5 514.58,-19.5 514.58,-0.5 449.58,-0.5"/>
<text text-anchor="middle" x="482.08" y="-7.5" font-family="Helvetica,sans-Serif" font-size="10.00">inttypes.h</text>
</a>
</g>
</g>
<!-- Node6&#45;&gt;Node7 -->
<g id="edge6" class="edge">
<title>Node6&#45;&gt;Node7</title>
<path fill="none" stroke="midnightblue" d="M534.96,-56.32C525.55,-48.26 511.33,-36.08 500.01,-26.37"/>
<polygon fill="midnightblue" stroke="midnightblue" points="502.26,-23.68 492.38,-19.83 497.7,-29 502.26,-23.68"/>
</g>
<!-- Node8&#45;&gt;Node7 -->
<g id="edge8" class="edge">
<title>Node8&#45;&gt;Node7</title>
<path fill="none" stroke="midnightblue" d="M327.23,-56.44C358.59,-47.24 408.61,-32.56 443.28,-22.39"/>
<polygon fill="midnightblue" stroke="midnightblue" points="444.45,-25.69 453.06,-19.52 442.48,-18.97 444.45,-25.69"/>
</g>
<!-- Node9 -->
<g id="node9" class="node">
<title>Node9</title>
<g id="a_node9"><a xlink:title=" ">
<polygon fill="none" stroke="#bfbfbf" points="287.58,-0.5 287.58,-19.5 348.58,-19.5 348.58,-0.5 287.58,-0.5"/>
<text text-anchor="middle" x="318.08" y="-7.5" font-family="Helvetica,sans-Serif" font-size="10.00">Stream.h</text>
</a>
</g>
</g>
<!-- Node8&#45;&gt;Node9 -->
<g id="edge9" class="edge">
<title>Node8&#45;&gt;Node9</title>
<path fill="none" stroke="midnightblue" d="M301.38,-56.08C304.06,-48.85 307.93,-38.41 311.27,-29.4"/>
<polygon fill="midnightblue" stroke="midnightblue" points="314.65,-30.34 314.84,-19.75 308.08,-27.91 314.65,-30.34"/>
</g>
<!-- Node10&#45;&gt;Node7 -->
<g id="edge11" class="edge">
<title>Node10&#45;&gt;Node7</title>
<path fill="none" stroke="midnightblue" d="M627.67,-56.44C598.31,-47.28 551.56,-32.69 518.98,-22.52"/>
<polygon fill="midnightblue" stroke="midnightblue" points="519.95,-19.16 509.36,-19.52 517.87,-25.84 519.95,-19.16"/>
</g>
<!-- Node11 -->
<g id="node11" class="node">
<title>Node11</title>
<g id="a_node11"><a xlink:title=" ">
<polygon fill="none" stroke="#bfbfbf" points="605.08,-0.5 605.08,-19.5 687.08,-19.5 687.08,-0.5 605.08,-0.5"/>
<text text-anchor="middle" x="646.08" y="-7.5" font-family="Helvetica,sans-Serif" font-size="10.00">avr/eeprom.h</text>
</a>
</g>
</g>
<!-- Node10&#45;&gt;Node11 -->
<g id="edge12" class="edge">
<title>Node10&#45;&gt;Node11</title>
<path fill="none" stroke="midnightblue" d="M653.59,-56.08C652.4,-48.93 650.68,-38.64 649.19,-29.69"/>
<polygon fill="midnightblue" stroke="midnightblue" points="652.63,-29.04 647.54,-19.75 645.73,-30.19 652.63,-29.04"/>
</g>
<!-- Node12 -->
<g id="node12" class="node">
<title>Node12</title>
<g id="a_node12"><a xlink:title=" ">
<polygon fill="none" stroke="#bfbfbf" points="705.58,-0.5 705.58,-19.5 758.58,-19.5 758.58,-0.5 705.58,-0.5"/>
<text text-anchor="middle" x="732.08" y="-7.5" font-family="Helvetica,sans-Serif" font-size="10.00">avr/io.h</text>
</a>
</g>
</g>
<!-- Node10&#45;&gt;Node12 -->
<g id="edge13" class="edge">
<title>Node10&#45;&gt;Node12</title>
<path fill="none" stroke="midnightblue" d="M667.45,-56.32C679.24,-48.06 697.21,-35.45 711.21,-25.63"/>
<polygon fill="midnightblue" stroke="midnightblue" points="713.56,-28.26 719.74,-19.65 709.54,-22.53 713.56,-28.26"/>
</g>
<!-- Node13&#45;&gt;Node7 -->
<g id="edge15" class="edge">
<title>Node13&#45;&gt;Node7</title>
<path fill="none" stroke="midnightblue" d="M430.04,-56.32C439.21,-48.34 453.02,-36.31 464.11,-26.65"/>
<polygon fill="midnightblue" stroke="midnightblue" points="466.69,-29.04 471.94,-19.83 462.1,-23.76 466.69,-29.04"/>
</g>
<!-- Node13&#45;&gt;Node9 -->
<g id="edge16" class="edge">
<title>Node13&#45;&gt;Node9</title>
<path fill="none" stroke="midnightblue" d="M403.69,-56.32C387.41,-47.7 362.21,-34.36 343.36,-24.39"/>
<polygon fill="midnightblue" stroke="midnightblue" points="344.9,-21.24 334.43,-19.65 341.63,-27.43 344.9,-21.24"/>
</g>
<!-- Node14&#45;&gt;Node4 -->
<g id="edge18" class="edge">
<title>Node14&#45;&gt;Node4</title>
<path fill="none" stroke="midnightblue" d="M190.74,-56.32C177.92,-47.98 158.29,-35.21 143.14,-25.35"/>
<polygon fill="midnightblue" stroke="midnightblue" points="144.67,-22.17 134.38,-19.65 140.85,-28.04 144.67,-22.17"/>
</g>
<!-- Node15&#45;&gt;Node2 -->
<g id="edge20" class="edge">
<title>Node15&#45;&gt;Node2</title>
<path fill="none" stroke="midnightblue" d="M120.34,-168.08C126.62,-160.38 135.87,-149.03 143.51,-139.65"/>
<polygon fill="midnightblue" stroke="midnightblue" points="146.34,-141.71 149.95,-131.75 140.92,-137.29 146.34,-141.71"/>
</g>
<!-- Node15&#45;&gt;Node3 -->
<g id="edge21" class="edge">
<title>Node15&#45;&gt;Node3</title>
<path fill="none" stroke="midnightblue" d="M101.83,-168.32C91.28,-160.18 75.28,-147.84 62.64,-138.09"/>
<polygon fill="midnightblue" stroke="midnightblue" points="64.59,-135.17 54.53,-131.83 60.31,-140.71 64.59,-135.17"/>
</g>
<!-- Node15&#45;&gt;Node4 -->
<g id="edge22" class="edge">
<title>Node15&#45;&gt;Node4</title>
<path fill="none" stroke="midnightblue" d="M113.51,-168.08C114.77,-141.95 118.47,-65.21 120.18,-29.58"/>
<polygon fill="midnightblue" stroke="midnightblue" points="123.68,-29.73 120.67,-19.57 116.69,-29.39 123.68,-29.73"/>
</g>
<!-- Node15&#45;&gt;Node5 -->
<g id="edge23" class="edge">
<title>Node15&#45;&gt;Node5</title>
<path fill="none" stroke="midnightblue" d="M152.06,-168.44C195.98,-158.8 267.29,-143.15 313.69,-132.96"/>
<polygon fill="midnightblue" stroke="midnightblue" points="314.46,-136.38 323.48,-130.82 312.96,-129.54 314.46,-136.38"/>
</g>
<!-- Node16&#45;&gt;Node2 -->
<g id="edge29" class="edge">
<title>Node16&#45;&gt;Node2</title>
<path fill="none" stroke="midnightblue" d="M361.84,-170.05C318.73,-160.15 239.74,-142 193.49,-131.37"/>
<polygon fill="midnightblue" stroke="midnightblue" points="194.11,-127.92 183.58,-129.09 192.54,-134.74 194.11,-127.92"/>
</g>
<!-- Node16&#45;&gt;Node4 -->
<g id="edge25" class="edge">
<title>Node16&#45;&gt;Node4</title>
<path fill="none" stroke="midnightblue" d="M361.95,-170.39C314.1,-158.61 219.94,-129.97 159.08,-76 144.6,-63.16 134.16,-43.43 127.93,-29.07"/>
<polygon fill="midnightblue" stroke="midnightblue" points="131.14,-27.69 124.13,-19.75 124.66,-30.33 131.14,-27.69"/>
</g>
<!-- Node16&#45;&gt;Node5 -->
<g id="edge31" class="edge">
<title>Node16&#45;&gt;Node5</title>
<path fill="none" stroke="midnightblue" d="M386.63,-168.08C382.06,-160.61 375.41,-149.72 369.79,-140.52"/>
<polygon fill="midnightblue" stroke="midnightblue" points="372.63,-138.46 364.43,-131.75 366.65,-142.11 372.63,-138.46"/>
</g>
<!-- Node16&#45;&gt;Node12 -->
<g id="edge27" class="edge">
<title>Node16&#45;&gt;Node12</title>
<path fill="none" stroke="midnightblue" d="M422.17,-169.26C497.94,-149.54 692.07,-97.44 713.08,-76 725.02,-63.81 729.53,-44.54 731.2,-30.14"/>
<polygon fill="midnightblue" stroke="midnightblue" points="734.71,-30.11 732.01,-19.87 727.73,-29.56 734.71,-30.11"/>
</g>
<!-- Node17 -->
<g id="node17" class="node">
<title>Node17</title>
<g id="a_node17"><a xlink:title=" ">
<polygon fill="none" stroke="#bfbfbf" points="636.08,-112.5 636.08,-131.5 722.08,-131.5 722.08,-112.5 636.08,-112.5"/>
<text text-anchor="middle" x="679.08" y="-119.5" font-family="Helvetica,sans-Serif" font-size="10.00">avr/interrupt.h</text>
</a>
</g>
</g>
<!-- Node16&#45;&gt;Node17 -->
<g id="edge26" class="edge">
<title>Node16&#45;&gt;Node17</title>
<path fill="none" stroke="midnightblue" d="M422.25,-171.32C470.55,-162.24 565.87,-144.3 625.82,-133.02"/>
<polygon fill="midnightblue" stroke="midnightblue" points="626.67,-136.42 635.85,-131.13 625.38,-129.54 626.67,-136.42"/>
</g>
<!-- Node18 -->
<g id="node18" class="node">
<title>Node18</title>
<g id="a_node18"><a xlink:title=" ">
<polygon fill="none" stroke="#bfbfbf" points="740.08,-112.5 740.08,-131.5 810.08,-131.5 810.08,-112.5 740.08,-112.5"/>
<text text-anchor="middle" x="775.08" y="-119.5" font-family="Helvetica,sans-Serif" font-size="10.00">util/delay.h</text>
</a>
</g>
</g>
<!-- Node16&#45;&gt;Node18 -->
<g id="edge28" class="edge">
<title>Node16&#45;&gt;Node18</title>
<path fill="none" stroke="midnightblue" d="M422.11,-173.73C479.76,-167.29 610.11,-152 729.97,-132.08"/>
<polygon fill="midnightblue" stroke="midnightblue" points="730.77,-135.5 740.06,-130.39 729.61,-128.6 730.77,-135.5"/>
</g>
<!-- Node19 -->
<g id="node19" class="node">
<title>Node19</title>
<g id="a_node19"><a xlink:title=" ">
<polygon fill="none" stroke="#bfbfbf" points="828.58,-112.5 828.58,-131.5 881.58,-131.5 881.58,-112.5 828.58,-112.5"/>
<text text-anchor="middle" x="855.08" y="-119.5" font-family="Helvetica,sans-Serif" font-size="10.00">stdlib.h</text>
</a>
</g>
</g>
<!-- Node16&#45;&gt;Node19 -->
<g id="edge30" class="edge">
<title>Node16&#45;&gt;Node19</title>
<path fill="none" stroke="midnightblue" d="M422.31,-175.27C490.94,-171.04 663.89,-158.63 818.29,-131.89"/>
<polygon fill="midnightblue" stroke="midnightblue" points="819.19,-135.28 828.43,-130.1 817.98,-128.39 819.19,-135.28"/>
</g>
</g>
</svg>
        <g id="navigator" transform="translate(0 0)" fill="#404254">
                <rect fill="#f2f5e9" fill-opacity="0.5" stroke="#606060" stroke-width=".5" x="0" y="0" width="60" height="60"/>
                <use id="zoomplus" xlink:href="#zoomPlus" x="17" y="9" onmousedown="handleZoom(evt,'in')"/>
                <use id="zoomminus" xlink:href="#zoomMin" x="42" y="9" onmousedown="handleZoom(evt,'out')"/>
                <use id="reset" xlink:href="#resetDef" x="30" y="36" onmousedown="handleReset()"/>
                <g id="arrowUp" xlink:href="#dirArrow" transform="translate(30 24)" onmousedown="handlePan(0,-1)">
                  <use xlink:href="#rim" fill="#404040">
                        <set attributeName="fill" to="#808080" begin="arrowUp.mouseover" end="arrowUp.mouseout"/>
                  </use>
                  <path fill="none" stroke="white" stroke-width="1.5" d="M0,-3.0v7 M-2.5,-0.5L0,-3.0L2.5,-0.5"/>
                </g>
                <g id="arrowRight" xlink:href="#dirArrow" transform="rotate(90) translate(36 -43)" onmousedown="handlePan(1,0)">
                  <use xlink:href="#rim" fill="#404040">
                        <set attributeName="fill" to="#808080" begin="arrowRight.mouseover" end="arrowRight.mouseout"/>
                  </use>
                  <path fill="none" stroke="white" stroke-width="1.5" d="M0,-3.0v7 M-2.5,-0.5L0,-3.0L2.5,-0.5"/>
                </g>
                <g id="arrowDown" xlink:href="#dirArrow" transform="rotate(180) translate(-30 -48)" onmousedown="handlePan(0,1)">
                  <use xlink:href="#rim" fill="#404040">
                        <set attributeName="fill" to="#808080" begin="arrowDown.mouseover" end="arrowDown.mouseout"/>
                  </use>
                  <path fill="none" stroke="white" stroke-width="1.5" d="M0,-3.0v7 M-2.5,-0.5L0,-3.0L2.5,-0.5"/>
                </g>
                <g id="arrowLeft" xlink:href="#dirArrow" transform="rotate(270) translate(-36 17)" onmousedown="handlePan(-1,0)">
                  <use xlink:href="#rim" fill="#404040">
                        <set attributeName="fill" to="#808080" begin="arrowLeft.mouseover" end="arrowLeft.mouseout"/>
                  </use>
                  <path fill="none" stroke="white" stroke-width="1.5" d="M0,-3.0v7 M-2.5,-0.5L0,-3.0L2.5,-0.5"/>
                </g>
        </g>
        <svg viewBox="0 0 15 15" width="100%" height="30px" preserveAspectRatio="xMaxYMin meet">
         <g id="arrow_out" transform="scale(0.3 0.3)">
          <a xlink:href="MeTemperature_8h__incl_org.svg" target="_base">
           <rect id="button" ry="5" rx="5" y="6" x="6" height="38" width="38"
                fill="#f2f5e9" fill-opacity="0.5" stroke="#606060" stroke-width="1.0"/>
           <path id="arrow"
             d="M 11.500037,31.436501 C 11.940474,20.09759 22.043105,11.32322 32.158766,21.979434 L 37.068811,17.246167 C 37.068811,17.246167 37.088388,32 37.088388,32 L 22.160133,31.978069 C 22.160133,31.978069 26.997745,27.140456 26.997745,27.140456 C 18.528582,18.264221 13.291696,25.230495 11.500037,31.436501 z"
             style="fill:#404040;"/>
          </a>
         </g>
        </svg>
</svg>
