<?xml version="1.0" encoding="UTF-8" standalone="no"?>
<!DOCTYPE svg PUBLIC "-//W3C//DTD SVG 1.1//EN"
 "http://www.w3.org/Graphics/SVG/1.1/DTD/svg11.dtd">
<!-- Generated by graphviz version 2.43.0 (0)
 -->
<!-- Title: src/MeUSBHost.h Pages: 1 -->
<svg width="912pt" height="308pt"
 viewBox="0.00 0.00 912.00 308.00" xmlns="http://www.w3.org/2000/svg" xmlns:xlink="http://www.w3.org/1999/xlink">
<g id="graph0" class="graph" transform="scale(1 1) rotate(0) translate(4 304)">
<title>src/MeUSBHost.h</title>
<!-- Node1 -->
<g id="node1" class="node">
<title>Node1</title>
<g id="a_node1"><a xlink:title="Header for MeUSBHost.cpp module.">
<polygon fill="#bfbfbf" stroke="black" points="422.5,-280.5 422.5,-299.5 523.5,-299.5 523.5,-280.5 422.5,-280.5"/>
<text text-anchor="middle" x="473" y="-287.5" font-family="Helvetica,sans-Serif" font-size="10.00">src/MeUSBHost.h</text>
</a>
</g>
</g>
<!-- Node2 -->
<g id="node2" class="node">
<title>Node2</title>
<g id="a_node2"><a xlink:title=" ">
<polygon fill="none" stroke="#bfbfbf" points="159.5,-0.5 159.5,-19.5 222.5,-19.5 222.5,-0.5 159.5,-0.5"/>
<text text-anchor="middle" x="191" y="-7.5" font-family="Helvetica,sans-Serif" font-size="10.00">Arduino.h</text>
</a>
</g>
</g>
<!-- Node1&#45;&gt;Node2 -->
<g id="edge1" class="edge">
<title>Node1&#45;&gt;Node2</title>
<path fill="none" stroke="midnightblue" d="M422.38,-287.87C300.36,-283.79 0,-265 0,-179 0,-179 0,-179 0,-121 0,-52.56 93.24,-26.06 149.43,-16.3"/>
<polygon fill="midnightblue" stroke="midnightblue" points="150.15,-19.73 159.46,-14.67 149.03,-12.82 150.15,-19.73"/>
</g>
<!-- Node3 -->
<g id="node3" class="node">
<title>Node3</title>
<g id="a_node3"><a xlink:title=" ">
<polygon fill="none" stroke="#bfbfbf" points="406.5,-112.5 406.5,-131.5 459.5,-131.5 459.5,-112.5 406.5,-112.5"/>
<text text-anchor="middle" x="433" y="-119.5" font-family="Helvetica,sans-Serif" font-size="10.00">stdint.h</text>
</a>
</g>
</g>
<!-- Node1&#45;&gt;Node3 -->
<g id="edge2" class="edge">
<title>Node1&#45;&gt;Node3</title>
<path fill="none" stroke="midnightblue" d="M486.48,-280.41C516.07,-260.47 581.83,-209.6 553,-168 534.4,-141.16 497.69,-130.31 469.75,-125.93"/>
<polygon fill="midnightblue" stroke="midnightblue" points="469.9,-122.42 459.52,-124.55 468.97,-129.35 469.9,-122.42"/>
</g>
<!-- Node4 -->
<g id="node4" class="node">
<title>Node4</title>
<g id="a_node4"><a xlink:title=" ">
<polygon fill="none" stroke="#bfbfbf" points="482,-168.5 482,-187.5 544,-187.5 544,-168.5 482,-168.5"/>
<text text-anchor="middle" x="513" y="-175.5" font-family="Helvetica,sans-Serif" font-size="10.00">stdbool.h</text>
</a>
</g>
</g>
<!-- Node1&#45;&gt;Node4 -->
<g id="edge3" class="edge">
<title>Node1&#45;&gt;Node4</title>
<path fill="none" stroke="midnightblue" d="M476.14,-280.37C482.62,-262.54 497.62,-221.3 506.36,-197.27"/>
<polygon fill="midnightblue" stroke="midnightblue" points="509.75,-198.19 509.88,-187.59 503.17,-195.79 509.75,-198.19"/>
</g>
<!-- Node5 -->
<g id="node5" class="node">
<title>Node5</title>
<g id="a_node5"><a xlink:href="MeConfig_8h_source.html" target="_top" xlink:title=" ">
<polygon fill="none" stroke="black" points="526.5,-112.5 526.5,-131.5 597.5,-131.5 597.5,-112.5 526.5,-112.5"/>
<text text-anchor="middle" x="562" y="-119.5" font-family="Helvetica,sans-Serif" font-size="10.00">MeConfig.h</text>
</a>
</g>
</g>
<!-- Node1&#45;&gt;Node5 -->
<g id="edge4" class="edge">
<title>Node1&#45;&gt;Node5</title>
<path fill="none" stroke="midnightblue" d="M499.9,-280.45C517.95,-273.39 540.92,-261.64 555,-244 578.33,-214.77 572.64,-167.82 566.98,-141.83"/>
<polygon fill="midnightblue" stroke="midnightblue" points="570.31,-140.7 564.57,-131.8 563.5,-142.34 570.31,-140.7"/>
</g>
<!-- Node15 -->
<g id="node15" class="node">
<title>Node15</title>
<g id="a_node15"><a xlink:href="MePort_8h.html" target="_top" xlink:title="Header for MePort.cpp module.">
<polygon fill="none" stroke="black" points="290,-168.5 290,-187.5 350,-187.5 350,-168.5 290,-168.5"/>
<text text-anchor="middle" x="320" y="-175.5" font-family="Helvetica,sans-Serif" font-size="10.00">MePort.h</text>
</a>
</g>
</g>
<!-- Node1&#45;&gt;Node15 -->
<g id="edge19" class="edge">
<title>Node1&#45;&gt;Node15</title>
<path fill="none" stroke="midnightblue" d="M450.45,-280.46C431.25,-272.59 403.44,-259.77 382,-244 363.06,-230.07 344.94,-210.02 333.23,-195.87"/>
<polygon fill="midnightblue" stroke="midnightblue" points="335.82,-193.52 326.82,-187.94 330.38,-197.92 335.82,-193.52"/>
</g>
<!-- Node19 -->
<g id="node19" class="node">
<title>Node19</title>
<g id="a_node19"><a xlink:href="MeSerial_8h.html" target="_top" xlink:title="Header for for MeSerial.cpp module.">
<polygon fill="none" stroke="black" points="391,-224.5 391,-243.5 459,-243.5 459,-224.5 391,-224.5"/>
<text text-anchor="middle" x="425" y="-231.5" font-family="Helvetica,sans-Serif" font-size="10.00">MeSerial.h</text>
</a>
</g>
</g>
<!-- Node1&#45;&gt;Node19 -->
<g id="edge27" class="edge">
<title>Node1&#45;&gt;Node19</title>
<path fill="none" stroke="midnightblue" d="M465.07,-280.08C458.15,-272.3 447.93,-260.8 439.55,-251.37"/>
<polygon fill="midnightblue" stroke="midnightblue" points="442.04,-248.9 432.78,-243.75 436.81,-253.55 442.04,-248.9"/>
</g>
<!-- Node6 -->
<g id="node6" class="node">
<title>Node6</title>
<g id="a_node6"><a xlink:href="Servo_8h_source.html" target="_top" xlink:title=" ">
<polygon fill="none" stroke="black" points="574.5,-56.5 574.5,-75.5 659.5,-75.5 659.5,-56.5 574.5,-56.5"/>
<text text-anchor="middle" x="617" y="-63.5" font-family="Helvetica,sans-Serif" font-size="10.00">utility/Servo.h</text>
</a>
</g>
</g>
<!-- Node5&#45;&gt;Node6 -->
<g id="edge5" class="edge">
<title>Node5&#45;&gt;Node6</title>
<path fill="none" stroke="midnightblue" d="M571.08,-112.08C579.17,-104.14 591.2,-92.34 600.91,-82.8"/>
<polygon fill="midnightblue" stroke="midnightblue" points="603.4,-85.25 608.09,-75.75 598.5,-80.26 603.4,-85.25"/>
</g>
<!-- Node8 -->
<g id="node8" class="node">
<title>Node8</title>
<g id="a_node8"><a xlink:href="Wire_8h_source.html" target="_top" xlink:title=" ">
<polygon fill="none" stroke="black" points="824,-56.5 824,-75.5 904,-75.5 904,-56.5 824,-56.5"/>
<text text-anchor="middle" x="864" y="-63.5" font-family="Helvetica,sans-Serif" font-size="10.00">utility/Wire.h</text>
</a>
</g>
</g>
<!-- Node5&#45;&gt;Node8 -->
<g id="edge7" class="edge">
<title>Node5&#45;&gt;Node8</title>
<path fill="none" stroke="midnightblue" d="M597.63,-114.73C644.75,-106.42 730.65,-91.22 814.01,-76.17"/>
<polygon fill="midnightblue" stroke="midnightblue" points="814.67,-79.61 823.89,-74.39 813.43,-72.72 814.67,-79.61"/>
</g>
<!-- Node10 -->
<g id="node10" class="node">
<title>Node10</title>
<g id="a_node10"><a xlink:href="EEPROM_8h_source.html" target="_top" xlink:title=" ">
<polygon fill="none" stroke="black" points="458,-56.5 458,-75.5 556,-75.5 556,-56.5 458,-56.5"/>
<text text-anchor="middle" x="507" y="-63.5" font-family="Helvetica,sans-Serif" font-size="10.00">utility/EEPROM.h</text>
</a>
</g>
</g>
<!-- Node5&#45;&gt;Node10 -->
<g id="edge10" class="edge">
<title>Node5&#45;&gt;Node10</title>
<path fill="none" stroke="midnightblue" d="M552.92,-112.08C544.83,-104.14 532.8,-92.34 523.09,-82.8"/>
<polygon fill="midnightblue" stroke="midnightblue" points="525.5,-80.26 515.91,-75.75 520.6,-85.25 525.5,-80.26"/>
</g>
<!-- Node13 -->
<g id="node13" class="node">
<title>Node13</title>
<g id="a_node13"><a xlink:href="SoftwareSerial_8h_source.html" target="_top" xlink:title=" ">
<polygon fill="none" stroke="black" points="678,-56.5 678,-75.5 806,-75.5 806,-56.5 678,-56.5"/>
<text text-anchor="middle" x="742" y="-63.5" font-family="Helvetica,sans-Serif" font-size="10.00">utility/SoftwareSerial.h</text>
</a>
</g>
</g>
<!-- Node5&#45;&gt;Node13 -->
<g id="edge14" class="edge">
<title>Node5&#45;&gt;Node13</title>
<path fill="none" stroke="midnightblue" d="M590.52,-112.44C621.07,-103.28 669.71,-88.69 703.6,-78.52"/>
<polygon fill="midnightblue" stroke="midnightblue" points="705.04,-81.74 713.61,-75.52 703.03,-75.04 705.04,-81.74"/>
</g>
<!-- Node14 -->
<g id="node14" class="node">
<title>Node14</title>
<g id="a_node14"><a xlink:href="SPI_8h_source.html" target="_top" xlink:title=" ">
<polygon fill="none" stroke="black" points="368,-56.5 368,-75.5 440,-75.5 440,-56.5 368,-56.5"/>
<text text-anchor="middle" x="404" y="-63.5" font-family="Helvetica,sans-Serif" font-size="10.00">utility/SPI.h</text>
</a>
</g>
</g>
<!-- Node5&#45;&gt;Node14 -->
<g id="edge17" class="edge">
<title>Node5&#45;&gt;Node14</title>
<path fill="none" stroke="midnightblue" d="M536.96,-112.44C510.38,-103.36 468.19,-88.94 438.48,-78.78"/>
<polygon fill="midnightblue" stroke="midnightblue" points="439.51,-75.44 428.92,-75.52 437.25,-82.06 439.51,-75.44"/>
</g>
<!-- Node7 -->
<g id="node7" class="node">
<title>Node7</title>
<g id="a_node7"><a xlink:title=" ">
<polygon fill="none" stroke="#bfbfbf" points="606.5,-0.5 606.5,-19.5 671.5,-19.5 671.5,-0.5 606.5,-0.5"/>
<text text-anchor="middle" x="639" y="-7.5" font-family="Helvetica,sans-Serif" font-size="10.00">inttypes.h</text>
</a>
</g>
</g>
<!-- Node6&#45;&gt;Node7 -->
<g id="edge6" class="edge">
<title>Node6&#45;&gt;Node7</title>
<path fill="none" stroke="midnightblue" d="M620.63,-56.08C623.61,-48.77 627.93,-38.18 631.62,-29.1"/>
<polygon fill="midnightblue" stroke="midnightblue" points="634.9,-30.33 635.43,-19.75 628.42,-27.69 634.9,-30.33"/>
</g>
<!-- Node8&#45;&gt;Node7 -->
<g id="edge8" class="edge">
<title>Node8&#45;&gt;Node7</title>
<path fill="none" stroke="midnightblue" d="M828.35,-56.44C788.43,-46.86 723.77,-31.35 681.32,-21.16"/>
<polygon fill="midnightblue" stroke="midnightblue" points="682.1,-17.75 671.56,-18.82 680.47,-24.55 682.1,-17.75"/>
</g>
<!-- Node9 -->
<g id="node9" class="node">
<title>Node9</title>
<g id="a_node9"><a xlink:title=" ">
<polygon fill="none" stroke="#bfbfbf" points="772.5,-0.5 772.5,-19.5 833.5,-19.5 833.5,-0.5 772.5,-0.5"/>
<text text-anchor="middle" x="803" y="-7.5" font-family="Helvetica,sans-Serif" font-size="10.00">Stream.h</text>
</a>
</g>
</g>
<!-- Node8&#45;&gt;Node9 -->
<g id="edge9" class="edge">
<title>Node8&#45;&gt;Node9</title>
<path fill="none" stroke="midnightblue" d="M854.2,-56.32C845.18,-48.34 831.59,-36.31 820.68,-26.65"/>
<polygon fill="midnightblue" stroke="midnightblue" points="822.79,-23.84 812.98,-19.83 818.15,-29.08 822.79,-23.84"/>
</g>
<!-- Node10&#45;&gt;Node7 -->
<g id="edge11" class="edge">
<title>Node10&#45;&gt;Node7</title>
<path fill="none" stroke="midnightblue" d="M527.92,-56.44C549.74,-47.52 584.15,-33.44 608.89,-23.32"/>
<polygon fill="midnightblue" stroke="midnightblue" points="610.25,-26.54 618.18,-19.52 607.6,-20.06 610.25,-26.54"/>
</g>
<!-- Node11 -->
<g id="node11" class="node">
<title>Node11</title>
<g id="a_node11"><a xlink:title=" ">
<polygon fill="none" stroke="#bfbfbf" points="466,-0.5 466,-19.5 548,-19.5 548,-0.5 466,-0.5"/>
<text text-anchor="middle" x="507" y="-7.5" font-family="Helvetica,sans-Serif" font-size="10.00">avr/eeprom.h</text>
</a>
</g>
</g>
<!-- Node10&#45;&gt;Node11 -->
<g id="edge12" class="edge">
<title>Node10&#45;&gt;Node11</title>
<path fill="none" stroke="midnightblue" d="M507,-56.08C507,-49.01 507,-38.86 507,-29.99"/>
<polygon fill="midnightblue" stroke="midnightblue" points="510.5,-29.75 507,-19.75 503.5,-29.75 510.5,-29.75"/>
</g>
<!-- Node12 -->
<g id="node12" class="node">
<title>Node12</title>
<g id="a_node12"><a xlink:title=" ">
<polygon fill="none" stroke="#bfbfbf" points="353.5,-0.5 353.5,-19.5 406.5,-19.5 406.5,-0.5 353.5,-0.5"/>
<text text-anchor="middle" x="380" y="-7.5" font-family="Helvetica,sans-Serif" font-size="10.00">avr/io.h</text>
</a>
</g>
</g>
<!-- Node10&#45;&gt;Node12 -->
<g id="edge13" class="edge">
<title>Node10&#45;&gt;Node12</title>
<path fill="none" stroke="midnightblue" d="M486.88,-56.44C465.98,-47.56 433.07,-33.56 409.28,-23.45"/>
<polygon fill="midnightblue" stroke="midnightblue" points="410.6,-20.21 400.03,-19.52 407.86,-26.65 410.6,-20.21"/>
</g>
<!-- Node13&#45;&gt;Node7 -->
<g id="edge15" class="edge">
<title>Node13&#45;&gt;Node7</title>
<path fill="none" stroke="midnightblue" d="M725.45,-56.32C709.01,-47.7 683.57,-34.36 664.53,-24.39"/>
<polygon fill="midnightblue" stroke="midnightblue" points="665.99,-21.2 655.51,-19.65 662.74,-27.4 665.99,-21.2"/>
</g>
<!-- Node13&#45;&gt;Node9 -->
<g id="edge16" class="edge">
<title>Node13&#45;&gt;Node9</title>
<path fill="none" stroke="midnightblue" d="M751.8,-56.32C760.82,-48.34 774.41,-36.31 785.32,-26.65"/>
<polygon fill="midnightblue" stroke="midnightblue" points="787.85,-29.08 793.02,-19.83 783.21,-23.84 787.85,-29.08"/>
</g>
<!-- Node14&#45;&gt;Node2 -->
<g id="edge18" class="edge">
<title>Node14&#45;&gt;Node2</title>
<path fill="none" stroke="midnightblue" d="M370.25,-56.44C332.83,-46.96 272.47,-31.65 232.27,-21.46"/>
<polygon fill="midnightblue" stroke="midnightblue" points="233.06,-18.05 222.51,-18.99 231.34,-24.84 233.06,-18.05"/>
</g>
<!-- Node15&#45;&gt;Node2 -->
<g id="edge20" class="edge">
<title>Node15&#45;&gt;Node2</title>
<path fill="none" stroke="midnightblue" d="M289.7,-176.5C227.01,-174.76 86.49,-166.97 57,-132 19.41,-87.43 107.19,-43.75 158,-23.19"/>
<polygon fill="midnightblue" stroke="midnightblue" points="159.3,-26.44 167.32,-19.51 156.73,-19.93 159.3,-26.44"/>
</g>
<!-- Node15&#45;&gt;Node3 -->
<g id="edge24" class="edge">
<title>Node15&#45;&gt;Node3</title>
<path fill="none" stroke="midnightblue" d="M337.91,-168.44C356.25,-159.68 385.01,-145.94 406.09,-135.86"/>
<polygon fill="midnightblue" stroke="midnightblue" points="407.67,-138.99 415.18,-131.52 404.65,-132.67 407.67,-138.99"/>
</g>
<!-- Node15&#45;&gt;Node5 -->
<g id="edge26" class="edge">
<title>Node15&#45;&gt;Node5</title>
<path fill="none" stroke="midnightblue" d="M350.16,-170.27C391.92,-160.95 467.69,-144.05 516.38,-133.18"/>
<polygon fill="midnightblue" stroke="midnightblue" points="517.34,-136.55 526.34,-130.96 515.82,-129.72 517.34,-136.55"/>
</g>
<!-- Node15&#45;&gt;Node12 -->
<g id="edge22" class="edge">
<title>Node15&#45;&gt;Node12</title>
<path fill="none" stroke="midnightblue" d="M322.38,-168.36C327.99,-148.34 342.78,-97.29 359,-56 362.55,-46.97 367.03,-37.19 370.94,-29.06"/>
<polygon fill="midnightblue" stroke="midnightblue" points="374.21,-30.34 375.48,-19.82 367.93,-27.25 374.21,-30.34"/>
</g>
<!-- Node16 -->
<g id="node16" class="node">
<title>Node16</title>
<g id="a_node16"><a xlink:title=" ">
<polygon fill="none" stroke="#bfbfbf" points="66,-112.5 66,-131.5 152,-131.5 152,-112.5 66,-112.5"/>
<text text-anchor="middle" x="109" y="-119.5" font-family="Helvetica,sans-Serif" font-size="10.00">avr/interrupt.h</text>
</a>
</g>
</g>
<!-- Node15&#45;&gt;Node16 -->
<g id="edge21" class="edge">
<title>Node15&#45;&gt;Node16</title>
<path fill="none" stroke="midnightblue" d="M289.77,-169.26C253.66,-160.02 193.01,-144.5 152.02,-134.01"/>
<polygon fill="midnightblue" stroke="midnightblue" points="152.86,-130.61 142.31,-131.52 151.13,-137.39 152.86,-130.61"/>
</g>
<!-- Node17 -->
<g id="node17" class="node">
<title>Node17</title>
<g id="a_node17"><a xlink:title=" ">
<polygon fill="none" stroke="#bfbfbf" points="170,-112.5 170,-131.5 240,-131.5 240,-112.5 170,-112.5"/>
<text text-anchor="middle" x="205" y="-119.5" font-family="Helvetica,sans-Serif" font-size="10.00">util/delay.h</text>
</a>
</g>
</g>
<!-- Node15&#45;&gt;Node17 -->
<g id="edge23" class="edge">
<title>Node15&#45;&gt;Node17</title>
<path fill="none" stroke="midnightblue" d="M301.78,-168.44C283.1,-159.68 253.84,-145.94 232.38,-135.86"/>
<polygon fill="midnightblue" stroke="midnightblue" points="233.68,-132.6 223.14,-131.52 230.7,-138.93 233.68,-132.6"/>
</g>
<!-- Node18 -->
<g id="node18" class="node">
<title>Node18</title>
<g id="a_node18"><a xlink:title=" ">
<polygon fill="none" stroke="#bfbfbf" points="258.5,-112.5 258.5,-131.5 311.5,-131.5 311.5,-112.5 258.5,-112.5"/>
<text text-anchor="middle" x="285" y="-119.5" font-family="Helvetica,sans-Serif" font-size="10.00">stdlib.h</text>
</a>
</g>
</g>
<!-- Node15&#45;&gt;Node18 -->
<g id="edge25" class="edge">
<title>Node15&#45;&gt;Node18</title>
<path fill="none" stroke="midnightblue" d="M314.22,-168.08C309.33,-160.53 302.17,-149.49 296.17,-140.23"/>
<polygon fill="midnightblue" stroke="midnightblue" points="299.05,-138.24 290.67,-131.75 293.17,-142.05 299.05,-138.24"/>
</g>
<!-- Node19&#45;&gt;Node2 -->
<g id="edge30" class="edge">
<title>Node19&#45;&gt;Node2</title>
<path fill="none" stroke="midnightblue" d="M418.39,-224.29C402.55,-203.67 360.72,-150.71 320,-112 284.6,-78.34 238.63,-44.38 212.22,-25.68"/>
<polygon fill="midnightblue" stroke="midnightblue" points="213.93,-22.61 203.74,-19.73 209.91,-28.34 213.93,-22.61"/>
</g>
<!-- Node19&#45;&gt;Node3 -->
<g id="edge28" class="edge">
<title>Node19&#45;&gt;Node3</title>
<path fill="none" stroke="midnightblue" d="M425.63,-224.37C426.92,-206.62 429.9,-165.67 431.65,-141.6"/>
<polygon fill="midnightblue" stroke="midnightblue" points="435.14,-141.82 432.38,-131.59 428.16,-141.31 435.14,-141.82"/>
</g>
<!-- Node19&#45;&gt;Node4 -->
<g id="edge29" class="edge">
<title>Node19&#45;&gt;Node4</title>
<path fill="none" stroke="midnightblue" d="M439.14,-224.32C452.87,-215.9 473.94,-202.97 490.06,-193.07"/>
<polygon fill="midnightblue" stroke="midnightblue" points="492.2,-195.87 498.9,-187.65 488.54,-189.9 492.2,-195.87"/>
</g>
<!-- Node19&#45;&gt;Node5 -->
<g id="edge31" class="edge">
<title>Node19&#45;&gt;Node5</title>
<path fill="none" stroke="midnightblue" d="M429.58,-224.42C437.11,-210.95 453.28,-184.66 473,-168 489.41,-154.14 510.81,-143.15 528.51,-135.5"/>
<polygon fill="midnightblue" stroke="midnightblue" points="530.02,-138.66 537.91,-131.59 527.33,-132.2 530.02,-138.66"/>
</g>
<!-- Node19&#45;&gt;Node15 -->
<g id="edge32" class="edge">
<title>Node19&#45;&gt;Node15</title>
<path fill="none" stroke="midnightblue" d="M408.13,-224.32C391.29,-215.66 365.19,-202.24 345.76,-192.25"/>
<polygon fill="midnightblue" stroke="midnightblue" points="347.32,-189.12 336.83,-187.65 344.12,-195.34 347.32,-189.12"/>
</g>
</g>
</svg>
