<?xml version="1.0" encoding="UTF-8" standalone="no"?>
<!DOCTYPE svg PUBLIC "-//W3C//DTD SVG 1.1//EN"
 "http://www.w3.org/Graphics/SVG/1.1/DTD/svg11.dtd">
<!-- Generated by graphviz version 2.43.0 (0)
 -->
<!-- Title: src/MeWifi.cpp Pages: 1 -->
<!--zoomable 364 -->
<svg id="main" version="1.1" xmlns="http://www.w3.org/2000/svg" xmlns:xlink="http://www.w3.org/1999/xlink" xml:space="preserve" onload="init(evt)">
<style type="text/css"><![CDATA[
.edge:hover path { stroke: red; }
.edge:hover polygon { stroke: red; fill: red; }
]]></style>
<script type="text/javascript"><![CDATA[
var edges = document.getElementsByTagName('g');
if (edges && edges.length) {
  for (var i=0;i<edges.length;i++) {
    if (edges[i].id.substr(0,4)=='edge') {
      edges[i].setAttribute('class','edge');
    }
  }
}
]]></script>
        <defs>
                <circle id="rim" cx="0" cy="0" r="7"/>
                <circle id="rim2" cx="0" cy="0" r="3.5"/>
                <g id="zoomPlus">
                        <use xlink:href="#rim" fill="#404040">
                                <set attributeName="fill" to="#808080" begin="zoomplus.mouseover" end="zoomplus.mouseout"/>
                        </use>
                        <path d="M-4,0h8M0,-4v8" fill="none" stroke="white" stroke-width="1.5" pointer-events="none"/>
                </g>
                <g id="zoomMin">
                        <use xlink:href="#rim" fill="#404040">
                                <set attributeName="fill" to="#808080" begin="zoomminus.mouseover" end="zoomminus.mouseout"/>
                        </use>
                        <path d="M-4,0h8" fill="none" stroke="white" stroke-width="1.5" pointer-events="none"/>
                </g>
                <g id="dirArrow">
                        <path fill="none" stroke="white" stroke-width="1.5" d="M0,-3.0v7 M-2.5,-0.5L0,-3.0L2.5,-0.5"/>
                </g>
               <g id="resetDef">
                       <use xlink:href="#rim2" fill="#404040">
                               <set attributeName="fill" to="#808080" begin="reset.mouseover" end="reset.mouseout"/>
                       </use>
               </g>
        </defs>

<script type="text/javascript">
var viewWidth = 758;
var viewHeight = 364;
var sectionId = 'dynsection-0';
</script>
<script xlink:href="svgpan.js"/>
<svg id="graph" class="graph">
<g id="viewport">
<title>src/MeWifi.cpp</title>
<!-- Node1 -->
<g id="node1" class="node">
<title>Node1</title>
<g id="a_node1"><a xlink:title="Driver for Me wifi device.">
<polygon fill="#bfbfbf" stroke="black" points="505,-336.5 505,-355.5 593,-355.5 593,-336.5 505,-336.5"/>
<text text-anchor="middle" x="549" y="-343.5" font-family="Helvetica,sans-Serif" font-size="10.00">src/MeWifi.cpp</text>
</a>
</g>
</g>
<!-- Node2 -->
<g id="node2" class="node">
<title>Node2</title>
<g id="a_node2"><a xlink:href="MeWifi_8h.html" target="_top" xlink:title="Header for for MeWifi.cpp module.">
<polygon fill="none" stroke="black" points="490.5,-280.5 490.5,-299.5 549.5,-299.5 549.5,-280.5 490.5,-280.5"/>
<text text-anchor="middle" x="520" y="-287.5" font-family="Helvetica,sans-Serif" font-size="10.00">MeWifi.h</text>
</a>
</g>
</g>
<!-- Node1&#45;&gt;Node2 -->
<g id="edge1" class="edge">
<title>Node1&#45;&gt;Node2</title>
<path fill="none" stroke="midnightblue" d="M544.21,-336.08C540.24,-328.69 534.47,-317.95 529.57,-308.81"/>
<polygon fill="midnightblue" stroke="midnightblue" points="532.51,-306.91 524.7,-299.75 526.35,-310.22 532.51,-306.91"/>
</g>
<!-- Node16 -->
<g id="node16" class="node">
<title>Node16</title>
<g id="a_node16"><a xlink:href="MeSerial_8h.html" target="_top" xlink:title="Header for for MeSerial.cpp module.">
<polygon fill="none" stroke="black" points="544,-224.5 544,-243.5 612,-243.5 612,-224.5 544,-224.5"/>
<text text-anchor="middle" x="578" y="-231.5" font-family="Helvetica,sans-Serif" font-size="10.00">MeSerial.h</text>
</a>
</g>
</g>
<!-- Node1&#45;&gt;Node16 -->
<g id="edge34" class="edge">
<title>Node1&#45;&gt;Node16</title>
<path fill="none" stroke="midnightblue" d="M551.28,-336.37C555.98,-318.54 566.85,-277.3 573.18,-253.27"/>
<polygon fill="midnightblue" stroke="midnightblue" points="576.57,-254.15 575.73,-243.59 569.8,-252.37 576.57,-254.15"/>
</g>
<!-- Node3 -->
<g id="node3" class="node">
<title>Node3</title>
<g id="a_node3"><a xlink:title=" ">
<polygon fill="none" stroke="#bfbfbf" points="630.5,-112.5 630.5,-131.5 683.5,-131.5 683.5,-112.5 630.5,-112.5"/>
<text text-anchor="middle" x="657" y="-119.5" font-family="Helvetica,sans-Serif" font-size="10.00">stdint.h</text>
</a>
</g>
</g>
<!-- Node2&#45;&gt;Node3 -->
<g id="edge2" class="edge">
<title>Node2&#45;&gt;Node3</title>
<path fill="none" stroke="midnightblue" d="M549.68,-282.88C572.26,-276.74 602.51,-265.06 621,-244 646.69,-214.73 654.06,-167.79 656.17,-141.82"/>
<polygon fill="midnightblue" stroke="midnightblue" points="659.66,-141.99 656.8,-131.79 652.68,-141.55 659.66,-141.99"/>
</g>
<!-- Node4 -->
<g id="node4" class="node">
<title>Node4</title>
<g id="a_node4"><a xlink:title=" ">
<polygon fill="none" stroke="#bfbfbf" points="413,-168.5 413,-187.5 475,-187.5 475,-168.5 413,-168.5"/>
<text text-anchor="middle" x="444" y="-175.5" font-family="Helvetica,sans-Serif" font-size="10.00">stdbool.h</text>
</a>
</g>
</g>
<!-- Node2&#45;&gt;Node4 -->
<g id="edge3" class="edge">
<title>Node2&#45;&gt;Node4</title>
<path fill="none" stroke="midnightblue" d="M514.04,-280.37C501.49,-262.22 472.19,-219.8 455.74,-195.99"/>
<polygon fill="midnightblue" stroke="midnightblue" points="458.5,-193.83 449.94,-187.59 452.74,-197.81 458.5,-193.83"/>
</g>
<!-- Node5 -->
<g id="node5" class="node">
<title>Node5</title>
<g id="a_node5"><a xlink:title=" ">
<polygon fill="none" stroke="#bfbfbf" points="599.5,-0.5 599.5,-19.5 662.5,-19.5 662.5,-0.5 599.5,-0.5"/>
<text text-anchor="middle" x="631" y="-7.5" font-family="Helvetica,sans-Serif" font-size="10.00">Arduino.h</text>
</a>
</g>
</g>
<!-- Node2&#45;&gt;Node5 -->
<g id="edge4" class="edge">
<title>Node2&#45;&gt;Node5</title>
<path fill="none" stroke="midnightblue" d="M549.6,-288.14C611.72,-284.6 750,-266.86 750,-179 750,-179 750,-179 750,-121 750,-73.3 697.8,-40.53 662.54,-23.84"/>
<polygon fill="midnightblue" stroke="midnightblue" points="663.66,-20.5 653.1,-19.56 660.77,-26.88 663.66,-20.5"/>
</g>
<!-- Node6 -->
<g id="node6" class="node">
<title>Node6</title>
<g id="a_node6"><a xlink:href="MeConfig_8h_source.html" target="_top" xlink:title=" ">
<polygon fill="none" stroke="black" points="200.5,-112.5 200.5,-131.5 271.5,-131.5 271.5,-112.5 200.5,-112.5"/>
<text text-anchor="middle" x="236" y="-119.5" font-family="Helvetica,sans-Serif" font-size="10.00">MeConfig.h</text>
</a>
</g>
</g>
<!-- Node2&#45;&gt;Node6 -->
<g id="edge5" class="edge">
<title>Node2&#45;&gt;Node6</title>
<path fill="none" stroke="midnightblue" d="M505.13,-280.31C458.74,-253.19 316.38,-169.98 259.67,-136.83"/>
<polygon fill="midnightblue" stroke="midnightblue" points="261.12,-133.63 250.72,-131.61 257.59,-139.67 261.12,-133.63"/>
</g>
<!-- Node2&#45;&gt;Node16 -->
<g id="edge20" class="edge">
<title>Node2&#45;&gt;Node16</title>
<path fill="none" stroke="midnightblue" d="M529.32,-280.32C537.89,-272.34 550.81,-260.31 561.19,-250.65"/>
<polygon fill="midnightblue" stroke="midnightblue" points="563.58,-253.21 568.51,-243.83 558.81,-248.09 563.58,-253.21"/>
</g>
<!-- Node17 -->
<g id="node17" class="node">
<title>Node17</title>
<g id="a_node17"><a xlink:href="MePort_8h.html" target="_top" xlink:title="Header for MePort.cpp module.">
<polygon fill="none" stroke="black" points="531,-168.5 531,-187.5 591,-187.5 591,-168.5 531,-168.5"/>
<text text-anchor="middle" x="561" y="-175.5" font-family="Helvetica,sans-Serif" font-size="10.00">MePort.h</text>
</a>
</g>
</g>
<!-- Node2&#45;&gt;Node17 -->
<g id="edge33" class="edge">
<title>Node2&#45;&gt;Node17</title>
<path fill="none" stroke="midnightblue" d="M521.16,-280.34C523.05,-267.65 527.36,-243.39 535,-224 538.8,-214.35 544.44,-204.28 549.49,-196.13"/>
<polygon fill="midnightblue" stroke="midnightblue" points="552.53,-197.87 555.01,-187.57 546.65,-194.08 552.53,-197.87"/>
</g>
<!-- Node7 -->
<g id="node7" class="node">
<title>Node7</title>
<g id="a_node7"><a xlink:href="Servo_8h_source.html" target="_top" xlink:title=" ">
<polygon fill="none" stroke="black" points="244.5,-56.5 244.5,-75.5 329.5,-75.5 329.5,-56.5 244.5,-56.5"/>
<text text-anchor="middle" x="287" y="-63.5" font-family="Helvetica,sans-Serif" font-size="10.00">utility/Servo.h</text>
</a>
</g>
</g>
<!-- Node6&#45;&gt;Node7 -->
<g id="edge6" class="edge">
<title>Node6&#45;&gt;Node7</title>
<path fill="none" stroke="midnightblue" d="M244.42,-112.08C251.85,-104.22 262.85,-92.57 271.81,-83.08"/>
<polygon fill="midnightblue" stroke="midnightblue" points="274.41,-85.42 278.74,-75.75 269.32,-80.62 274.41,-85.42"/>
</g>
<!-- Node9 -->
<g id="node9" class="node">
<title>Node9</title>
<g id="a_node9"><a xlink:href="Wire_8h_source.html" target="_top" xlink:title=" ">
<polygon fill="none" stroke="black" points="0,-56.5 0,-75.5 80,-75.5 80,-56.5 0,-56.5"/>
<text text-anchor="middle" x="40" y="-63.5" font-family="Helvetica,sans-Serif" font-size="10.00">utility/Wire.h</text>
</a>
</g>
</g>
<!-- Node6&#45;&gt;Node9 -->
<g id="edge8" class="edge">
<title>Node6&#45;&gt;Node9</title>
<path fill="none" stroke="midnightblue" d="M204.94,-112.44C171.4,-103.2 117.8,-88.44 80.86,-78.26"/>
<polygon fill="midnightblue" stroke="midnightblue" points="81.48,-74.8 70.91,-75.52 79.62,-81.55 81.48,-74.8"/>
</g>
<!-- Node11 -->
<g id="node11" class="node">
<title>Node11</title>
<g id="a_node11"><a xlink:href="EEPROM_8h_source.html" target="_top" xlink:title=" ">
<polygon fill="none" stroke="black" points="348,-56.5 348,-75.5 446,-75.5 446,-56.5 348,-56.5"/>
<text text-anchor="middle" x="397" y="-63.5" font-family="Helvetica,sans-Serif" font-size="10.00">utility/EEPROM.h</text>
</a>
</g>
</g>
<!-- Node6&#45;&gt;Node11 -->
<g id="edge11" class="edge">
<title>Node6&#45;&gt;Node11</title>
<path fill="none" stroke="midnightblue" d="M261.51,-112.44C288.6,-103.36 331.59,-88.94 361.87,-78.78"/>
<polygon fill="midnightblue" stroke="midnightblue" points="363.24,-82.01 371.61,-75.52 361.01,-75.38 363.24,-82.01"/>
</g>
<!-- Node14 -->
<g id="node14" class="node">
<title>Node14</title>
<g id="a_node14"><a xlink:href="SoftwareSerial_8h_source.html" target="_top" xlink:title=" ">
<polygon fill="none" stroke="black" points="98,-56.5 98,-75.5 226,-75.5 226,-56.5 98,-56.5"/>
<text text-anchor="middle" x="162" y="-63.5" font-family="Helvetica,sans-Serif" font-size="10.00">utility/SoftwareSerial.h</text>
</a>
</g>
</g>
<!-- Node6&#45;&gt;Node14 -->
<g id="edge15" class="edge">
<title>Node6&#45;&gt;Node14</title>
<path fill="none" stroke="midnightblue" d="M224.11,-112.32C212.85,-104.11 195.71,-91.6 182.29,-81.81"/>
<polygon fill="midnightblue" stroke="midnightblue" points="184.25,-78.9 174.11,-75.83 180.12,-84.56 184.25,-78.9"/>
</g>
<!-- Node15 -->
<g id="node15" class="node">
<title>Node15</title>
<g id="a_node15"><a xlink:href="SPI_8h_source.html" target="_top" xlink:title=" ">
<polygon fill="none" stroke="black" points="464,-56.5 464,-75.5 536,-75.5 536,-56.5 464,-56.5"/>
<text text-anchor="middle" x="500" y="-63.5" font-family="Helvetica,sans-Serif" font-size="10.00">utility/SPI.h</text>
</a>
</g>
</g>
<!-- Node6&#45;&gt;Node15 -->
<g id="edge18" class="edge">
<title>Node6&#45;&gt;Node15</title>
<path fill="none" stroke="midnightblue" d="M271.6,-113.72C318.71,-104.08 401.83,-87.08 453.74,-76.46"/>
<polygon fill="midnightblue" stroke="midnightblue" points="454.6,-79.86 463.69,-74.43 453.19,-73 454.6,-79.86"/>
</g>
<!-- Node8 -->
<g id="node8" class="node">
<title>Node8</title>
<g id="a_node8"><a xlink:title=" ">
<polygon fill="none" stroke="#bfbfbf" points="179.5,-0.5 179.5,-19.5 244.5,-19.5 244.5,-0.5 179.5,-0.5"/>
<text text-anchor="middle" x="212" y="-7.5" font-family="Helvetica,sans-Serif" font-size="10.00">inttypes.h</text>
</a>
</g>
</g>
<!-- Node7&#45;&gt;Node8 -->
<g id="edge7" class="edge">
<title>Node7&#45;&gt;Node8</title>
<path fill="none" stroke="midnightblue" d="M274.95,-56.32C263.54,-48.11 246.17,-35.6 232.57,-25.81"/>
<polygon fill="midnightblue" stroke="midnightblue" points="234.43,-22.84 224.27,-19.83 230.34,-28.52 234.43,-22.84"/>
</g>
<!-- Node9&#45;&gt;Node8 -->
<g id="edge9" class="edge">
<title>Node9&#45;&gt;Node8</title>
<path fill="none" stroke="midnightblue" d="M67.25,-56.44C96.44,-47.28 142.92,-32.69 175.31,-22.52"/>
<polygon fill="midnightblue" stroke="midnightblue" points="176.38,-25.85 184.87,-19.52 174.28,-19.17 176.38,-25.85"/>
</g>
<!-- Node10 -->
<g id="node10" class="node">
<title>Node10</title>
<g id="a_node10"><a xlink:title=" ">
<polygon fill="none" stroke="#bfbfbf" points="80.5,-0.5 80.5,-19.5 141.5,-19.5 141.5,-0.5 80.5,-0.5"/>
<text text-anchor="middle" x="111" y="-7.5" font-family="Helvetica,sans-Serif" font-size="10.00">Stream.h</text>
</a>
</g>
</g>
<!-- Node9&#45;&gt;Node10 -->
<g id="edge10" class="edge">
<title>Node9&#45;&gt;Node10</title>
<path fill="none" stroke="midnightblue" d="M51.41,-56.32C62.11,-48.18 78.34,-35.84 91.16,-26.09"/>
<polygon fill="midnightblue" stroke="midnightblue" points="93.54,-28.67 99.39,-19.83 89.31,-23.1 93.54,-28.67"/>
</g>
<!-- Node11&#45;&gt;Node8 -->
<g id="edge12" class="edge">
<title>Node11&#45;&gt;Node8</title>
<path fill="none" stroke="midnightblue" d="M367.69,-56.44C336.16,-47.24 285.87,-32.56 251.01,-22.39"/>
<polygon fill="midnightblue" stroke="midnightblue" points="251.76,-18.96 241.18,-19.52 249.8,-25.68 251.76,-18.96"/>
</g>
<!-- Node12 -->
<g id="node12" class="node">
<title>Node12</title>
<g id="a_node12"><a xlink:title=" ">
<polygon fill="none" stroke="#bfbfbf" points="356,-0.5 356,-19.5 438,-19.5 438,-0.5 356,-0.5"/>
<text text-anchor="middle" x="397" y="-7.5" font-family="Helvetica,sans-Serif" font-size="10.00">avr/eeprom.h</text>
</a>
</g>
</g>
<!-- Node11&#45;&gt;Node12 -->
<g id="edge13" class="edge">
<title>Node11&#45;&gt;Node12</title>
<path fill="none" stroke="midnightblue" d="M397,-56.08C397,-49.01 397,-38.86 397,-29.99"/>
<polygon fill="midnightblue" stroke="midnightblue" points="400.5,-29.75 397,-19.75 393.5,-29.75 400.5,-29.75"/>
</g>
<!-- Node13 -->
<g id="node13" class="node">
<title>Node13</title>
<g id="a_node13"><a xlink:title=" ">
<polygon fill="none" stroke="#bfbfbf" points="507.5,-0.5 507.5,-19.5 560.5,-19.5 560.5,-0.5 507.5,-0.5"/>
<text text-anchor="middle" x="534" y="-7.5" font-family="Helvetica,sans-Serif" font-size="10.00">avr/io.h</text>
</a>
</g>
</g>
<!-- Node11&#45;&gt;Node13 -->
<g id="edge14" class="edge">
<title>Node11&#45;&gt;Node13</title>
<path fill="none" stroke="midnightblue" d="M418.71,-56.44C441.35,-47.52 477.07,-33.44 502.75,-23.32"/>
<polygon fill="midnightblue" stroke="midnightblue" points="504.37,-26.44 512.39,-19.52 501.81,-19.93 504.37,-26.44"/>
</g>
<!-- Node14&#45;&gt;Node8 -->
<g id="edge16" class="edge">
<title>Node14&#45;&gt;Node8</title>
<path fill="none" stroke="midnightblue" d="M170.26,-56.08C177.46,-48.3 188.11,-36.8 196.85,-27.37"/>
<polygon fill="midnightblue" stroke="midnightblue" points="199.67,-29.47 203.9,-19.75 194.53,-24.71 199.67,-29.47"/>
</g>
<!-- Node14&#45;&gt;Node10 -->
<g id="edge17" class="edge">
<title>Node14&#45;&gt;Node10</title>
<path fill="none" stroke="midnightblue" d="M153.58,-56.08C146.15,-48.22 135.15,-36.57 126.19,-27.08"/>
<polygon fill="midnightblue" stroke="midnightblue" points="128.68,-24.62 119.26,-19.75 123.59,-29.42 128.68,-24.62"/>
</g>
<!-- Node15&#45;&gt;Node5 -->
<g id="edge19" class="edge">
<title>Node15&#45;&gt;Node5</title>
<path fill="none" stroke="midnightblue" d="M520.76,-56.44C542.32,-47.56 576.26,-33.56 600.79,-23.45"/>
<polygon fill="midnightblue" stroke="midnightblue" points="602.43,-26.56 610.34,-19.52 599.76,-20.09 602.43,-26.56"/>
</g>
<!-- Node16&#45;&gt;Node3 -->
<g id="edge21" class="edge">
<title>Node16&#45;&gt;Node3</title>
<path fill="none" stroke="midnightblue" d="M584.2,-224.37C597.24,-206.22 627.7,-163.8 644.8,-139.99"/>
<polygon fill="midnightblue" stroke="midnightblue" points="647.84,-141.76 650.83,-131.59 642.15,-137.67 647.84,-141.76"/>
</g>
<!-- Node16&#45;&gt;Node4 -->
<g id="edge22" class="edge">
<title>Node16&#45;&gt;Node4</title>
<path fill="none" stroke="midnightblue" d="M556.77,-224.44C534.62,-215.52 499.68,-201.44 474.56,-191.32"/>
<polygon fill="midnightblue" stroke="midnightblue" points="475.72,-188.01 465.13,-187.52 473.1,-194.5 475.72,-188.01"/>
</g>
<!-- Node16&#45;&gt;Node5 -->
<g id="edge23" class="edge">
<title>Node16&#45;&gt;Node5</title>
<path fill="none" stroke="midnightblue" d="M595.02,-224.37C621.87,-209.66 673.04,-176.92 693,-132 710.22,-93.24 672.72,-49.28 648.83,-26.51"/>
<polygon fill="midnightblue" stroke="midnightblue" points="651.09,-23.83 641.35,-19.64 646.35,-28.99 651.09,-23.83"/>
</g>
<!-- Node16&#45;&gt;Node6 -->
<g id="edge24" class="edge">
<title>Node16&#45;&gt;Node6</title>
<path fill="none" stroke="midnightblue" d="M568.67,-224.46C552.65,-210.29 518.31,-182.11 484,-168 402.16,-134.33 373.04,-147.96 281.78,-132.05"/>
<polygon fill="midnightblue" stroke="midnightblue" points="282.31,-128.59 271.85,-130.24 281.06,-135.47 282.31,-128.59"/>
</g>
<!-- Node16&#45;&gt;Node17 -->
<g id="edge25" class="edge">
<title>Node16&#45;&gt;Node17</title>
<path fill="none" stroke="midnightblue" d="M575.19,-224.08C572.92,-216.85 569.63,-206.41 566.79,-197.4"/>
<polygon fill="midnightblue" stroke="midnightblue" points="570.1,-196.24 563.75,-187.75 563.42,-198.34 570.1,-196.24"/>
</g>
<!-- Node17&#45;&gt;Node3 -->
<g id="edge30" class="edge">
<title>Node17&#45;&gt;Node3</title>
<path fill="none" stroke="midnightblue" d="M576.42,-168.32C591.54,-159.82 614.82,-146.73 632.47,-136.8"/>
<polygon fill="midnightblue" stroke="midnightblue" points="634.61,-139.61 641.61,-131.65 631.18,-133.51 634.61,-139.61"/>
</g>
<!-- Node17&#45;&gt;Node5 -->
<g id="edge26" class="edge">
<title>Node17&#45;&gt;Node5</title>
<path fill="none" stroke="midnightblue" d="M564.76,-168.08C575.83,-141.83 608.42,-64.55 623.36,-29.12"/>
<polygon fill="midnightblue" stroke="midnightblue" points="626.73,-30.14 627.39,-19.57 620.28,-27.42 626.73,-30.14"/>
</g>
<!-- Node17&#45;&gt;Node6 -->
<g id="edge32" class="edge">
<title>Node17&#45;&gt;Node6</title>
<path fill="none" stroke="midnightblue" d="M530.74,-170.6C526.15,-169.69 521.45,-168.79 517,-168 415.71,-149.93 387.2,-150.36 281.92,-132.09"/>
<polygon fill="midnightblue" stroke="midnightblue" points="282.29,-128.6 271.83,-130.32 281.08,-135.49 282.29,-128.6"/>
</g>
<!-- Node17&#45;&gt;Node13 -->
<g id="edge28" class="edge">
<title>Node17&#45;&gt;Node13</title>
<path fill="none" stroke="midnightblue" d="M560.19,-168.44C558.24,-148.58 552.86,-97.86 545,-56 543.35,-47.2 541.05,-37.54 538.98,-29.43"/>
<polygon fill="midnightblue" stroke="midnightblue" points="542.32,-28.35 536.39,-19.57 535.55,-30.13 542.32,-28.35"/>
</g>
<!-- Node18 -->
<g id="node18" class="node">
<title>Node18</title>
<g id="a_node18"><a xlink:title=" ">
<polygon fill="none" stroke="#bfbfbf" points="290,-112.5 290,-131.5 376,-131.5 376,-112.5 290,-112.5"/>
<text text-anchor="middle" x="333" y="-119.5" font-family="Helvetica,sans-Serif" font-size="10.00">avr/interrupt.h</text>
</a>
</g>
</g>
<!-- Node17&#45;&gt;Node18 -->
<g id="edge27" class="edge">
<title>Node17&#45;&gt;Node18</title>
<path fill="none" stroke="midnightblue" d="M530.72,-169.83C491.87,-160.63 424.1,-144.58 378.89,-133.87"/>
<polygon fill="midnightblue" stroke="midnightblue" points="379.58,-130.44 369.05,-131.54 377.97,-137.25 379.58,-130.44"/>
</g>
<!-- Node19 -->
<g id="node19" class="node">
<title>Node19</title>
<g id="a_node19"><a xlink:title=" ">
<polygon fill="none" stroke="#bfbfbf" points="394,-112.5 394,-131.5 464,-131.5 464,-112.5 394,-112.5"/>
<text text-anchor="middle" x="429" y="-119.5" font-family="Helvetica,sans-Serif" font-size="10.00">util/delay.h</text>
</a>
</g>
</g>
<!-- Node17&#45;&gt;Node19 -->
<g id="edge29" class="edge">
<title>Node17&#45;&gt;Node19</title>
<path fill="none" stroke="midnightblue" d="M540.08,-168.44C518.26,-159.52 483.85,-145.44 459.11,-135.32"/>
<polygon fill="midnightblue" stroke="midnightblue" points="460.4,-132.06 449.82,-131.52 457.75,-138.54 460.4,-132.06"/>
</g>
<!-- Node20 -->
<g id="node20" class="node">
<title>Node20</title>
<g id="a_node20"><a xlink:title=" ">
<polygon fill="none" stroke="#bfbfbf" points="482.5,-112.5 482.5,-131.5 535.5,-131.5 535.5,-112.5 482.5,-112.5"/>
<text text-anchor="middle" x="509" y="-119.5" font-family="Helvetica,sans-Serif" font-size="10.00">stdlib.h</text>
</a>
</g>
</g>
<!-- Node17&#45;&gt;Node20 -->
<g id="edge31" class="edge">
<title>Node17&#45;&gt;Node20</title>
<path fill="none" stroke="midnightblue" d="M552.41,-168.08C544.84,-160.22 533.62,-148.57 524.49,-139.08"/>
<polygon fill="midnightblue" stroke="midnightblue" points="526.88,-136.53 517.43,-131.75 521.84,-141.38 526.88,-136.53"/>
</g>
</g>
</svg>
        <g id="navigator" transform="translate(0 0)" fill="#404254">
                <rect fill="#f2f5e9" fill-opacity="0.5" stroke="#606060" stroke-width=".5" x="0" y="0" width="60" height="60"/>
                <use id="zoomplus" xlink:href="#zoomPlus" x="17" y="9" onmousedown="handleZoom(evt,'in')"/>
                <use id="zoomminus" xlink:href="#zoomMin" x="42" y="9" onmousedown="handleZoom(evt,'out')"/>
                <use id="reset" xlink:href="#resetDef" x="30" y="36" onmousedown="handleReset()"/>
                <g id="arrowUp" xlink:href="#dirArrow" transform="translate(30 24)" onmousedown="handlePan(0,-1)">
                  <use xlink:href="#rim" fill="#404040">
                        <set attributeName="fill" to="#808080" begin="arrowUp.mouseover" end="arrowUp.mouseout"/>
                  </use>
                  <path fill="none" stroke="white" stroke-width="1.5" d="M0,-3.0v7 M-2.5,-0.5L0,-3.0L2.5,-0.5"/>
                </g>
                <g id="arrowRight" xlink:href="#dirArrow" transform="rotate(90) translate(36 -43)" onmousedown="handlePan(1,0)">
                  <use xlink:href="#rim" fill="#404040">
                        <set attributeName="fill" to="#808080" begin="arrowRight.mouseover" end="arrowRight.mouseout"/>
                  </use>
                  <path fill="none" stroke="white" stroke-width="1.5" d="M0,-3.0v7 M-2.5,-0.5L0,-3.0L2.5,-0.5"/>
                </g>
                <g id="arrowDown" xlink:href="#dirArrow" transform="rotate(180) translate(-30 -48)" onmousedown="handlePan(0,1)">
                  <use xlink:href="#rim" fill="#404040">
                        <set attributeName="fill" to="#808080" begin="arrowDown.mouseover" end="arrowDown.mouseout"/>
                  </use>
                  <path fill="none" stroke="white" stroke-width="1.5" d="M0,-3.0v7 M-2.5,-0.5L0,-3.0L2.5,-0.5"/>
                </g>
                <g id="arrowLeft" xlink:href="#dirArrow" transform="rotate(270) translate(-36 17)" onmousedown="handlePan(-1,0)">
                  <use xlink:href="#rim" fill="#404040">
                        <set attributeName="fill" to="#808080" begin="arrowLeft.mouseover" end="arrowLeft.mouseout"/>
                  </use>
                  <path fill="none" stroke="white" stroke-width="1.5" d="M0,-3.0v7 M-2.5,-0.5L0,-3.0L2.5,-0.5"/>
                </g>
        </g>
        <svg viewBox="0 0 15 15" width="100%" height="30px" preserveAspectRatio="xMaxYMin meet">
         <g id="arrow_out" transform="scale(0.3 0.3)">
          <a xlink:href="MeWifi_8cpp__incl_org.svg" target="_base">
           <rect id="button" ry="5" rx="5" y="6" x="6" height="38" width="38"
                fill="#f2f5e9" fill-opacity="0.5" stroke="#606060" stroke-width="1.0"/>
           <path id="arrow"
             d="M 11.500037,31.436501 C 11.940474,20.09759 22.043105,11.32322 32.158766,21.979434 L 37.068811,17.246167 C 37.068811,17.246167 37.088388,32 37.088388,32 L 22.160133,31.978069 C 22.160133,31.978069 26.997745,27.140456 26.997745,27.140456 C 18.528582,18.264221 13.291696,25.230495 11.500037,31.436501 z"
             style="fill:#404040;"/>
          </a>
         </g>
        </svg>
</svg>
