<?xml version="1.0" encoding="UTF-8" standalone="no"?>
<!DOCTYPE svg PUBLIC "-//W3C//DTD SVG 1.1//EN"
 "http://www.w3.org/Graphics/SVG/1.1/DTD/svg11.dtd">
<!-- Generated by graphviz version 2.43.0 (0)
 -->
<!-- Title: _USB_CONFIG_DEscriptOR_LONG Pages: 1 -->
<svg width="492pt" height="95pt"
 viewBox="0.00 0.00 491.50 95.00" xmlns="http://www.w3.org/2000/svg" xmlns:xlink="http://www.w3.org/1999/xlink">
<g id="graph0" class="graph" transform="scale(1 1) rotate(0) translate(4 91)">
<title>_USB_CONFIG_DEscriptOR_LONG</title>
<!-- Node1 -->
<g id="node1" class="node">
<title>Node1</title>
<g id="a_node1"><a xlink:title=" ">
<polygon fill="#bfbfbf" stroke="black" points="151,-0.5 151,-19.5 330,-19.5 330,-0.5 151,-0.5"/>
<text text-anchor="middle" x="240.5" y="-7.5" font-family="Helvetica,sans-Serif" font-size="10.00">_USB_CONFIG_DEscriptOR_LONG</text>
</a>
</g>
</g>
<!-- Node2 -->
<g id="node2" class="node">
<title>Node2</title>
<g id="a_node2"><a xlink:href="struct__USB__INTERF__DEscriptOR.html" target="_top" xlink:title=" ">
<polygon fill="none" stroke="black" points="0,-67.5 0,-86.5 143,-86.5 143,-67.5 0,-67.5"/>
<text text-anchor="middle" x="71.5" y="-74.5" font-family="Helvetica,sans-Serif" font-size="10.00">_USB_INTERF_DEscriptOR</text>
</a>
</g>
</g>
<!-- Node2&#45;&gt;Node1 -->
<g id="edge1" class="edge">
<title>Node2&#45;&gt;Node1</title>
<path fill="none" stroke="#9a32cd" stroke-dasharray="5,2" d="M103.3,-63.77C136.84,-50.87 188.82,-30.88 218.23,-19.56"/>
<polygon fill="#9a32cd" stroke="#9a32cd" points="102.02,-60.51 93.94,-67.37 104.53,-67.05 102.02,-60.51"/>
<text text-anchor="middle" x="189.5" y="-41" font-family="Helvetica,sans-Serif" font-size="10.00"> itf_descr</text>
</g>
<!-- Node3 -->
<g id="node3" class="node">
<title>Node3</title>
<g id="a_node3"><a xlink:href="struct__USB__ENDPOINT__DEscriptOR.html" target="_top" xlink:title=" ">
<polygon fill="none" stroke="black" points="161.5,-67.5 161.5,-86.5 319.5,-86.5 319.5,-67.5 161.5,-67.5"/>
<text text-anchor="middle" x="240.5" y="-74.5" font-family="Helvetica,sans-Serif" font-size="10.00">_USB_ENDPOINT_DEscriptOR</text>
</a>
</g>
</g>
<!-- Node3&#45;&gt;Node1 -->
<g id="edge2" class="edge">
<title>Node3&#45;&gt;Node1</title>
<path fill="none" stroke="#9a32cd" stroke-dasharray="5,2" d="M240.5,-57.04C240.5,-44.67 240.5,-29.12 240.5,-19.63"/>
<polygon fill="#9a32cd" stroke="#9a32cd" points="237,-57.23 240.5,-67.23 244,-57.23 237,-57.23"/>
<text text-anchor="middle" x="270" y="-41" font-family="Helvetica,sans-Serif" font-size="10.00"> endp_descr</text>
</g>
<!-- Node4 -->
<g id="node4" class="node">
<title>Node4</title>
<g id="a_node4"><a xlink:href="struct__USB__CONFIG__DEscriptOR.html" target="_top" xlink:title=" ">
<polygon fill="none" stroke="black" points="337.5,-67.5 337.5,-86.5 483.5,-86.5 483.5,-67.5 337.5,-67.5"/>
<text text-anchor="middle" x="410.5" y="-74.5" font-family="Helvetica,sans-Serif" font-size="10.00">_USB_CONFIG_DEscriptOR</text>
</a>
</g>
</g>
<!-- Node4&#45;&gt;Node1 -->
<g id="edge3" class="edge">
<title>Node4&#45;&gt;Node1</title>
<path fill="none" stroke="#9a32cd" stroke-dasharray="5,2" d="M378.52,-63.77C344.78,-50.87 292.48,-30.88 262.9,-19.56"/>
<polygon fill="#9a32cd" stroke="#9a32cd" points="377.33,-67.07 387.93,-67.37 379.83,-60.53 377.33,-67.07"/>
<text text-anchor="middle" x="360.5" y="-41" font-family="Helvetica,sans-Serif" font-size="10.00"> cfg_descr</text>
</g>
</g>
</svg>
